<svg width="1440" height="167" viewBox="0 0 1440 167" fill="none" xmlns="http://www.w3.org/2000/svg">
<rect x="0.5" y="0.5" width="1439" height="166" fill="url(#paint0_linear_152_160)" stroke="black"/>
<path d="M36.8068 44.9091H40.3295V54.625C40.3295 56.0644 40.5805 57.196 41.0824 58.0199C41.5843 58.8343 42.2945 59.4119 43.2131 59.7528C44.1316 60.0843 45.2159 60.25 46.4659 60.25C47.2519 60.25 48.0142 60.2216 48.7528 60.1648C49.4915 60.0985 50.2112 60.0085 50.9119 59.8949C51.6222 59.7812 52.3134 59.6439 52.9858 59.483C53.6676 59.322 54.3352 59.142 54.9886 58.9432V62.125C54.3542 62.3239 53.7244 62.5038 53.0994 62.6648C52.4839 62.8258 51.84 62.9631 51.1676 63.0767C50.5047 63.1903 49.7898 63.2803 49.0227 63.3466C48.2557 63.4034 47.4034 63.4318 46.4659 63.4318C44.4583 63.4318 42.7301 63.143 41.2812 62.5653C39.8419 61.9877 38.7339 61.0549 37.9574 59.767C37.1903 58.4792 36.8068 56.7652 36.8068 54.625V44.9091ZM54.5341 44.9091H58.0568V74H54.5341V44.9091ZM68.0142 69.0568L78.5256 52.1818H82.3892V74H79.0369V57.125L68.5824 74H64.6619V52.1818H68.0142V69.0568ZM97.3928 74.4545C95.3473 74.4545 93.5859 73.9716 92.1087 73.0057C90.6314 72.0398 89.495 70.7093 88.6996 69.0142C87.9041 67.3191 87.5064 65.3826 87.5064 63.2045C87.5064 60.9886 87.9136 59.0331 88.728 57.3381C89.5518 55.6335 90.6977 54.303 92.1655 53.3466C93.6428 52.3807 95.3662 51.8977 97.3359 51.8977C98.87 51.8977 100.253 52.1818 101.484 52.75C102.715 53.3182 103.723 54.1136 104.509 55.1364C105.295 56.1591 105.783 57.3523 105.972 58.7159H102.62C102.364 57.7216 101.796 56.8409 100.915 56.0739C100.044 55.2973 98.87 54.9091 97.3928 54.9091C96.0859 54.9091 94.9401 55.25 93.9553 55.9318C92.9799 56.6042 92.2176 57.5559 91.6683 58.7869C91.1286 60.0085 90.8587 61.4432 90.8587 63.0909C90.8587 64.7765 91.1238 66.2443 91.6541 67.4943C92.1939 68.7443 92.9515 69.715 93.9268 70.4062C94.9117 71.0975 96.067 71.4432 97.3928 71.4432C98.264 71.4432 99.0547 71.2917 99.7649 70.9886C100.475 70.6856 101.076 70.25 101.569 69.6818C102.061 69.1136 102.412 68.4318 102.62 67.6364H105.972C105.783 68.9242 105.314 70.0843 104.566 71.1165C103.827 72.1392 102.847 72.9536 101.626 73.5597C100.414 74.1562 99.0026 74.4545 97.3928 74.4545ZM109.154 55.3068V52.1818H126.881V55.3068H119.722V74H116.37V55.3068H109.154ZM139.502 74.4545C137.532 74.4545 135.804 73.9858 134.317 73.0483C132.84 72.1108 131.685 70.7992 130.852 69.1136C130.028 67.428 129.616 65.4583 129.616 63.2045C129.616 60.9318 130.028 58.9479 130.852 57.2528C131.685 55.5578 132.84 54.2415 134.317 53.304C135.804 52.3665 137.532 51.8977 139.502 51.8977C141.472 51.8977 143.195 52.3665 144.673 53.304C146.159 54.2415 147.315 55.5578 148.138 57.2528C148.972 58.9479 149.388 60.9318 149.388 63.2045C149.388 65.4583 148.972 67.428 148.138 69.1136C147.315 70.7992 146.159 72.1108 144.673 73.0483C143.195 73.9858 141.472 74.4545 139.502 74.4545ZM139.502 71.4432C140.998 71.4432 142.229 71.0597 143.195 70.2926C144.161 69.5256 144.876 68.517 145.34 67.267C145.804 66.017 146.036 64.6629 146.036 63.2045C146.036 61.7462 145.804 60.3873 145.34 59.1278C144.876 57.8684 144.161 56.8504 143.195 56.0739C142.229 55.2973 140.998 54.9091 139.502 54.9091C138.006 54.9091 136.775 55.2973 135.809 56.0739C134.843 56.8504 134.128 57.8684 133.664 59.1278C133.2 60.3873 132.968 61.7462 132.968 63.2045C132.968 64.6629 133.2 66.017 133.664 67.267C134.128 68.517 134.843 69.5256 135.809 70.2926C136.775 71.0597 138.006 71.4432 139.502 71.4432ZM154.506 74V52.1818H171.665V74H168.312V55.3068H157.858V74H154.506ZM186.651 74.4545C184.681 74.4545 182.953 73.9858 181.466 73.0483C179.989 72.1108 178.833 70.7992 178 69.1136C177.176 67.428 176.764 65.4583 176.764 63.2045C176.764 60.9318 177.176 58.9479 178 57.2528C178.833 55.5578 179.989 54.2415 181.466 53.304C182.953 52.3665 184.681 51.8977 186.651 51.8977C188.62 51.8977 190.344 52.3665 191.821 53.304C193.308 54.2415 194.463 55.5578 195.287 57.2528C196.12 58.9479 196.537 60.9318 196.537 63.2045C196.537 65.4583 196.12 67.428 195.287 69.1136C194.463 70.7992 193.308 72.1108 191.821 73.0483C190.344 73.9858 188.62 74.4545 186.651 74.4545ZM186.651 71.4432C188.147 71.4432 189.378 71.0597 190.344 70.2926C191.31 69.5256 192.025 68.517 192.489 67.267C192.953 66.017 193.185 64.6629 193.185 63.2045C193.185 61.7462 192.953 60.3873 192.489 59.1278C192.025 57.8684 191.31 56.8504 190.344 56.0739C189.378 55.2973 188.147 54.9091 186.651 54.9091C185.154 54.9091 183.923 55.2973 182.957 56.0739C181.991 56.8504 181.277 57.8684 180.812 59.1278C180.348 60.3873 180.116 61.7462 180.116 63.2045C180.116 64.6629 180.348 66.017 180.812 67.267C181.277 68.517 181.991 69.5256 182.957 70.2926C183.923 71.0597 185.154 71.4432 186.651 71.4432ZM199.722 74V70.875H200.518C201.171 70.875 201.716 70.7472 202.151 70.4915C202.587 70.2263 202.937 69.767 203.202 69.1136C203.477 68.4508 203.685 67.5322 203.827 66.358C203.979 65.1742 204.088 63.6686 204.154 61.8409L204.552 52.1818H219.097V74H215.745V55.3068H207.734L207.393 63.0909C207.317 64.8807 207.156 66.4574 206.91 67.821C206.673 69.1752 206.308 70.3116 205.816 71.2301C205.333 72.1487 204.689 72.84 203.884 73.304C203.079 73.768 202.071 74 200.859 74H199.722ZM228.146 60.0795H234.396C236.952 60.0795 238.908 60.7282 240.262 62.0256C241.616 63.3229 242.293 64.9659 242.293 66.9545C242.293 68.2614 241.99 69.4498 241.384 70.5199C240.778 71.5805 239.888 72.428 238.714 73.0625C237.54 73.6875 236.1 74 234.396 74H225.248V52.1818H228.6V70.875H234.396C235.721 70.875 236.81 70.5246 237.663 69.8239C238.515 69.1231 238.941 68.2235 238.941 67.125C238.941 65.9697 238.515 65.0275 237.663 64.2983C236.81 63.5691 235.721 63.2045 234.396 63.2045H228.146V60.0795ZM256.26 74.4545C254.214 74.4545 252.453 73.9716 250.976 73.0057C249.499 72.0398 248.362 70.7093 247.567 69.0142C246.771 67.3191 246.374 65.3826 246.374 63.2045C246.374 60.9886 246.781 59.0331 247.595 57.3381C248.419 55.6335 249.565 54.303 251.033 53.3466C252.51 52.3807 254.233 51.8977 256.203 51.8977C257.737 51.8977 259.12 52.1818 260.351 52.75C261.582 53.3182 262.59 54.1136 263.376 55.1364C264.162 56.1591 264.65 57.3523 264.839 58.7159H261.487C261.232 57.7216 260.663 56.8409 259.783 56.0739C258.911 55.2973 257.737 54.9091 256.26 54.9091C254.953 54.9091 253.807 55.25 252.822 55.9318C251.847 56.6042 251.085 57.5559 250.536 58.7869C249.996 60.0085 249.726 61.4432 249.726 63.0909C249.726 64.7765 249.991 66.2443 250.521 67.4943C251.061 68.7443 251.819 69.715 252.794 70.4062C253.779 71.0975 254.934 71.4432 256.26 71.4432C257.131 71.4432 257.922 71.2917 258.632 70.9886C259.342 70.6856 259.944 70.25 260.436 69.6818C260.929 69.1136 261.279 68.4318 261.487 67.6364H264.839C264.65 68.9242 264.181 70.0843 263.433 71.1165C262.695 72.1392 261.714 72.9536 260.493 73.5597C259.281 74.1562 257.87 74.4545 256.26 74.4545ZM269.74 74V52.1818H273.092V61.6705H275.308L283.149 52.1818H287.467L278.661 62.6932L287.581 74H283.263L276.104 64.7955H273.092V74H269.74ZM297.645 74.5114C296.262 74.5114 295.008 74.2509 293.881 73.7301C292.754 73.1998 291.859 72.4375 291.196 71.4432C290.533 70.4394 290.202 69.2273 290.202 67.8068C290.202 66.5568 290.448 65.5436 290.94 64.767C291.433 63.9811 292.091 63.3655 292.915 62.9205C293.739 62.4754 294.648 62.1439 295.642 61.9261C296.646 61.6989 297.654 61.5189 298.668 61.3864C299.993 61.2159 301.068 61.0881 301.892 61.0028C302.725 60.9081 303.331 60.7519 303.71 60.5341C304.098 60.3163 304.293 59.9375 304.293 59.3977V59.2841C304.293 57.8826 303.909 56.7936 303.142 56.017C302.384 55.2405 301.234 54.8523 299.69 54.8523C298.09 54.8523 296.835 55.2027 295.926 55.9034C295.017 56.6042 294.378 57.3523 294.009 58.1477L290.827 57.0114C291.395 55.6856 292.152 54.6534 293.099 53.9148C294.056 53.1667 295.098 52.6458 296.224 52.3523C297.361 52.0492 298.478 51.8977 299.577 51.8977C300.277 51.8977 301.082 51.983 301.991 52.1534C302.91 52.3144 303.795 52.6506 304.648 53.1619C305.509 53.6733 306.224 54.4451 306.793 55.4773C307.361 56.5095 307.645 57.892 307.645 59.625V74H304.293V71.0455H304.122C303.895 71.5189 303.516 72.0256 302.986 72.5653C302.455 73.1051 301.75 73.5644 300.869 73.9432C299.989 74.322 298.914 74.5114 297.645 74.5114ZM298.156 71.5C299.482 71.5 300.599 71.2396 301.509 70.7188C302.427 70.1979 303.118 69.5256 303.582 68.7017C304.056 67.8778 304.293 67.0114 304.293 66.1023V63.0341C304.151 63.2045 303.838 63.3608 303.355 63.5028C302.882 63.6354 302.332 63.7538 301.707 63.858C301.092 63.9527 300.491 64.0379 299.903 64.1136C299.326 64.1799 298.857 64.2367 298.497 64.2841C297.626 64.3977 296.812 64.5824 296.054 64.8381C295.306 65.0843 294.7 65.4583 294.236 65.9602C293.781 66.4527 293.554 67.125 293.554 67.9773C293.554 69.142 293.985 70.0227 294.847 70.6193C295.718 71.2064 296.821 71.5 298.156 71.5ZM326.888 74V55.25H321.093C319.786 55.25 318.759 55.553 318.011 56.1591C317.263 56.7652 316.888 57.5985 316.888 58.6591C316.888 59.7008 317.225 60.5199 317.897 61.1165C318.579 61.7131 319.512 62.0114 320.695 62.0114H327.741V65.1364H320.695C319.218 65.1364 317.944 64.8759 316.874 64.3551C315.804 63.8343 314.98 63.0909 314.403 62.125C313.825 61.1496 313.536 59.9943 313.536 58.6591C313.536 57.3144 313.839 56.1591 314.445 55.1932C315.051 54.2273 315.918 53.4839 317.045 52.9631C318.181 52.4422 319.531 52.1818 321.093 52.1818H330.07V74H326.888ZM312.343 74L318.536 63.1477H322.173L315.979 74H312.343ZM349.634 82.1818C349.065 82.1818 348.559 82.1345 348.114 82.0398C347.669 81.9545 347.361 81.8693 347.19 81.7841L348.043 78.8295C348.857 79.0379 349.577 79.1136 350.202 79.0568C350.827 79 351.381 78.7206 351.864 78.2188C352.356 77.7263 352.806 76.9261 353.213 75.8182L353.838 74.1136L345.77 52.1818H349.406L355.429 69.5682H355.656L361.679 52.1818H365.315L356.054 77.1818C355.637 78.3087 355.121 79.2415 354.506 79.9801C353.89 80.7282 353.175 81.2822 352.361 81.642C351.556 82.0019 350.647 82.1818 349.634 82.1818ZM365.972 74V70.875H366.768C367.421 70.875 367.966 70.7472 368.401 70.4915C368.837 70.2263 369.187 69.767 369.452 69.1136C369.727 68.4508 369.935 67.5322 370.077 66.358C370.229 65.1742 370.338 63.6686 370.404 61.8409L370.802 52.1818H385.347V74H381.995V55.3068H373.984L373.643 63.0909C373.567 64.8807 373.406 66.4574 373.16 67.821C372.923 69.1752 372.558 70.3116 372.066 71.2301C371.583 72.1487 370.939 72.84 370.134 73.304C369.329 73.768 368.321 74 367.109 74H365.972ZM393.941 74.2273C393.24 74.2273 392.639 73.9763 392.137 73.4744C391.635 72.9725 391.384 72.3712 391.384 71.6705C391.384 70.9697 391.635 70.3684 392.137 69.8665C392.639 69.3646 393.24 69.1136 393.941 69.1136C394.642 69.1136 395.243 69.3646 395.745 69.8665C396.247 70.3684 396.498 70.9697 396.498 71.6705C396.498 72.1345 396.379 72.5606 396.143 72.9489C395.915 73.3371 395.608 73.6496 395.219 73.8864C394.841 74.1136 394.415 74.2273 393.941 74.2273ZM423.025 74.3977C421.074 74.3977 419.351 74.0521 417.854 73.3608C416.368 72.66 415.208 71.6989 414.374 70.4773C413.541 69.2462 413.129 67.8447 413.138 66.2727C413.129 65.0417 413.371 63.9053 413.863 62.8636C414.355 61.8125 415.028 60.9366 415.88 60.2358C416.742 59.5256 417.703 59.0758 418.763 58.8864V58.7159C417.371 58.3561 416.263 57.5748 415.44 56.3722C414.616 55.16 414.209 53.7822 414.218 52.2386C414.209 50.7614 414.583 49.4403 415.34 48.2756C416.098 47.1108 417.139 46.1922 418.465 45.5199C419.8 44.8475 421.32 44.5114 423.025 44.5114C424.71 44.5114 426.216 44.8475 427.542 45.5199C428.868 46.1922 429.909 47.1108 430.667 48.2756C431.434 49.4403 431.822 50.7614 431.832 52.2386C431.822 53.7822 431.401 55.16 430.567 56.3722C429.744 57.5748 428.65 58.3561 427.286 58.7159V58.8864C428.337 59.0758 429.284 59.5256 430.127 60.2358C430.97 60.9366 431.642 61.8125 432.144 62.8636C432.646 63.9053 432.902 65.0417 432.911 66.2727C432.902 67.8447 432.476 69.2462 431.633 70.4773C430.799 71.6989 429.639 72.66 428.153 73.3608C426.675 74.0521 424.966 74.3977 423.025 74.3977ZM423.025 71.2727C424.341 71.2727 425.478 71.0597 426.434 70.6335C427.39 70.2074 428.129 69.6061 428.65 68.8295C429.171 68.053 429.436 67.1439 429.445 66.1023C429.436 65.0038 429.152 64.0331 428.593 63.1903C428.034 62.3475 427.272 61.6847 426.306 61.2017C425.35 60.7187 424.256 60.4773 423.025 60.4773C421.784 60.4773 420.676 60.7187 419.701 61.2017C418.735 61.6847 417.973 62.3475 417.414 63.1903C416.865 64.0331 416.595 65.0038 416.604 66.1023C416.595 67.1439 416.846 68.053 417.357 68.8295C417.878 69.6061 418.621 70.2074 419.587 70.6335C420.553 71.0597 421.699 71.2727 423.025 71.2727ZM423.025 57.4659C424.067 57.4659 424.99 57.2576 425.795 56.8409C426.609 56.4242 427.248 55.8419 427.712 55.0938C428.176 54.3456 428.413 53.4697 428.423 52.4659C428.413 51.4811 428.181 50.6241 427.727 49.8949C427.272 49.1562 426.642 48.5881 425.837 48.1903C425.032 47.7831 424.095 47.5795 423.025 47.5795C421.936 47.5795 420.984 47.7831 420.17 48.1903C419.355 48.5881 418.726 49.1562 418.281 49.8949C417.835 50.6241 417.618 51.4811 417.627 52.4659C417.618 53.4697 417.84 54.3456 418.295 55.0938C418.759 55.8419 419.398 56.4242 420.212 56.8409C421.027 57.2576 421.964 57.4659 423.025 57.4659ZM448.014 74.3977C446.821 74.3788 445.628 74.1515 444.435 73.7159C443.241 73.2803 442.152 72.5464 441.168 71.5142C440.183 70.4725 439.392 69.0663 438.795 67.2955C438.199 65.5152 437.901 63.2803 437.901 60.5909C437.901 58.0152 438.142 55.733 438.625 53.7443C439.108 51.7462 439.809 50.0653 440.727 48.7017C441.646 47.3286 442.754 46.2869 444.051 45.5767C445.358 44.8665 446.83 44.5114 448.469 44.5114C450.098 44.5114 451.546 44.8381 452.815 45.4915C454.094 46.1354 455.135 47.035 455.94 48.1903C456.745 49.3456 457.266 50.6761 457.503 52.1818H454.037C453.715 50.875 453.09 49.7907 452.162 48.929C451.234 48.0672 450.003 47.6364 448.469 47.6364C446.215 47.6364 444.439 48.6165 443.142 50.5767C441.854 52.5369 441.205 55.2879 441.196 58.8295H441.423C441.954 58.0246 442.583 57.3381 443.312 56.7699C444.051 56.1922 444.866 55.7472 445.756 55.4347C446.646 55.1222 447.588 54.9659 448.582 54.9659C450.249 54.9659 451.774 55.3826 453.156 56.2159C454.539 57.0398 455.647 58.1809 456.48 59.6392C457.313 61.0881 457.73 62.75 457.73 64.625C457.73 66.4242 457.328 68.072 456.523 69.5682C455.718 71.0549 454.586 72.2386 453.128 73.1193C451.679 73.9905 449.974 74.4167 448.014 74.3977ZM448.014 71.2727C449.207 71.2727 450.277 70.9744 451.224 70.3778C452.181 69.7812 452.934 68.9811 453.483 67.9773C454.042 66.9735 454.321 65.8561 454.321 64.625C454.321 63.4223 454.051 62.3286 453.511 61.3438C452.981 60.3494 452.247 59.5587 451.31 58.9716C450.382 58.3845 449.321 58.0909 448.128 58.0909C447.228 58.0909 446.39 58.2708 445.614 58.6307C444.837 58.9811 444.155 59.464 443.568 60.0795C442.991 60.6951 442.536 61.4006 442.205 62.196C441.873 62.982 441.707 63.8106 441.707 64.6818C441.707 65.8371 441.977 66.9167 442.517 67.9205C443.066 68.9242 443.814 69.7339 444.761 70.3494C445.718 70.965 446.802 71.2727 448.014 71.2727Z" fill="black"/>
<path d="M1153.24 34.9091V64H1149.72V38.6023H1149.55L1142.44 43.3182V39.7386L1149.72 34.9091H1153.24ZM1170.92 64.3977C1168.97 64.3977 1167.25 64.0521 1165.75 63.3608C1164.27 62.66 1163.11 61.6989 1162.27 60.4773C1161.44 59.2462 1161.03 57.8447 1161.04 56.2727C1161.03 55.0417 1161.27 53.9053 1161.76 52.8636C1162.25 51.8125 1162.93 50.9366 1163.78 50.2358C1164.64 49.5256 1165.6 49.0758 1166.66 48.8864V48.7159C1165.27 48.3561 1164.16 47.5748 1163.34 46.3722C1162.51 45.16 1162.11 43.7822 1162.12 42.2386C1162.11 40.7614 1162.48 39.4403 1163.24 38.2756C1164 37.1108 1165.04 36.1922 1166.36 35.5199C1167.7 34.8475 1169.22 34.5114 1170.92 34.5114C1172.61 34.5114 1174.11 34.8475 1175.44 35.5199C1176.77 36.1922 1177.81 37.1108 1178.57 38.2756C1179.33 39.4403 1179.72 40.7614 1179.73 42.2386C1179.72 43.7822 1179.3 45.16 1178.47 46.3722C1177.64 47.5748 1176.55 48.3561 1175.18 48.7159V48.8864C1176.24 49.0758 1177.18 49.5256 1178.03 50.2358C1178.87 50.9366 1179.54 51.8125 1180.04 52.8636C1180.54 53.9053 1180.8 55.0417 1180.81 56.2727C1180.8 57.8447 1180.37 59.2462 1179.53 60.4773C1178.7 61.6989 1177.54 62.66 1176.05 63.3608C1174.57 64.0521 1172.86 64.3977 1170.92 64.3977ZM1170.92 61.2727C1172.24 61.2727 1173.38 61.0597 1174.33 60.6335C1175.29 60.2074 1176.03 59.6061 1176.55 58.8295C1177.07 58.053 1177.33 57.1439 1177.34 56.1023C1177.33 55.0038 1177.05 54.0331 1176.49 53.1903C1175.93 52.3475 1175.17 51.6847 1174.2 51.2017C1173.25 50.7187 1172.15 50.4773 1170.92 50.4773C1169.68 50.4773 1168.57 50.7187 1167.6 51.2017C1166.63 51.6847 1165.87 52.3475 1165.31 53.1903C1164.76 54.0331 1164.49 55.0038 1164.5 56.1023C1164.49 57.1439 1164.74 58.053 1165.26 58.8295C1165.78 59.6061 1166.52 60.2074 1167.49 60.6335C1168.45 61.0597 1169.6 61.2727 1170.92 61.2727ZM1170.92 47.4659C1171.96 47.4659 1172.89 47.2576 1173.69 46.8409C1174.51 46.4242 1175.15 45.8419 1175.61 45.0938C1176.07 44.3456 1176.31 43.4697 1176.32 42.4659C1176.31 41.4811 1176.08 40.6241 1175.62 39.8949C1175.17 39.1562 1174.54 38.5881 1173.74 38.1903C1172.93 37.7831 1171.99 37.5795 1170.92 37.5795C1169.83 37.5795 1168.88 37.7831 1168.07 38.1903C1167.25 38.5881 1166.62 39.1562 1166.18 39.8949C1165.73 40.6241 1165.52 41.4811 1165.53 42.4659C1165.52 43.4697 1165.74 44.3456 1166.19 45.0938C1166.66 45.8419 1167.3 46.4242 1168.11 46.8409C1168.93 47.2576 1169.86 47.4659 1170.92 47.4659ZM1188.75 60.2784C1188.05 60.2784 1187.45 60.0275 1186.95 59.5256C1186.45 59.0237 1186.2 58.4223 1186.2 57.7216C1186.2 57.0208 1186.45 56.4195 1186.95 55.9176C1187.45 55.4157 1188.05 55.1648 1188.75 55.1648C1189.45 55.1648 1190.06 55.4157 1190.56 55.9176C1191.06 56.4195 1191.31 57.0208 1191.31 57.7216C1191.31 58.1856 1191.19 58.6117 1190.96 59C1190.73 59.3883 1190.42 59.7008 1190.03 59.9375C1189.65 60.1648 1189.23 60.2784 1188.75 60.2784ZM1188.75 45.5625C1188.05 45.5625 1187.45 45.3116 1186.95 44.8097C1186.45 44.3078 1186.2 43.7064 1186.2 43.0057C1186.2 42.3049 1186.45 41.7036 1186.95 41.2017C1187.45 40.6998 1188.05 40.4489 1188.75 40.4489C1189.45 40.4489 1190.06 40.6998 1190.56 41.2017C1191.06 41.7036 1191.31 42.3049 1191.31 43.0057C1191.31 43.4697 1191.19 43.8958 1190.96 44.2841C1190.73 44.6723 1190.42 44.9848 1190.03 45.2216C1189.65 45.4489 1189.23 45.5625 1188.75 45.5625ZM1206.76 64.3977C1204.62 64.3977 1202.79 63.8153 1201.29 62.6506C1199.78 61.4763 1198.63 59.7765 1197.84 57.5511C1197.04 55.3163 1196.64 52.6174 1196.64 49.4545C1196.64 46.3106 1197.04 43.6259 1197.84 41.4006C1198.64 39.1657 1199.8 37.4612 1201.3 36.2869C1202.82 35.1032 1204.64 34.5114 1206.76 34.5114C1208.88 34.5114 1210.69 35.1032 1212.2 36.2869C1213.71 37.4612 1214.87 39.1657 1215.66 41.4006C1216.47 43.6259 1216.87 46.3106 1216.87 49.4545C1216.87 52.6174 1216.47 55.3163 1215.68 57.5511C1214.88 59.7765 1213.73 61.4763 1212.23 62.6506C1210.72 63.8153 1208.9 64.3977 1206.76 64.3977ZM1206.76 61.2727C1208.88 61.2727 1210.53 60.25 1211.7 58.2045C1212.88 56.1591 1213.46 53.2424 1213.46 49.4545C1213.46 46.9356 1213.19 44.7907 1212.65 43.0199C1212.12 41.2491 1211.36 39.8996 1210.35 38.9716C1209.36 38.0436 1208.16 37.5795 1206.76 37.5795C1204.66 37.5795 1203.01 38.6165 1201.83 40.6903C1200.65 42.7547 1200.05 45.6761 1200.05 49.4545C1200.05 51.9735 1200.32 54.1136 1200.85 55.875C1201.38 57.6364 1202.14 58.9763 1203.14 59.8949C1204.14 60.8134 1205.35 61.2727 1206.76 61.2727ZM1231.76 64.3977C1229.62 64.3977 1227.79 63.8153 1226.29 62.6506C1224.78 61.4763 1223.63 59.7765 1222.84 57.5511C1222.04 55.3163 1221.64 52.6174 1221.64 49.4545C1221.64 46.3106 1222.04 43.6259 1222.84 41.4006C1223.64 39.1657 1224.8 37.4612 1226.3 36.2869C1227.82 35.1032 1229.64 34.5114 1231.76 34.5114C1233.88 34.5114 1235.69 35.1032 1237.2 36.2869C1238.71 37.4612 1239.87 39.1657 1240.66 41.4006C1241.47 43.6259 1241.87 46.3106 1241.87 49.4545C1241.87 52.6174 1241.47 55.3163 1240.68 57.5511C1239.88 59.7765 1238.73 61.4763 1237.23 62.6506C1235.72 63.8153 1233.9 64.3977 1231.76 64.3977ZM1231.76 61.2727C1233.88 61.2727 1235.53 60.25 1236.7 58.2045C1237.88 56.1591 1238.46 53.2424 1238.46 49.4545C1238.46 46.9356 1238.19 44.7907 1237.65 43.0199C1237.12 41.2491 1236.36 39.8996 1235.35 38.9716C1234.36 38.0436 1233.16 37.5795 1231.76 37.5795C1229.66 37.5795 1228.01 38.6165 1226.83 40.6903C1225.65 42.7547 1225.05 45.6761 1225.05 49.4545C1225.05 51.9735 1225.32 54.1136 1225.85 55.875C1226.38 57.6364 1227.14 58.9763 1228.14 59.8949C1229.14 60.8134 1230.35 61.2727 1231.76 61.2727ZM1271.08 47.892V51.017H1258.35V47.892H1271.08ZM1297.66 64.3977C1295.52 64.3977 1293.69 63.8153 1292.19 62.6506C1290.68 61.4763 1289.53 59.7765 1288.74 57.5511C1287.94 55.3163 1287.54 52.6174 1287.54 49.4545C1287.54 46.3106 1287.94 43.6259 1288.74 41.4006C1289.54 39.1657 1290.7 37.4612 1292.2 36.2869C1293.72 35.1032 1295.54 34.5114 1297.66 34.5114C1299.78 34.5114 1301.59 35.1032 1303.1 36.2869C1304.61 37.4612 1305.77 39.1657 1306.56 41.4006C1307.37 43.6259 1307.77 46.3106 1307.77 49.4545C1307.77 52.6174 1307.37 55.3163 1306.58 57.5511C1305.78 59.7765 1304.63 61.4763 1303.12 62.6506C1301.62 63.8153 1299.8 64.3977 1297.66 64.3977ZM1297.66 61.2727C1299.78 61.2727 1301.43 60.25 1302.6 58.2045C1303.77 56.1591 1304.36 53.2424 1304.36 49.4545C1304.36 46.9356 1304.09 44.7907 1303.55 43.0199C1303.02 41.2491 1302.25 39.8996 1301.25 38.9716C1300.26 38.0436 1299.06 37.5795 1297.66 37.5795C1295.55 37.5795 1293.91 38.6165 1292.73 40.6903C1291.54 42.7547 1290.95 45.6761 1290.95 49.4545C1290.95 51.9735 1291.22 54.1136 1291.75 55.875C1292.28 57.6364 1293.04 58.9763 1294.03 59.8949C1295.04 60.8134 1296.25 61.2727 1297.66 61.2727ZM1322.66 64.3977C1320.52 64.3977 1318.69 63.8153 1317.19 62.6506C1315.68 61.4763 1314.53 59.7765 1313.74 57.5511C1312.94 55.3163 1312.54 52.6174 1312.54 49.4545C1312.54 46.3106 1312.94 43.6259 1313.74 41.4006C1314.54 39.1657 1315.7 37.4612 1317.2 36.2869C1318.72 35.1032 1320.54 34.5114 1322.66 34.5114C1324.78 34.5114 1326.59 35.1032 1328.1 36.2869C1329.61 37.4612 1330.77 39.1657 1331.56 41.4006C1332.37 43.6259 1332.77 46.3106 1332.77 49.4545C1332.77 52.6174 1332.37 55.3163 1331.58 57.5511C1330.78 59.7765 1329.63 61.4763 1328.12 62.6506C1326.62 63.8153 1324.8 64.3977 1322.66 64.3977ZM1322.66 61.2727C1324.78 61.2727 1326.43 60.25 1327.6 58.2045C1328.77 56.1591 1329.36 53.2424 1329.36 49.4545C1329.36 46.9356 1329.09 44.7907 1328.55 43.0199C1328.02 41.2491 1327.25 39.8996 1326.25 38.9716C1325.26 38.0436 1324.06 37.5795 1322.66 37.5795C1320.55 37.5795 1318.91 38.6165 1317.73 40.6903C1316.54 42.7547 1315.95 45.6761 1315.95 49.4545C1315.95 51.9735 1316.22 54.1136 1316.75 55.875C1317.28 57.6364 1318.04 58.9763 1319.03 59.8949C1320.04 60.8134 1321.25 61.2727 1322.66 61.2727ZM1340.67 60.2784C1339.97 60.2784 1339.37 60.0275 1338.86 59.5256C1338.36 59.0237 1338.11 58.4223 1338.11 57.7216C1338.11 57.0208 1338.36 56.4195 1338.86 55.9176C1339.37 55.4157 1339.97 55.1648 1340.67 55.1648C1341.37 55.1648 1341.97 55.4157 1342.47 55.9176C1342.97 56.4195 1343.22 57.0208 1343.22 57.7216C1343.22 58.1856 1343.11 58.6117 1342.87 59C1342.64 59.3883 1342.33 59.7008 1341.95 59.9375C1341.57 60.1648 1341.14 60.2784 1340.67 60.2784ZM1340.67 45.5625C1339.97 45.5625 1339.37 45.3116 1338.86 44.8097C1338.36 44.3078 1338.11 43.7064 1338.11 43.0057C1338.11 42.3049 1338.36 41.7036 1338.86 41.2017C1339.37 40.6998 1339.97 40.4489 1340.67 40.4489C1341.37 40.4489 1341.97 40.6998 1342.47 41.2017C1342.97 41.7036 1343.22 42.3049 1343.22 43.0057C1343.22 43.4697 1343.11 43.8958 1342.87 44.2841C1342.64 44.6723 1342.33 44.9848 1341.95 45.2216C1341.57 45.4489 1341.14 45.5625 1340.67 45.5625ZM1358.67 64.3977C1356.53 64.3977 1354.71 63.8153 1353.2 62.6506C1351.7 61.4763 1350.55 59.7765 1349.75 57.5511C1348.96 55.3163 1348.56 52.6174 1348.56 49.4545C1348.56 46.3106 1348.96 43.6259 1349.75 41.4006C1350.56 39.1657 1351.71 37.4612 1353.22 36.2869C1354.73 35.1032 1356.55 34.5114 1358.67 34.5114C1360.79 34.5114 1362.61 35.1032 1364.11 36.2869C1365.63 37.4612 1366.78 39.1657 1367.58 41.4006C1368.38 43.6259 1368.79 46.3106 1368.79 49.4545C1368.79 52.6174 1368.39 55.3163 1367.59 57.5511C1366.8 59.7765 1365.65 61.4763 1364.14 62.6506C1362.63 63.8153 1360.81 64.3977 1358.67 64.3977ZM1358.67 61.2727C1360.79 61.2727 1362.44 60.25 1363.62 58.2045C1364.79 56.1591 1365.38 53.2424 1365.38 49.4545C1365.38 46.9356 1365.11 44.7907 1364.57 43.0199C1364.04 41.2491 1363.27 39.8996 1362.27 38.9716C1361.27 38.0436 1360.07 37.5795 1358.67 37.5795C1356.57 37.5795 1354.93 38.6165 1353.74 40.6903C1352.56 42.7547 1351.97 45.6761 1351.97 49.4545C1351.97 51.9735 1352.23 54.1136 1352.76 55.875C1353.29 57.6364 1354.06 58.9763 1355.05 59.8949C1356.05 60.8134 1357.26 61.2727 1358.67 61.2727ZM1383.67 64.3977C1381.53 64.3977 1379.71 63.8153 1378.2 62.6506C1376.7 61.4763 1375.55 59.7765 1374.75 57.5511C1373.96 55.3163 1373.56 52.6174 1373.56 49.4545C1373.56 46.3106 1373.96 43.6259 1374.75 41.4006C1375.56 39.1657 1376.71 37.4612 1378.22 36.2869C1379.73 35.1032 1381.55 34.5114 1383.67 34.5114C1385.79 34.5114 1387.61 35.1032 1389.11 36.2869C1390.63 37.4612 1391.78 39.1657 1392.58 41.4006C1393.38 43.6259 1393.79 46.3106 1393.79 49.4545C1393.79 52.6174 1393.39 55.3163 1392.59 57.5511C1391.8 59.7765 1390.65 61.4763 1389.14 62.6506C1387.63 63.8153 1385.81 64.3977 1383.67 64.3977ZM1383.67 61.2727C1385.79 61.2727 1387.44 60.25 1388.62 58.2045C1389.79 56.1591 1390.38 53.2424 1390.38 49.4545C1390.38 46.9356 1390.11 44.7907 1389.57 43.0199C1389.04 41.2491 1388.27 39.8996 1387.27 38.9716C1386.27 38.0436 1385.07 37.5795 1383.67 37.5795C1381.57 37.5795 1379.93 38.6165 1378.74 40.6903C1377.56 42.7547 1376.97 45.6761 1376.97 49.4545C1376.97 51.9735 1377.23 54.1136 1377.76 55.875C1378.29 57.6364 1379.06 58.9763 1380.05 59.8949C1381.05 60.8134 1382.26 61.2727 1383.67 61.2727Z" fill="black"/>
<path opacity="0.8" d="M48.5 149L40.5 138.318H37.6364V149H34.8182V125.727H37.6364V135.818H38.8636L48.1818 125.727H51.5455L42.1364 135.955L51.8636 149H48.5ZM60.2784 149.409C59.1723 149.409 58.1686 149.201 57.267 148.784C56.3655 148.36 55.6496 147.75 55.1193 146.955C54.589 146.152 54.3239 145.182 54.3239 144.045C54.3239 143.045 54.5208 142.235 54.9148 141.614C55.3087 140.985 55.8352 140.492 56.4943 140.136C57.1534 139.78 57.8807 139.515 58.6761 139.341C59.4792 139.159 60.286 139.015 61.0966 138.909C62.1572 138.773 63.017 138.67 63.6761 138.602C64.3428 138.527 64.8277 138.402 65.1307 138.227C65.4413 138.053 65.5966 137.75 65.5966 137.318V137.227C65.5966 136.106 65.2898 135.235 64.6761 134.614C64.0701 133.992 63.1496 133.682 61.9148 133.682C60.6345 133.682 59.6307 133.962 58.9034 134.523C58.1761 135.083 57.6648 135.682 57.3693 136.318L54.8239 135.409C55.2784 134.348 55.8845 133.523 56.642 132.932C57.4072 132.333 58.2405 131.917 59.142 131.682C60.0511 131.439 60.9451 131.318 61.8239 131.318C62.3845 131.318 63.0284 131.386 63.7557 131.523C64.4905 131.652 65.1989 131.92 65.8807 132.33C66.5701 132.739 67.142 133.356 67.5966 134.182C68.0511 135.008 68.2784 136.114 68.2784 137.5V149H65.5966V146.636H65.4602C65.2784 147.015 64.9754 147.42 64.5511 147.852C64.1269 148.284 63.5625 148.652 62.858 148.955C62.1534 149.258 61.2936 149.409 60.2784 149.409ZM60.6875 147C61.7481 147 62.642 146.792 63.3693 146.375C64.1042 145.958 64.6572 145.42 65.0284 144.761C65.4072 144.102 65.5966 143.409 65.5966 142.682V140.227C65.483 140.364 65.233 140.489 64.8466 140.602C64.4678 140.708 64.0284 140.803 63.5284 140.886C63.036 140.962 62.5549 141.03 62.0852 141.091C61.6231 141.144 61.2481 141.189 60.9602 141.227C60.2633 141.318 59.6117 141.466 59.0057 141.67C58.4072 141.867 57.9223 142.167 57.5511 142.568C57.1875 142.962 57.0057 143.5 57.0057 144.182C57.0057 145.114 57.3504 145.818 58.0398 146.295C58.7367 146.765 59.6193 147 60.6875 147ZM72.0824 144.545H74.946C75.0066 145.333 75.3627 145.932 76.0142 146.341C76.6733 146.75 77.5294 146.955 78.5824 146.955C79.6581 146.955 80.5786 146.735 81.3438 146.295C82.1089 145.848 82.4915 145.129 82.4915 144.136C82.4915 143.553 82.3475 143.045 82.0597 142.614C81.7718 142.174 81.3665 141.833 80.8438 141.591C80.321 141.348 79.7036 141.227 78.9915 141.227H75.9915V138.818H78.9915C80.0597 138.818 80.8475 138.576 81.3551 138.091C81.8703 137.606 82.1278 137 82.1278 136.273C82.1278 135.492 81.8513 134.867 81.2983 134.398C80.7453 133.92 79.9612 133.682 78.946 133.682C77.9233 133.682 77.071 133.913 76.3892 134.375C75.7074 134.83 75.3475 135.417 75.3097 136.136H72.4915C72.5218 135.197 72.8097 134.367 73.3551 133.648C73.9006 132.92 74.643 132.352 75.5824 131.943C76.5218 131.527 77.5975 131.318 78.8097 131.318C80.0369 131.318 81.1013 131.534 82.0028 131.966C82.9119 132.39 83.6127 132.97 84.1051 133.705C84.6051 134.432 84.8551 135.258 84.8551 136.182C84.8551 137.167 84.5786 137.962 84.0256 138.568C83.4725 139.174 82.7794 139.606 81.946 139.864V140.045C82.6051 140.091 83.1771 140.303 83.6619 140.682C84.1544 141.053 84.5369 141.542 84.8097 142.148C85.0824 142.746 85.2188 143.409 85.2188 144.136C85.2188 145.197 84.9347 146.121 84.3665 146.909C83.7983 147.689 83.018 148.295 82.0256 148.727C81.0331 149.152 79.9006 149.364 78.6278 149.364C77.393 149.364 76.2869 149.163 75.3097 148.761C74.3324 148.352 73.5559 147.788 72.9801 147.068C72.4119 146.341 72.1127 145.5 72.0824 144.545ZM94.1222 149.409C93.0161 149.409 92.0123 149.201 91.1108 148.784C90.2093 148.36 89.4934 147.75 88.9631 146.955C88.4328 146.152 88.1676 145.182 88.1676 144.045C88.1676 143.045 88.3646 142.235 88.7585 141.614C89.1525 140.985 89.679 140.492 90.3381 140.136C90.9972 139.78 91.7244 139.515 92.5199 139.341C93.3229 139.159 94.1297 139.015 94.9403 138.909C96.0009 138.773 96.8608 138.67 97.5199 138.602C98.1866 138.527 98.6714 138.402 98.9744 138.227C99.285 138.053 99.4403 137.75 99.4403 137.318V137.227C99.4403 136.106 99.1335 135.235 98.5199 134.614C97.9138 133.992 96.9934 133.682 95.7585 133.682C94.4782 133.682 93.4744 133.962 92.7472 134.523C92.0199 135.083 91.5085 135.682 91.2131 136.318L88.6676 135.409C89.1222 134.348 89.7282 133.523 90.4858 132.932C91.2509 132.333 92.0843 131.917 92.9858 131.682C93.8949 131.439 94.7888 131.318 95.6676 131.318C96.2282 131.318 96.8722 131.386 97.5994 131.523C98.3343 131.652 99.0426 131.92 99.7244 132.33C100.414 132.739 100.986 133.356 101.44 134.182C101.895 135.008 102.122 136.114 102.122 137.5V149H99.4403V146.636H99.304C99.1222 147.015 98.8191 147.42 98.3949 147.852C97.9706 148.284 97.4063 148.652 96.7017 148.955C95.9972 149.258 95.1373 149.409 94.1222 149.409ZM94.5312 147C95.5919 147 96.4858 146.792 97.2131 146.375C97.9479 145.958 98.5009 145.42 98.8722 144.761C99.2509 144.102 99.4403 143.409 99.4403 142.682V140.227C99.3267 140.364 99.0767 140.489 98.6903 140.602C98.3116 140.708 97.8722 140.803 97.3722 140.886C96.8797 140.962 96.3987 141.03 95.929 141.091C95.4669 141.144 95.0919 141.189 94.804 141.227C94.107 141.318 93.4555 141.466 92.8494 141.67C92.2509 141.867 91.7661 142.167 91.3949 142.568C91.0313 142.962 90.8494 143.5 90.8494 144.182C90.8494 145.114 91.1941 145.818 91.8835 146.295C92.5805 146.765 93.4631 147 94.5312 147ZM118.699 139.045V141.545H109.062V139.045H118.699ZM109.699 131.545V149H107.017V131.545H109.699ZM120.744 131.545V149H118.062V131.545H120.744ZM127.96 137.864H132.96C135.006 137.864 136.57 138.383 137.653 139.42C138.737 140.458 139.278 141.773 139.278 143.364C139.278 144.409 139.036 145.36 138.551 146.216C138.066 147.064 137.354 147.742 136.415 148.25C135.475 148.75 134.324 149 132.96 149H125.642V131.545H128.324V146.5H132.96C134.021 146.5 134.892 146.22 135.574 145.659C136.256 145.098 136.597 144.379 136.597 143.5C136.597 142.576 136.256 141.822 135.574 141.239C134.892 140.655 134.021 140.364 132.96 140.364H127.96V137.864Z" fill="black"/>
<defs>
<linearGradient id="paint0_linear_152_160" x1="720" y1="0" x2="720" y2="167" gradientUnits="userSpaceOnUse">
<stop stop-color="#FFD9D9"/>
<stop offset="1" stop-color="#FFD9D9" stop-opacity="0"/>
</linearGradient>
</defs>
</svg>
