<svg width="1440" height="167" viewBox="0 0 1440 167" fill="none" xmlns="http://www.w3.org/2000/svg">
<rect x="0.5" y="0.5" width="1439" height="166" fill="url(#paint0_linear_116_500)" stroke="black"/>
<path d="M35.8068 36.9091H39.3295V46.625C39.3295 48.0644 39.5805 49.196 40.0824 50.0199C40.5843 50.8343 41.2945 51.4119 42.2131 51.7528C43.1316 52.0843 44.2159 52.25 45.4659 52.25C46.2519 52.25 47.0142 52.2216 47.7528 52.1648C48.4915 52.0985 49.2112 52.0085 49.9119 51.8949C50.6222 51.7812 51.3134 51.6439 51.9858 51.483C52.6676 51.322 53.3352 51.142 53.9886 50.9432V54.125C53.3542 54.3239 52.7244 54.5038 52.0994 54.6648C51.4839 54.8258 50.84 54.9631 50.1676 55.0767C49.5047 55.1903 48.7898 55.2803 48.0227 55.3466C47.2557 55.4034 46.4034 55.4318 45.4659 55.4318C43.4583 55.4318 41.7301 55.143 40.2812 54.5653C38.8419 53.9877 37.7339 53.0549 36.9574 51.767C36.1903 50.4792 35.8068 48.7652 35.8068 46.625V36.9091ZM53.5341 36.9091H57.0568V66H53.5341V36.9091ZM72.8097 66.4545C70.7074 66.4545 68.8939 65.9905 67.3693 65.0625C65.8542 64.125 64.6847 62.8182 63.8608 61.142C63.0464 59.4564 62.6392 57.4962 62.6392 55.2614C62.6392 53.0265 63.0464 51.0568 63.8608 49.3523C64.6847 47.6383 65.8305 46.303 67.2983 45.3466C68.7756 44.3807 70.4991 43.8977 72.4688 43.8977C73.6051 43.8977 74.7273 44.0871 75.8352 44.4659C76.9432 44.8447 77.9517 45.4602 78.8608 46.3125C79.7699 47.1553 80.4943 48.2727 81.0341 49.6648C81.5739 51.0568 81.8438 52.7708 81.8438 54.8068V56.2273H65.0256V53.3295H78.4347C78.4347 52.0985 78.1884 51 77.696 50.0341C77.2131 49.0682 76.5218 48.3059 75.6222 47.7472C74.732 47.1884 73.6809 46.9091 72.4688 46.9091C71.1335 46.9091 69.9782 47.2405 69.0028 47.9034C68.0369 48.5568 67.2936 49.4091 66.7727 50.4602C66.2519 51.5114 65.9915 52.6383 65.9915 53.8409V55.7727C65.9915 57.4205 66.2756 58.8172 66.8438 59.9631C67.4214 61.0994 68.2216 61.9659 69.2443 62.5625C70.267 63.1496 71.4555 63.4432 72.8097 63.4432C73.6903 63.4432 74.4858 63.3201 75.196 63.0739C75.9157 62.8182 76.536 62.4394 77.0568 61.9375C77.5777 61.4261 77.9801 60.7917 78.2642 60.0341L81.5028 60.9432C81.1619 62.0417 80.589 63.0076 79.7841 63.8409C78.9792 64.6648 77.9848 65.3087 76.8011 65.7727C75.6174 66.2273 74.2869 66.4545 72.8097 66.4545ZM86.9432 74.1818V44.1818H90.1818V47.6477H90.5795C90.8258 47.2689 91.1667 46.786 91.6023 46.1989C92.0473 45.6023 92.6818 45.072 93.5057 44.608C94.339 44.1345 95.4659 43.8977 96.8864 43.8977C98.7235 43.8977 100.343 44.357 101.744 45.2756C103.146 46.1941 104.24 47.4962 105.026 49.1818C105.812 50.8674 106.205 52.8561 106.205 55.1477C106.205 57.4583 105.812 59.4612 105.026 61.1562C104.24 62.8419 103.151 64.1487 101.759 65.0767C100.366 65.9953 98.7614 66.4545 96.9432 66.4545C95.5417 66.4545 94.4195 66.2225 93.5767 65.7585C92.7339 65.285 92.0852 64.75 91.6307 64.1534C91.1761 63.5473 90.8258 63.0455 90.5795 62.6477H90.2955V74.1818H86.9432ZM90.2386 55.0909C90.2386 56.7386 90.4801 58.1922 90.9631 59.4517C91.446 60.7017 92.1515 61.6818 93.0795 62.392C94.0076 63.0928 95.1439 63.4432 96.4886 63.4432C97.8902 63.4432 99.0597 63.0739 99.9972 62.3352C100.944 61.5871 101.654 60.5833 102.128 59.3239C102.611 58.0549 102.852 56.6439 102.852 55.0909C102.852 53.5568 102.616 52.1742 102.142 50.9432C101.678 49.7027 100.973 48.7225 100.026 48.0028C99.0881 47.2737 97.9091 46.9091 96.4886 46.9091C95.125 46.9091 93.9792 47.2547 93.0511 47.946C92.1231 48.6278 91.4223 49.5843 90.9489 50.8153C90.4754 52.0369 90.2386 53.4621 90.2386 55.0909ZM125.92 53.5568V56.6818H113.875V53.5568H125.92ZM114.67 44.1818V66H111.318V44.1818H114.67ZM128.477 44.1818V66H125.125V44.1818H128.477ZM137.497 52.0795H143.747C146.304 52.0795 148.259 52.7282 149.614 54.0256C150.968 55.3229 151.645 56.9659 151.645 58.9545C151.645 60.2614 151.342 61.4498 150.736 62.5199C150.13 63.5805 149.24 64.428 148.065 65.0625C146.891 65.6875 145.452 66 143.747 66H134.599V44.1818H137.952V62.875H143.747C145.073 62.875 146.162 62.5246 147.014 61.8239C147.866 61.1231 148.293 60.2235 148.293 59.125C148.293 57.9697 147.866 57.0275 147.014 56.2983C146.162 55.5691 145.073 55.2045 143.747 55.2045H137.497V52.0795ZM155.111 66V44.1818H158.463V66H155.111ZM164.599 44.1818H167.952V62.875H176.19V44.1818H179.543V62.875H187.781V44.1818H191.134V66H164.599V44.1818ZM206.403 66.4545C204.301 66.4545 202.488 65.9905 200.963 65.0625C199.448 64.125 198.278 62.8182 197.455 61.142C196.64 59.4564 196.233 57.4962 196.233 55.2614C196.233 53.0265 196.64 51.0568 197.455 49.3523C198.278 47.6383 199.424 46.303 200.892 45.3466C202.369 44.3807 204.093 43.8977 206.062 43.8977C207.199 43.8977 208.321 44.0871 209.429 44.4659C210.537 44.8447 211.545 45.4602 212.455 46.3125C213.364 47.1553 214.088 48.2727 214.628 49.6648C215.168 51.0568 215.438 52.7708 215.438 54.8068V56.2273H198.619V53.3295H212.028C212.028 52.0985 211.782 51 211.29 50.0341C210.807 49.0682 210.116 48.3059 209.216 47.7472C208.326 47.1884 207.275 46.9091 206.062 46.9091C204.727 46.9091 203.572 47.2405 202.597 47.9034C201.631 48.5568 200.887 49.4091 200.366 50.4602C199.846 51.5114 199.585 52.6383 199.585 53.8409V55.7727C199.585 57.4205 199.869 58.8172 200.438 59.9631C201.015 61.0994 201.815 61.9659 202.838 62.5625C203.861 63.1496 205.049 63.4432 206.403 63.4432C207.284 63.4432 208.08 63.3201 208.79 63.0739C209.509 62.8182 210.13 62.4394 210.651 61.9375C211.171 61.4261 211.574 60.7917 211.858 60.0341L215.097 60.9432C214.756 62.0417 214.183 63.0076 213.378 63.8409C212.573 64.6648 211.579 65.3087 210.395 65.7727C209.211 66.2273 207.881 66.4545 206.403 66.4545ZM220.537 66V44.1818H229.457C231.806 44.1818 233.671 44.7121 235.054 45.7727C236.437 46.8333 237.128 48.2348 237.128 49.9773C237.128 51.303 236.735 52.3305 235.949 53.0597C235.163 53.7794 234.154 54.267 232.923 54.5227C233.728 54.6364 234.509 54.9205 235.267 55.375C236.034 55.8295 236.669 56.4545 237.17 57.25C237.672 58.036 237.923 59.0019 237.923 60.1477C237.923 61.2652 237.639 62.2642 237.071 63.1449C236.503 64.0256 235.688 64.7216 234.628 65.233C233.567 65.7443 232.298 66 230.821 66H220.537ZM223.719 62.9318H230.821C231.976 62.9318 232.881 62.6572 233.534 62.108C234.188 61.5587 234.514 60.8106 234.514 59.8636C234.514 58.7367 234.188 57.8513 233.534 57.2074C232.881 56.554 231.976 56.2273 230.821 56.2273H223.719V62.9318ZM223.719 53.3295H229.457C230.357 53.3295 231.129 53.2064 231.773 52.9602C232.417 52.7045 232.909 52.3447 233.25 51.8807C233.6 51.4072 233.776 50.8485 233.776 50.2045C233.776 49.286 233.392 48.5663 232.625 48.0455C231.858 47.5152 230.802 47.25 229.457 47.25H223.719V53.3295ZM251.862 66.4545C249.816 66.4545 248.055 65.9716 246.577 65.0057C245.1 64.0398 243.964 62.7093 243.168 61.0142C242.373 59.3191 241.975 57.3826 241.975 55.2045C241.975 52.9886 242.382 51.0331 243.197 49.3381C244.021 47.6335 245.166 46.303 246.634 45.3466C248.112 44.3807 249.835 43.8977 251.805 43.8977C253.339 43.8977 254.721 44.1818 255.952 44.75C257.183 45.3182 258.192 46.1136 258.978 47.1364C259.764 48.1591 260.252 49.3523 260.441 50.7159H257.089C256.833 49.7216 256.265 48.8409 255.384 48.0739C254.513 47.2973 253.339 46.9091 251.862 46.9091C250.555 46.9091 249.409 47.25 248.424 47.9318C247.449 48.6042 246.686 49.5559 246.137 50.7869C245.597 52.0085 245.327 53.4432 245.327 55.0909C245.327 56.7765 245.593 58.2443 246.123 59.4943C246.663 60.7443 247.42 61.715 248.396 62.4062C249.38 63.0975 250.536 63.4432 251.862 63.4432C252.733 63.4432 253.523 63.2917 254.234 62.9886C254.944 62.6856 255.545 62.25 256.038 61.6818C256.53 61.1136 256.88 60.4318 257.089 59.6364H260.441C260.252 60.9242 259.783 62.0843 259.035 63.1165C258.296 64.1392 257.316 64.9536 256.094 65.5597C254.882 66.1562 253.471 66.4545 251.862 66.4545ZM265.342 66V44.1818H268.694V53.6705H270.91L278.751 44.1818H283.069L274.262 54.6932L283.183 66H278.864L271.705 56.7955H268.694V66H265.342ZM294.791 66.4545C292.821 66.4545 291.093 65.9858 289.607 65.0483C288.129 64.1108 286.974 62.7992 286.141 61.1136C285.317 59.428 284.905 57.4583 284.905 55.2045C284.905 52.9318 285.317 50.9479 286.141 49.2528C286.974 47.5578 288.129 46.2415 289.607 45.304C291.093 44.3665 292.821 43.8977 294.791 43.8977C296.761 43.8977 298.484 44.3665 299.962 45.304C301.448 46.2415 302.604 47.5578 303.428 49.2528C304.261 50.9479 304.678 52.9318 304.678 55.2045C304.678 57.4583 304.261 59.428 303.428 61.1136C302.604 62.7992 301.448 64.1108 299.962 65.0483C298.484 65.9858 296.761 66.4545 294.791 66.4545ZM294.791 63.4432C296.287 63.4432 297.518 63.0597 298.484 62.2926C299.45 61.5256 300.165 60.517 300.629 59.267C301.093 58.017 301.325 56.6629 301.325 55.2045C301.325 53.7462 301.093 52.3873 300.629 51.1278C300.165 49.8684 299.45 48.8504 298.484 48.0739C297.518 47.2973 296.287 46.9091 294.791 46.9091C293.295 46.9091 292.064 47.2973 291.098 48.0739C290.132 48.8504 289.417 49.8684 288.953 51.1278C288.489 52.3873 288.257 53.7462 288.257 55.2045C288.257 56.6629 288.489 58.017 288.953 59.267C289.417 60.517 290.132 61.5256 291.098 62.2926C292.064 63.0597 293.295 63.4432 294.791 63.4432ZM323.261 44.1818V47.3068H313.147V66H309.795V44.1818H323.261ZM335.885 66.4545C333.915 66.4545 332.187 65.9858 330.7 65.0483C329.223 64.1108 328.068 62.7992 327.234 61.1136C326.411 59.428 325.999 57.4583 325.999 55.2045C325.999 52.9318 326.411 50.9479 327.234 49.2528C328.068 47.5578 329.223 46.2415 330.7 45.304C332.187 44.3665 333.915 43.8977 335.885 43.8977C337.855 43.8977 339.578 44.3665 341.055 45.304C342.542 46.2415 343.697 47.5578 344.521 49.2528C345.355 50.9479 345.771 52.9318 345.771 55.2045C345.771 57.4583 345.355 59.428 344.521 61.1136C343.697 62.7992 342.542 64.1108 341.055 65.0483C339.578 65.9858 337.855 66.4545 335.885 66.4545ZM335.885 63.4432C337.381 63.4432 338.612 63.0597 339.578 62.2926C340.544 61.5256 341.259 60.517 341.723 59.267C342.187 58.017 342.419 56.6629 342.419 55.2045C342.419 53.7462 342.187 52.3873 341.723 51.1278C341.259 49.8684 340.544 48.8504 339.578 48.0739C338.612 47.2973 337.381 46.9091 335.885 46.9091C334.389 46.9091 333.158 47.2973 332.192 48.0739C331.226 48.8504 330.511 49.8684 330.047 51.1278C329.583 52.3873 329.351 53.7462 329.351 55.2045C329.351 56.6629 329.583 58.017 330.047 59.267C330.511 60.517 331.226 61.5256 332.192 62.2926C333.158 63.0597 334.389 63.4432 335.885 63.4432ZM364.298 74.1818C363.729 74.1818 363.223 74.1345 362.778 74.0398C362.333 73.9545 362.025 73.8693 361.854 73.7841L362.707 70.8295C363.521 71.0379 364.241 71.1136 364.866 71.0568C365.491 71 366.045 70.7206 366.528 70.2188C367.02 69.7263 367.47 68.9261 367.877 67.8182L368.502 66.1136L360.434 44.1818H364.07L370.093 61.5682H370.32L376.343 44.1818H379.979L370.718 69.1818C370.301 70.3087 369.785 71.2415 369.17 71.9801C368.554 72.7282 367.839 73.2822 367.025 73.642C366.22 74.0019 365.311 74.1818 364.298 74.1818ZM380.636 66V62.875H381.432C382.085 62.875 382.63 62.7472 383.065 62.4915C383.501 62.2263 383.851 61.767 384.116 61.1136C384.391 60.4508 384.599 59.5322 384.741 58.358C384.893 57.1742 385.002 55.6686 385.068 53.8409L385.466 44.1818H400.011V66H396.659V47.3068H388.648L388.307 55.0909C388.231 56.8807 388.07 58.4574 387.824 59.821C387.587 61.1752 387.223 62.3116 386.73 63.2301C386.247 64.1487 385.603 64.84 384.798 65.304C383.993 65.768 382.985 66 381.773 66H380.636ZM408.605 66.2273C407.904 66.2273 407.303 65.9763 406.801 65.4744C406.299 64.9725 406.048 64.3712 406.048 63.6705C406.048 62.9697 406.299 62.3684 406.801 61.8665C407.303 61.3646 407.904 61.1136 408.605 61.1136C409.306 61.1136 409.907 61.3646 410.409 61.8665C410.911 62.3684 411.162 62.9697 411.162 63.6705C411.162 64.1345 411.044 64.5606 410.807 64.9489C410.58 65.3371 410.272 65.6496 409.884 65.8864C409.505 66.1136 409.079 66.2273 408.605 66.2273ZM428.371 66V63.4432L437.973 52.9318C439.1 51.7008 440.028 50.6307 440.757 49.7216C441.486 48.803 442.026 47.9413 442.376 47.1364C442.736 46.322 442.916 45.4697 442.916 44.5795C442.916 43.5568 442.67 42.6714 442.178 41.9233C441.695 41.1752 441.032 40.5975 440.189 40.1903C439.346 39.7831 438.399 39.5795 437.348 39.5795C436.231 39.5795 435.255 39.8116 434.422 40.2756C433.598 40.7301 432.959 41.3693 432.504 42.1932C432.059 43.017 431.837 43.983 431.837 45.0909H428.484C428.484 43.3864 428.877 41.8902 429.663 40.6023C430.449 39.3144 431.519 38.3106 432.874 37.5909C434.237 36.8712 435.767 36.5114 437.462 36.5114C439.166 36.5114 440.677 36.8712 441.993 37.5909C443.309 38.3106 444.341 39.2812 445.089 40.5028C445.838 41.7244 446.212 43.0833 446.212 44.5795C446.212 45.6496 446.018 46.696 445.629 47.7188C445.25 48.732 444.588 49.8636 443.641 51.1136C442.703 52.3542 441.401 53.8693 439.734 55.6591L433.2 62.6477V62.875H446.723V66H428.371ZM453.499 66L466.51 40.2614V40.0341H451.51V36.9091H470.146V40.2045L457.192 66H453.499Z" fill="black"/>
<path opacity="0.8" d="M48.5 145L40.5 134.318H37.6364V145H34.8182V121.727H37.6364V131.818H38.8636L48.1818 121.727H51.5455L42.1364 131.955L51.8636 145H48.5ZM60.2784 145.409C59.1723 145.409 58.1686 145.201 57.267 144.784C56.3655 144.36 55.6496 143.75 55.1193 142.955C54.589 142.152 54.3239 141.182 54.3239 140.045C54.3239 139.045 54.5208 138.235 54.9148 137.614C55.3087 136.985 55.8352 136.492 56.4943 136.136C57.1534 135.78 57.8807 135.515 58.6761 135.341C59.4792 135.159 60.286 135.015 61.0966 134.909C62.1572 134.773 63.017 134.67 63.6761 134.602C64.3428 134.527 64.8277 134.402 65.1307 134.227C65.4413 134.053 65.5966 133.75 65.5966 133.318V133.227C65.5966 132.106 65.2898 131.235 64.6761 130.614C64.0701 129.992 63.1496 129.682 61.9148 129.682C60.6345 129.682 59.6307 129.962 58.9034 130.523C58.1761 131.083 57.6648 131.682 57.3693 132.318L54.8239 131.409C55.2784 130.348 55.8845 129.523 56.642 128.932C57.4072 128.333 58.2405 127.917 59.142 127.682C60.0511 127.439 60.9451 127.318 61.8239 127.318C62.3845 127.318 63.0284 127.386 63.7557 127.523C64.4905 127.652 65.1989 127.92 65.8807 128.33C66.5701 128.739 67.142 129.356 67.5966 130.182C68.0511 131.008 68.2784 132.114 68.2784 133.5V145H65.5966V142.636H65.4602C65.2784 143.015 64.9754 143.42 64.5511 143.852C64.1269 144.284 63.5625 144.652 62.858 144.955C62.1534 145.258 61.2936 145.409 60.2784 145.409ZM60.6875 143C61.7481 143 62.642 142.792 63.3693 142.375C64.1042 141.958 64.6572 141.42 65.0284 140.761C65.4072 140.102 65.5966 139.409 65.5966 138.682V136.227C65.483 136.364 65.233 136.489 64.8466 136.602C64.4678 136.708 64.0284 136.803 63.5284 136.886C63.036 136.962 62.5549 137.03 62.0852 137.091C61.6231 137.144 61.2481 137.189 60.9602 137.227C60.2633 137.318 59.6117 137.466 59.0057 137.67C58.4072 137.867 57.9223 138.167 57.5511 138.568C57.1875 138.962 57.0057 139.5 57.0057 140.182C57.0057 141.114 57.3504 141.818 58.0398 142.295C58.7367 142.765 59.6193 143 60.6875 143ZM72.0824 140.545H74.946C75.0066 141.333 75.3627 141.932 76.0142 142.341C76.6733 142.75 77.5294 142.955 78.5824 142.955C79.6581 142.955 80.5786 142.735 81.3438 142.295C82.1089 141.848 82.4915 141.129 82.4915 140.136C82.4915 139.553 82.3475 139.045 82.0597 138.614C81.7718 138.174 81.3665 137.833 80.8438 137.591C80.321 137.348 79.7036 137.227 78.9915 137.227H75.9915V134.818H78.9915C80.0597 134.818 80.8475 134.576 81.3551 134.091C81.8703 133.606 82.1278 133 82.1278 132.273C82.1278 131.492 81.8513 130.867 81.2983 130.398C80.7453 129.92 79.9612 129.682 78.946 129.682C77.9233 129.682 77.071 129.913 76.3892 130.375C75.7074 130.83 75.3475 131.417 75.3097 132.136H72.4915C72.5218 131.197 72.8097 130.367 73.3551 129.648C73.9006 128.92 74.643 128.352 75.5824 127.943C76.5218 127.527 77.5975 127.318 78.8097 127.318C80.0369 127.318 81.1013 127.534 82.0028 127.966C82.9119 128.39 83.6127 128.97 84.1051 129.705C84.6051 130.432 84.8551 131.258 84.8551 132.182C84.8551 133.167 84.5786 133.962 84.0256 134.568C83.4725 135.174 82.7794 135.606 81.946 135.864V136.045C82.6051 136.091 83.1771 136.303 83.6619 136.682C84.1544 137.053 84.5369 137.542 84.8097 138.148C85.0824 138.746 85.2188 139.409 85.2188 140.136C85.2188 141.197 84.9347 142.121 84.3665 142.909C83.7983 143.689 83.018 144.295 82.0256 144.727C81.0331 145.152 79.9006 145.364 78.6278 145.364C77.393 145.364 76.2869 145.163 75.3097 144.761C74.3324 144.352 73.5559 143.788 72.9801 143.068C72.4119 142.341 72.1127 141.5 72.0824 140.545ZM94.1222 145.409C93.0161 145.409 92.0123 145.201 91.1108 144.784C90.2093 144.36 89.4934 143.75 88.9631 142.955C88.4328 142.152 88.1676 141.182 88.1676 140.045C88.1676 139.045 88.3646 138.235 88.7585 137.614C89.1525 136.985 89.679 136.492 90.3381 136.136C90.9972 135.78 91.7244 135.515 92.5199 135.341C93.3229 135.159 94.1297 135.015 94.9403 134.909C96.0009 134.773 96.8608 134.67 97.5199 134.602C98.1866 134.527 98.6714 134.402 98.9744 134.227C99.285 134.053 99.4403 133.75 99.4403 133.318V133.227C99.4403 132.106 99.1335 131.235 98.5199 130.614C97.9138 129.992 96.9934 129.682 95.7585 129.682C94.4782 129.682 93.4744 129.962 92.7472 130.523C92.0199 131.083 91.5085 131.682 91.2131 132.318L88.6676 131.409C89.1222 130.348 89.7282 129.523 90.4858 128.932C91.2509 128.333 92.0843 127.917 92.9858 127.682C93.8949 127.439 94.7888 127.318 95.6676 127.318C96.2282 127.318 96.8722 127.386 97.5994 127.523C98.3343 127.652 99.0426 127.92 99.7244 128.33C100.414 128.739 100.986 129.356 101.44 130.182C101.895 131.008 102.122 132.114 102.122 133.5V145H99.4403V142.636H99.304C99.1222 143.015 98.8191 143.42 98.3949 143.852C97.9706 144.284 97.4063 144.652 96.7017 144.955C95.9972 145.258 95.1373 145.409 94.1222 145.409ZM94.5312 143C95.5919 143 96.4858 142.792 97.2131 142.375C97.9479 141.958 98.5009 141.42 98.8722 140.761C99.2509 140.102 99.4403 139.409 99.4403 138.682V136.227C99.3267 136.364 99.0767 136.489 98.6903 136.602C98.3116 136.708 97.8722 136.803 97.3722 136.886C96.8797 136.962 96.3987 137.03 95.929 137.091C95.4669 137.144 95.0919 137.189 94.804 137.227C94.107 137.318 93.4555 137.466 92.8494 137.67C92.2509 137.867 91.7661 138.167 91.3949 138.568C91.0313 138.962 90.8494 139.5 90.8494 140.182C90.8494 141.114 91.1941 141.818 91.8835 142.295C92.5805 142.765 93.4631 143 94.5312 143ZM118.699 135.045V137.545H109.062V135.045H118.699ZM109.699 127.545V145H107.017V127.545H109.699ZM120.744 127.545V145H118.062V127.545H120.744ZM127.96 133.864H132.96C135.006 133.864 136.57 134.383 137.653 135.42C138.737 136.458 139.278 137.773 139.278 139.364C139.278 140.409 139.036 141.36 138.551 142.216C138.066 143.064 137.354 143.742 136.415 144.25C135.475 144.75 134.324 145 132.96 145H125.642V127.545H128.324V142.5H132.96C134.021 142.5 134.892 142.22 135.574 141.659C136.256 141.098 136.597 140.379 136.597 139.5C136.597 138.576 136.256 137.822 135.574 137.239C134.892 136.655 134.021 136.364 132.96 136.364H127.96V133.864Z" fill="black"/>
<path d="M1153.24 40.9091V70H1149.72V44.6023H1149.55L1142.44 49.3182V45.7386L1149.72 40.9091H1153.24ZM1171.09 70.3977C1168.95 70.3977 1167.13 69.8153 1165.62 68.6506C1164.12 67.4763 1162.97 65.7765 1162.17 63.5511C1161.38 61.3163 1160.98 58.6174 1160.98 55.4545C1160.98 52.3106 1161.38 49.6259 1162.17 47.4006C1162.98 45.1657 1164.13 43.4612 1165.64 42.2869C1167.15 41.1032 1168.97 40.5114 1171.09 40.5114C1173.21 40.5114 1175.03 41.1032 1176.53 42.2869C1178.05 43.4612 1179.2 45.1657 1180 47.4006C1180.8 49.6259 1181.21 52.3106 1181.21 55.4545C1181.21 58.6174 1180.81 61.3163 1180.01 63.5511C1179.22 65.7765 1178.07 67.4763 1176.56 68.6506C1175.06 69.8153 1173.23 70.3977 1171.09 70.3977ZM1171.09 67.2727C1173.21 67.2727 1174.86 66.25 1176.04 64.2045C1177.21 62.1591 1177.8 59.2424 1177.8 55.4545C1177.8 52.9356 1177.53 50.7907 1176.99 49.0199C1176.46 47.2491 1175.69 45.8996 1174.69 44.9716C1173.69 44.0436 1172.5 43.5795 1171.09 43.5795C1168.99 43.5795 1167.35 44.6165 1166.16 46.6903C1164.98 48.7547 1164.39 51.6761 1164.39 55.4545C1164.39 57.9735 1164.65 60.1136 1165.18 61.875C1165.71 63.6364 1166.48 64.9763 1167.47 65.8949C1168.48 66.8134 1169.68 67.2727 1171.09 67.2727ZM1189.11 66.2784C1188.4 66.2784 1187.8 66.0275 1187.3 65.5256C1186.8 65.0237 1186.55 64.4223 1186.55 63.7216C1186.55 63.0208 1186.8 62.4195 1187.3 61.9176C1187.8 61.4157 1188.4 61.1648 1189.11 61.1648C1189.81 61.1648 1190.41 61.4157 1190.91 61.9176C1191.41 62.4195 1191.66 63.0208 1191.66 63.7216C1191.66 64.1856 1191.54 64.6117 1191.31 65C1191.08 65.3883 1190.77 65.7008 1190.38 65.9375C1190 66.1648 1189.58 66.2784 1189.11 66.2784ZM1189.11 51.5625C1188.4 51.5625 1187.8 51.3116 1187.3 50.8097C1186.8 50.3078 1186.55 49.7064 1186.55 49.0057C1186.55 48.3049 1186.8 47.7036 1187.3 47.2017C1187.8 46.6998 1188.4 46.4489 1189.11 46.4489C1189.81 46.4489 1190.41 46.6998 1190.91 47.2017C1191.41 47.7036 1191.66 48.3049 1191.66 49.0057C1191.66 49.4697 1191.54 49.8958 1191.31 50.2841C1191.08 50.6723 1190.77 50.9848 1190.38 51.2216C1190 51.4489 1189.58 51.5625 1189.11 51.5625ZM1207.11 70.3977C1204.97 70.3977 1203.15 69.8153 1201.64 68.6506C1200.13 67.4763 1198.98 65.7765 1198.19 63.5511C1197.39 61.3163 1197 58.6174 1197 55.4545C1197 52.3106 1197.39 49.6259 1198.19 47.4006C1198.99 45.1657 1200.15 43.4612 1201.65 42.2869C1203.17 41.1032 1204.99 40.5114 1207.11 40.5114C1209.23 40.5114 1211.04 41.1032 1212.55 42.2869C1214.06 43.4612 1215.22 45.1657 1216.02 47.4006C1216.82 49.6259 1217.22 52.3106 1217.22 55.4545C1217.22 58.6174 1216.83 61.3163 1216.03 63.5511C1215.23 65.7765 1214.08 67.4763 1212.58 68.6506C1211.07 69.8153 1209.25 70.3977 1207.11 70.3977ZM1207.11 67.2727C1209.23 67.2727 1210.88 66.25 1212.05 64.2045C1213.23 62.1591 1213.81 59.2424 1213.81 55.4545C1213.81 52.9356 1213.54 50.7907 1213 49.0199C1212.47 47.2491 1211.71 45.8996 1210.7 44.9716C1209.71 44.0436 1208.51 43.5795 1207.11 43.5795C1205.01 43.5795 1203.36 44.6165 1202.18 46.6903C1201 48.7547 1200.4 51.6761 1200.4 55.4545C1200.4 57.9735 1200.67 60.1136 1201.2 61.875C1201.73 63.6364 1202.49 64.9763 1203.49 65.8949C1204.49 66.8134 1205.7 67.2727 1207.11 67.2727ZM1232.11 70.3977C1229.97 70.3977 1228.15 69.8153 1226.64 68.6506C1225.13 67.4763 1223.98 65.7765 1223.19 63.5511C1222.39 61.3163 1222 58.6174 1222 55.4545C1222 52.3106 1222.39 49.6259 1223.19 47.4006C1223.99 45.1657 1225.15 43.4612 1226.65 42.2869C1228.17 41.1032 1229.99 40.5114 1232.11 40.5114C1234.23 40.5114 1236.04 41.1032 1237.55 42.2869C1239.06 43.4612 1240.22 45.1657 1241.02 47.4006C1241.82 49.6259 1242.22 52.3106 1242.22 55.4545C1242.22 58.6174 1241.83 61.3163 1241.03 63.5511C1240.23 65.7765 1239.08 67.4763 1237.58 68.6506C1236.07 69.8153 1234.25 70.3977 1232.11 70.3977ZM1232.11 67.2727C1234.23 67.2727 1235.88 66.25 1237.05 64.2045C1238.23 62.1591 1238.81 59.2424 1238.81 55.4545C1238.81 52.9356 1238.54 50.7907 1238 49.0199C1237.47 47.2491 1236.71 45.8996 1235.7 44.9716C1234.71 44.0436 1233.51 43.5795 1232.11 43.5795C1230.01 43.5795 1228.36 44.6165 1227.18 46.6903C1226 48.7547 1225.4 51.6761 1225.4 55.4545C1225.4 57.9735 1225.67 60.1136 1226.2 61.875C1226.73 63.6364 1227.49 64.9763 1228.49 65.8949C1229.49 66.8134 1230.7 67.2727 1232.11 67.2727ZM1271.43 53.892V57.017H1258.7V53.892H1271.43ZM1288.52 70V67.4432L1298.12 56.9318C1299.25 55.7008 1300.18 54.6307 1300.91 53.7216C1301.63 52.803 1302.17 51.9413 1302.52 51.1364C1302.88 50.322 1303.06 49.4697 1303.06 48.5795C1303.06 47.5568 1302.82 46.6714 1302.33 45.9233C1301.84 45.1752 1301.18 44.5975 1300.34 44.1903C1299.49 43.7831 1298.55 43.5795 1297.5 43.5795C1296.38 43.5795 1295.4 43.8116 1294.57 44.2756C1293.75 44.7301 1293.11 45.3693 1292.65 46.1932C1292.21 47.017 1291.99 47.983 1291.99 49.0909H1288.63C1288.63 47.3864 1289.03 45.8902 1289.81 44.6023C1290.6 43.3144 1291.67 42.3106 1293.02 41.5909C1294.39 40.8712 1295.92 40.5114 1297.61 40.5114C1299.31 40.5114 1300.83 40.8712 1302.14 41.5909C1303.46 42.3106 1304.49 43.2812 1305.24 44.5028C1305.99 45.7244 1306.36 47.0833 1306.36 48.5795C1306.36 49.6496 1306.17 50.696 1305.78 51.7188C1305.4 52.732 1304.74 53.8636 1303.79 55.1136C1302.85 56.3542 1301.55 57.8693 1299.88 59.6591L1293.35 66.6477V66.875H1306.87V70H1288.52ZM1312.74 70V67.4432L1322.34 56.9318C1323.47 55.7008 1324.4 54.6307 1325.12 53.7216C1325.85 52.803 1326.39 51.9413 1326.74 51.1364C1327.1 50.322 1327.28 49.4697 1327.28 48.5795C1327.28 47.5568 1327.04 46.6714 1326.54 45.9233C1326.06 45.1752 1325.4 44.5975 1324.56 44.1903C1323.71 43.7831 1322.77 43.5795 1321.72 43.5795C1320.6 43.5795 1319.62 43.8116 1318.79 44.2756C1317.97 44.7301 1317.33 45.3693 1316.87 46.1932C1316.43 47.017 1316.2 47.983 1316.2 49.0909H1312.85C1312.85 47.3864 1313.24 45.8902 1314.03 44.6023C1314.82 43.3144 1315.89 42.3106 1317.24 41.5909C1318.6 40.8712 1320.13 40.5114 1321.83 40.5114C1323.53 40.5114 1325.04 40.8712 1326.36 41.5909C1327.68 42.3106 1328.71 43.2812 1329.46 44.5028C1330.2 45.7244 1330.58 47.0833 1330.58 48.5795C1330.58 49.6496 1330.38 50.696 1330 51.7188C1329.62 52.732 1328.95 53.8636 1328.01 55.1136C1327.07 56.3542 1325.77 57.8693 1324.1 59.6591L1317.57 66.6477V66.875H1331.09V70H1312.74ZM1339.46 66.2784C1338.76 66.2784 1338.15 66.0275 1337.65 65.5256C1337.15 65.0237 1336.9 64.4223 1336.9 63.7216C1336.9 63.0208 1337.15 62.4195 1337.65 61.9176C1338.15 61.4157 1338.76 61.1648 1339.46 61.1648C1340.16 61.1648 1340.76 61.4157 1341.26 61.9176C1341.76 62.4195 1342.01 63.0208 1342.01 63.7216C1342.01 64.1856 1341.9 64.6117 1341.66 65C1341.43 65.3883 1341.12 65.7008 1340.74 65.9375C1340.36 66.1648 1339.93 66.2784 1339.46 66.2784ZM1339.46 51.5625C1338.76 51.5625 1338.15 51.3116 1337.65 50.8097C1337.15 50.3078 1336.9 49.7064 1336.9 49.0057C1336.9 48.3049 1337.15 47.7036 1337.65 47.2017C1338.15 46.6998 1338.76 46.4489 1339.46 46.4489C1340.16 46.4489 1340.76 46.6998 1341.26 47.2017C1341.76 47.7036 1342.01 48.3049 1342.01 49.0057C1342.01 49.4697 1341.9 49.8958 1341.66 50.2841C1341.43 50.6723 1341.12 50.9848 1340.74 51.2216C1340.36 51.4489 1339.93 51.5625 1339.46 51.5625ZM1357.46 70.3977C1355.32 70.3977 1353.5 69.8153 1351.99 68.6506C1350.49 67.4763 1349.34 65.7765 1348.54 63.5511C1347.75 61.3163 1347.35 58.6174 1347.35 55.4545C1347.35 52.3106 1347.75 49.6259 1348.54 47.4006C1349.35 45.1657 1350.5 43.4612 1352.01 42.2869C1353.52 41.1032 1355.34 40.5114 1357.46 40.5114C1359.58 40.5114 1361.4 41.1032 1362.9 42.2869C1364.42 43.4612 1365.57 45.1657 1366.37 47.4006C1367.17 49.6259 1367.57 52.3106 1367.57 55.4545C1367.57 58.6174 1367.18 61.3163 1366.38 63.5511C1365.59 65.7765 1364.44 67.4763 1362.93 68.6506C1361.42 69.8153 1359.6 70.3977 1357.46 70.3977ZM1357.46 67.2727C1359.58 67.2727 1361.23 66.25 1362.4 64.2045C1363.58 62.1591 1364.17 59.2424 1364.17 55.4545C1364.17 52.9356 1363.9 50.7907 1363.36 49.0199C1362.83 47.2491 1362.06 45.8996 1361.05 44.9716C1360.06 44.0436 1358.86 43.5795 1357.46 43.5795C1355.36 43.5795 1353.72 44.6165 1352.53 46.6903C1351.35 48.7547 1350.76 51.6761 1350.76 55.4545C1350.76 57.9735 1351.02 60.1136 1351.55 61.875C1352.08 63.6364 1352.84 64.9763 1353.84 65.8949C1354.84 66.8134 1356.05 67.2727 1357.46 67.2727ZM1382.46 70.3977C1380.32 70.3977 1378.5 69.8153 1376.99 68.6506C1375.49 67.4763 1374.34 65.7765 1373.54 63.5511C1372.75 61.3163 1372.35 58.6174 1372.35 55.4545C1372.35 52.3106 1372.75 49.6259 1373.54 47.4006C1374.35 45.1657 1375.5 43.4612 1377.01 42.2869C1378.52 41.1032 1380.34 40.5114 1382.46 40.5114C1384.58 40.5114 1386.4 41.1032 1387.9 42.2869C1389.42 43.4612 1390.57 45.1657 1391.37 47.4006C1392.17 49.6259 1392.57 52.3106 1392.57 55.4545C1392.57 58.6174 1392.18 61.3163 1391.38 63.5511C1390.59 65.7765 1389.44 67.4763 1387.93 68.6506C1386.42 69.8153 1384.6 70.3977 1382.46 70.3977ZM1382.46 67.2727C1384.58 67.2727 1386.23 66.25 1387.4 64.2045C1388.58 62.1591 1389.17 59.2424 1389.17 55.4545C1389.17 52.9356 1388.9 50.7907 1388.36 49.0199C1387.83 47.2491 1387.06 45.8996 1386.05 44.9716C1385.06 44.0436 1383.86 43.5795 1382.46 43.5795C1380.36 43.5795 1378.72 44.6165 1377.53 46.6903C1376.35 48.7547 1375.76 51.6761 1375.76 55.4545C1375.76 57.9735 1376.02 60.1136 1376.55 61.875C1377.08 63.6364 1377.84 64.9763 1378.84 65.8949C1379.84 66.8134 1381.05 67.2727 1382.46 67.2727Z" fill="black"/>
<defs>
<linearGradient id="paint0_linear_116_500" x1="720" y1="0" x2="720" y2="167" gradientUnits="userSpaceOnUse">
<stop stop-color="#FFD9D9"/>
<stop offset="1" stop-color="#C0F0ED"/>
</linearGradient>
</defs>
</svg>
