<svg width="650" height="99" viewBox="0 0 650 99" fill="none" xmlns="http://www.w3.org/2000/svg">
<rect width="650" height="99" rx="49.5" fill="#FFD9D9"/>
<path d="M200.068 49.4545C200.068 52.5227 199.514 55.1742 198.406 57.4091C197.298 59.6439 195.778 61.3674 193.847 62.5795C191.915 63.7917 189.708 64.3977 187.227 64.3977C184.746 64.3977 182.54 63.7917 180.608 62.5795C178.676 61.3674 177.156 59.6439 176.048 57.4091C174.94 55.1742 174.386 52.5227 174.386 49.4545C174.386 46.3864 174.94 43.7348 176.048 41.5C177.156 39.2652 178.676 37.5417 180.608 36.3295C182.54 35.1174 184.746 34.5114 187.227 34.5114C189.708 34.5114 191.915 35.1174 193.847 36.3295C195.778 37.5417 197.298 39.2652 198.406 41.5C199.514 43.7348 200.068 46.3864 200.068 49.4545ZM196.659 49.4545C196.659 46.9356 196.238 44.8097 195.395 43.0767C194.562 41.3438 193.43 40.0322 192 39.142C190.58 38.2519 188.989 37.8068 187.227 37.8068C185.466 37.8068 183.87 38.2519 182.44 39.142C181.02 40.0322 179.888 41.3438 179.045 43.0767C178.212 44.8097 177.795 46.9356 177.795 49.4545C177.795 51.9735 178.212 54.0994 179.045 55.8324C179.888 57.5653 181.02 58.8769 182.44 59.767C183.87 60.6572 185.466 61.1023 187.227 61.1023C188.989 61.1023 190.58 60.6572 192 59.767C193.43 58.8769 194.562 57.5653 195.395 55.8324C196.238 54.0994 196.659 51.9735 196.659 49.4545ZM221.73 34L223.435 36.0455C222.772 36.6894 222.005 37.1392 221.134 37.3949C220.262 37.6506 219.277 37.8068 218.179 37.8636C217.08 37.9205 215.859 37.9773 214.514 38.0341C212.999 38.0909 211.744 38.4602 210.75 39.142C209.756 39.8239 208.989 40.8087 208.449 42.0966C207.909 43.3845 207.563 44.9659 207.412 46.8409H207.696C208.435 45.4773 209.457 44.4735 210.764 43.8295C212.071 43.1856 213.473 42.8636 214.969 42.8636C216.673 42.8636 218.207 43.2614 219.571 44.0568C220.935 44.8523 222.014 46.0312 222.81 47.5938C223.605 49.1562 224.003 51.0833 224.003 53.375C224.003 55.6572 223.596 57.6269 222.781 59.2841C221.976 60.9413 220.845 62.2197 219.386 63.1193C217.938 64.0095 216.238 64.4545 214.287 64.4545C212.336 64.4545 210.627 63.9953 209.159 63.0767C207.691 62.1487 206.55 60.7756 205.736 58.9574C204.921 57.1297 204.514 54.8712 204.514 52.1818V49.8523C204.514 44.9943 205.338 41.3106 206.986 38.8011C208.643 36.2917 211.134 34.9943 214.457 34.9091C215.632 34.8712 216.678 34.8617 217.597 34.8807C218.515 34.8996 219.315 34.857 219.997 34.7528C220.679 34.6487 221.257 34.3977 221.73 34ZM214.287 61.4432C215.603 61.4432 216.735 61.1117 217.682 60.4489C218.638 59.786 219.372 58.8532 219.884 57.6506C220.395 56.4384 220.651 55.0133 220.651 53.375C220.651 51.7841 220.39 50.4299 219.869 49.3125C219.358 48.1951 218.624 47.3428 217.668 46.7557C216.711 46.1686 215.565 45.875 214.23 45.875C213.255 45.875 212.379 46.0407 211.602 46.3722C210.826 46.7036 210.163 47.1913 209.614 47.8352C209.064 48.4792 208.638 49.2652 208.335 50.1932C208.042 51.1212 207.885 52.1818 207.866 53.375C207.866 55.8182 208.439 57.7737 209.585 59.2415C210.731 60.7093 212.298 61.4432 214.287 61.4432ZM229.131 72.1818V42.1818H232.369V45.6477H232.767C233.013 45.2689 233.354 44.786 233.79 44.1989C234.235 43.6023 234.869 43.072 235.693 42.608C236.527 42.1345 237.653 41.8977 239.074 41.8977C240.911 41.8977 242.53 42.357 243.932 43.2756C245.333 44.1941 246.427 45.4962 247.213 47.1818C247.999 48.8674 248.392 50.8561 248.392 53.1477C248.392 55.4583 247.999 57.4612 247.213 59.1562C246.427 60.8419 245.338 62.1487 243.946 63.0767C242.554 63.9953 240.949 64.4545 239.131 64.4545C237.729 64.4545 236.607 64.2225 235.764 63.7585C234.921 63.285 234.273 62.75 233.818 62.1534C233.364 61.5473 233.013 61.0455 232.767 60.6477H232.483V72.1818H229.131ZM232.426 53.0909C232.426 54.7386 232.668 56.1922 233.151 57.4517C233.634 58.7017 234.339 59.6818 235.267 60.392C236.195 61.0928 237.331 61.4432 238.676 61.4432C240.078 61.4432 241.247 61.0739 242.185 60.3352C243.132 59.5871 243.842 58.5833 244.315 57.3239C244.798 56.0549 245.04 54.6439 245.04 53.0909C245.04 51.5568 244.803 50.1742 244.33 48.9432C243.866 47.7027 243.16 46.7225 242.213 46.0028C241.276 45.2737 240.097 44.9091 238.676 44.9091C237.313 44.9091 236.167 45.2547 235.239 45.946C234.311 46.6278 233.61 47.5843 233.136 48.8153C232.663 50.0369 232.426 51.4621 232.426 53.0909ZM259.926 64.5114C258.544 64.5114 257.289 64.2509 256.162 63.7301C255.035 63.1998 254.14 62.4375 253.477 61.4432C252.814 60.4394 252.483 59.2273 252.483 57.8068C252.483 56.5568 252.729 55.5436 253.222 54.767C253.714 53.9811 254.372 53.3655 255.196 52.9205C256.02 52.4754 256.929 52.1439 257.923 51.9261C258.927 51.6989 259.936 51.5189 260.949 51.3864C262.275 51.2159 263.349 51.0881 264.173 51.0028C265.007 50.9081 265.613 50.7519 265.991 50.5341C266.38 50.3163 266.574 49.9375 266.574 49.3977V49.2841C266.574 47.8826 266.19 46.7936 265.423 46.017C264.666 45.2405 263.515 44.8523 261.972 44.8523C260.371 44.8523 259.116 45.2027 258.207 45.9034C257.298 46.6042 256.659 47.3523 256.29 48.1477L253.108 47.0114C253.676 45.6856 254.434 44.6534 255.381 43.9148C256.337 43.1667 257.379 42.6458 258.506 42.3523C259.642 42.0492 260.759 41.8977 261.858 41.8977C262.559 41.8977 263.364 41.983 264.273 42.1534C265.191 42.3144 266.077 42.6506 266.929 43.1619C267.791 43.6733 268.506 44.4451 269.074 45.4773C269.642 46.5095 269.926 47.892 269.926 49.625V64H266.574V61.0455H266.403C266.176 61.5189 265.797 62.0256 265.267 62.5653C264.737 63.1051 264.031 63.5644 263.151 63.9432C262.27 64.322 261.195 64.5114 259.926 64.5114ZM260.438 61.5C261.763 61.5 262.881 61.2396 263.79 60.7188C264.708 60.1979 265.4 59.5256 265.864 58.7017C266.337 57.8778 266.574 57.0114 266.574 56.1023V53.0341C266.432 53.2045 266.119 53.3608 265.636 53.5028C265.163 53.6354 264.614 53.7538 263.989 53.858C263.373 53.9527 262.772 54.0379 262.185 54.1136C261.607 54.1799 261.138 54.2367 260.778 54.2841C259.907 54.3977 259.093 54.5824 258.335 54.8381C257.587 55.0843 256.981 55.4583 256.517 55.9602C256.063 56.4527 255.835 57.125 255.835 57.9773C255.835 59.142 256.266 60.0227 257.128 60.6193C257.999 61.2064 259.102 61.5 260.438 61.5ZM273.076 45.3068V42.1818H290.803V45.3068H283.644V64H280.292V45.3068H273.076ZM310.295 51.5568V54.6818H298.25V51.5568H310.295ZM299.045 42.1818V64H295.693V42.1818H299.045ZM312.852 42.1818V64H309.5V42.1818H312.852ZM327.838 64.4545C325.868 64.4545 324.14 63.9858 322.653 63.0483C321.176 62.1108 320.021 60.7992 319.188 59.1136C318.364 57.428 317.952 55.4583 317.952 53.2045C317.952 50.9318 318.364 48.9479 319.188 47.2528C320.021 45.5578 321.176 44.2415 322.653 43.304C324.14 42.3665 325.868 41.8977 327.838 41.8977C329.808 41.8977 331.531 42.3665 333.009 43.304C334.495 44.2415 335.651 45.5578 336.474 47.2528C337.308 48.9479 337.724 50.9318 337.724 53.2045C337.724 55.4583 337.308 57.428 336.474 59.1136C335.651 60.7992 334.495 62.1108 333.009 63.0483C331.531 63.9858 329.808 64.4545 327.838 64.4545ZM327.838 61.4432C329.334 61.4432 330.565 61.0597 331.531 60.2926C332.497 59.5256 333.212 58.517 333.676 57.267C334.14 56.017 334.372 54.6629 334.372 53.2045C334.372 51.7462 334.14 50.3873 333.676 49.1278C333.212 47.8684 332.497 46.8504 331.531 46.0739C330.565 45.2973 329.334 44.9091 327.838 44.9091C326.342 44.9091 325.111 45.2973 324.145 46.0739C323.179 46.8504 322.464 47.8684 322 49.1278C321.536 50.3873 321.304 51.7462 321.304 53.2045C321.304 54.6629 321.536 56.017 322 57.267C322.464 58.517 323.179 59.5256 324.145 60.2926C325.111 61.0597 326.342 61.4432 327.838 61.4432ZM354.092 64V42.1818H357.444V51.6705H359.66L367.501 42.1818H371.819L363.012 52.6932L371.933 64H367.614L360.455 54.7955H357.444V64H354.092ZM395.69 64.4545C393.644 64.4545 391.883 63.9716 390.406 63.0057C388.928 62.0398 387.792 60.7093 386.996 59.0142C386.201 57.3191 385.803 55.3826 385.803 53.2045C385.803 50.9886 386.21 49.0331 387.025 47.3381C387.849 45.6335 388.995 44.303 390.462 43.3466C391.94 42.3807 393.663 41.8977 395.633 41.8977C397.167 41.8977 398.549 42.1818 399.781 42.75C401.012 43.3182 402.02 44.1136 402.806 45.1364C403.592 46.1591 404.08 47.3523 404.269 48.7159H400.917C400.661 47.7216 400.093 46.8409 399.212 46.0739C398.341 45.2973 397.167 44.9091 395.69 44.9091C394.383 44.9091 393.237 45.25 392.252 45.9318C391.277 46.6042 390.514 47.5559 389.965 48.7869C389.425 50.0085 389.156 51.4432 389.156 53.0909C389.156 54.7765 389.421 56.2443 389.951 57.4943C390.491 58.7443 391.248 59.715 392.224 60.4062C393.209 61.0975 394.364 61.4432 395.69 61.4432C396.561 61.4432 397.352 61.2917 398.062 60.9886C398.772 60.6856 399.373 60.25 399.866 59.6818C400.358 59.1136 400.709 58.4318 400.917 57.6364H404.269C404.08 58.9242 403.611 60.0843 402.863 61.1165C402.124 62.1392 401.144 62.9536 399.923 63.5597C398.71 64.1562 397.299 64.4545 395.69 64.4545ZM409.17 64V42.1818H426.329V64H422.977V45.3068H412.522V64H409.17ZM435.803 59.0568L446.315 42.1818H450.178V64H446.826V47.125L436.371 64H432.451V42.1818H435.803V59.0568ZM465.182 64.4545C463.136 64.4545 461.375 63.9716 459.898 63.0057C458.42 62.0398 457.284 60.7093 456.489 59.0142C455.693 57.3191 455.295 55.3826 455.295 53.2045C455.295 50.9886 455.703 49.0331 456.517 47.3381C457.341 45.6335 458.487 44.303 459.955 43.3466C461.432 42.3807 463.155 41.8977 465.125 41.8977C466.659 41.8977 468.042 42.1818 469.273 42.75C470.504 43.3182 471.512 44.1136 472.298 45.1364C473.084 46.1591 473.572 47.3523 473.761 48.7159H470.409C470.153 47.7216 469.585 46.8409 468.705 46.0739C467.833 45.2973 466.659 44.9091 465.182 44.9091C463.875 44.9091 462.729 45.25 461.744 45.9318C460.769 46.6042 460.007 47.5559 459.457 48.7869C458.918 50.0085 458.648 51.4432 458.648 53.0909C458.648 54.7765 458.913 56.2443 459.443 57.4943C459.983 58.7443 460.741 59.715 461.716 60.4062C462.701 61.0975 463.856 61.4432 465.182 61.4432C466.053 61.4432 466.844 61.2917 467.554 60.9886C468.264 60.6856 468.866 60.25 469.358 59.6818C469.85 59.1136 470.201 58.4318 470.409 57.6364H473.761C473.572 58.9242 473.103 60.0843 472.355 61.1165C471.616 62.1392 470.636 62.9536 469.415 63.5597C468.203 64.1562 466.792 64.4545 465.182 64.4545ZM478.662 64V42.1818H482.014V51.6705H484.23L492.071 42.1818H496.389L487.582 52.6932L496.503 64H492.185L485.026 54.7955H482.014V64H478.662ZM502.305 72.1818C501.737 72.1818 501.231 72.1345 500.786 72.0398C500.34 71.9545 500.033 71.8693 499.862 71.7841L500.714 68.8295C501.529 69.0379 502.249 69.1136 502.874 69.0568C503.499 69 504.053 68.7206 504.536 68.2188C505.028 67.7263 505.478 66.9261 505.885 65.8182L506.51 64.1136L498.442 42.1818H502.078L508.101 59.5682H508.328L514.351 42.1818H517.987L508.726 67.1818C508.309 68.3087 507.793 69.2415 507.178 69.9801C506.562 70.7282 505.847 71.2822 505.033 71.642C504.228 72.0019 503.319 72.1818 502.305 72.1818Z" fill="black"/>
<path d="M144 52H62M62 52L92.75 27M62 52L92.75 77" stroke="black" stroke-width="1.5" stroke-linecap="round" stroke-linejoin="round"/>
</svg>
