<svg width="136" height="109" viewBox="0 0 136 109" fill="none" xmlns="http://www.w3.org/2000/svg">
<rect x="0.5" y="0.5" width="135" height="108" fill="url(#paint0_linear_108_493)" stroke="black"/>
<path d="M67.5455 25H64.7273C64.5606 24.1894 64.2689 23.4773 63.8523 22.8636C63.4432 22.25 62.9432 21.7348 62.3523 21.3182C61.7689 20.8939 61.1212 20.5758 60.4091 20.3636C59.697 20.1515 58.9545 20.0455 58.1818 20.0455C56.7727 20.0455 55.4962 20.4015 54.3523 21.1136C53.2159 21.8258 52.3106 22.875 51.6364 24.2614C50.9697 25.6477 50.6364 27.3485 50.6364 29.3636C50.6364 31.3788 50.9697 33.0795 51.6364 34.4659C52.3106 35.8523 53.2159 36.9015 54.3523 37.6136C55.4962 38.3258 56.7727 38.6818 58.1818 38.6818C58.9545 38.6818 59.697 38.5758 60.4091 38.3636C61.1212 38.1515 61.7689 37.8371 62.3523 37.4205C62.9432 36.9962 63.4432 36.4773 63.8523 35.8636C64.2689 35.2424 64.5606 34.5303 64.7273 33.7273H67.5455C67.3333 34.9167 66.947 35.9811 66.3864 36.9205C65.8258 37.8598 65.1288 38.6591 64.2955 39.3182C63.4621 39.9697 62.5265 40.4659 61.4886 40.8068C60.4583 41.1477 59.3561 41.3182 58.1818 41.3182C56.197 41.3182 54.4318 40.8333 52.8864 39.8636C51.3409 38.8939 50.125 37.5152 49.2386 35.7273C48.3523 33.9394 47.9091 31.8182 47.9091 29.3636C47.9091 26.9091 48.3523 24.7879 49.2386 23C50.125 21.2121 51.3409 19.8333 52.8864 18.8636C54.4318 17.8939 56.197 17.4091 58.1818 17.4091C59.3561 17.4091 60.4583 17.5795 61.4886 17.9205C62.5265 18.2614 63.4621 18.7614 64.2955 19.4205C65.1288 20.072 65.8258 20.8674 66.3864 21.8068C66.947 22.7386 67.3333 23.803 67.5455 25ZM84.6903 17L86.054 18.6364C85.5237 19.1515 84.91 19.5114 84.2131 19.7159C83.5161 19.9205 82.7282 20.0455 81.8494 20.0909C80.9706 20.1364 79.9934 20.1818 78.9176 20.2273C77.7055 20.2727 76.7017 20.5682 75.9062 21.1136C75.1108 21.6591 74.4972 22.447 74.0653 23.4773C73.6335 24.5076 73.357 25.7727 73.2358 27.2727H73.4631C74.054 26.1818 74.8722 25.3788 75.9176 24.8636C76.9631 24.3485 78.0843 24.0909 79.2812 24.0909C80.6449 24.0909 81.8722 24.4091 82.9631 25.0455C84.054 25.6818 84.9176 26.625 85.554 27.875C86.1903 29.125 86.5085 30.6667 86.5085 32.5C86.5085 34.3258 86.1828 35.9015 85.5312 37.2273C84.8873 38.553 83.982 39.5758 82.8153 40.2955C81.6563 41.0076 80.2964 41.3636 78.7358 41.3636C77.1752 41.3636 75.8078 40.9962 74.6335 40.2614C73.4593 39.5189 72.5464 38.4205 71.8949 36.9659C71.2434 35.5038 70.9176 33.697 70.9176 31.5455V29.6818C70.9176 25.7955 71.5767 22.8485 72.8949 20.8409C74.2206 18.8333 76.2131 17.7955 78.8722 17.7273C79.8116 17.697 80.6487 17.6894 81.3835 17.7045C82.1184 17.7197 82.7585 17.6856 83.304 17.6023C83.8494 17.5189 84.3116 17.3182 84.6903 17ZM78.7358 38.9545C79.7888 38.9545 80.6941 38.6894 81.4517 38.1591C82.2169 37.6288 82.804 36.8826 83.2131 35.9205C83.6222 34.9508 83.8267 33.8106 83.8267 32.5C83.8267 31.2273 83.6184 30.1439 83.2017 29.25C82.7926 28.3561 82.2055 27.6742 81.4403 27.2045C80.6752 26.7348 79.7585 26.5 78.6903 26.5C77.91 26.5 77.2093 26.6326 76.5881 26.8977C75.9669 27.1629 75.4366 27.553 74.9972 28.0682C74.5578 28.5833 74.2169 29.2121 73.9744 29.9545C73.7396 30.697 73.6146 31.5455 73.5994 32.5C73.5994 34.4545 74.0578 36.0189 74.9744 37.1932C75.8911 38.3674 77.1449 38.9545 78.7358 38.9545Z" fill="black"/>
<path d="M64.0142 64.9091V94H57.8636V70.7472H57.6932L51.0312 74.9233V69.4688L58.233 64.9091H64.0142ZM82.093 94.3977C80.5968 94.3883 79.1527 94.1373 77.7607 93.6449C76.3781 93.1525 75.1375 92.3523 74.0391 91.2443C72.9406 90.1364 72.0694 88.6686 71.4254 86.8409C70.791 85.0133 70.4737 82.7689 70.4737 80.108C70.4832 77.6648 70.7625 75.482 71.3118 73.5597C71.8705 71.6278 72.666 69.9896 73.6982 68.6449C74.7398 67.3002 75.9851 66.2775 77.4339 65.5767C78.8828 64.8665 80.5069 64.5114 82.3061 64.5114C84.2474 64.5114 85.9614 64.8902 87.4482 65.6477C88.9349 66.3958 90.1281 67.4138 91.0277 68.7017C91.9368 69.9896 92.486 71.4337 92.6754 73.0341H86.6101C86.3733 72.0208 85.8762 71.2254 85.1186 70.6477C84.361 70.0701 83.4235 69.7812 82.3061 69.7812C80.4122 69.7812 78.9728 70.6051 77.9879 72.2528C77.0125 73.9006 76.5154 76.1402 76.4964 78.9716H76.6953C77.1309 78.1098 77.718 77.3759 78.4567 76.7699C79.2048 76.1544 80.0523 75.6856 80.9993 75.3636C81.9557 75.0322 82.9643 74.8665 84.0249 74.8665C85.7483 74.8665 87.2824 75.2737 88.6271 76.0881C89.9718 76.893 91.0324 78.0009 91.8089 79.4119C92.5855 80.8229 92.9737 82.4375 92.9737 84.2557C92.9737 86.2254 92.5144 87.9773 91.5959 89.5114C90.6868 91.0455 89.4131 92.2481 87.7749 93.1193C86.1461 93.9811 84.2521 94.4072 82.093 94.3977ZM82.0646 89.5682C83.0116 89.5682 83.8591 89.3409 84.6072 88.8864C85.3554 88.4318 85.9425 87.8163 86.3686 87.0398C86.7947 86.2633 87.0078 85.392 87.0078 84.4261C87.0078 83.4602 86.7947 82.5937 86.3686 81.8267C85.9519 81.0597 85.3743 80.4489 84.6357 79.9943C83.897 79.5398 83.0542 79.3125 82.1072 79.3125C81.397 79.3125 80.7389 79.4451 80.1328 79.7102C79.5362 79.9754 79.0107 80.3447 78.5561 80.8182C78.111 81.2917 77.7607 81.8409 77.505 82.4659C77.2493 83.0814 77.1214 83.7396 77.1214 84.4403C77.1214 85.3778 77.3345 86.2348 77.7607 87.0114C78.1963 87.7879 78.7834 88.4081 79.522 88.8722C80.2701 89.3362 81.1177 89.5682 82.0646 89.5682Z" fill="black"/>
<defs>
<linearGradient id="paint0_linear_108_493" x1="68" y1="0" x2="68" y2="109" gradientUnits="userSpaceOnUse">
<stop stop-color="#FFD9D9"/>
<stop offset="1" stop-color="#FFD9D9" stop-opacity="0"/>
</linearGradient>
</defs>
</svg>
