<svg width="218" height="46" viewBox="0 0 218 46" fill="none" xmlns="http://www.w3.org/2000/svg">
<rect width="218" height="46" fill="#E16B01"/>
<path d="M50.957 31C50.6185 31 50.5306 30.7852 50.6934 30.3555L55.5566 17.5918C55.7064 17.1947 55.9212 16.9961 56.2012 16.9961H57.5684C57.8483 16.9961 58.0632 17.1947 58.2129 17.5918L63.0762 30.3555C63.2389 30.7852 63.151 31 62.8125 31H61.8164C61.4714 31 61.237 30.8405 61.1133 30.5215L59.8926 27.2891H53.877L52.6562 30.5215C52.5326 30.8405 52.2982 31 51.9531 31H50.957ZM54.4922 25.6875H59.2773L57.7832 21.7812C57.6465 21.4167 57.5098 21.013 57.373 20.5703C57.2428 20.1276 57.0866 19.4993 56.9043 18.6855H56.8652C56.6829 19.4993 56.5234 20.1276 56.3867 20.5703C56.2565 21.013 56.123 21.4167 55.9863 21.7812L54.4922 25.6875ZM65.1074 34.9062C64.8145 34.9062 64.668 34.7598 64.668 34.4668V21.1855C64.668 20.8926 64.8145 20.7461 65.1074 20.7461H65.9277C66.1621 20.7461 66.2891 20.8926 66.3086 21.1855L66.3672 21.9668H66.3867C66.7448 21.5371 67.1484 21.1986 67.5977 20.9512C68.0469 20.7038 68.6458 20.5801 69.3945 20.5801C70.6966 20.5801 71.6862 21.1139 72.3633 22.1816C73.0404 23.2428 73.3789 24.4733 73.3789 25.873C73.3789 27.2728 73.0404 28.5065 72.3633 29.5742C71.6862 30.6354 70.6966 31.166 69.3945 31.166C68.6458 31.166 68.0469 31.0423 67.5977 30.7949C67.1484 30.5475 66.7448 30.209 66.3867 29.7793H66.3672C66.3802 29.9746 66.3867 30.1732 66.3867 30.375V34.4668C66.3867 34.7598 66.2402 34.9062 65.9473 34.9062H65.1074ZM66.3867 26.9961C66.3867 27.9727 66.6178 28.7018 67.0801 29.1836C67.5488 29.6589 68.1348 29.8965 68.8379 29.8965C69.8275 29.8965 70.5273 29.5254 70.9375 28.7832C71.3542 28.041 71.5625 27.071 71.5625 25.873C71.5625 24.6751 71.3542 23.7051 70.9375 22.9629C70.5273 22.2207 69.8275 21.8496 68.8379 21.8496C68.1348 21.8496 67.5488 22.0905 67.0801 22.5723C66.6178 23.0475 66.3867 23.7734 66.3867 24.75V26.9961ZM75.0488 25.873C75.0488 24.2585 75.4525 22.9727 76.2598 22.0156C77.0671 21.0586 78.2227 20.5801 79.7266 20.5801C80.9766 20.5801 82.0117 21.0195 82.832 21.8984C83.6589 22.7708 84.0723 24.1673 84.0723 26.0879C84.0723 26.3809 83.9388 26.5273 83.6719 26.5273H76.8652C76.9759 27.7839 77.3145 28.6595 77.8809 29.1543C78.4473 29.6426 79.0885 29.8867 79.8047 29.8867C80.5599 29.8867 81.1393 29.7598 81.543 29.5059C81.9466 29.252 82.2428 29.0013 82.4316 28.7539C82.64 28.4805 82.8418 28.4284 83.0371 28.5977L83.6133 29.0957C83.763 29.2259 83.763 29.4049 83.6133 29.6328C83.4896 29.8216 83.1348 30.1243 82.5488 30.541C81.9694 30.9577 81.0547 31.166 79.8047 31.166C78.1771 31.166 76.9759 30.6875 76.2012 29.7305C75.4329 28.7734 75.0488 27.4876 75.0488 25.873ZM76.8262 25.2578H82.3438C82.3177 24.3464 82.0833 23.5488 81.6406 22.8652C81.1979 22.1751 80.5469 21.8301 79.6875 21.8301C78.9323 21.8301 78.291 22.084 77.7637 22.5918C77.2363 23.0931 76.9238 23.9818 76.8262 25.2578ZM86.7676 31C86.4746 31 86.3281 30.8535 86.3281 30.5605V21.1855C86.3281 20.8926 86.4746 20.7461 86.7676 20.7461H87.6074C87.9004 20.7461 88.0469 20.8926 88.0469 21.1855V25.0039H92.7734V21.1855C92.7734 20.8926 92.9199 20.7461 93.2129 20.7461H94.0527C94.3457 20.7461 94.4922 20.8926 94.4922 21.1855V30.5605C94.4922 30.8535 94.3457 31 94.0527 31H93.2129C92.9199 31 92.7734 30.8535 92.7734 30.5605V26.293H88.0469V30.5605C88.0469 30.8535 87.9004 31 87.6074 31H86.7676ZM96.6992 34.0273C96.4388 34.0273 96.3086 33.8809 96.3086 33.5879V30.1504C96.3086 29.8574 96.4551 29.7109 96.748 29.7109H97.373C98.0436 29.0859 98.4766 28.1061 98.6719 26.7715C98.8737 25.4368 98.9746 24.3236 98.9746 23.4316V21.1855C98.9746 20.8926 99.1797 20.7461 99.5898 20.7461H105.107C105.4 20.7461 105.547 20.8926 105.547 21.1855V29.7109H106.709C107.002 29.7109 107.148 29.8574 107.148 30.1504V33.5879C107.148 33.8809 107.018 34.0273 106.758 34.0273H106.035C105.775 34.0273 105.645 33.8809 105.645 33.5879V31H97.8125V33.5879C97.8125 33.8809 97.6823 34.0273 97.4219 34.0273H96.6992ZM99.0918 29.7109H103.828V22.0352H100.479V23.9688C100.479 25.6745 100.322 27.0059 100.01 27.9629C99.7038 28.9199 99.3978 29.5026 99.0918 29.7109ZM108.525 28.2656C108.525 27.1068 109.066 26.2572 110.146 25.7168C111.234 25.1764 112.855 24.8607 115.01 24.7695V24.1055C115.01 23.4935 114.87 22.9661 114.59 22.5234C114.316 22.0742 113.77 21.8496 112.949 21.8496C112.428 21.8496 112.012 21.9017 111.699 22.0059C111.387 22.1035 111.1 22.237 110.84 22.4062C110.586 22.569 110.342 22.7806 110.107 23.041C109.932 23.2363 109.766 23.2461 109.609 23.0703L109.102 22.4844C108.958 22.3216 109.007 22.1263 109.248 21.8984C109.593 21.5729 109.928 21.3288 110.254 21.166C110.579 21.0033 110.983 20.8665 111.465 20.7559C111.953 20.6387 112.448 20.5801 112.949 20.5801C114.31 20.5801 115.28 20.9316 115.859 21.6348C116.439 22.3314 116.729 23.2884 116.729 24.5059V30.5605C116.729 30.8535 116.582 31 116.289 31H115.41C115.156 31 115.029 30.8535 115.029 30.5605V30.082H115.01C114.495 30.4857 113.991 30.7689 113.496 30.9316C113.008 31.0879 112.461 31.166 111.855 31.166C110.788 31.166 109.964 30.9121 109.385 30.4043C108.812 29.89 108.525 29.1771 108.525 28.2656ZM110.303 28.3047C110.303 28.7083 110.387 29.0339 110.557 29.2812C110.726 29.5221 110.96 29.6784 111.26 29.75C111.559 29.8151 111.872 29.8477 112.197 29.8477C112.699 29.8477 113.174 29.7988 113.623 29.7012C114.072 29.6035 114.535 29.3464 115.01 28.9297V26.0488C113.695 26.1465 112.757 26.2669 112.197 26.4102C111.637 26.5469 111.182 26.7878 110.83 27.1328C110.479 27.4714 110.303 27.862 110.303 28.3047ZM119.951 31C119.658 31 119.512 30.8535 119.512 30.5605V21.1855C119.512 20.8926 119.658 20.7461 119.951 20.7461H123.105C124.603 20.7461 125.632 20.9902 126.191 21.4785C126.751 21.9603 127.031 22.6016 127.031 23.4023C127.031 23.9036 126.947 24.3301 126.777 24.6816C126.608 25.0267 126.227 25.3359 125.635 25.6094V25.6191C126.318 25.847 126.803 26.1139 127.09 26.4199C127.376 26.7259 127.52 27.3346 127.52 28.2461C127.52 29.0143 127.236 29.6654 126.67 30.1992C126.104 30.7331 125.078 31 123.594 31H119.951ZM121.23 29.7207H123.145C124.056 29.7207 124.71 29.623 125.107 29.4277C125.505 29.2259 125.703 28.7669 125.703 28.0508C125.703 27.3997 125.475 26.957 125.02 26.7227C124.564 26.4883 123.939 26.3711 123.145 26.3711H121.23V29.7207ZM121.23 25.0918H122.754C123.535 25.0918 124.157 24.9811 124.619 24.7598C125.081 24.5319 125.312 24.1315 125.312 23.5586C125.312 22.9401 125.114 22.5299 124.717 22.3281C124.32 22.1198 123.665 22.0156 122.754 22.0156H121.23V25.0918ZM129.326 28.2656C129.326 27.1068 129.867 26.2572 130.947 25.7168C132.035 25.1764 133.656 24.8607 135.811 24.7695V24.1055C135.811 23.4935 135.671 22.9661 135.391 22.5234C135.117 22.0742 134.57 21.8496 133.75 21.8496C133.229 21.8496 132.812 21.9017 132.5 22.0059C132.188 22.1035 131.901 22.237 131.641 22.4062C131.387 22.569 131.143 22.7806 130.908 23.041C130.732 23.2363 130.566 23.2461 130.41 23.0703L129.902 22.4844C129.759 22.3216 129.808 22.1263 130.049 21.8984C130.394 21.5729 130.729 21.3288 131.055 21.166C131.38 21.0033 131.784 20.8665 132.266 20.7559C132.754 20.6387 133.249 20.5801 133.75 20.5801C135.111 20.5801 136.081 20.9316 136.66 21.6348C137.24 22.3314 137.529 23.2884 137.529 24.5059V30.5605C137.529 30.8535 137.383 31 137.09 31H136.211C135.957 31 135.83 30.8535 135.83 30.5605V30.082H135.811C135.296 30.4857 134.792 30.7689 134.297 30.9316C133.809 31.0879 133.262 31.166 132.656 31.166C131.589 31.166 130.765 30.9121 130.186 30.4043C129.613 29.89 129.326 29.1771 129.326 28.2656ZM131.104 28.3047C131.104 28.7083 131.188 29.0339 131.357 29.2812C131.527 29.5221 131.761 29.6784 132.061 29.75C132.36 29.8151 132.673 29.8477 132.998 29.8477C133.499 29.8477 133.975 29.7988 134.424 29.7012C134.873 29.6035 135.335 29.3464 135.811 28.9297V26.0488C134.495 26.1465 133.558 26.2669 132.998 26.4102C132.438 26.5469 131.982 26.7878 131.631 27.1328C131.279 27.4714 131.104 27.862 131.104 28.3047ZM139.678 22.0645C139.385 22.0645 139.238 21.9505 139.238 21.7227V21.0879C139.238 20.86 139.385 20.7461 139.678 20.7461H147.549C147.842 20.7461 147.988 20.86 147.988 21.0879V21.7227C147.988 21.9505 147.842 22.0645 147.549 22.0645H144.473V30.5605C144.473 30.8535 144.326 31 144.033 31H143.193C142.9 31 142.754 30.8535 142.754 30.5605V22.0645H139.678ZM150.127 31C149.834 31 149.688 30.8535 149.688 30.5605V21.1855C149.688 20.8926 149.834 20.7461 150.127 20.7461H150.967C151.26 20.7461 151.406 20.8926 151.406 21.1855V24.9648H153.574C155.072 24.9648 156.1 25.2415 156.66 25.7949C157.22 26.3418 157.5 27.071 157.5 27.9824C157.5 28.8939 157.22 29.6263 156.66 30.1797C156.1 30.7266 155.072 31 153.574 31H150.127ZM151.406 29.7207H153.125C154.036 29.7207 154.691 29.61 155.088 29.3887C155.485 29.1673 155.684 28.6986 155.684 27.9824C155.684 27.2663 155.485 26.7975 155.088 26.5762C154.691 26.3483 154.036 26.2344 153.125 26.2344H151.406V29.7207Z" fill="white"/>
</svg>
