<svg width="91" height="35" viewBox="0 0 91 35" fill="none" xmlns="http://www.w3.org/2000/svg">
<path d="M1.6875 28C0.645833 28 0.125 27.5117 0.125 26.5352V1.45703C0.125 0.480469 0.645833 -0.0078125 1.6875 -0.0078125H8.32812C13.3281 -0.0078125 16.7005 0.610677 18.4453 1.84766C20.2031 3.07161 21.082 4.95964 21.082 7.51172C21.082 9.29557 20.4245 10.6758 19.1094 11.6523C17.8073 12.6289 16.5443 13.1953 15.3203 13.3516V13.4102C16.5052 13.4883 17.8984 14.0872 19.5 15.207C21.1016 16.3268 21.9023 17.9089 21.9023 19.9531C21.9023 22.349 20.9258 24.2891 18.9727 25.7734C17.0195 27.2578 13.7969 28 9.30469 28H1.6875ZM5.82812 23.2344H8.67969C11.4401 23.2344 13.3151 22.9935 14.3047 22.5117C15.3073 22.0299 15.8086 21.0534 15.8086 19.582C15.8086 18.2018 15.2292 17.2513 14.0703 16.7305C12.9245 16.1966 11.1276 15.9297 8.67969 15.9297H5.82812V23.2344ZM5.82812 11.3203H8.38672C10.0664 11.3203 11.6354 11.0273 13.0938 10.4414C14.5651 9.85547 15.3008 8.94401 15.3008 7.70703C15.3008 6.74349 14.8906 6.01432 14.0703 5.51953C13.263 5.01172 11.3685 4.75781 8.38672 4.75781H5.82812V11.3203ZM26.7266 28C25.6068 28 25.3724 27.5247 26.0234 26.5742L32.4883 17.1992L26.7852 8.91797C26.1341 7.96745 26.3685 7.49219 27.4883 7.49219H31.1797C31.7656 7.49219 32.2083 7.7526 32.5078 8.27344L35.5352 13.5469L38.5625 8.27344C38.862 7.7526 39.3047 7.49219 39.8906 7.49219H43.582C44.7148 7.49219 44.9492 7.96745 44.2852 8.91797L38.543 17.1992L45.0469 26.5742C45.7109 27.5247 45.4766 28 44.3438 28H40.6523C40.0794 28 39.6367 27.7396 39.3242 27.2188L35.5352 20.8516L31.7461 27.2188C31.4336 27.7396 30.9909 28 30.418 28H26.7266ZM46.7266 17.7461C46.7266 14.4258 47.5794 11.8216 49.2852 9.93359C51.0039 8.04557 53.556 7.10156 56.9414 7.10156C60.3268 7.10156 62.8724 8.04557 64.5781 9.93359C66.2969 11.8216 67.1562 14.4258 67.1562 17.7461C67.1562 21.0664 66.2969 23.6706 64.5781 25.5586C62.8724 27.4466 60.3268 28.3906 56.9414 28.3906C53.556 28.3906 51.0039 27.4466 49.2852 25.5586C47.5794 23.6706 46.7266 21.0664 46.7266 17.7461ZM52.5078 17.7461C52.5078 20.2201 52.8854 21.9779 53.6406 23.0195C54.4089 24.0482 55.5091 24.5625 56.9414 24.5625C58.3737 24.5625 59.4674 24.0482 60.2227 23.0195C60.9909 21.9779 61.375 20.2201 61.375 17.7461C61.375 15.2721 60.9909 13.5208 60.2227 12.4922C59.4674 11.4505 58.3737 10.9297 56.9414 10.9297C55.5091 10.9297 54.4089 11.4505 53.6406 12.4922C52.8854 13.5208 52.5078 15.2721 52.5078 17.7461ZM69.9102 34.0547C69.194 34.0547 68.8359 33.6641 68.8359 32.8828V25.2656C68.8359 24.4844 69.2266 24.0938 70.0078 24.0938H70.6133C71.8633 23.3385 72.7422 22.0039 73.25 20.0898C73.7708 18.1758 74.0312 15.7734 74.0312 12.8828V8.66406C74.0312 7.88281 74.4219 7.49219 75.2031 7.49219H86.8438C87.625 7.49219 88.0156 7.88281 88.0156 8.66406V24.0938H89.6953C90.4766 24.0938 90.8672 24.4844 90.8672 25.2656V32.8828C90.8672 33.6641 90.5091 34.0547 89.793 34.0547H87.4492C86.7331 34.0547 86.375 33.6641 86.375 32.8828V28H73.3281V32.8828C73.3281 33.6641 72.9701 34.0547 72.2539 34.0547H69.9102ZM76.1992 24.0938H82.5469V11.3984H78.5234V13.8789C78.5234 16.8867 78.2956 19.2305 77.8398 20.9102C77.3971 22.5898 76.8503 23.651 76.1992 24.0938Z" fill="black"/>
</svg>
