<svg width="54" height="16" viewBox="0 0 54 16" fill="none" xmlns="http://www.w3.org/2000/svg">
<path d="M13.0341 7.72727C13.0341 9.26136 12.7571 10.5871 12.2031 11.7045C11.6491 12.822 10.8892 13.6837 9.9233 14.2898C8.95739 14.8958 7.85417 15.1989 6.61364 15.1989C5.37311 15.1989 4.26989 14.8958 3.30398 14.2898C2.33807 13.6837 1.57813 12.822 1.02415 11.7045C0.470171 10.5871 0.193182 9.26136 0.193182 7.72727C0.193182 6.19318 0.470171 4.86742 1.02415 3.75C1.57813 2.63258 2.33807 1.77083 3.30398 1.16477C4.26989 0.558712 5.37311 0.255681 6.61364 0.255681C7.85417 0.255681 8.95739 0.558712 9.9233 1.16477C10.8892 1.77083 11.6491 2.63258 12.2031 3.75C12.7571 4.86742 13.0341 6.19318 13.0341 7.72727ZM11.3295 7.72727C11.3295 6.4678 11.1188 5.40483 10.6974 4.53835C10.2808 3.67188 9.71496 3.0161 9 2.57102C8.28977 2.12595 7.49432 1.90341 6.61364 1.90341C5.73295 1.90341 4.93513 2.12595 4.22017 2.57102C3.50994 3.0161 2.94413 3.67188 2.52273 4.53835C2.10606 5.40483 1.89773 6.4678 1.89773 7.72727C1.89773 8.98674 2.10606 10.0497 2.52273 10.9162C2.94413 11.7827 3.50994 12.4384 4.22017 12.8835C4.93513 13.3286 5.73295 13.5511 6.61364 13.5511C7.49432 13.5511 8.28977 13.3286 9 12.8835C9.71496 12.4384 10.2808 11.7827 10.6974 10.9162C11.1188 10.0497 11.3295 8.98674 11.3295 7.72727ZM28.6946 8.77841V10.3409H22.6719V8.77841H28.6946ZM23.0696 4.09091V15H21.3935V4.09091H23.0696ZM29.973 4.09091V15H28.2969V4.09091H29.973ZM36.2443 15.2557C35.553 15.2557 34.9257 15.1255 34.3622 14.8651C33.7988 14.5999 33.3513 14.2188 33.0199 13.7216C32.6884 13.2197 32.5227 12.6136 32.5227 11.9034C32.5227 11.2784 32.6458 10.7718 32.892 10.3835C33.1383 9.99053 33.4673 9.68276 33.8793 9.46023C34.2912 9.23769 34.7457 9.07197 35.2429 8.96307C35.7448 8.84943 36.2491 8.75947 36.7557 8.69318C37.4186 8.60795 37.956 8.54403 38.3679 8.50142C38.7846 8.45407 39.0876 8.37595 39.277 8.26705C39.4711 8.15814 39.5682 7.96875 39.5682 7.69886V7.64205C39.5682 6.94129 39.3764 6.39678 38.9929 6.00852C38.6141 5.62027 38.0388 5.42614 37.267 5.42614C36.4669 5.42614 35.8395 5.60133 35.3849 5.9517C34.9304 6.30208 34.6108 6.67614 34.4261 7.07386L32.8352 6.50568C33.1193 5.8428 33.4981 5.3267 33.9716 4.95739C34.4498 4.58333 34.9706 4.32292 35.5341 4.17614C36.1023 4.02462 36.661 3.94886 37.2102 3.94886C37.5606 3.94886 37.9631 3.99148 38.4176 4.0767C38.8769 4.1572 39.3196 4.32528 39.7457 4.58097C40.1766 4.83665 40.5341 5.22254 40.8182 5.73864C41.1023 6.25473 41.2443 6.94602 41.2443 7.8125V15H39.5682V13.5227H39.483C39.3693 13.7595 39.1799 14.0128 38.9148 14.2827C38.6496 14.5526 38.2969 14.7822 37.8565 14.9716C37.4162 15.161 36.8788 15.2557 36.2443 15.2557ZM36.5 13.75C37.1629 13.75 37.7216 13.6198 38.1761 13.3594C38.6354 13.099 38.9811 12.7628 39.2131 12.3509C39.4498 11.9389 39.5682 11.5057 39.5682 11.0511V9.51705C39.4972 9.60227 39.3409 9.6804 39.0994 9.75142C38.8627 9.81771 38.5881 9.87689 38.2756 9.92898C37.9678 9.97633 37.6671 10.0189 37.3736 10.0568C37.0848 10.09 36.8504 10.1184 36.6705 10.142C36.2348 10.1989 35.8277 10.2912 35.4489 10.419C35.0748 10.5421 34.7718 10.7292 34.5398 10.9801C34.3125 11.2263 34.1989 11.5625 34.1989 11.9886C34.1989 12.571 34.4143 13.0114 34.8452 13.3097C35.2808 13.6032 35.8324 13.75 36.5 13.75ZM48.7354 15.2273C47.7127 15.2273 46.832 14.9858 46.0934 14.5028C45.3548 14.0199 44.7866 13.3546 44.3888 12.5071C43.9911 11.6596 43.7923 10.6913 43.7923 9.60227C43.7923 8.49432 43.9959 7.51657 44.4031 6.66903C44.815 5.81676 45.3879 5.15152 46.1218 4.6733C46.8604 4.19034 47.7222 3.94886 48.707 3.94886C49.4741 3.94886 50.1654 4.09091 50.7809 4.375C51.3964 4.65909 51.9007 5.05682 52.2937 5.56818C52.6867 6.07955 52.9305 6.67614 53.0252 7.35795H51.3491C51.2212 6.8608 50.9371 6.42045 50.4968 6.03693C50.0612 5.64867 49.4741 5.45455 48.7354 5.45455C48.082 5.45455 47.5091 5.625 47.0167 5.96591C46.529 6.30208 46.1478 6.77794 45.8732 7.39347C45.6033 8.00426 45.4684 8.72159 45.4684 9.54545C45.4684 10.3883 45.601 11.1222 45.8661 11.7472C46.136 12.3722 46.5148 12.8575 47.0025 13.2031C47.4949 13.5488 48.0726 13.7216 48.7354 13.7216C49.171 13.7216 49.5664 13.6458 49.9215 13.4943C50.2766 13.3428 50.5773 13.125 50.8235 12.8409C51.0697 12.5568 51.2449 12.2159 51.3491 11.8182H53.0252C52.9305 12.4621 52.6961 13.0421 52.3221 13.5582C51.9528 14.0696 51.4627 14.4768 50.8519 14.7798C50.2459 15.0781 49.5404 15.2273 48.7354 15.2273Z" fill="white"/>
</svg>
