<svg width="1440" height="167" viewBox="0 0 1440 167" fill="none" xmlns="http://www.w3.org/2000/svg">
<rect x="0.5" y="0.5" width="1439" height="166" fill="url(#paint0_linear_152_157)" stroke="black"/>
<path d="M35.8068 34.9091H39.3295V44.625C39.3295 46.0644 39.5805 47.196 40.0824 48.0199C40.5843 48.8343 41.2945 49.4119 42.2131 49.7528C43.1316 50.0843 44.2159 50.25 45.4659 50.25C46.2519 50.25 47.0142 50.2216 47.7528 50.1648C48.4915 50.0985 49.2112 50.0085 49.9119 49.8949C50.6222 49.7812 51.3134 49.6439 51.9858 49.483C52.6676 49.322 53.3352 49.142 53.9886 48.9432V52.125C53.3542 52.3239 52.7244 52.5038 52.0994 52.6648C51.4839 52.8258 50.84 52.9631 50.1676 53.0767C49.5047 53.1903 48.7898 53.2803 48.0227 53.3466C47.2557 53.4034 46.4034 53.4318 45.4659 53.4318C43.4583 53.4318 41.7301 53.143 40.2812 52.5653C38.8419 51.9877 37.7339 51.0549 36.9574 49.767C36.1903 48.4792 35.8068 46.7652 35.8068 44.625V34.9091ZM53.5341 34.9091H57.0568V64H53.5341V34.9091ZM72.8097 64.4545C70.7074 64.4545 68.8939 63.9905 67.3693 63.0625C65.8542 62.125 64.6847 60.8182 63.8608 59.142C63.0464 57.4564 62.6392 55.4962 62.6392 53.2614C62.6392 51.0265 63.0464 49.0568 63.8608 47.3523C64.6847 45.6383 65.8305 44.303 67.2983 43.3466C68.7756 42.3807 70.4991 41.8977 72.4688 41.8977C73.6051 41.8977 74.7273 42.0871 75.8352 42.4659C76.9432 42.8447 77.9517 43.4602 78.8608 44.3125C79.7699 45.1553 80.4943 46.2727 81.0341 47.6648C81.5739 49.0568 81.8438 50.7708 81.8438 52.8068V54.2273H65.0256V51.3295H78.4347C78.4347 50.0985 78.1884 49 77.696 48.0341C77.2131 47.0682 76.5218 46.3059 75.6222 45.7472C74.732 45.1884 73.6809 44.9091 72.4688 44.9091C71.1335 44.9091 69.9782 45.2405 69.0028 45.9034C68.0369 46.5568 67.2936 47.4091 66.7727 48.4602C66.2519 49.5114 65.9915 50.6383 65.9915 51.8409V53.7727C65.9915 55.4205 66.2756 56.8172 66.8438 57.9631C67.4214 59.0994 68.2216 59.9659 69.2443 60.5625C70.267 61.1496 71.4555 61.4432 72.8097 61.4432C73.6903 61.4432 74.4858 61.3201 75.196 61.0739C75.9157 60.8182 76.536 60.4394 77.0568 59.9375C77.5777 59.4261 77.9801 58.7917 78.2642 58.0341L81.5028 58.9432C81.1619 60.0417 80.589 61.0076 79.7841 61.8409C78.9792 62.6648 77.9848 63.3087 76.8011 63.7727C75.6174 64.2273 74.2869 64.4545 72.8097 64.4545ZM86.9432 72.1818V42.1818H90.1818V45.6477H90.5795C90.8258 45.2689 91.1667 44.786 91.6023 44.1989C92.0473 43.6023 92.6818 43.072 93.5057 42.608C94.339 42.1345 95.4659 41.8977 96.8864 41.8977C98.7235 41.8977 100.343 42.357 101.744 43.2756C103.146 44.1941 104.24 45.4962 105.026 47.1818C105.812 48.8674 106.205 50.8561 106.205 53.1477C106.205 55.4583 105.812 57.4612 105.026 59.1562C104.24 60.8419 103.151 62.1487 101.759 63.0767C100.366 63.9953 98.7614 64.4545 96.9432 64.4545C95.5417 64.4545 94.4195 64.2225 93.5767 63.7585C92.7339 63.285 92.0852 62.75 91.6307 62.1534C91.1761 61.5473 90.8258 61.0455 90.5795 60.6477H90.2955V72.1818H86.9432ZM90.2386 53.0909C90.2386 54.7386 90.4801 56.1922 90.9631 57.4517C91.446 58.7017 92.1515 59.6818 93.0795 60.392C94.0076 61.0928 95.1439 61.4432 96.4886 61.4432C97.8902 61.4432 99.0597 61.0739 99.9972 60.3352C100.944 59.5871 101.654 58.5833 102.128 57.3239C102.611 56.0549 102.852 54.6439 102.852 53.0909C102.852 51.5568 102.616 50.1742 102.142 48.9432C101.678 47.7027 100.973 46.7225 100.026 46.0028C99.0881 45.2737 97.9091 44.9091 96.4886 44.9091C95.125 44.9091 93.9792 45.2547 93.0511 45.946C92.1231 46.6278 91.4223 47.5843 90.9489 48.8153C90.4754 50.0369 90.2386 51.4621 90.2386 53.0909ZM125.92 51.5568V54.6818H113.875V51.5568H125.92ZM114.67 42.1818V64H111.318V42.1818H114.67ZM128.477 42.1818V64H125.125V42.1818H128.477ZM137.497 50.0795H143.747C146.304 50.0795 148.259 50.7282 149.614 52.0256C150.968 53.3229 151.645 54.9659 151.645 56.9545C151.645 58.2614 151.342 59.4498 150.736 60.5199C150.13 61.5805 149.24 62.428 148.065 63.0625C146.891 63.6875 145.452 64 143.747 64H134.599V42.1818H137.952V60.875H143.747C145.073 60.875 146.162 60.5246 147.014 59.8239C147.866 59.1231 148.293 58.2235 148.293 57.125C148.293 55.9697 147.866 55.0275 147.014 54.2983C146.162 53.5691 145.073 53.2045 143.747 53.2045H137.497V50.0795ZM155.111 64V42.1818H158.463V64H155.111ZM164.599 42.1818H167.952V60.875H176.19V42.1818H179.543V60.875H187.781V42.1818H191.134V64H164.599V42.1818ZM206.403 64.4545C204.301 64.4545 202.488 63.9905 200.963 63.0625C199.448 62.125 198.278 60.8182 197.455 59.142C196.64 57.4564 196.233 55.4962 196.233 53.2614C196.233 51.0265 196.64 49.0568 197.455 47.3523C198.278 45.6383 199.424 44.303 200.892 43.3466C202.369 42.3807 204.093 41.8977 206.062 41.8977C207.199 41.8977 208.321 42.0871 209.429 42.4659C210.537 42.8447 211.545 43.4602 212.455 44.3125C213.364 45.1553 214.088 46.2727 214.628 47.6648C215.168 49.0568 215.438 50.7708 215.438 52.8068V54.2273H198.619V51.3295H212.028C212.028 50.0985 211.782 49 211.29 48.0341C210.807 47.0682 210.116 46.3059 209.216 45.7472C208.326 45.1884 207.275 44.9091 206.062 44.9091C204.727 44.9091 203.572 45.2405 202.597 45.9034C201.631 46.5568 200.887 47.4091 200.366 48.4602C199.846 49.5114 199.585 50.6383 199.585 51.8409V53.7727C199.585 55.4205 199.869 56.8172 200.438 57.9631C201.015 59.0994 201.815 59.9659 202.838 60.5625C203.861 61.1496 205.049 61.4432 206.403 61.4432C207.284 61.4432 208.08 61.3201 208.79 61.0739C209.509 60.8182 210.13 60.4394 210.651 59.9375C211.171 59.4261 211.574 58.7917 211.858 58.0341L215.097 58.9432C214.756 60.0417 214.183 61.0076 213.378 61.8409C212.573 62.6648 211.579 63.3087 210.395 63.7727C209.211 64.2273 207.881 64.4545 206.403 64.4545ZM220.537 64V42.1818H229.457C231.806 42.1818 233.671 42.7121 235.054 43.7727C236.437 44.8333 237.128 46.2348 237.128 47.9773C237.128 49.303 236.735 50.3305 235.949 51.0597C235.163 51.7794 234.154 52.267 232.923 52.5227C233.728 52.6364 234.509 52.9205 235.267 53.375C236.034 53.8295 236.669 54.4545 237.17 55.25C237.672 56.036 237.923 57.0019 237.923 58.1477C237.923 59.2652 237.639 60.2642 237.071 61.1449C236.503 62.0256 235.688 62.7216 234.628 63.233C233.567 63.7443 232.298 64 230.821 64H220.537ZM223.719 60.9318H230.821C231.976 60.9318 232.881 60.6572 233.534 60.108C234.188 59.5587 234.514 58.8106 234.514 57.8636C234.514 56.7367 234.188 55.8513 233.534 55.2074C232.881 54.554 231.976 54.2273 230.821 54.2273H223.719V60.9318ZM223.719 51.3295H229.457C230.357 51.3295 231.129 51.2064 231.773 50.9602C232.417 50.7045 232.909 50.3447 233.25 49.8807C233.6 49.4072 233.776 48.8485 233.776 48.2045C233.776 47.286 233.392 46.5663 232.625 46.0455C231.858 45.5152 230.802 45.25 229.457 45.25H223.719V51.3295ZM251.862 64.4545C249.816 64.4545 248.055 63.9716 246.577 63.0057C245.1 62.0398 243.964 60.7093 243.168 59.0142C242.373 57.3191 241.975 55.3826 241.975 53.2045C241.975 50.9886 242.382 49.0331 243.197 47.3381C244.021 45.6335 245.166 44.303 246.634 43.3466C248.112 42.3807 249.835 41.8977 251.805 41.8977C253.339 41.8977 254.721 42.1818 255.952 42.75C257.183 43.3182 258.192 44.1136 258.978 45.1364C259.764 46.1591 260.252 47.3523 260.441 48.7159H257.089C256.833 47.7216 256.265 46.8409 255.384 46.0739C254.513 45.2973 253.339 44.9091 251.862 44.9091C250.555 44.9091 249.409 45.25 248.424 45.9318C247.449 46.6042 246.686 47.5559 246.137 48.7869C245.597 50.0085 245.327 51.4432 245.327 53.0909C245.327 54.7765 245.593 56.2443 246.123 57.4943C246.663 58.7443 247.42 59.715 248.396 60.4062C249.38 61.0975 250.536 61.4432 251.862 61.4432C252.733 61.4432 253.523 61.2917 254.234 60.9886C254.944 60.6856 255.545 60.25 256.038 59.6818C256.53 59.1136 256.88 58.4318 257.089 57.6364H260.441C260.252 58.9242 259.783 60.0843 259.035 61.1165C258.296 62.1392 257.316 62.9536 256.094 63.5597C254.882 64.1562 253.471 64.4545 251.862 64.4545ZM265.342 64V42.1818H268.694V51.6705H270.91L278.751 42.1818H283.069L274.262 52.6932L283.183 64H278.864L271.705 54.7955H268.694V64H265.342ZM294.791 64.4545C292.821 64.4545 291.093 63.9858 289.607 63.0483C288.129 62.1108 286.974 60.7992 286.141 59.1136C285.317 57.428 284.905 55.4583 284.905 53.2045C284.905 50.9318 285.317 48.9479 286.141 47.2528C286.974 45.5578 288.129 44.2415 289.607 43.304C291.093 42.3665 292.821 41.8977 294.791 41.8977C296.761 41.8977 298.484 42.3665 299.962 43.304C301.448 44.2415 302.604 45.5578 303.428 47.2528C304.261 48.9479 304.678 50.9318 304.678 53.2045C304.678 55.4583 304.261 57.428 303.428 59.1136C302.604 60.7992 301.448 62.1108 299.962 63.0483C298.484 63.9858 296.761 64.4545 294.791 64.4545ZM294.791 61.4432C296.287 61.4432 297.518 61.0597 298.484 60.2926C299.45 59.5256 300.165 58.517 300.629 57.267C301.093 56.017 301.325 54.6629 301.325 53.2045C301.325 51.7462 301.093 50.3873 300.629 49.1278C300.165 47.8684 299.45 46.8504 298.484 46.0739C297.518 45.2973 296.287 44.9091 294.791 44.9091C293.295 44.9091 292.064 45.2973 291.098 46.0739C290.132 46.8504 289.417 47.8684 288.953 49.1278C288.489 50.3873 288.257 51.7462 288.257 53.2045C288.257 54.6629 288.489 56.017 288.953 57.267C289.417 58.517 290.132 59.5256 291.098 60.2926C292.064 61.0597 293.295 61.4432 294.791 61.4432ZM323.261 42.1818V45.3068H313.147V64H309.795V42.1818H323.261ZM335.885 64.4545C333.915 64.4545 332.187 63.9858 330.7 63.0483C329.223 62.1108 328.068 60.7992 327.234 59.1136C326.411 57.428 325.999 55.4583 325.999 53.2045C325.999 50.9318 326.411 48.9479 327.234 47.2528C328.068 45.5578 329.223 44.2415 330.7 43.304C332.187 42.3665 333.915 41.8977 335.885 41.8977C337.855 41.8977 339.578 42.3665 341.055 43.304C342.542 44.2415 343.697 45.5578 344.521 47.2528C345.355 48.9479 345.771 50.9318 345.771 53.2045C345.771 55.4583 345.355 57.428 344.521 59.1136C343.697 60.7992 342.542 62.1108 341.055 63.0483C339.578 63.9858 337.855 64.4545 335.885 64.4545ZM335.885 61.4432C337.381 61.4432 338.612 61.0597 339.578 60.2926C340.544 59.5256 341.259 58.517 341.723 57.267C342.187 56.017 342.419 54.6629 342.419 53.2045C342.419 51.7462 342.187 50.3873 341.723 49.1278C341.259 47.8684 340.544 46.8504 339.578 46.0739C338.612 45.2973 337.381 44.9091 335.885 44.9091C334.389 44.9091 333.158 45.2973 332.192 46.0739C331.226 46.8504 330.511 47.8684 330.047 49.1278C329.583 50.3873 329.351 51.7462 329.351 53.2045C329.351 54.6629 329.583 56.017 330.047 57.267C330.511 58.517 331.226 59.5256 332.192 60.2926C333.158 61.0597 334.389 61.4432 335.885 61.4432ZM364.298 72.1818C363.729 72.1818 363.223 72.1345 362.778 72.0398C362.333 71.9545 362.025 71.8693 361.854 71.7841L362.707 68.8295C363.521 69.0379 364.241 69.1136 364.866 69.0568C365.491 69 366.045 68.7206 366.528 68.2188C367.02 67.7263 367.47 66.9261 367.877 65.8182L368.502 64.1136L360.434 42.1818H364.07L370.093 59.5682H370.32L376.343 42.1818H379.979L370.718 67.1818C370.301 68.3087 369.785 69.2415 369.17 69.9801C368.554 70.7282 367.839 71.2822 367.025 71.642C366.22 72.0019 365.311 72.1818 364.298 72.1818ZM380.636 64V60.875H381.432C382.085 60.875 382.63 60.7472 383.065 60.4915C383.501 60.2263 383.851 59.767 384.116 59.1136C384.391 58.4508 384.599 57.5322 384.741 56.358C384.893 55.1742 385.002 53.6686 385.068 51.8409L385.466 42.1818H400.011V64H396.659V45.3068H388.648L388.307 53.0909C388.231 54.8807 388.07 56.4574 387.824 57.821C387.587 59.1752 387.223 60.3116 386.73 61.2301C386.247 62.1487 385.603 62.84 384.798 63.304C383.993 63.768 382.985 64 381.773 64H380.636ZM408.605 64.2273C407.904 64.2273 407.303 63.9763 406.801 63.4744C406.299 62.9725 406.048 62.3712 406.048 61.6705C406.048 60.9697 406.299 60.3684 406.801 59.8665C407.303 59.3646 407.904 59.1136 408.605 59.1136C409.306 59.1136 409.907 59.3646 410.409 59.8665C410.911 60.3684 411.162 60.9697 411.162 61.6705C411.162 62.1345 411.044 62.5606 410.807 62.9489C410.58 63.3371 410.272 63.6496 409.884 63.8864C409.505 64.1136 409.079 64.2273 408.605 64.2273ZM428.371 64V61.4432L437.973 50.9318C439.1 49.7008 440.028 48.6307 440.757 47.7216C441.486 46.803 442.026 45.9413 442.376 45.1364C442.736 44.322 442.916 43.4697 442.916 42.5795C442.916 41.5568 442.67 40.6714 442.178 39.9233C441.695 39.1752 441.032 38.5975 440.189 38.1903C439.346 37.7831 438.399 37.5795 437.348 37.5795C436.231 37.5795 435.255 37.8116 434.422 38.2756C433.598 38.7301 432.959 39.3693 432.504 40.1932C432.059 41.017 431.837 41.983 431.837 43.0909H428.484C428.484 41.3864 428.877 39.8902 429.663 38.6023C430.449 37.3144 431.519 36.3106 432.874 35.5909C434.237 34.8712 435.767 34.5114 437.462 34.5114C439.166 34.5114 440.677 34.8712 441.993 35.5909C443.309 36.3106 444.341 37.2812 445.089 38.5028C445.838 39.7244 446.212 41.0833 446.212 42.5795C446.212 43.6496 446.018 44.696 445.629 45.7188C445.25 46.732 444.588 47.8636 443.641 49.1136C442.703 50.3542 441.401 51.8693 439.734 53.6591L433.2 60.6477V60.875H446.723V64H428.371ZM453.499 64L466.51 38.2614V38.0341H451.51V34.9091H470.146V38.2045L457.192 64H453.499Z" fill="black"/>
<path opacity="0.8" d="M48.5 143L40.5 132.318H37.6364V143H34.8182V119.727H37.6364V129.818H38.8636L48.1818 119.727H51.5455L42.1364 129.955L51.8636 143H48.5ZM60.2784 143.409C59.1723 143.409 58.1686 143.201 57.267 142.784C56.3655 142.36 55.6496 141.75 55.1193 140.955C54.589 140.152 54.3239 139.182 54.3239 138.045C54.3239 137.045 54.5208 136.235 54.9148 135.614C55.3087 134.985 55.8352 134.492 56.4943 134.136C57.1534 133.78 57.8807 133.515 58.6761 133.341C59.4792 133.159 60.286 133.015 61.0966 132.909C62.1572 132.773 63.017 132.67 63.6761 132.602C64.3428 132.527 64.8277 132.402 65.1307 132.227C65.4413 132.053 65.5966 131.75 65.5966 131.318V131.227C65.5966 130.106 65.2898 129.235 64.6761 128.614C64.0701 127.992 63.1496 127.682 61.9148 127.682C60.6345 127.682 59.6307 127.962 58.9034 128.523C58.1761 129.083 57.6648 129.682 57.3693 130.318L54.8239 129.409C55.2784 128.348 55.8845 127.523 56.642 126.932C57.4072 126.333 58.2405 125.917 59.142 125.682C60.0511 125.439 60.9451 125.318 61.8239 125.318C62.3845 125.318 63.0284 125.386 63.7557 125.523C64.4905 125.652 65.1989 125.92 65.8807 126.33C66.5701 126.739 67.142 127.356 67.5966 128.182C68.0511 129.008 68.2784 130.114 68.2784 131.5V143H65.5966V140.636H65.4602C65.2784 141.015 64.9754 141.42 64.5511 141.852C64.1269 142.284 63.5625 142.652 62.858 142.955C62.1534 143.258 61.2936 143.409 60.2784 143.409ZM60.6875 141C61.7481 141 62.642 140.792 63.3693 140.375C64.1042 139.958 64.6572 139.42 65.0284 138.761C65.4072 138.102 65.5966 137.409 65.5966 136.682V134.227C65.483 134.364 65.233 134.489 64.8466 134.602C64.4678 134.708 64.0284 134.803 63.5284 134.886C63.036 134.962 62.5549 135.03 62.0852 135.091C61.6231 135.144 61.2481 135.189 60.9602 135.227C60.2633 135.318 59.6117 135.466 59.0057 135.67C58.4072 135.867 57.9223 136.167 57.5511 136.568C57.1875 136.962 57.0057 137.5 57.0057 138.182C57.0057 139.114 57.3504 139.818 58.0398 140.295C58.7367 140.765 59.6193 141 60.6875 141ZM72.0824 138.545H74.946C75.0066 139.333 75.3627 139.932 76.0142 140.341C76.6733 140.75 77.5294 140.955 78.5824 140.955C79.6581 140.955 80.5786 140.735 81.3438 140.295C82.1089 139.848 82.4915 139.129 82.4915 138.136C82.4915 137.553 82.3475 137.045 82.0597 136.614C81.7718 136.174 81.3665 135.833 80.8438 135.591C80.321 135.348 79.7036 135.227 78.9915 135.227H75.9915V132.818H78.9915C80.0597 132.818 80.8475 132.576 81.3551 132.091C81.8703 131.606 82.1278 131 82.1278 130.273C82.1278 129.492 81.8513 128.867 81.2983 128.398C80.7453 127.92 79.9612 127.682 78.946 127.682C77.9233 127.682 77.071 127.913 76.3892 128.375C75.7074 128.83 75.3475 129.417 75.3097 130.136H72.4915C72.5218 129.197 72.8097 128.367 73.3551 127.648C73.9006 126.92 74.643 126.352 75.5824 125.943C76.5218 125.527 77.5975 125.318 78.8097 125.318C80.0369 125.318 81.1013 125.534 82.0028 125.966C82.9119 126.39 83.6127 126.97 84.1051 127.705C84.6051 128.432 84.8551 129.258 84.8551 130.182C84.8551 131.167 84.5786 131.962 84.0256 132.568C83.4725 133.174 82.7794 133.606 81.946 133.864V134.045C82.6051 134.091 83.1771 134.303 83.6619 134.682C84.1544 135.053 84.5369 135.542 84.8097 136.148C85.0824 136.746 85.2188 137.409 85.2188 138.136C85.2188 139.197 84.9347 140.121 84.3665 140.909C83.7983 141.689 83.018 142.295 82.0256 142.727C81.0331 143.152 79.9006 143.364 78.6278 143.364C77.393 143.364 76.2869 143.163 75.3097 142.761C74.3324 142.352 73.5559 141.788 72.9801 141.068C72.4119 140.341 72.1127 139.5 72.0824 138.545ZM94.1222 143.409C93.0161 143.409 92.0123 143.201 91.1108 142.784C90.2093 142.36 89.4934 141.75 88.9631 140.955C88.4328 140.152 88.1676 139.182 88.1676 138.045C88.1676 137.045 88.3646 136.235 88.7585 135.614C89.1525 134.985 89.679 134.492 90.3381 134.136C90.9972 133.78 91.7244 133.515 92.5199 133.341C93.3229 133.159 94.1297 133.015 94.9403 132.909C96.0009 132.773 96.8608 132.67 97.5199 132.602C98.1866 132.527 98.6714 132.402 98.9744 132.227C99.285 132.053 99.4403 131.75 99.4403 131.318V131.227C99.4403 130.106 99.1335 129.235 98.5199 128.614C97.9138 127.992 96.9934 127.682 95.7585 127.682C94.4782 127.682 93.4744 127.962 92.7472 128.523C92.0199 129.083 91.5085 129.682 91.2131 130.318L88.6676 129.409C89.1222 128.348 89.7282 127.523 90.4858 126.932C91.2509 126.333 92.0843 125.917 92.9858 125.682C93.8949 125.439 94.7888 125.318 95.6676 125.318C96.2282 125.318 96.8722 125.386 97.5994 125.523C98.3343 125.652 99.0426 125.92 99.7244 126.33C100.414 126.739 100.986 127.356 101.44 128.182C101.895 129.008 102.122 130.114 102.122 131.5V143H99.4403V140.636H99.304C99.1222 141.015 98.8191 141.42 98.3949 141.852C97.9706 142.284 97.4063 142.652 96.7017 142.955C95.9972 143.258 95.1373 143.409 94.1222 143.409ZM94.5312 141C95.5919 141 96.4858 140.792 97.2131 140.375C97.9479 139.958 98.5009 139.42 98.8722 138.761C99.2509 138.102 99.4403 137.409 99.4403 136.682V134.227C99.3267 134.364 99.0767 134.489 98.6903 134.602C98.3116 134.708 97.8722 134.803 97.3722 134.886C96.8797 134.962 96.3987 135.03 95.929 135.091C95.4669 135.144 95.0919 135.189 94.804 135.227C94.107 135.318 93.4555 135.466 92.8494 135.67C92.2509 135.867 91.7661 136.167 91.3949 136.568C91.0313 136.962 90.8494 137.5 90.8494 138.182C90.8494 139.114 91.1941 139.818 91.8835 140.295C92.5805 140.765 93.4631 141 94.5312 141ZM118.699 133.045V135.545H109.062V133.045H118.699ZM109.699 125.545V143H107.017V125.545H109.699ZM120.744 125.545V143H118.062V125.545H120.744ZM127.96 131.864H132.96C135.006 131.864 136.57 132.383 137.653 133.42C138.737 134.458 139.278 135.773 139.278 137.364C139.278 138.409 139.036 139.36 138.551 140.216C138.066 141.064 137.354 141.742 136.415 142.25C135.475 142.75 134.324 143 132.96 143H125.642V125.545H128.324V140.5H132.96C134.021 140.5 134.892 140.22 135.574 139.659C136.256 139.098 136.597 138.379 136.597 137.5C136.597 136.576 136.256 135.822 135.574 135.239C134.892 134.655 134.021 134.364 132.96 134.364H127.96V131.864Z" fill="black"/>
<path d="M1153.24 40.9091V70H1149.72V44.6023H1149.55L1142.44 49.3182V45.7386L1149.72 40.9091H1153.24ZM1170.92 70.3977C1168.97 70.3977 1167.25 70.0521 1165.75 69.3608C1164.27 68.66 1163.11 67.6989 1162.27 66.4773C1161.44 65.2462 1161.03 63.8447 1161.04 62.2727C1161.03 61.0417 1161.27 59.9053 1161.76 58.8636C1162.25 57.8125 1162.93 56.9366 1163.78 56.2358C1164.64 55.5256 1165.6 55.0758 1166.66 54.8864V54.7159C1165.27 54.3561 1164.16 53.5748 1163.34 52.3722C1162.51 51.16 1162.11 49.7822 1162.12 48.2386C1162.11 46.7614 1162.48 45.4403 1163.24 44.2756C1164 43.1108 1165.04 42.1922 1166.36 41.5199C1167.7 40.8475 1169.22 40.5114 1170.92 40.5114C1172.61 40.5114 1174.11 40.8475 1175.44 41.5199C1176.77 42.1922 1177.81 43.1108 1178.57 44.2756C1179.33 45.4403 1179.72 46.7614 1179.73 48.2386C1179.72 49.7822 1179.3 51.16 1178.47 52.3722C1177.64 53.5748 1176.55 54.3561 1175.18 54.7159V54.8864C1176.24 55.0758 1177.18 55.5256 1178.03 56.2358C1178.87 56.9366 1179.54 57.8125 1180.04 58.8636C1180.54 59.9053 1180.8 61.0417 1180.81 62.2727C1180.8 63.8447 1180.37 65.2462 1179.53 66.4773C1178.7 67.6989 1177.54 68.66 1176.05 69.3608C1174.57 70.0521 1172.86 70.3977 1170.92 70.3977ZM1170.92 67.2727C1172.24 67.2727 1173.38 67.0597 1174.33 66.6335C1175.29 66.2074 1176.03 65.6061 1176.55 64.8295C1177.07 64.053 1177.33 63.1439 1177.34 62.1023C1177.33 61.0038 1177.05 60.0331 1176.49 59.1903C1175.93 58.3475 1175.17 57.6847 1174.2 57.2017C1173.25 56.7187 1172.15 56.4773 1170.92 56.4773C1169.68 56.4773 1168.57 56.7187 1167.6 57.2017C1166.63 57.6847 1165.87 58.3475 1165.31 59.1903C1164.76 60.0331 1164.49 61.0038 1164.5 62.1023C1164.49 63.1439 1164.74 64.053 1165.26 64.8295C1165.78 65.6061 1166.52 66.2074 1167.49 66.6335C1168.45 67.0597 1169.6 67.2727 1170.92 67.2727ZM1170.92 53.4659C1171.96 53.4659 1172.89 53.2576 1173.69 52.8409C1174.51 52.4242 1175.15 51.8419 1175.61 51.0938C1176.07 50.3456 1176.31 49.4697 1176.32 48.4659C1176.31 47.4811 1176.08 46.6241 1175.62 45.8949C1175.17 45.1562 1174.54 44.5881 1173.74 44.1903C1172.93 43.7831 1171.99 43.5795 1170.92 43.5795C1169.83 43.5795 1168.88 43.7831 1168.07 44.1903C1167.25 44.5881 1166.62 45.1562 1166.18 45.8949C1165.73 46.6241 1165.52 47.4811 1165.53 48.4659C1165.52 49.4697 1165.74 50.3456 1166.19 51.0938C1166.66 51.8419 1167.3 52.4242 1168.11 52.8409C1168.93 53.2576 1169.86 53.4659 1170.92 53.4659ZM1188.75 66.2784C1188.05 66.2784 1187.45 66.0275 1186.95 65.5256C1186.45 65.0237 1186.2 64.4223 1186.2 63.7216C1186.2 63.0208 1186.45 62.4195 1186.95 61.9176C1187.45 61.4157 1188.05 61.1648 1188.75 61.1648C1189.45 61.1648 1190.06 61.4157 1190.56 61.9176C1191.06 62.4195 1191.31 63.0208 1191.31 63.7216C1191.31 64.1856 1191.19 64.6117 1190.96 65C1190.73 65.3883 1190.42 65.7008 1190.03 65.9375C1189.65 66.1648 1189.23 66.2784 1188.75 66.2784ZM1188.75 51.5625C1188.05 51.5625 1187.45 51.3116 1186.95 50.8097C1186.45 50.3078 1186.2 49.7064 1186.2 49.0057C1186.2 48.3049 1186.45 47.7036 1186.95 47.2017C1187.45 46.6998 1188.05 46.4489 1188.75 46.4489C1189.45 46.4489 1190.06 46.6998 1190.56 47.2017C1191.06 47.7036 1191.31 48.3049 1191.31 49.0057C1191.31 49.4697 1191.19 49.8958 1190.96 50.2841C1190.73 50.6723 1190.42 50.9848 1190.03 51.2216C1189.65 51.4489 1189.23 51.5625 1188.75 51.5625ZM1206.76 70.3977C1204.62 70.3977 1202.79 69.8153 1201.29 68.6506C1199.78 67.4763 1198.63 65.7765 1197.84 63.5511C1197.04 61.3163 1196.64 58.6174 1196.64 55.4545C1196.64 52.3106 1197.04 49.6259 1197.84 47.4006C1198.64 45.1657 1199.8 43.4612 1201.3 42.2869C1202.82 41.1032 1204.64 40.5114 1206.76 40.5114C1208.88 40.5114 1210.69 41.1032 1212.2 42.2869C1213.71 43.4612 1214.87 45.1657 1215.66 47.4006C1216.47 49.6259 1216.87 52.3106 1216.87 55.4545C1216.87 58.6174 1216.47 61.3163 1215.68 63.5511C1214.88 65.7765 1213.73 67.4763 1212.23 68.6506C1210.72 69.8153 1208.9 70.3977 1206.76 70.3977ZM1206.76 67.2727C1208.88 67.2727 1210.53 66.25 1211.7 64.2045C1212.88 62.1591 1213.46 59.2424 1213.46 55.4545C1213.46 52.9356 1213.19 50.7907 1212.65 49.0199C1212.12 47.2491 1211.36 45.8996 1210.35 44.9716C1209.36 44.0436 1208.16 43.5795 1206.76 43.5795C1204.66 43.5795 1203.01 44.6165 1201.83 46.6903C1200.65 48.7547 1200.05 51.6761 1200.05 55.4545C1200.05 57.9735 1200.32 60.1136 1200.85 61.875C1201.38 63.6364 1202.14 64.9763 1203.14 65.8949C1204.14 66.8134 1205.35 67.2727 1206.76 67.2727ZM1231.76 70.3977C1229.62 70.3977 1227.79 69.8153 1226.29 68.6506C1224.78 67.4763 1223.63 65.7765 1222.84 63.5511C1222.04 61.3163 1221.64 58.6174 1221.64 55.4545C1221.64 52.3106 1222.04 49.6259 1222.84 47.4006C1223.64 45.1657 1224.8 43.4612 1226.3 42.2869C1227.82 41.1032 1229.64 40.5114 1231.76 40.5114C1233.88 40.5114 1235.69 41.1032 1237.2 42.2869C1238.71 43.4612 1239.87 45.1657 1240.66 47.4006C1241.47 49.6259 1241.87 52.3106 1241.87 55.4545C1241.87 58.6174 1241.47 61.3163 1240.68 63.5511C1239.88 65.7765 1238.73 67.4763 1237.23 68.6506C1235.72 69.8153 1233.9 70.3977 1231.76 70.3977ZM1231.76 67.2727C1233.88 67.2727 1235.53 66.25 1236.7 64.2045C1237.88 62.1591 1238.46 59.2424 1238.46 55.4545C1238.46 52.9356 1238.19 50.7907 1237.65 49.0199C1237.12 47.2491 1236.36 45.8996 1235.35 44.9716C1234.36 44.0436 1233.16 43.5795 1231.76 43.5795C1229.66 43.5795 1228.01 44.6165 1226.83 46.6903C1225.65 48.7547 1225.05 51.6761 1225.05 55.4545C1225.05 57.9735 1225.32 60.1136 1225.85 61.875C1226.38 63.6364 1227.14 64.9763 1228.14 65.8949C1229.14 66.8134 1230.35 67.2727 1231.76 67.2727ZM1271.08 53.892V57.017H1258.35V53.892H1271.08ZM1297.66 70.3977C1295.52 70.3977 1293.69 69.8153 1292.19 68.6506C1290.68 67.4763 1289.53 65.7765 1288.74 63.5511C1287.94 61.3163 1287.54 58.6174 1287.54 55.4545C1287.54 52.3106 1287.94 49.6259 1288.74 47.4006C1289.54 45.1657 1290.7 43.4612 1292.2 42.2869C1293.72 41.1032 1295.54 40.5114 1297.66 40.5114C1299.78 40.5114 1301.59 41.1032 1303.1 42.2869C1304.61 43.4612 1305.77 45.1657 1306.56 47.4006C1307.37 49.6259 1307.77 52.3106 1307.77 55.4545C1307.77 58.6174 1307.37 61.3163 1306.58 63.5511C1305.78 65.7765 1304.63 67.4763 1303.12 68.6506C1301.62 69.8153 1299.8 70.3977 1297.66 70.3977ZM1297.66 67.2727C1299.78 67.2727 1301.43 66.25 1302.6 64.2045C1303.77 62.1591 1304.36 59.2424 1304.36 55.4545C1304.36 52.9356 1304.09 50.7907 1303.55 49.0199C1303.02 47.2491 1302.25 45.8996 1301.25 44.9716C1300.26 44.0436 1299.06 43.5795 1297.66 43.5795C1295.55 43.5795 1293.91 44.6165 1292.73 46.6903C1291.54 48.7547 1290.95 51.6761 1290.95 55.4545C1290.95 57.9735 1291.22 60.1136 1291.75 61.875C1292.28 63.6364 1293.04 64.9763 1294.03 65.8949C1295.04 66.8134 1296.25 67.2727 1297.66 67.2727ZM1322.66 70.3977C1320.52 70.3977 1318.69 69.8153 1317.19 68.6506C1315.68 67.4763 1314.53 65.7765 1313.74 63.5511C1312.94 61.3163 1312.54 58.6174 1312.54 55.4545C1312.54 52.3106 1312.94 49.6259 1313.74 47.4006C1314.54 45.1657 1315.7 43.4612 1317.2 42.2869C1318.72 41.1032 1320.54 40.5114 1322.66 40.5114C1324.78 40.5114 1326.59 41.1032 1328.1 42.2869C1329.61 43.4612 1330.77 45.1657 1331.56 47.4006C1332.37 49.6259 1332.77 52.3106 1332.77 55.4545C1332.77 58.6174 1332.37 61.3163 1331.58 63.5511C1330.78 65.7765 1329.63 67.4763 1328.12 68.6506C1326.62 69.8153 1324.8 70.3977 1322.66 70.3977ZM1322.66 67.2727C1324.78 67.2727 1326.43 66.25 1327.6 64.2045C1328.77 62.1591 1329.36 59.2424 1329.36 55.4545C1329.36 52.9356 1329.09 50.7907 1328.55 49.0199C1328.02 47.2491 1327.25 45.8996 1326.25 44.9716C1325.26 44.0436 1324.06 43.5795 1322.66 43.5795C1320.55 43.5795 1318.91 44.6165 1317.73 46.6903C1316.54 48.7547 1315.95 51.6761 1315.95 55.4545C1315.95 57.9735 1316.22 60.1136 1316.75 61.875C1317.28 63.6364 1318.04 64.9763 1319.03 65.8949C1320.04 66.8134 1321.25 67.2727 1322.66 67.2727ZM1340.67 66.2784C1339.97 66.2784 1339.37 66.0275 1338.86 65.5256C1338.36 65.0237 1338.11 64.4223 1338.11 63.7216C1338.11 63.0208 1338.36 62.4195 1338.86 61.9176C1339.37 61.4157 1339.97 61.1648 1340.67 61.1648C1341.37 61.1648 1341.97 61.4157 1342.47 61.9176C1342.97 62.4195 1343.22 63.0208 1343.22 63.7216C1343.22 64.1856 1343.11 64.6117 1342.87 65C1342.64 65.3883 1342.33 65.7008 1341.95 65.9375C1341.57 66.1648 1341.14 66.2784 1340.67 66.2784ZM1340.67 51.5625C1339.97 51.5625 1339.37 51.3116 1338.86 50.8097C1338.36 50.3078 1338.11 49.7064 1338.11 49.0057C1338.11 48.3049 1338.36 47.7036 1338.86 47.2017C1339.37 46.6998 1339.97 46.4489 1340.67 46.4489C1341.37 46.4489 1341.97 46.6998 1342.47 47.2017C1342.97 47.7036 1343.22 48.3049 1343.22 49.0057C1343.22 49.4697 1343.11 49.8958 1342.87 50.2841C1342.64 50.6723 1342.33 50.9848 1341.95 51.2216C1341.57 51.4489 1341.14 51.5625 1340.67 51.5625ZM1358.67 70.3977C1356.53 70.3977 1354.71 69.8153 1353.2 68.6506C1351.7 67.4763 1350.55 65.7765 1349.75 63.5511C1348.96 61.3163 1348.56 58.6174 1348.56 55.4545C1348.56 52.3106 1348.96 49.6259 1349.75 47.4006C1350.56 45.1657 1351.71 43.4612 1353.22 42.2869C1354.73 41.1032 1356.55 40.5114 1358.67 40.5114C1360.79 40.5114 1362.61 41.1032 1364.11 42.2869C1365.63 43.4612 1366.78 45.1657 1367.58 47.4006C1368.38 49.6259 1368.79 52.3106 1368.79 55.4545C1368.79 58.6174 1368.39 61.3163 1367.59 63.5511C1366.8 65.7765 1365.65 67.4763 1364.14 68.6506C1362.63 69.8153 1360.81 70.3977 1358.67 70.3977ZM1358.67 67.2727C1360.79 67.2727 1362.44 66.25 1363.62 64.2045C1364.79 62.1591 1365.38 59.2424 1365.38 55.4545C1365.38 52.9356 1365.11 50.7907 1364.57 49.0199C1364.04 47.2491 1363.27 45.8996 1362.27 44.9716C1361.27 44.0436 1360.07 43.5795 1358.67 43.5795C1356.57 43.5795 1354.93 44.6165 1353.74 46.6903C1352.56 48.7547 1351.97 51.6761 1351.97 55.4545C1351.97 57.9735 1352.23 60.1136 1352.76 61.875C1353.29 63.6364 1354.06 64.9763 1355.05 65.8949C1356.05 66.8134 1357.26 67.2727 1358.67 67.2727ZM1383.67 70.3977C1381.53 70.3977 1379.71 69.8153 1378.2 68.6506C1376.7 67.4763 1375.55 65.7765 1374.75 63.5511C1373.96 61.3163 1373.56 58.6174 1373.56 55.4545C1373.56 52.3106 1373.96 49.6259 1374.75 47.4006C1375.56 45.1657 1376.71 43.4612 1378.22 42.2869C1379.73 41.1032 1381.55 40.5114 1383.67 40.5114C1385.79 40.5114 1387.61 41.1032 1389.11 42.2869C1390.63 43.4612 1391.78 45.1657 1392.58 47.4006C1393.38 49.6259 1393.79 52.3106 1393.79 55.4545C1393.79 58.6174 1393.39 61.3163 1392.59 63.5511C1391.8 65.7765 1390.65 67.4763 1389.14 68.6506C1387.63 69.8153 1385.81 70.3977 1383.67 70.3977ZM1383.67 67.2727C1385.79 67.2727 1387.44 66.25 1388.62 64.2045C1389.79 62.1591 1390.38 59.2424 1390.38 55.4545C1390.38 52.9356 1390.11 50.7907 1389.57 49.0199C1389.04 47.2491 1388.27 45.8996 1387.27 44.9716C1386.27 44.0436 1385.07 43.5795 1383.67 43.5795C1381.57 43.5795 1379.93 44.6165 1378.74 46.6903C1377.56 48.7547 1376.97 51.6761 1376.97 55.4545C1376.97 57.9735 1377.23 60.1136 1377.76 61.875C1378.29 63.6364 1379.06 64.9763 1380.05 65.8949C1381.05 66.8134 1382.26 67.2727 1383.67 67.2727Z" fill="black"/>
<defs>
<linearGradient id="paint0_linear_152_157" x1="720" y1="0" x2="720" y2="167" gradientUnits="userSpaceOnUse">
<stop stop-color="#FFD9D9"/>
<stop offset="1" stop-color="#FFD9D9" stop-opacity="0"/>
</linearGradient>
</defs>
</svg>
