<svg width="1440" height="167" viewBox="0 0 1440 167" fill="none" xmlns="http://www.w3.org/2000/svg">
<rect x="0.5" y="0.5" width="1439" height="166" fill="url(#paint0_linear_116_502)" stroke="black"/>
<path d="M36.8068 34.9091H40.3295V44.625C40.3295 46.0644 40.5805 47.196 41.0824 48.0199C41.5843 48.8343 42.2945 49.4119 43.2131 49.7528C44.1316 50.0843 45.2159 50.25 46.4659 50.25C47.2519 50.25 48.0142 50.2216 48.7528 50.1648C49.4915 50.0985 50.2112 50.0085 50.9119 49.8949C51.6222 49.7812 52.3134 49.6439 52.9858 49.483C53.6676 49.322 54.3352 49.142 54.9886 48.9432V52.125C54.3542 52.3239 53.7244 52.5038 53.0994 52.6648C52.4839 52.8258 51.84 52.9631 51.1676 53.0767C50.5047 53.1903 49.7898 53.2803 49.0227 53.3466C48.2557 53.4034 47.4034 53.4318 46.4659 53.4318C44.4583 53.4318 42.7301 53.143 41.2812 52.5653C39.8419 51.9877 38.7339 51.0549 37.9574 49.767C37.1903 48.4792 36.8068 46.7652 36.8068 44.625V34.9091ZM54.5341 34.9091H58.0568V64H54.5341V34.9091ZM68.0142 59.0568L78.5256 42.1818H82.3892V64H79.0369V47.125L68.5824 64H64.6619V42.1818H68.0142V59.0568ZM97.3928 64.4545C95.3473 64.4545 93.5859 63.9716 92.1087 63.0057C90.6314 62.0398 89.495 60.7093 88.6996 59.0142C87.9041 57.3191 87.5064 55.3826 87.5064 53.2045C87.5064 50.9886 87.9136 49.0331 88.728 47.3381C89.5518 45.6335 90.6977 44.303 92.1655 43.3466C93.6428 42.3807 95.3662 41.8977 97.3359 41.8977C98.87 41.8977 100.253 42.1818 101.484 42.75C102.715 43.3182 103.723 44.1136 104.509 45.1364C105.295 46.1591 105.783 47.3523 105.972 48.7159H102.62C102.364 47.7216 101.796 46.8409 100.915 46.0739C100.044 45.2973 98.87 44.9091 97.3928 44.9091C96.0859 44.9091 94.9401 45.25 93.9553 45.9318C92.9799 46.6042 92.2176 47.5559 91.6683 48.7869C91.1286 50.0085 90.8587 51.4432 90.8587 53.0909C90.8587 54.7765 91.1238 56.2443 91.6541 57.4943C92.1939 58.7443 92.9515 59.715 93.9268 60.4062C94.9117 61.0975 96.067 61.4432 97.3928 61.4432C98.264 61.4432 99.0547 61.2917 99.7649 60.9886C100.475 60.6856 101.076 60.25 101.569 59.6818C102.061 59.1136 102.412 58.4318 102.62 57.6364H105.972C105.783 58.9242 105.314 60.0843 104.566 61.1165C103.827 62.1392 102.847 62.9536 101.626 63.5597C100.414 64.1562 99.0026 64.4545 97.3928 64.4545ZM109.154 45.3068V42.1818H126.881V45.3068H119.722V64H116.37V45.3068H109.154ZM139.502 64.4545C137.532 64.4545 135.804 63.9858 134.317 63.0483C132.84 62.1108 131.685 60.7992 130.852 59.1136C130.028 57.428 129.616 55.4583 129.616 53.2045C129.616 50.9318 130.028 48.9479 130.852 47.2528C131.685 45.5578 132.84 44.2415 134.317 43.304C135.804 42.3665 137.532 41.8977 139.502 41.8977C141.472 41.8977 143.195 42.3665 144.673 43.304C146.159 44.2415 147.315 45.5578 148.138 47.2528C148.972 48.9479 149.388 50.9318 149.388 53.2045C149.388 55.4583 148.972 57.428 148.138 59.1136C147.315 60.7992 146.159 62.1108 144.673 63.0483C143.195 63.9858 141.472 64.4545 139.502 64.4545ZM139.502 61.4432C140.998 61.4432 142.229 61.0597 143.195 60.2926C144.161 59.5256 144.876 58.517 145.34 57.267C145.804 56.017 146.036 54.6629 146.036 53.2045C146.036 51.7462 145.804 50.3873 145.34 49.1278C144.876 47.8684 144.161 46.8504 143.195 46.0739C142.229 45.2973 140.998 44.9091 139.502 44.9091C138.006 44.9091 136.775 45.2973 135.809 46.0739C134.843 46.8504 134.128 47.8684 133.664 49.1278C133.2 50.3873 132.968 51.7462 132.968 53.2045C132.968 54.6629 133.2 56.017 133.664 57.267C134.128 58.517 134.843 59.5256 135.809 60.2926C136.775 61.0597 138.006 61.4432 139.502 61.4432ZM154.506 64V42.1818H171.665V64H168.312V45.3068H157.858V64H154.506ZM186.651 64.4545C184.681 64.4545 182.953 63.9858 181.466 63.0483C179.989 62.1108 178.833 60.7992 178 59.1136C177.176 57.428 176.764 55.4583 176.764 53.2045C176.764 50.9318 177.176 48.9479 178 47.2528C178.833 45.5578 179.989 44.2415 181.466 43.304C182.953 42.3665 184.681 41.8977 186.651 41.8977C188.62 41.8977 190.344 42.3665 191.821 43.304C193.308 44.2415 194.463 45.5578 195.287 47.2528C196.12 48.9479 196.537 50.9318 196.537 53.2045C196.537 55.4583 196.12 57.428 195.287 59.1136C194.463 60.7992 193.308 62.1108 191.821 63.0483C190.344 63.9858 188.62 64.4545 186.651 64.4545ZM186.651 61.4432C188.147 61.4432 189.378 61.0597 190.344 60.2926C191.31 59.5256 192.025 58.517 192.489 57.267C192.953 56.017 193.185 54.6629 193.185 53.2045C193.185 51.7462 192.953 50.3873 192.489 49.1278C192.025 47.8684 191.31 46.8504 190.344 46.0739C189.378 45.2973 188.147 44.9091 186.651 44.9091C185.154 44.9091 183.923 45.2973 182.957 46.0739C181.991 46.8504 181.277 47.8684 180.812 49.1278C180.348 50.3873 180.116 51.7462 180.116 53.2045C180.116 54.6629 180.348 56.017 180.812 57.267C181.277 58.517 181.991 59.5256 182.957 60.2926C183.923 61.0597 185.154 61.4432 186.651 61.4432ZM199.722 64V60.875H200.518C201.171 60.875 201.716 60.7472 202.151 60.4915C202.587 60.2263 202.937 59.767 203.202 59.1136C203.477 58.4508 203.685 57.5322 203.827 56.358C203.979 55.1742 204.088 53.6686 204.154 51.8409L204.552 42.1818H219.097V64H215.745V45.3068H207.734L207.393 53.0909C207.317 54.8807 207.156 56.4574 206.91 57.821C206.673 59.1752 206.308 60.3116 205.816 61.2301C205.333 62.1487 204.689 62.84 203.884 63.304C203.079 63.768 202.071 64 200.859 64H199.722ZM228.146 50.0795H234.396C236.952 50.0795 238.908 50.7282 240.262 52.0256C241.616 53.3229 242.293 54.9659 242.293 56.9545C242.293 58.2614 241.99 59.4498 241.384 60.5199C240.778 61.5805 239.888 62.428 238.714 63.0625C237.54 63.6875 236.1 64 234.396 64H225.248V42.1818H228.6V60.875H234.396C235.721 60.875 236.81 60.5246 237.663 59.8239C238.515 59.1231 238.941 58.2235 238.941 57.125C238.941 55.9697 238.515 55.0275 237.663 54.2983C236.81 53.5691 235.721 53.2045 234.396 53.2045H228.146V50.0795ZM256.26 64.4545C254.214 64.4545 252.453 63.9716 250.976 63.0057C249.499 62.0398 248.362 60.7093 247.567 59.0142C246.771 57.3191 246.374 55.3826 246.374 53.2045C246.374 50.9886 246.781 49.0331 247.595 47.3381C248.419 45.6335 249.565 44.303 251.033 43.3466C252.51 42.3807 254.233 41.8977 256.203 41.8977C257.737 41.8977 259.12 42.1818 260.351 42.75C261.582 43.3182 262.59 44.1136 263.376 45.1364C264.162 46.1591 264.65 47.3523 264.839 48.7159H261.487C261.232 47.7216 260.663 46.8409 259.783 46.0739C258.911 45.2973 257.737 44.9091 256.26 44.9091C254.953 44.9091 253.807 45.25 252.822 45.9318C251.847 46.6042 251.085 47.5559 250.536 48.7869C249.996 50.0085 249.726 51.4432 249.726 53.0909C249.726 54.7765 249.991 56.2443 250.521 57.4943C251.061 58.7443 251.819 59.715 252.794 60.4062C253.779 61.0975 254.934 61.4432 256.26 61.4432C257.131 61.4432 257.922 61.2917 258.632 60.9886C259.342 60.6856 259.944 60.25 260.436 59.6818C260.929 59.1136 261.279 58.4318 261.487 57.6364H264.839C264.65 58.9242 264.181 60.0843 263.433 61.1165C262.695 62.1392 261.714 62.9536 260.493 63.5597C259.281 64.1562 257.87 64.4545 256.26 64.4545ZM269.74 64V42.1818H273.092V51.6705H275.308L283.149 42.1818H287.467L278.661 52.6932L287.581 64H283.263L276.104 54.7955H273.092V64H269.74ZM297.645 64.5114C296.262 64.5114 295.008 64.2509 293.881 63.7301C292.754 63.1998 291.859 62.4375 291.196 61.4432C290.533 60.4394 290.202 59.2273 290.202 57.8068C290.202 56.5568 290.448 55.5436 290.94 54.767C291.433 53.9811 292.091 53.3655 292.915 52.9205C293.739 52.4754 294.648 52.1439 295.642 51.9261C296.646 51.6989 297.654 51.5189 298.668 51.3864C299.993 51.2159 301.068 51.0881 301.892 51.0028C302.725 50.9081 303.331 50.7519 303.71 50.5341C304.098 50.3163 304.293 49.9375 304.293 49.3977V49.2841C304.293 47.8826 303.909 46.7936 303.142 46.017C302.384 45.2405 301.234 44.8523 299.69 44.8523C298.09 44.8523 296.835 45.2027 295.926 45.9034C295.017 46.6042 294.378 47.3523 294.009 48.1477L290.827 47.0114C291.395 45.6856 292.152 44.6534 293.099 43.9148C294.056 43.1667 295.098 42.6458 296.224 42.3523C297.361 42.0492 298.478 41.8977 299.577 41.8977C300.277 41.8977 301.082 41.983 301.991 42.1534C302.91 42.3144 303.795 42.6506 304.648 43.1619C305.509 43.6733 306.224 44.4451 306.793 45.4773C307.361 46.5095 307.645 47.892 307.645 49.625V64H304.293V61.0455H304.122C303.895 61.5189 303.516 62.0256 302.986 62.5653C302.455 63.1051 301.75 63.5644 300.869 63.9432C299.989 64.322 298.914 64.5114 297.645 64.5114ZM298.156 61.5C299.482 61.5 300.599 61.2396 301.509 60.7188C302.427 60.1979 303.118 59.5256 303.582 58.7017C304.056 57.8778 304.293 57.0114 304.293 56.1023V53.0341C304.151 53.2045 303.838 53.3608 303.355 53.5028C302.882 53.6354 302.332 53.7538 301.707 53.858C301.092 53.9527 300.491 54.0379 299.903 54.1136C299.326 54.1799 298.857 54.2367 298.497 54.2841C297.626 54.3977 296.812 54.5824 296.054 54.8381C295.306 55.0843 294.7 55.4583 294.236 55.9602C293.781 56.4527 293.554 57.125 293.554 57.9773C293.554 59.142 293.985 60.0227 294.847 60.6193C295.718 61.2064 296.821 61.5 298.156 61.5ZM326.888 64V45.25H321.093C319.786 45.25 318.759 45.553 318.011 46.1591C317.263 46.7652 316.888 47.5985 316.888 48.6591C316.888 49.7008 317.225 50.5199 317.897 51.1165C318.579 51.7131 319.512 52.0114 320.695 52.0114H327.741V55.1364H320.695C319.218 55.1364 317.944 54.8759 316.874 54.3551C315.804 53.8343 314.98 53.0909 314.403 52.125C313.825 51.1496 313.536 49.9943 313.536 48.6591C313.536 47.3144 313.839 46.1591 314.445 45.1932C315.051 44.2273 315.918 43.4839 317.045 42.9631C318.181 42.4422 319.531 42.1818 321.093 42.1818H330.07V64H326.888ZM312.343 64L318.536 53.1477H322.173L315.979 64H312.343ZM349.634 72.1818C349.065 72.1818 348.559 72.1345 348.114 72.0398C347.669 71.9545 347.361 71.8693 347.19 71.7841L348.043 68.8295C348.857 69.0379 349.577 69.1136 350.202 69.0568C350.827 69 351.381 68.7206 351.864 68.2188C352.356 67.7263 352.806 66.9261 353.213 65.8182L353.838 64.1136L345.77 42.1818H349.406L355.429 59.5682H355.656L361.679 42.1818H365.315L356.054 67.1818C355.637 68.3087 355.121 69.2415 354.506 69.9801C353.89 70.7282 353.175 71.2822 352.361 71.642C351.556 72.0019 350.647 72.1818 349.634 72.1818ZM365.972 64V60.875H366.768C367.421 60.875 367.966 60.7472 368.401 60.4915C368.837 60.2263 369.187 59.767 369.452 59.1136C369.727 58.4508 369.935 57.5322 370.077 56.358C370.229 55.1742 370.338 53.6686 370.404 51.8409L370.802 42.1818H385.347V64H381.995V45.3068H373.984L373.643 53.0909C373.567 54.8807 373.406 56.4574 373.16 57.821C372.923 59.1752 372.558 60.3116 372.066 61.2301C371.583 62.1487 370.939 62.84 370.134 63.304C369.329 63.768 368.321 64 367.109 64H365.972ZM393.941 64.2273C393.24 64.2273 392.639 63.9763 392.137 63.4744C391.635 62.9725 391.384 62.3712 391.384 61.6705C391.384 60.9697 391.635 60.3684 392.137 59.8665C392.639 59.3646 393.24 59.1136 393.941 59.1136C394.642 59.1136 395.243 59.3646 395.745 59.8665C396.247 60.3684 396.498 60.9697 396.498 61.6705C396.498 62.1345 396.379 62.5606 396.143 62.9489C395.915 63.3371 395.608 63.6496 395.219 63.8864C394.841 64.1136 394.415 64.2273 393.941 64.2273ZM423.025 64.3977C421.074 64.3977 419.351 64.0521 417.854 63.3608C416.368 62.66 415.208 61.6989 414.374 60.4773C413.541 59.2462 413.129 57.8447 413.138 56.2727C413.129 55.0417 413.371 53.9053 413.863 52.8636C414.355 51.8125 415.028 50.9366 415.88 50.2358C416.742 49.5256 417.703 49.0758 418.763 48.8864V48.7159C417.371 48.3561 416.263 47.5748 415.44 46.3722C414.616 45.16 414.209 43.7822 414.218 42.2386C414.209 40.7614 414.583 39.4403 415.34 38.2756C416.098 37.1108 417.139 36.1922 418.465 35.5199C419.8 34.8475 421.32 34.5114 423.025 34.5114C424.71 34.5114 426.216 34.8475 427.542 35.5199C428.868 36.1922 429.909 37.1108 430.667 38.2756C431.434 39.4403 431.822 40.7614 431.832 42.2386C431.822 43.7822 431.401 45.16 430.567 46.3722C429.744 47.5748 428.65 48.3561 427.286 48.7159V48.8864C428.337 49.0758 429.284 49.5256 430.127 50.2358C430.97 50.9366 431.642 51.8125 432.144 52.8636C432.646 53.9053 432.902 55.0417 432.911 56.2727C432.902 57.8447 432.476 59.2462 431.633 60.4773C430.799 61.6989 429.639 62.66 428.153 63.3608C426.675 64.0521 424.966 64.3977 423.025 64.3977ZM423.025 61.2727C424.341 61.2727 425.478 61.0597 426.434 60.6335C427.39 60.2074 428.129 59.6061 428.65 58.8295C429.171 58.053 429.436 57.1439 429.445 56.1023C429.436 55.0038 429.152 54.0331 428.593 53.1903C428.034 52.3475 427.272 51.6847 426.306 51.2017C425.35 50.7187 424.256 50.4773 423.025 50.4773C421.784 50.4773 420.676 50.7187 419.701 51.2017C418.735 51.6847 417.973 52.3475 417.414 53.1903C416.865 54.0331 416.595 55.0038 416.604 56.1023C416.595 57.1439 416.846 58.053 417.357 58.8295C417.878 59.6061 418.621 60.2074 419.587 60.6335C420.553 61.0597 421.699 61.2727 423.025 61.2727ZM423.025 47.4659C424.067 47.4659 424.99 47.2576 425.795 46.8409C426.609 46.4242 427.248 45.8419 427.712 45.0938C428.176 44.3456 428.413 43.4697 428.423 42.4659C428.413 41.4811 428.181 40.6241 427.727 39.8949C427.272 39.1562 426.642 38.5881 425.837 38.1903C425.032 37.7831 424.095 37.5795 423.025 37.5795C421.936 37.5795 420.984 37.7831 420.17 38.1903C419.355 38.5881 418.726 39.1562 418.281 39.8949C417.835 40.6241 417.618 41.4811 417.627 42.4659C417.618 43.4697 417.84 44.3456 418.295 45.0938C418.759 45.8419 419.398 46.4242 420.212 46.8409C421.027 47.2576 421.964 47.4659 423.025 47.4659ZM448.014 64.3977C446.821 64.3788 445.628 64.1515 444.435 63.7159C443.241 63.2803 442.152 62.5464 441.168 61.5142C440.183 60.4725 439.392 59.0663 438.795 57.2955C438.199 55.5152 437.901 53.2803 437.901 50.5909C437.901 48.0152 438.142 45.733 438.625 43.7443C439.108 41.7462 439.809 40.0653 440.727 38.7017C441.646 37.3286 442.754 36.2869 444.051 35.5767C445.358 34.8665 446.83 34.5114 448.469 34.5114C450.098 34.5114 451.546 34.8381 452.815 35.4915C454.094 36.1354 455.135 37.035 455.94 38.1903C456.745 39.3456 457.266 40.6761 457.503 42.1818H454.037C453.715 40.875 453.09 39.7907 452.162 38.929C451.234 38.0672 450.003 37.6364 448.469 37.6364C446.215 37.6364 444.439 38.6165 443.142 40.5767C441.854 42.5369 441.205 45.2879 441.196 48.8295H441.423C441.954 48.0246 442.583 47.3381 443.312 46.7699C444.051 46.1922 444.866 45.7472 445.756 45.4347C446.646 45.1222 447.588 44.9659 448.582 44.9659C450.249 44.9659 451.774 45.3826 453.156 46.2159C454.539 47.0398 455.647 48.1809 456.48 49.6392C457.313 51.0881 457.73 52.75 457.73 54.625C457.73 56.4242 457.328 58.072 456.523 59.5682C455.718 61.0549 454.586 62.2386 453.128 63.1193C451.679 63.9905 449.974 64.4167 448.014 64.3977ZM448.014 61.2727C449.207 61.2727 450.277 60.9744 451.224 60.3778C452.181 59.7812 452.934 58.9811 453.483 57.9773C454.042 56.9735 454.321 55.8561 454.321 54.625C454.321 53.4223 454.051 52.3286 453.511 51.3438C452.981 50.3494 452.247 49.5587 451.31 48.9716C450.382 48.3845 449.321 48.0909 448.128 48.0909C447.228 48.0909 446.39 48.2708 445.614 48.6307C444.837 48.9811 444.155 49.464 443.568 50.0795C442.991 50.6951 442.536 51.4006 442.205 52.196C441.873 52.982 441.707 53.8106 441.707 54.6818C441.707 55.8371 441.977 56.9167 442.517 57.9205C443.066 58.9242 443.814 59.7339 444.761 60.3494C445.718 60.965 446.802 61.2727 448.014 61.2727Z" fill="black"/>
<path opacity="0.8" d="M49.5 151L41.5 140.318H38.6364V151H35.8182V127.727H38.6364V137.818H39.8636L49.1818 127.727H52.5455L43.1364 137.955L52.8636 151H49.5ZM61.2784 151.409C60.1723 151.409 59.1686 151.201 58.267 150.784C57.3655 150.36 56.6496 149.75 56.1193 148.955C55.589 148.152 55.3239 147.182 55.3239 146.045C55.3239 145.045 55.5208 144.235 55.9148 143.614C56.3087 142.985 56.8352 142.492 57.4943 142.136C58.1534 141.78 58.8807 141.515 59.6761 141.341C60.4792 141.159 61.286 141.015 62.0966 140.909C63.1572 140.773 64.017 140.67 64.6761 140.602C65.3428 140.527 65.8277 140.402 66.1307 140.227C66.4413 140.053 66.5966 139.75 66.5966 139.318V139.227C66.5966 138.106 66.2898 137.235 65.6761 136.614C65.0701 135.992 64.1496 135.682 62.9148 135.682C61.6345 135.682 60.6307 135.962 59.9034 136.523C59.1761 137.083 58.6648 137.682 58.3693 138.318L55.8239 137.409C56.2784 136.348 56.8845 135.523 57.642 134.932C58.4072 134.333 59.2405 133.917 60.142 133.682C61.0511 133.439 61.9451 133.318 62.8239 133.318C63.3845 133.318 64.0284 133.386 64.7557 133.523C65.4905 133.652 66.1989 133.92 66.8807 134.33C67.5701 134.739 68.142 135.356 68.5966 136.182C69.0511 137.008 69.2784 138.114 69.2784 139.5V151H66.5966V148.636H66.4602C66.2784 149.015 65.9754 149.42 65.5511 149.852C65.1269 150.284 64.5625 150.652 63.858 150.955C63.1534 151.258 62.2936 151.409 61.2784 151.409ZM61.6875 149C62.7481 149 63.642 148.792 64.3693 148.375C65.1042 147.958 65.6572 147.42 66.0284 146.761C66.4072 146.102 66.5966 145.409 66.5966 144.682V142.227C66.483 142.364 66.233 142.489 65.8466 142.602C65.4678 142.708 65.0284 142.803 64.5284 142.886C64.036 142.962 63.5549 143.03 63.0852 143.091C62.6231 143.144 62.2481 143.189 61.9602 143.227C61.2633 143.318 60.6117 143.466 60.0057 143.67C59.4072 143.867 58.9223 144.167 58.5511 144.568C58.1875 144.962 58.0057 145.5 58.0057 146.182C58.0057 147.114 58.3504 147.818 59.0398 148.295C59.7367 148.765 60.6193 149 61.6875 149ZM73.0824 146.545H75.946C76.0066 147.333 76.3627 147.932 77.0142 148.341C77.6733 148.75 78.5294 148.955 79.5824 148.955C80.6581 148.955 81.5786 148.735 82.3438 148.295C83.1089 147.848 83.4915 147.129 83.4915 146.136C83.4915 145.553 83.3475 145.045 83.0597 144.614C82.7718 144.174 82.3665 143.833 81.8438 143.591C81.321 143.348 80.7036 143.227 79.9915 143.227H76.9915V140.818H79.9915C81.0597 140.818 81.8475 140.576 82.3551 140.091C82.8703 139.606 83.1278 139 83.1278 138.273C83.1278 137.492 82.8513 136.867 82.2983 136.398C81.7453 135.92 80.9612 135.682 79.946 135.682C78.9233 135.682 78.071 135.913 77.3892 136.375C76.7074 136.83 76.3475 137.417 76.3097 138.136H73.4915C73.5218 137.197 73.8097 136.367 74.3551 135.648C74.9006 134.92 75.643 134.352 76.5824 133.943C77.5218 133.527 78.5975 133.318 79.8097 133.318C81.0369 133.318 82.1013 133.534 83.0028 133.966C83.9119 134.39 84.6127 134.97 85.1051 135.705C85.6051 136.432 85.8551 137.258 85.8551 138.182C85.8551 139.167 85.5786 139.962 85.0256 140.568C84.4725 141.174 83.7794 141.606 82.946 141.864V142.045C83.6051 142.091 84.1771 142.303 84.6619 142.682C85.1544 143.053 85.5369 143.542 85.8097 144.148C86.0824 144.746 86.2188 145.409 86.2188 146.136C86.2188 147.197 85.9347 148.121 85.3665 148.909C84.7983 149.689 84.018 150.295 83.0256 150.727C82.0331 151.152 80.9006 151.364 79.6278 151.364C78.393 151.364 77.2869 151.163 76.3097 150.761C75.3324 150.352 74.5559 149.788 73.9801 149.068C73.4119 148.341 73.1127 147.5 73.0824 146.545ZM95.1222 151.409C94.0161 151.409 93.0123 151.201 92.1108 150.784C91.2093 150.36 90.4934 149.75 89.9631 148.955C89.4328 148.152 89.1676 147.182 89.1676 146.045C89.1676 145.045 89.3646 144.235 89.7585 143.614C90.1525 142.985 90.679 142.492 91.3381 142.136C91.9972 141.78 92.7244 141.515 93.5199 141.341C94.3229 141.159 95.1297 141.015 95.9403 140.909C97.0009 140.773 97.8608 140.67 98.5199 140.602C99.1866 140.527 99.6714 140.402 99.9744 140.227C100.285 140.053 100.44 139.75 100.44 139.318V139.227C100.44 138.106 100.134 137.235 99.5199 136.614C98.9138 135.992 97.9934 135.682 96.7585 135.682C95.4782 135.682 94.4744 135.962 93.7472 136.523C93.0199 137.083 92.5085 137.682 92.2131 138.318L89.6676 137.409C90.1222 136.348 90.7282 135.523 91.4858 134.932C92.2509 134.333 93.0843 133.917 93.9858 133.682C94.8949 133.439 95.7888 133.318 96.6676 133.318C97.2282 133.318 97.8722 133.386 98.5994 133.523C99.3343 133.652 100.043 133.92 100.724 134.33C101.414 134.739 101.986 135.356 102.44 136.182C102.895 137.008 103.122 138.114 103.122 139.5V151H100.44V148.636H100.304C100.122 149.015 99.8191 149.42 99.3949 149.852C98.9706 150.284 98.4063 150.652 97.7017 150.955C96.9972 151.258 96.1373 151.409 95.1222 151.409ZM95.5312 149C96.5919 149 97.4858 148.792 98.2131 148.375C98.9479 147.958 99.5009 147.42 99.8722 146.761C100.251 146.102 100.44 145.409 100.44 144.682V142.227C100.327 142.364 100.077 142.489 99.6903 142.602C99.3116 142.708 98.8722 142.803 98.3722 142.886C97.8797 142.962 97.3987 143.03 96.929 143.091C96.4669 143.144 96.0919 143.189 95.804 143.227C95.107 143.318 94.4555 143.466 93.8494 143.67C93.2509 143.867 92.7661 144.167 92.3949 144.568C92.0313 144.962 91.8494 145.5 91.8494 146.182C91.8494 147.114 92.1941 147.818 92.8835 148.295C93.5805 148.765 94.4631 149 95.5312 149ZM119.699 141.045V143.545H110.062V141.045H119.699ZM110.699 133.545V151H108.017V133.545H110.699ZM121.744 133.545V151H119.062V133.545H121.744ZM128.96 139.864H133.96C136.006 139.864 137.57 140.383 138.653 141.42C139.737 142.458 140.278 143.773 140.278 145.364C140.278 146.409 140.036 147.36 139.551 148.216C139.066 149.064 138.354 149.742 137.415 150.25C136.475 150.75 135.324 151 133.96 151H126.642V133.545H129.324V148.5H133.96C135.021 148.5 135.892 148.22 136.574 147.659C137.256 147.098 137.597 146.379 137.597 145.5C137.597 144.576 137.256 143.822 136.574 143.239C135.892 142.655 135.021 142.364 133.96 142.364H128.96V139.864Z" fill="black"/>
<path d="M1153.24 40.9091V70H1149.72V44.6023H1149.55L1142.44 49.3182V45.7386L1149.72 40.9091H1153.24ZM1170.92 70.3977C1168.97 70.3977 1167.25 70.0521 1165.75 69.3608C1164.27 68.66 1163.11 67.6989 1162.27 66.4773C1161.44 65.2462 1161.03 63.8447 1161.04 62.2727C1161.03 61.0417 1161.27 59.9053 1161.76 58.8636C1162.25 57.8125 1162.93 56.9366 1163.78 56.2358C1164.64 55.5256 1165.6 55.0758 1166.66 54.8864V54.7159C1165.27 54.3561 1164.16 53.5748 1163.34 52.3722C1162.51 51.16 1162.11 49.7822 1162.12 48.2386C1162.11 46.7614 1162.48 45.4403 1163.24 44.2756C1164 43.1108 1165.04 42.1922 1166.36 41.5199C1167.7 40.8475 1169.22 40.5114 1170.92 40.5114C1172.61 40.5114 1174.11 40.8475 1175.44 41.5199C1176.77 42.1922 1177.81 43.1108 1178.57 44.2756C1179.33 45.4403 1179.72 46.7614 1179.73 48.2386C1179.72 49.7822 1179.3 51.16 1178.47 52.3722C1177.64 53.5748 1176.55 54.3561 1175.18 54.7159V54.8864C1176.24 55.0758 1177.18 55.5256 1178.03 56.2358C1178.87 56.9366 1179.54 57.8125 1180.04 58.8636C1180.54 59.9053 1180.8 61.0417 1180.81 62.2727C1180.8 63.8447 1180.37 65.2462 1179.53 66.4773C1178.7 67.6989 1177.54 68.66 1176.05 69.3608C1174.57 70.0521 1172.86 70.3977 1170.92 70.3977ZM1170.92 67.2727C1172.24 67.2727 1173.38 67.0597 1174.33 66.6335C1175.29 66.2074 1176.03 65.6061 1176.55 64.8295C1177.07 64.053 1177.33 63.1439 1177.34 62.1023C1177.33 61.0038 1177.05 60.0331 1176.49 59.1903C1175.93 58.3475 1175.17 57.6847 1174.2 57.2017C1173.25 56.7187 1172.15 56.4773 1170.92 56.4773C1169.68 56.4773 1168.57 56.7187 1167.6 57.2017C1166.63 57.6847 1165.87 58.3475 1165.31 59.1903C1164.76 60.0331 1164.49 61.0038 1164.5 62.1023C1164.49 63.1439 1164.74 64.053 1165.26 64.8295C1165.78 65.6061 1166.52 66.2074 1167.49 66.6335C1168.45 67.0597 1169.6 67.2727 1170.92 67.2727ZM1170.92 53.4659C1171.96 53.4659 1172.89 53.2576 1173.69 52.8409C1174.51 52.4242 1175.15 51.8419 1175.61 51.0938C1176.07 50.3456 1176.31 49.4697 1176.32 48.4659C1176.31 47.4811 1176.08 46.6241 1175.62 45.8949C1175.17 45.1562 1174.54 44.5881 1173.74 44.1903C1172.93 43.7831 1171.99 43.5795 1170.92 43.5795C1169.83 43.5795 1168.88 43.7831 1168.07 44.1903C1167.25 44.5881 1166.62 45.1562 1166.18 45.8949C1165.73 46.6241 1165.52 47.4811 1165.53 48.4659C1165.52 49.4697 1165.74 50.3456 1166.19 51.0938C1166.66 51.8419 1167.3 52.4242 1168.11 52.8409C1168.93 53.2576 1169.86 53.4659 1170.92 53.4659ZM1188.75 66.2784C1188.05 66.2784 1187.45 66.0275 1186.95 65.5256C1186.45 65.0237 1186.2 64.4223 1186.2 63.7216C1186.2 63.0208 1186.45 62.4195 1186.95 61.9176C1187.45 61.4157 1188.05 61.1648 1188.75 61.1648C1189.45 61.1648 1190.06 61.4157 1190.56 61.9176C1191.06 62.4195 1191.31 63.0208 1191.31 63.7216C1191.31 64.1856 1191.19 64.6117 1190.96 65C1190.73 65.3883 1190.42 65.7008 1190.03 65.9375C1189.65 66.1648 1189.23 66.2784 1188.75 66.2784ZM1188.75 51.5625C1188.05 51.5625 1187.45 51.3116 1186.95 50.8097C1186.45 50.3078 1186.2 49.7064 1186.2 49.0057C1186.2 48.3049 1186.45 47.7036 1186.95 47.2017C1187.45 46.6998 1188.05 46.4489 1188.75 46.4489C1189.45 46.4489 1190.06 46.6998 1190.56 47.2017C1191.06 47.7036 1191.31 48.3049 1191.31 49.0057C1191.31 49.4697 1191.19 49.8958 1190.96 50.2841C1190.73 50.6723 1190.42 50.9848 1190.03 51.2216C1189.65 51.4489 1189.23 51.5625 1188.75 51.5625ZM1206.76 70.3977C1204.62 70.3977 1202.79 69.8153 1201.29 68.6506C1199.78 67.4763 1198.63 65.7765 1197.84 63.5511C1197.04 61.3163 1196.64 58.6174 1196.64 55.4545C1196.64 52.3106 1197.04 49.6259 1197.84 47.4006C1198.64 45.1657 1199.8 43.4612 1201.3 42.2869C1202.82 41.1032 1204.64 40.5114 1206.76 40.5114C1208.88 40.5114 1210.69 41.1032 1212.2 42.2869C1213.71 43.4612 1214.87 45.1657 1215.66 47.4006C1216.47 49.6259 1216.87 52.3106 1216.87 55.4545C1216.87 58.6174 1216.47 61.3163 1215.68 63.5511C1214.88 65.7765 1213.73 67.4763 1212.23 68.6506C1210.72 69.8153 1208.9 70.3977 1206.76 70.3977ZM1206.76 67.2727C1208.88 67.2727 1210.53 66.25 1211.7 64.2045C1212.88 62.1591 1213.46 59.2424 1213.46 55.4545C1213.46 52.9356 1213.19 50.7907 1212.65 49.0199C1212.12 47.2491 1211.36 45.8996 1210.35 44.9716C1209.36 44.0436 1208.16 43.5795 1206.76 43.5795C1204.66 43.5795 1203.01 44.6165 1201.83 46.6903C1200.65 48.7547 1200.05 51.6761 1200.05 55.4545C1200.05 57.9735 1200.32 60.1136 1200.85 61.875C1201.38 63.6364 1202.14 64.9763 1203.14 65.8949C1204.14 66.8134 1205.35 67.2727 1206.76 67.2727ZM1231.76 70.3977C1229.62 70.3977 1227.79 69.8153 1226.29 68.6506C1224.78 67.4763 1223.63 65.7765 1222.84 63.5511C1222.04 61.3163 1221.64 58.6174 1221.64 55.4545C1221.64 52.3106 1222.04 49.6259 1222.84 47.4006C1223.64 45.1657 1224.8 43.4612 1226.3 42.2869C1227.82 41.1032 1229.64 40.5114 1231.76 40.5114C1233.88 40.5114 1235.69 41.1032 1237.2 42.2869C1238.71 43.4612 1239.87 45.1657 1240.66 47.4006C1241.47 49.6259 1241.87 52.3106 1241.87 55.4545C1241.87 58.6174 1241.47 61.3163 1240.68 63.5511C1239.88 65.7765 1238.73 67.4763 1237.23 68.6506C1235.72 69.8153 1233.9 70.3977 1231.76 70.3977ZM1231.76 67.2727C1233.88 67.2727 1235.53 66.25 1236.7 64.2045C1237.88 62.1591 1238.46 59.2424 1238.46 55.4545C1238.46 52.9356 1238.19 50.7907 1237.65 49.0199C1237.12 47.2491 1236.36 45.8996 1235.35 44.9716C1234.36 44.0436 1233.16 43.5795 1231.76 43.5795C1229.66 43.5795 1228.01 44.6165 1226.83 46.6903C1225.65 48.7547 1225.05 51.6761 1225.05 55.4545C1225.05 57.9735 1225.32 60.1136 1225.85 61.875C1226.38 63.6364 1227.14 64.9763 1228.14 65.8949C1229.14 66.8134 1230.35 67.2727 1231.76 67.2727ZM1271.08 53.892V57.017H1258.35V53.892H1271.08ZM1297.66 70.3977C1295.52 70.3977 1293.69 69.8153 1292.19 68.6506C1290.68 67.4763 1289.53 65.7765 1288.74 63.5511C1287.94 61.3163 1287.54 58.6174 1287.54 55.4545C1287.54 52.3106 1287.94 49.6259 1288.74 47.4006C1289.54 45.1657 1290.7 43.4612 1292.2 42.2869C1293.72 41.1032 1295.54 40.5114 1297.66 40.5114C1299.78 40.5114 1301.59 41.1032 1303.1 42.2869C1304.61 43.4612 1305.77 45.1657 1306.56 47.4006C1307.37 49.6259 1307.77 52.3106 1307.77 55.4545C1307.77 58.6174 1307.37 61.3163 1306.58 63.5511C1305.78 65.7765 1304.63 67.4763 1303.12 68.6506C1301.62 69.8153 1299.8 70.3977 1297.66 70.3977ZM1297.66 67.2727C1299.78 67.2727 1301.43 66.25 1302.6 64.2045C1303.77 62.1591 1304.36 59.2424 1304.36 55.4545C1304.36 52.9356 1304.09 50.7907 1303.55 49.0199C1303.02 47.2491 1302.25 45.8996 1301.25 44.9716C1300.26 44.0436 1299.06 43.5795 1297.66 43.5795C1295.55 43.5795 1293.91 44.6165 1292.73 46.6903C1291.54 48.7547 1290.95 51.6761 1290.95 55.4545C1290.95 57.9735 1291.22 60.1136 1291.75 61.875C1292.28 63.6364 1293.04 64.9763 1294.03 65.8949C1295.04 66.8134 1296.25 67.2727 1297.66 67.2727ZM1322.66 70.3977C1320.52 70.3977 1318.69 69.8153 1317.19 68.6506C1315.68 67.4763 1314.53 65.7765 1313.74 63.5511C1312.94 61.3163 1312.54 58.6174 1312.54 55.4545C1312.54 52.3106 1312.94 49.6259 1313.74 47.4006C1314.54 45.1657 1315.7 43.4612 1317.2 42.2869C1318.72 41.1032 1320.54 40.5114 1322.66 40.5114C1324.78 40.5114 1326.59 41.1032 1328.1 42.2869C1329.61 43.4612 1330.77 45.1657 1331.56 47.4006C1332.37 49.6259 1332.77 52.3106 1332.77 55.4545C1332.77 58.6174 1332.37 61.3163 1331.58 63.5511C1330.78 65.7765 1329.63 67.4763 1328.12 68.6506C1326.62 69.8153 1324.8 70.3977 1322.66 70.3977ZM1322.66 67.2727C1324.78 67.2727 1326.43 66.25 1327.6 64.2045C1328.77 62.1591 1329.36 59.2424 1329.36 55.4545C1329.36 52.9356 1329.09 50.7907 1328.55 49.0199C1328.02 47.2491 1327.25 45.8996 1326.25 44.9716C1325.26 44.0436 1324.06 43.5795 1322.66 43.5795C1320.55 43.5795 1318.91 44.6165 1317.73 46.6903C1316.54 48.7547 1315.95 51.6761 1315.95 55.4545C1315.95 57.9735 1316.22 60.1136 1316.75 61.875C1317.28 63.6364 1318.04 64.9763 1319.03 65.8949C1320.04 66.8134 1321.25 67.2727 1322.66 67.2727ZM1340.67 66.2784C1339.97 66.2784 1339.37 66.0275 1338.86 65.5256C1338.36 65.0237 1338.11 64.4223 1338.11 63.7216C1338.11 63.0208 1338.36 62.4195 1338.86 61.9176C1339.37 61.4157 1339.97 61.1648 1340.67 61.1648C1341.37 61.1648 1341.97 61.4157 1342.47 61.9176C1342.97 62.4195 1343.22 63.0208 1343.22 63.7216C1343.22 64.1856 1343.11 64.6117 1342.87 65C1342.64 65.3883 1342.33 65.7008 1341.95 65.9375C1341.57 66.1648 1341.14 66.2784 1340.67 66.2784ZM1340.67 51.5625C1339.97 51.5625 1339.37 51.3116 1338.86 50.8097C1338.36 50.3078 1338.11 49.7064 1338.11 49.0057C1338.11 48.3049 1338.36 47.7036 1338.86 47.2017C1339.37 46.6998 1339.97 46.4489 1340.67 46.4489C1341.37 46.4489 1341.97 46.6998 1342.47 47.2017C1342.97 47.7036 1343.22 48.3049 1343.22 49.0057C1343.22 49.4697 1343.11 49.8958 1342.87 50.2841C1342.64 50.6723 1342.33 50.9848 1341.95 51.2216C1341.57 51.4489 1341.14 51.5625 1340.67 51.5625ZM1358.67 70.3977C1356.53 70.3977 1354.71 69.8153 1353.2 68.6506C1351.7 67.4763 1350.55 65.7765 1349.75 63.5511C1348.96 61.3163 1348.56 58.6174 1348.56 55.4545C1348.56 52.3106 1348.96 49.6259 1349.75 47.4006C1350.56 45.1657 1351.71 43.4612 1353.22 42.2869C1354.73 41.1032 1356.55 40.5114 1358.67 40.5114C1360.79 40.5114 1362.61 41.1032 1364.11 42.2869C1365.63 43.4612 1366.78 45.1657 1367.58 47.4006C1368.38 49.6259 1368.79 52.3106 1368.79 55.4545C1368.79 58.6174 1368.39 61.3163 1367.59 63.5511C1366.8 65.7765 1365.65 67.4763 1364.14 68.6506C1362.63 69.8153 1360.81 70.3977 1358.67 70.3977ZM1358.67 67.2727C1360.79 67.2727 1362.44 66.25 1363.62 64.2045C1364.79 62.1591 1365.38 59.2424 1365.38 55.4545C1365.38 52.9356 1365.11 50.7907 1364.57 49.0199C1364.04 47.2491 1363.27 45.8996 1362.27 44.9716C1361.27 44.0436 1360.07 43.5795 1358.67 43.5795C1356.57 43.5795 1354.93 44.6165 1353.74 46.6903C1352.56 48.7547 1351.97 51.6761 1351.97 55.4545C1351.97 57.9735 1352.23 60.1136 1352.76 61.875C1353.29 63.6364 1354.06 64.9763 1355.05 65.8949C1356.05 66.8134 1357.26 67.2727 1358.67 67.2727ZM1383.67 70.3977C1381.53 70.3977 1379.71 69.8153 1378.2 68.6506C1376.7 67.4763 1375.55 65.7765 1374.75 63.5511C1373.96 61.3163 1373.56 58.6174 1373.56 55.4545C1373.56 52.3106 1373.96 49.6259 1374.75 47.4006C1375.56 45.1657 1376.71 43.4612 1378.22 42.2869C1379.73 41.1032 1381.55 40.5114 1383.67 40.5114C1385.79 40.5114 1387.61 41.1032 1389.11 42.2869C1390.63 43.4612 1391.78 45.1657 1392.58 47.4006C1393.38 49.6259 1393.79 52.3106 1393.79 55.4545C1393.79 58.6174 1393.39 61.3163 1392.59 63.5511C1391.8 65.7765 1390.65 67.4763 1389.14 68.6506C1387.63 69.8153 1385.81 70.3977 1383.67 70.3977ZM1383.67 67.2727C1385.79 67.2727 1387.44 66.25 1388.62 64.2045C1389.79 62.1591 1390.38 59.2424 1390.38 55.4545C1390.38 52.9356 1390.11 50.7907 1389.57 49.0199C1389.04 47.2491 1388.27 45.8996 1387.27 44.9716C1386.27 44.0436 1385.07 43.5795 1383.67 43.5795C1381.57 43.5795 1379.93 44.6165 1378.74 46.6903C1377.56 48.7547 1376.97 51.6761 1376.97 55.4545C1376.97 57.9735 1377.23 60.1136 1377.76 61.875C1378.29 63.6364 1379.06 64.9763 1380.05 65.8949C1381.05 66.8134 1382.26 67.2727 1383.67 67.2727Z" fill="black"/>
<defs>
<linearGradient id="paint0_linear_116_502" x1="720" y1="0" x2="720" y2="167" gradientUnits="userSpaceOnUse">
<stop stop-color="#FFD9D9"/>
<stop offset="1" stop-color="#C0F0ED"/>
</linearGradient>
</defs>
</svg>
