<svg width="1440" height="167" viewBox="0 0 1440 167" fill="none" xmlns="http://www.w3.org/2000/svg">
<rect x="0.5" y="0.5" width="1439" height="166" fill="url(#paint0_linear_116_503)" stroke="black"/>
<path opacity="0.8" d="M51.5 152L43.5 141.318H40.6364V152H37.8182V128.727H40.6364V138.818H41.8636L51.1818 128.727H54.5455L45.1364 138.955L54.8636 152H51.5ZM63.2784 152.409C62.1723 152.409 61.1686 152.201 60.267 151.784C59.3655 151.36 58.6496 150.75 58.1193 149.955C57.589 149.152 57.3239 148.182 57.3239 147.045C57.3239 146.045 57.5208 145.235 57.9148 144.614C58.3087 143.985 58.8352 143.492 59.4943 143.136C60.1534 142.78 60.8807 142.515 61.6761 142.341C62.4792 142.159 63.286 142.015 64.0966 141.909C65.1572 141.773 66.017 141.67 66.6761 141.602C67.3428 141.527 67.8277 141.402 68.1307 141.227C68.4413 141.053 68.5966 140.75 68.5966 140.318V140.227C68.5966 139.106 68.2898 138.235 67.6761 137.614C67.0701 136.992 66.1496 136.682 64.9148 136.682C63.6345 136.682 62.6307 136.962 61.9034 137.523C61.1761 138.083 60.6648 138.682 60.3693 139.318L57.8239 138.409C58.2784 137.348 58.8845 136.523 59.642 135.932C60.4072 135.333 61.2405 134.917 62.142 134.682C63.0511 134.439 63.9451 134.318 64.8239 134.318C65.3845 134.318 66.0284 134.386 66.7557 134.523C67.4905 134.652 68.1989 134.92 68.8807 135.33C69.5701 135.739 70.142 136.356 70.5966 137.182C71.0511 138.008 71.2784 139.114 71.2784 140.5V152H68.5966V149.636H68.4602C68.2784 150.015 67.9754 150.42 67.5511 150.852C67.1269 151.284 66.5625 151.652 65.858 151.955C65.1534 152.258 64.2936 152.409 63.2784 152.409ZM63.6875 150C64.7481 150 65.642 149.792 66.3693 149.375C67.1042 148.958 67.6572 148.42 68.0284 147.761C68.4072 147.102 68.5966 146.409 68.5966 145.682V143.227C68.483 143.364 68.233 143.489 67.8466 143.602C67.4678 143.708 67.0284 143.803 66.5284 143.886C66.036 143.962 65.5549 144.03 65.0852 144.091C64.6231 144.144 64.2481 144.189 63.9602 144.227C63.2633 144.318 62.6117 144.466 62.0057 144.67C61.4072 144.867 60.9223 145.167 60.5511 145.568C60.1875 145.962 60.0057 146.5 60.0057 147.182C60.0057 148.114 60.3504 148.818 61.0398 149.295C61.7367 149.765 62.6193 150 63.6875 150ZM75.0824 147.545H77.946C78.0066 148.333 78.3627 148.932 79.0142 149.341C79.6733 149.75 80.5294 149.955 81.5824 149.955C82.6581 149.955 83.5786 149.735 84.3438 149.295C85.1089 148.848 85.4915 148.129 85.4915 147.136C85.4915 146.553 85.3475 146.045 85.0597 145.614C84.7718 145.174 84.3665 144.833 83.8438 144.591C83.321 144.348 82.7036 144.227 81.9915 144.227H78.9915V141.818H81.9915C83.0597 141.818 83.8475 141.576 84.3551 141.091C84.8703 140.606 85.1278 140 85.1278 139.273C85.1278 138.492 84.8513 137.867 84.2983 137.398C83.7453 136.92 82.9612 136.682 81.946 136.682C80.9233 136.682 80.071 136.913 79.3892 137.375C78.7074 137.83 78.3475 138.417 78.3097 139.136H75.4915C75.5218 138.197 75.8097 137.367 76.3551 136.648C76.9006 135.92 77.643 135.352 78.5824 134.943C79.5218 134.527 80.5975 134.318 81.8097 134.318C83.0369 134.318 84.1013 134.534 85.0028 134.966C85.9119 135.39 86.6127 135.97 87.1051 136.705C87.6051 137.432 87.8551 138.258 87.8551 139.182C87.8551 140.167 87.5786 140.962 87.0256 141.568C86.4725 142.174 85.7794 142.606 84.946 142.864V143.045C85.6051 143.091 86.1771 143.303 86.6619 143.682C87.1544 144.053 87.5369 144.542 87.8097 145.148C88.0824 145.746 88.2188 146.409 88.2188 147.136C88.2188 148.197 87.9347 149.121 87.3665 149.909C86.7983 150.689 86.018 151.295 85.0256 151.727C84.0331 152.152 82.9006 152.364 81.6278 152.364C80.393 152.364 79.2869 152.163 78.3097 151.761C77.3324 151.352 76.5559 150.788 75.9801 150.068C75.4119 149.341 75.1127 148.5 75.0824 147.545ZM97.1222 152.409C96.0161 152.409 95.0123 152.201 94.1108 151.784C93.2093 151.36 92.4934 150.75 91.9631 149.955C91.4328 149.152 91.1676 148.182 91.1676 147.045C91.1676 146.045 91.3646 145.235 91.7585 144.614C92.1525 143.985 92.679 143.492 93.3381 143.136C93.9972 142.78 94.7244 142.515 95.5199 142.341C96.3229 142.159 97.1297 142.015 97.9403 141.909C99.0009 141.773 99.8608 141.67 100.52 141.602C101.187 141.527 101.671 141.402 101.974 141.227C102.285 141.053 102.44 140.75 102.44 140.318V140.227C102.44 139.106 102.134 138.235 101.52 137.614C100.914 136.992 99.9934 136.682 98.7585 136.682C97.4782 136.682 96.4744 136.962 95.7472 137.523C95.0199 138.083 94.5085 138.682 94.2131 139.318L91.6676 138.409C92.1222 137.348 92.7282 136.523 93.4858 135.932C94.2509 135.333 95.0843 134.917 95.9858 134.682C96.8949 134.439 97.7888 134.318 98.6676 134.318C99.2282 134.318 99.8722 134.386 100.599 134.523C101.334 134.652 102.043 134.92 102.724 135.33C103.414 135.739 103.986 136.356 104.44 137.182C104.895 138.008 105.122 139.114 105.122 140.5V152H102.44V149.636H102.304C102.122 150.015 101.819 150.42 101.395 150.852C100.971 151.284 100.406 151.652 99.7017 151.955C98.9972 152.258 98.1373 152.409 97.1222 152.409ZM97.5312 150C98.5919 150 99.4858 149.792 100.213 149.375C100.948 148.958 101.501 148.42 101.872 147.761C102.251 147.102 102.44 146.409 102.44 145.682V143.227C102.327 143.364 102.077 143.489 101.69 143.602C101.312 143.708 100.872 143.803 100.372 143.886C99.8797 143.962 99.3987 144.03 98.929 144.091C98.4669 144.144 98.0919 144.189 97.804 144.227C97.107 144.318 96.4555 144.466 95.8494 144.67C95.2509 144.867 94.7661 145.167 94.3949 145.568C94.0313 145.962 93.8494 146.5 93.8494 147.182C93.8494 148.114 94.1941 148.818 94.8835 149.295C95.5805 149.765 96.4631 150 97.5312 150ZM121.699 142.045V144.545H112.062V142.045H121.699ZM112.699 134.545V152H110.017V134.545H112.699ZM123.744 134.545V152H121.062V134.545H123.744ZM130.96 140.864H135.96C138.006 140.864 139.57 141.383 140.653 142.42C141.737 143.458 142.278 144.773 142.278 146.364C142.278 147.409 142.036 148.36 141.551 149.216C141.066 150.064 140.354 150.742 139.415 151.25C138.475 151.75 137.324 152 135.96 152H128.642V134.545H131.324V149.5H135.96C137.021 149.5 137.892 149.22 138.574 148.659C139.256 148.098 139.597 147.379 139.597 146.5C139.597 145.576 139.256 144.822 138.574 144.239C137.892 143.655 137.021 143.364 135.96 143.364H130.96V140.864Z" fill="black"/>
<path d="M1156.24 50.9091V80H1152.72V54.6023H1152.55L1145.44 59.3182V55.7386L1152.72 50.9091H1156.24ZM1174.09 80.3977C1171.95 80.3977 1170.13 79.8153 1168.62 78.6506C1167.12 77.4763 1165.97 75.7765 1165.17 73.5511C1164.38 71.3163 1163.98 68.6174 1163.98 65.4545C1163.98 62.3106 1164.38 59.6259 1165.17 57.4006C1165.98 55.1657 1167.13 53.4612 1168.64 52.2869C1170.15 51.1032 1171.97 50.5114 1174.09 50.5114C1176.21 50.5114 1178.03 51.1032 1179.53 52.2869C1181.05 53.4612 1182.2 55.1657 1183 57.4006C1183.8 59.6259 1184.21 62.3106 1184.21 65.4545C1184.21 68.6174 1183.81 71.3163 1183.01 73.5511C1182.22 75.7765 1181.07 77.4763 1179.56 78.6506C1178.06 79.8153 1176.23 80.3977 1174.09 80.3977ZM1174.09 77.2727C1176.21 77.2727 1177.86 76.25 1179.04 74.2045C1180.21 72.1591 1180.8 69.2424 1180.8 65.4545C1180.8 62.9356 1180.53 60.7907 1179.99 59.0199C1179.46 57.2491 1178.69 55.8996 1177.69 54.9716C1176.69 54.0436 1175.5 53.5795 1174.09 53.5795C1171.99 53.5795 1170.35 54.6165 1169.16 56.6903C1167.98 58.7547 1167.39 61.6761 1167.39 65.4545C1167.39 67.9735 1167.65 70.1136 1168.18 71.875C1168.71 73.6364 1169.48 74.9763 1170.47 75.8949C1171.48 76.8134 1172.68 77.2727 1174.09 77.2727ZM1192.11 76.2784C1191.4 76.2784 1190.8 76.0275 1190.3 75.5256C1189.8 75.0237 1189.55 74.4223 1189.55 73.7216C1189.55 73.0208 1189.8 72.4195 1190.3 71.9176C1190.8 71.4157 1191.4 71.1648 1192.11 71.1648C1192.81 71.1648 1193.41 71.4157 1193.91 71.9176C1194.41 72.4195 1194.66 73.0208 1194.66 73.7216C1194.66 74.1856 1194.54 74.6117 1194.31 75C1194.08 75.3883 1193.77 75.7008 1193.38 75.9375C1193 76.1648 1192.58 76.2784 1192.11 76.2784ZM1192.11 61.5625C1191.4 61.5625 1190.8 61.3116 1190.3 60.8097C1189.8 60.3078 1189.55 59.7064 1189.55 59.0057C1189.55 58.3049 1189.8 57.7036 1190.3 57.2017C1190.8 56.6998 1191.4 56.4489 1192.11 56.4489C1192.81 56.4489 1193.41 56.6998 1193.91 57.2017C1194.41 57.7036 1194.66 58.3049 1194.66 59.0057C1194.66 59.4697 1194.54 59.8958 1194.31 60.2841C1194.08 60.6723 1193.77 60.9848 1193.38 61.2216C1193 61.4489 1192.58 61.5625 1192.11 61.5625ZM1210.11 80.3977C1207.97 80.3977 1206.15 79.8153 1204.64 78.6506C1203.13 77.4763 1201.98 75.7765 1201.19 73.5511C1200.39 71.3163 1200 68.6174 1200 65.4545C1200 62.3106 1200.39 59.6259 1201.19 57.4006C1201.99 55.1657 1203.15 53.4612 1204.65 52.2869C1206.17 51.1032 1207.99 50.5114 1210.11 50.5114C1212.23 50.5114 1214.04 51.1032 1215.55 52.2869C1217.06 53.4612 1218.22 55.1657 1219.02 57.4006C1219.82 59.6259 1220.22 62.3106 1220.22 65.4545C1220.22 68.6174 1219.83 71.3163 1219.03 73.5511C1218.23 75.7765 1217.08 77.4763 1215.58 78.6506C1214.07 79.8153 1212.25 80.3977 1210.11 80.3977ZM1210.11 77.2727C1212.23 77.2727 1213.88 76.25 1215.05 74.2045C1216.23 72.1591 1216.81 69.2424 1216.81 65.4545C1216.81 62.9356 1216.54 60.7907 1216 59.0199C1215.47 57.2491 1214.71 55.8996 1213.7 54.9716C1212.71 54.0436 1211.51 53.5795 1210.11 53.5795C1208.01 53.5795 1206.36 54.6165 1205.18 56.6903C1204 58.7547 1203.4 61.6761 1203.4 65.4545C1203.4 67.9735 1203.67 70.1136 1204.2 71.875C1204.73 73.6364 1205.49 74.9763 1206.49 75.8949C1207.49 76.8134 1208.7 77.2727 1210.11 77.2727ZM1235.11 80.3977C1232.97 80.3977 1231.15 79.8153 1229.64 78.6506C1228.13 77.4763 1226.98 75.7765 1226.19 73.5511C1225.39 71.3163 1225 68.6174 1225 65.4545C1225 62.3106 1225.39 59.6259 1226.19 57.4006C1226.99 55.1657 1228.15 53.4612 1229.65 52.2869C1231.17 51.1032 1232.99 50.5114 1235.11 50.5114C1237.23 50.5114 1239.04 51.1032 1240.55 52.2869C1242.06 53.4612 1243.22 55.1657 1244.02 57.4006C1244.82 59.6259 1245.22 62.3106 1245.22 65.4545C1245.22 68.6174 1244.83 71.3163 1244.03 73.5511C1243.23 75.7765 1242.08 77.4763 1240.58 78.6506C1239.07 79.8153 1237.25 80.3977 1235.11 80.3977ZM1235.11 77.2727C1237.23 77.2727 1238.88 76.25 1240.05 74.2045C1241.23 72.1591 1241.81 69.2424 1241.81 65.4545C1241.81 62.9356 1241.54 60.7907 1241 59.0199C1240.47 57.2491 1239.71 55.8996 1238.7 54.9716C1237.71 54.0436 1236.51 53.5795 1235.11 53.5795C1233.01 53.5795 1231.36 54.6165 1230.18 56.6903C1229 58.7547 1228.4 61.6761 1228.4 65.4545C1228.4 67.9735 1228.67 70.1136 1229.2 71.875C1229.73 73.6364 1230.49 74.9763 1231.49 75.8949C1232.49 76.8134 1233.7 77.2727 1235.11 77.2727ZM1274.43 63.892V67.017H1261.7V63.892H1274.43ZM1301.75 50.9091V80H1298.22V54.6023H1298.05L1290.95 59.3182V55.7386L1298.22 50.9091H1301.75ZM1319.2 80.3977C1317.54 80.3977 1316.04 80.0663 1314.7 79.4034C1313.37 78.7405 1312.3 77.8314 1311.49 76.6761C1310.69 75.5208 1310.25 74.2045 1310.17 72.7273H1313.58C1313.71 74.0436 1314.31 75.1326 1315.37 75.9943C1316.44 76.8466 1317.72 77.2727 1319.2 77.2727C1320.4 77.2727 1321.46 76.9934 1322.39 76.4347C1323.32 75.8759 1324.06 75.1089 1324.59 74.1335C1325.13 73.1487 1325.4 72.036 1325.4 70.7955C1325.4 69.5265 1325.12 68.3949 1324.56 67.4006C1324.01 66.3968 1323.25 65.6061 1322.29 65.0284C1321.32 64.4508 1320.22 64.1572 1318.98 64.1477C1318.09 64.1383 1317.17 64.2756 1316.24 64.5597C1315.3 64.8343 1314.53 65.1894 1313.92 65.625L1310.62 65.2273L1312.39 50.9091H1327.5V54.0341H1315.34L1314.32 62.6136H1314.49C1315.08 62.1402 1315.83 61.7472 1316.73 61.4347C1317.63 61.1222 1318.57 60.9659 1319.54 60.9659C1321.33 60.9659 1322.91 61.392 1324.3 62.2443C1325.7 63.0871 1326.8 64.2424 1327.6 65.7102C1328.4 67.178 1328.81 68.8542 1328.81 70.7386C1328.81 72.5947 1328.39 74.2519 1327.56 75.7102C1326.73 77.1591 1325.6 78.3049 1324.15 79.1477C1322.7 79.9811 1321.05 80.3977 1319.2 80.3977ZM1336.95 76.2784C1336.25 76.2784 1335.65 76.0275 1335.14 75.5256C1334.64 75.0237 1334.39 74.4223 1334.39 73.7216C1334.39 73.0208 1334.64 72.4195 1335.14 71.9176C1335.65 71.4157 1336.25 71.1648 1336.95 71.1648C1337.65 71.1648 1338.25 71.4157 1338.75 71.9176C1339.25 72.4195 1339.51 73.0208 1339.51 73.7216C1339.51 74.1856 1339.39 74.6117 1339.15 75C1338.92 75.3883 1338.62 75.7008 1338.23 75.9375C1337.85 76.1648 1337.42 76.2784 1336.95 76.2784ZM1336.95 61.5625C1336.25 61.5625 1335.65 61.3116 1335.14 60.8097C1334.64 60.3078 1334.39 59.7064 1334.39 59.0057C1334.39 58.3049 1334.64 57.7036 1335.14 57.2017C1335.65 56.6998 1336.25 56.4489 1336.95 56.4489C1337.65 56.4489 1338.25 56.6998 1338.75 57.2017C1339.25 57.7036 1339.51 58.3049 1339.51 59.0057C1339.51 59.4697 1339.39 59.8958 1339.15 60.2841C1338.92 60.6723 1338.62 60.9848 1338.23 61.2216C1337.85 61.4489 1337.42 61.5625 1336.95 61.5625ZM1354.95 80.3977C1352.81 80.3977 1350.99 79.8153 1349.48 78.6506C1347.98 77.4763 1346.83 75.7765 1346.03 73.5511C1345.24 71.3163 1344.84 68.6174 1344.84 65.4545C1344.84 62.3106 1345.24 59.6259 1346.03 57.4006C1346.84 55.1657 1347.99 53.4612 1349.5 52.2869C1351.01 51.1032 1352.83 50.5114 1354.95 50.5114C1357.07 50.5114 1358.89 51.1032 1360.39 52.2869C1361.91 53.4612 1363.06 55.1657 1363.86 57.4006C1364.66 59.6259 1365.07 62.3106 1365.07 65.4545C1365.07 68.6174 1364.67 71.3163 1363.87 73.5511C1363.08 75.7765 1361.93 77.4763 1360.42 78.6506C1358.92 79.8153 1357.09 80.3977 1354.95 80.3977ZM1354.95 77.2727C1357.07 77.2727 1358.72 76.25 1359.9 74.2045C1361.07 72.1591 1361.66 69.2424 1361.66 65.4545C1361.66 62.9356 1361.39 60.7907 1360.85 59.0199C1360.32 57.2491 1359.55 55.8996 1358.55 54.9716C1357.55 54.0436 1356.35 53.5795 1354.95 53.5795C1352.85 53.5795 1351.21 54.6165 1350.02 56.6903C1348.84 58.7547 1348.25 61.6761 1348.25 65.4545C1348.25 67.9735 1348.51 70.1136 1349.04 71.875C1349.57 73.6364 1350.34 74.9763 1351.33 75.8949C1352.33 76.8134 1353.54 77.2727 1354.95 77.2727ZM1379.95 80.3977C1377.81 80.3977 1375.99 79.8153 1374.48 78.6506C1372.98 77.4763 1371.83 75.7765 1371.03 73.5511C1370.24 71.3163 1369.84 68.6174 1369.84 65.4545C1369.84 62.3106 1370.24 59.6259 1371.03 57.4006C1371.84 55.1657 1372.99 53.4612 1374.5 52.2869C1376.01 51.1032 1377.83 50.5114 1379.95 50.5114C1382.07 50.5114 1383.89 51.1032 1385.39 52.2869C1386.91 53.4612 1388.06 55.1657 1388.86 57.4006C1389.66 59.6259 1390.07 62.3106 1390.07 65.4545C1390.07 68.6174 1389.67 71.3163 1388.87 73.5511C1388.08 75.7765 1386.93 77.4763 1385.42 78.6506C1383.92 79.8153 1382.09 80.3977 1379.95 80.3977ZM1379.95 77.2727C1382.07 77.2727 1383.72 76.25 1384.9 74.2045C1386.07 72.1591 1386.66 69.2424 1386.66 65.4545C1386.66 62.9356 1386.39 60.7907 1385.85 59.0199C1385.32 57.2491 1384.55 55.8996 1383.55 54.9716C1382.55 54.0436 1381.35 53.5795 1379.95 53.5795C1377.85 53.5795 1376.21 54.6165 1375.02 56.6903C1373.84 58.7547 1373.25 61.6761 1373.25 65.4545C1373.25 67.9735 1373.51 70.1136 1374.04 71.875C1374.57 73.6364 1375.34 74.9763 1376.33 75.8949C1377.33 76.8134 1378.54 77.2727 1379.95 77.2727Z" fill="black"/>
<path d="M39.8068 34.9091H43.3295V44.625C43.3295 46.0644 43.5805 47.196 44.0824 48.0199C44.5843 48.8343 45.2945 49.4119 46.2131 49.7528C47.1316 50.0843 48.2159 50.25 49.4659 50.25C50.2519 50.25 51.0142 50.2216 51.7528 50.1648C52.4915 50.0985 53.2112 50.0085 53.9119 49.8949C54.6222 49.7812 55.3134 49.6439 55.9858 49.483C56.6676 49.322 57.3352 49.142 57.9886 48.9432V52.125C57.3542 52.3239 56.7244 52.5038 56.0994 52.6648C55.4839 52.8258 54.84 52.9631 54.1676 53.0767C53.5047 53.1903 52.7898 53.2803 52.0227 53.3466C51.2557 53.4034 50.4034 53.4318 49.4659 53.4318C47.4583 53.4318 45.7301 53.143 44.2812 52.5653C42.8419 51.9877 41.7339 51.0549 40.9574 49.767C40.1903 48.4792 39.8068 46.7652 39.8068 44.625V34.9091ZM57.5341 34.9091H61.0568V64H57.5341V34.9091ZM76.8097 64.4545C74.7074 64.4545 72.8939 63.9905 71.3693 63.0625C69.8542 62.125 68.6847 60.8182 67.8608 59.142C67.0464 57.4564 66.6392 55.4962 66.6392 53.2614C66.6392 51.0265 67.0464 49.0568 67.8608 47.3523C68.6847 45.6383 69.8305 44.303 71.2983 43.3466C72.7756 42.3807 74.4991 41.8977 76.4688 41.8977C77.6051 41.8977 78.7273 42.0871 79.8352 42.4659C80.9432 42.8447 81.9517 43.4602 82.8608 44.3125C83.7699 45.1553 84.4943 46.2727 85.0341 47.6648C85.5739 49.0568 85.8438 50.7708 85.8438 52.8068V54.2273H69.0256V51.3295H82.4347C82.4347 50.0985 82.1884 49 81.696 48.0341C81.2131 47.0682 80.5218 46.3059 79.6222 45.7472C78.732 45.1884 77.6809 44.9091 76.4688 44.9091C75.1335 44.9091 73.9782 45.2405 73.0028 45.9034C72.0369 46.5568 71.2936 47.4091 70.7727 48.4602C70.2519 49.5114 69.9915 50.6383 69.9915 51.8409V53.7727C69.9915 55.4205 70.2756 56.8172 70.8438 57.9631C71.4214 59.0994 72.2216 59.9659 73.2443 60.5625C74.267 61.1496 75.4555 61.4432 76.8097 61.4432C77.6903 61.4432 78.4858 61.3201 79.196 61.0739C79.9157 60.8182 80.536 60.4394 81.0568 59.9375C81.5777 59.4261 81.9801 58.7917 82.2642 58.0341L85.5028 58.9432C85.1619 60.0417 84.589 61.0076 83.7841 61.8409C82.9792 62.6648 81.9848 63.3087 80.8011 63.7727C79.6174 64.2273 78.2869 64.4545 76.8097 64.4545ZM90.9432 72.1818V42.1818H94.1818V45.6477H94.5795C94.8258 45.2689 95.1667 44.786 95.6023 44.1989C96.0473 43.6023 96.6818 43.072 97.5057 42.608C98.339 42.1345 99.4659 41.8977 100.886 41.8977C102.723 41.8977 104.343 42.357 105.744 43.2756C107.146 44.1941 108.24 45.4962 109.026 47.1818C109.812 48.8674 110.205 50.8561 110.205 53.1477C110.205 55.4583 109.812 57.4612 109.026 59.1562C108.24 60.8419 107.151 62.1487 105.759 63.0767C104.366 63.9953 102.761 64.4545 100.943 64.4545C99.5417 64.4545 98.4195 64.2225 97.5767 63.7585C96.7339 63.285 96.0852 62.75 95.6307 62.1534C95.1761 61.5473 94.8258 61.0455 94.5795 60.6477H94.2955V72.1818H90.9432ZM94.2386 53.0909C94.2386 54.7386 94.4801 56.1922 94.9631 57.4517C95.446 58.7017 96.1515 59.6818 97.0795 60.392C98.0076 61.0928 99.1439 61.4432 100.489 61.4432C101.89 61.4432 103.06 61.0739 103.997 60.3352C104.944 59.5871 105.654 58.5833 106.128 57.3239C106.611 56.0549 106.852 54.6439 106.852 53.0909C106.852 51.5568 106.616 50.1742 106.142 48.9432C105.678 47.7027 104.973 46.7225 104.026 46.0028C103.088 45.2737 101.909 44.9091 100.489 44.9091C99.125 44.9091 97.9792 45.2547 97.0511 45.946C96.1231 46.6278 95.4223 47.5843 94.9489 48.8153C94.4754 50.0369 94.2386 51.4621 94.2386 53.0909ZM129.92 51.5568V54.6818H117.875V51.5568H129.92ZM118.67 42.1818V64H115.318V42.1818H118.67ZM132.477 42.1818V64H129.125V42.1818H132.477ZM141.497 50.0795H147.747C150.304 50.0795 152.259 50.7282 153.614 52.0256C154.968 53.3229 155.645 54.9659 155.645 56.9545C155.645 58.2614 155.342 59.4498 154.736 60.5199C154.13 61.5805 153.24 62.428 152.065 63.0625C150.891 63.6875 149.452 64 147.747 64H138.599V42.1818H141.952V60.875H147.747C149.073 60.875 150.162 60.5246 151.014 59.8239C151.866 59.1231 152.293 58.2235 152.293 57.125C152.293 55.9697 151.866 55.0275 151.014 54.2983C150.162 53.5691 149.073 53.2045 147.747 53.2045H141.497V50.0795ZM159.111 64V42.1818H162.463V64H159.111ZM168.599 42.1818H171.952V60.875H180.19V42.1818H183.543V60.875H191.781V42.1818H195.134V64H168.599V42.1818ZM210.403 64.4545C208.301 64.4545 206.488 63.9905 204.963 63.0625C203.448 62.125 202.278 60.8182 201.455 59.142C200.64 57.4564 200.233 55.4962 200.233 53.2614C200.233 51.0265 200.64 49.0568 201.455 47.3523C202.278 45.6383 203.424 44.303 204.892 43.3466C206.369 42.3807 208.093 41.8977 210.062 41.8977C211.199 41.8977 212.321 42.0871 213.429 42.4659C214.537 42.8447 215.545 43.4602 216.455 44.3125C217.364 45.1553 218.088 46.2727 218.628 47.6648C219.168 49.0568 219.438 50.7708 219.438 52.8068V54.2273H202.619V51.3295H216.028C216.028 50.0985 215.782 49 215.29 48.0341C214.807 47.0682 214.116 46.3059 213.216 45.7472C212.326 45.1884 211.275 44.9091 210.062 44.9091C208.727 44.9091 207.572 45.2405 206.597 45.9034C205.631 46.5568 204.887 47.4091 204.366 48.4602C203.846 49.5114 203.585 50.6383 203.585 51.8409V53.7727C203.585 55.4205 203.869 56.8172 204.438 57.9631C205.015 59.0994 205.815 59.9659 206.838 60.5625C207.861 61.1496 209.049 61.4432 210.403 61.4432C211.284 61.4432 212.08 61.3201 212.79 61.0739C213.509 60.8182 214.13 60.4394 214.651 59.9375C215.171 59.4261 215.574 58.7917 215.858 58.0341L219.097 58.9432C218.756 60.0417 218.183 61.0076 217.378 61.8409C216.573 62.6648 215.579 63.3087 214.395 63.7727C213.211 64.2273 211.881 64.4545 210.403 64.4545ZM224.537 64V42.1818H233.457C235.806 42.1818 237.671 42.7121 239.054 43.7727C240.437 44.8333 241.128 46.2348 241.128 47.9773C241.128 49.303 240.735 50.3305 239.949 51.0597C239.163 51.7794 238.154 52.267 236.923 52.5227C237.728 52.6364 238.509 52.9205 239.267 53.375C240.034 53.8295 240.669 54.4545 241.17 55.25C241.672 56.036 241.923 57.0019 241.923 58.1477C241.923 59.2652 241.639 60.2642 241.071 61.1449C240.503 62.0256 239.688 62.7216 238.628 63.233C237.567 63.7443 236.298 64 234.821 64H224.537ZM227.719 60.9318H234.821C235.976 60.9318 236.881 60.6572 237.534 60.108C238.188 59.5587 238.514 58.8106 238.514 57.8636C238.514 56.7367 238.188 55.8513 237.534 55.2074C236.881 54.554 235.976 54.2273 234.821 54.2273H227.719V60.9318ZM227.719 51.3295H233.457C234.357 51.3295 235.129 51.2064 235.773 50.9602C236.417 50.7045 236.909 50.3447 237.25 49.8807C237.6 49.4072 237.776 48.8485 237.776 48.2045C237.776 47.286 237.392 46.5663 236.625 46.0455C235.858 45.5152 234.802 45.25 233.457 45.25H227.719V51.3295ZM255.862 64.4545C253.816 64.4545 252.055 63.9716 250.577 63.0057C249.1 62.0398 247.964 60.7093 247.168 59.0142C246.373 57.3191 245.975 55.3826 245.975 53.2045C245.975 50.9886 246.382 49.0331 247.197 47.3381C248.021 45.6335 249.166 44.303 250.634 43.3466C252.112 42.3807 253.835 41.8977 255.805 41.8977C257.339 41.8977 258.721 42.1818 259.952 42.75C261.183 43.3182 262.192 44.1136 262.978 45.1364C263.764 46.1591 264.252 47.3523 264.441 48.7159H261.089C260.833 47.7216 260.265 46.8409 259.384 46.0739C258.513 45.2973 257.339 44.9091 255.862 44.9091C254.555 44.9091 253.409 45.25 252.424 45.9318C251.449 46.6042 250.686 47.5559 250.137 48.7869C249.597 50.0085 249.327 51.4432 249.327 53.0909C249.327 54.7765 249.593 56.2443 250.123 57.4943C250.663 58.7443 251.42 59.715 252.396 60.4062C253.38 61.0975 254.536 61.4432 255.862 61.4432C256.733 61.4432 257.523 61.2917 258.234 60.9886C258.944 60.6856 259.545 60.25 260.038 59.6818C260.53 59.1136 260.88 58.4318 261.089 57.6364H264.441C264.252 58.9242 263.783 60.0843 263.035 61.1165C262.296 62.1392 261.316 62.9536 260.094 63.5597C258.882 64.1562 257.471 64.4545 255.862 64.4545ZM269.342 64V42.1818H272.694V51.6705H274.91L282.751 42.1818H287.069L278.262 52.6932L287.183 64H282.864L275.705 54.7955H272.694V64H269.342ZM298.791 64.4545C296.821 64.4545 295.093 63.9858 293.607 63.0483C292.129 62.1108 290.974 60.7992 290.141 59.1136C289.317 57.428 288.905 55.4583 288.905 53.2045C288.905 50.9318 289.317 48.9479 290.141 47.2528C290.974 45.5578 292.129 44.2415 293.607 43.304C295.093 42.3665 296.821 41.8977 298.791 41.8977C300.761 41.8977 302.484 42.3665 303.962 43.304C305.448 44.2415 306.604 45.5578 307.428 47.2528C308.261 48.9479 308.678 50.9318 308.678 53.2045C308.678 55.4583 308.261 57.428 307.428 59.1136C306.604 60.7992 305.448 62.1108 303.962 63.0483C302.484 63.9858 300.761 64.4545 298.791 64.4545ZM298.791 61.4432C300.287 61.4432 301.518 61.0597 302.484 60.2926C303.45 59.5256 304.165 58.517 304.629 57.267C305.093 56.017 305.325 54.6629 305.325 53.2045C305.325 51.7462 305.093 50.3873 304.629 49.1278C304.165 47.8684 303.45 46.8504 302.484 46.0739C301.518 45.2973 300.287 44.9091 298.791 44.9091C297.295 44.9091 296.064 45.2973 295.098 46.0739C294.132 46.8504 293.417 47.8684 292.953 49.1278C292.489 50.3873 292.257 51.7462 292.257 53.2045C292.257 54.6629 292.489 56.017 292.953 57.267C293.417 58.517 294.132 59.5256 295.098 60.2926C296.064 61.0597 297.295 61.4432 298.791 61.4432ZM327.261 42.1818V45.3068H317.147V64H313.795V42.1818H327.261ZM339.885 64.4545C337.915 64.4545 336.187 63.9858 334.7 63.0483C333.223 62.1108 332.068 60.7992 331.234 59.1136C330.411 57.428 329.999 55.4583 329.999 53.2045C329.999 50.9318 330.411 48.9479 331.234 47.2528C332.068 45.5578 333.223 44.2415 334.7 43.304C336.187 42.3665 337.915 41.8977 339.885 41.8977C341.855 41.8977 343.578 42.3665 345.055 43.304C346.542 44.2415 347.697 45.5578 348.521 47.2528C349.355 48.9479 349.771 50.9318 349.771 53.2045C349.771 55.4583 349.355 57.428 348.521 59.1136C347.697 60.7992 346.542 62.1108 345.055 63.0483C343.578 63.9858 341.855 64.4545 339.885 64.4545ZM339.885 61.4432C341.381 61.4432 342.612 61.0597 343.578 60.2926C344.544 59.5256 345.259 58.517 345.723 57.267C346.187 56.017 346.419 54.6629 346.419 53.2045C346.419 51.7462 346.187 50.3873 345.723 49.1278C345.259 47.8684 344.544 46.8504 343.578 46.0739C342.612 45.2973 341.381 44.9091 339.885 44.9091C338.389 44.9091 337.158 45.2973 336.192 46.0739C335.226 46.8504 334.511 47.8684 334.047 49.1278C333.583 50.3873 333.351 51.7462 333.351 53.2045C333.351 54.6629 333.583 56.017 334.047 57.267C334.511 58.517 335.226 59.5256 336.192 60.2926C337.158 61.0597 338.389 61.4432 339.885 61.4432ZM368.298 72.1818C367.729 72.1818 367.223 72.1345 366.778 72.0398C366.333 71.9545 366.025 71.8693 365.854 71.7841L366.707 68.8295C367.521 69.0379 368.241 69.1136 368.866 69.0568C369.491 69 370.045 68.7206 370.528 68.2188C371.02 67.7263 371.47 66.9261 371.877 65.8182L372.502 64.1136L364.434 42.1818H368.07L374.093 59.5682H374.32L380.343 42.1818H383.979L374.718 67.1818C374.301 68.3087 373.785 69.2415 373.17 69.9801C372.554 70.7282 371.839 71.2822 371.025 71.642C370.22 72.0019 369.311 72.1818 368.298 72.1818ZM384.636 64V60.875H385.432C386.085 60.875 386.63 60.7472 387.065 60.4915C387.501 60.2263 387.851 59.767 388.116 59.1136C388.391 58.4508 388.599 57.5322 388.741 56.358C388.893 55.1742 389.002 53.6686 389.068 51.8409L389.466 42.1818H404.011V64H400.659V45.3068H392.648L392.307 53.0909C392.231 54.8807 392.07 56.4574 391.824 57.821C391.587 59.1752 391.223 60.3116 390.73 61.2301C390.247 62.1487 389.603 62.84 388.798 63.304C387.993 63.768 386.985 64 385.773 64H384.636ZM412.605 64.2273C411.904 64.2273 411.303 63.9763 410.801 63.4744C410.299 62.9725 410.048 62.3712 410.048 61.6705C410.048 60.9697 410.299 60.3684 410.801 59.8665C411.303 59.3646 411.904 59.1136 412.605 59.1136C413.306 59.1136 413.907 59.3646 414.409 59.8665C414.911 60.3684 415.162 60.9697 415.162 61.6705C415.162 62.1345 415.044 62.5606 414.807 62.9489C414.58 63.3371 414.272 63.6496 413.884 63.8864C413.505 64.1136 413.079 64.2273 412.605 64.2273ZM432.371 64V61.4432L441.973 50.9318C443.1 49.7008 444.028 48.6307 444.757 47.7216C445.486 46.803 446.026 45.9413 446.376 45.1364C446.736 44.322 446.916 43.4697 446.916 42.5795C446.916 41.5568 446.67 40.6714 446.178 39.9233C445.695 39.1752 445.032 38.5975 444.189 38.1903C443.346 37.7831 442.399 37.5795 441.348 37.5795C440.231 37.5795 439.255 37.8116 438.422 38.2756C437.598 38.7301 436.959 39.3693 436.504 40.1932C436.059 41.017 435.837 41.983 435.837 43.0909H432.484C432.484 41.3864 432.877 39.8902 433.663 38.6023C434.449 37.3144 435.519 36.3106 436.874 35.5909C438.237 34.8712 439.767 34.5114 441.462 34.5114C443.166 34.5114 444.677 34.8712 445.993 35.5909C447.309 36.3106 448.341 37.2812 449.089 38.5028C449.838 39.7244 450.212 41.0833 450.212 42.5795C450.212 43.6496 450.018 44.696 449.629 45.7188C449.25 46.732 448.588 47.8636 447.641 49.1136C446.703 50.3542 445.401 51.8693 443.734 53.6591L437.2 60.6477V60.875H450.723V64H432.371ZM457.499 64L470.51 38.2614V38.0341H455.51V34.9091H474.146V38.2045L461.192 64H457.499Z" fill="black"/>
<defs>
<linearGradient id="paint0_linear_116_503" x1="720" y1="0" x2="720" y2="167" gradientUnits="userSpaceOnUse">
<stop stop-color="#FFD9D9"/>
<stop offset="1" stop-color="#C0F0ED"/>
</linearGradient>
</defs>
</svg>
