<svg width="136" height="109" viewBox="0 0 136 109" fill="none" xmlns="http://www.w3.org/2000/svg">
<rect x="0.5" y="0.5" width="135" height="108" fill="url(#paint0_linear_108_490)" stroke="black"/>
<path d="M69.5455 29H66.7273C66.5606 28.1894 66.2689 27.4773 65.8523 26.8636C65.4432 26.25 64.9432 25.7348 64.3523 25.3182C63.7689 24.8939 63.1212 24.5758 62.4091 24.3636C61.697 24.1515 60.9545 24.0455 60.1818 24.0455C58.7727 24.0455 57.4962 24.4015 56.3523 25.1136C55.2159 25.8258 54.3106 26.875 53.6364 28.2614C52.9697 29.6477 52.6364 31.3485 52.6364 33.3636C52.6364 35.3788 52.9697 37.0795 53.6364 38.4659C54.3106 39.8523 55.2159 40.9015 56.3523 41.6136C57.4962 42.3258 58.7727 42.6818 60.1818 42.6818C60.9545 42.6818 61.697 42.5758 62.4091 42.3636C63.1212 42.1515 63.7689 41.8371 64.3523 41.4205C64.9432 40.9962 65.4432 40.4773 65.8523 39.8636C66.2689 39.2424 66.5606 38.5303 66.7273 37.7273H69.5455C69.3333 38.9167 68.947 39.9811 68.3864 40.9205C67.8258 41.8598 67.1288 42.6591 66.2955 43.3182C65.4621 43.9697 64.5265 44.4659 63.4886 44.8068C62.4583 45.1477 61.3561 45.3182 60.1818 45.3182C58.197 45.3182 56.4318 44.8333 54.8864 43.8636C53.3409 42.8939 52.125 41.5152 51.2386 39.7273C50.3523 37.9394 49.9091 35.8182 49.9091 33.3636C49.9091 30.9091 50.3523 28.7879 51.2386 27C52.125 25.2121 53.3409 23.8333 54.8864 22.8636C56.4318 21.8939 58.197 21.4091 60.1818 21.4091C61.3561 21.4091 62.4583 21.5795 63.4886 21.9205C64.5265 22.2614 65.4621 22.7614 66.2955 23.4205C67.1288 24.072 67.8258 24.8674 68.3864 25.8068C68.947 26.7386 69.3333 27.803 69.5455 29ZM73.7358 51.5455V27.5455H76.3267V30.3182H76.6449C76.8419 30.0152 77.1146 29.6288 77.4631 29.1591C77.8191 28.6818 78.3267 28.2576 78.9858 27.8864C79.6525 27.5076 80.554 27.3182 81.6903 27.3182C83.16 27.3182 84.4555 27.6856 85.5767 28.4205C86.6979 29.1553 87.5729 30.197 88.2017 31.5455C88.8305 32.8939 89.1449 34.4848 89.1449 36.3182C89.1449 38.1667 88.8305 39.7689 88.2017 41.125C87.5729 42.4735 86.7017 43.5189 85.5881 44.2614C84.4744 44.9962 83.1903 45.3636 81.7358 45.3636C80.6146 45.3636 79.7169 45.178 79.0426 44.8068C78.3684 44.428 77.8494 44 77.4858 43.5227C77.1222 43.0379 76.8419 42.6364 76.6449 42.3182H76.4176V51.5455H73.7358ZM76.3722 36.2727C76.3722 37.5909 76.5653 38.7538 76.9517 39.7614C77.3381 40.7614 77.9025 41.5455 78.6449 42.1136C79.3873 42.6742 80.2964 42.9545 81.3722 42.9545C82.4934 42.9545 83.429 42.6591 84.179 42.0682C84.9366 41.4697 85.5047 40.6667 85.8835 39.6591C86.2699 38.6439 86.4631 37.5152 86.4631 36.2727C86.4631 35.0455 86.2737 33.9394 85.8949 32.9545C85.5237 31.9621 84.9593 31.178 84.2017 30.6023C83.4517 30.0189 82.5085 29.7273 81.3722 29.7273C80.2813 29.7273 79.3646 30.0038 78.6222 30.5568C77.8797 31.1023 77.3191 31.8674 76.9403 32.8523C76.5616 33.8295 76.3722 34.9697 76.3722 36.2727Z" fill="black"/>
<path d="M63.0142 63.9091V93H56.8636V69.7472H56.6932L50.0312 73.9233V68.4688L57.233 63.9091H63.0142ZM80.6811 93.3977C78.5599 93.3977 76.6707 93.0331 75.0135 92.304C73.3658 91.5653 72.0637 90.5521 71.1072 89.2642C70.1603 87.9669 69.6726 86.4706 69.6442 84.7756H75.8374C75.8752 85.4858 76.1072 86.1108 76.5334 86.6506C76.969 87.1809 77.5466 87.5928 78.2663 87.8864C78.986 88.1799 79.7957 88.3267 80.6953 88.3267C81.6328 88.3267 82.4614 88.161 83.1811 87.8295C83.9008 87.4981 84.4643 87.0388 84.8714 86.4517C85.2786 85.8646 85.4822 85.1875 85.4822 84.4205C85.4822 83.6439 85.2644 82.9574 84.8288 82.3608C84.4027 81.7547 83.7872 81.2812 82.9822 80.9403C82.1868 80.5994 81.2398 80.429 80.1413 80.429H77.4283V75.9119H80.1413C81.0694 75.9119 81.8885 75.7509 82.5987 75.429C83.3184 75.107 83.8771 74.6619 84.2749 74.0938C84.6726 73.5161 84.8714 72.8438 84.8714 72.0767C84.8714 71.3475 84.6963 70.7083 84.3459 70.1591C84.005 69.6004 83.522 69.1648 82.897 68.8523C82.2815 68.5398 81.5618 68.3835 80.7379 68.3835C79.9046 68.3835 79.1423 68.535 78.451 68.8381C77.7597 69.1316 77.2057 69.553 76.7891 70.1023C76.3724 70.6515 76.1499 71.2955 76.1214 72.0341H70.2266C70.255 70.358 70.7332 68.8807 71.6612 67.6023C72.5893 66.3239 73.8393 65.3248 75.4112 64.6051C76.9927 63.8759 78.7777 63.5114 80.7663 63.5114C82.7739 63.5114 84.5305 63.8759 86.0362 64.6051C87.5419 65.3343 88.7114 66.3191 89.5447 67.5597C90.3875 68.7907 90.8042 70.1733 90.7947 71.7074C90.8042 73.3362 90.2976 74.6951 89.2749 75.7841C88.2616 76.8731 86.9406 77.5644 85.3118 77.858V78.0852C87.4519 78.3598 89.0807 79.1032 90.1982 80.3153C91.325 81.518 91.8838 83.0237 91.8743 84.8324C91.8838 86.4896 91.4055 87.9621 90.4396 89.25C89.4832 90.5379 88.1622 91.5511 86.4766 92.2898C84.791 93.0284 82.8591 93.3977 80.6811 93.3977Z" fill="black"/>
<defs>
<linearGradient id="paint0_linear_108_490" x1="68" y1="0" x2="68" y2="109" gradientUnits="userSpaceOnUse">
<stop stop-color="#FFD9D9"/>
<stop offset="1" stop-color="#FFD9D9" stop-opacity="0"/>
</linearGradient>
</defs>
</svg>
