<svg width="1440" height="276" viewBox="0 0 1440 276" fill="none" xmlns="http://www.w3.org/2000/svg">
<rect width="1440" height="276" fill="black"/>
<path d="M69.8438 192V152H83.3594C86.4974 152 89.0625 152.566 91.0547 153.699C93.0599 154.819 94.5443 156.336 95.5078 158.25C96.4714 160.164 96.9531 162.299 96.9531 164.656C96.9531 167.013 96.4714 169.155 95.5078 171.082C94.5573 173.009 93.0859 174.546 91.0938 175.691C89.1016 176.824 86.5495 177.391 83.4375 177.391H73.75V173.094H83.2813C85.4297 173.094 87.1549 172.723 88.457 171.98C89.7591 171.238 90.7031 170.236 91.2891 168.973C91.888 167.697 92.1875 166.258 92.1875 164.656C92.1875 163.055 91.888 161.622 91.2891 160.359C90.7031 159.096 89.7526 158.107 88.4375 157.391C87.1224 156.661 85.3776 156.297 83.2031 156.297H74.6875V192H69.8438ZM104.131 192V162H108.74V192H104.131ZM106.475 157C105.576 157 104.801 156.694 104.15 156.082C103.512 155.47 103.193 154.734 103.193 153.875C103.193 153.016 103.512 152.28 104.15 151.668C104.801 151.056 105.576 150.75 106.475 150.75C107.373 150.75 108.141 151.056 108.779 151.668C109.43 152.28 109.756 153.016 109.756 153.875C109.756 154.734 109.43 155.47 108.779 156.082C108.141 156.694 107.373 157 106.475 157ZM117.808 192V152H131.323C134.461 152 137.026 152.566 139.019 153.699C141.024 154.819 142.508 156.336 143.472 158.25C144.435 160.164 144.917 162.299 144.917 164.656C144.917 167.013 144.435 169.155 143.472 171.082C142.521 173.009 141.05 174.546 139.058 175.691C137.065 176.824 134.513 177.391 131.401 177.391H121.714V173.094H131.245C133.394 173.094 135.119 172.723 136.421 171.98C137.723 171.238 138.667 170.236 139.253 168.973C139.852 167.697 140.151 166.258 140.151 164.656C140.151 163.055 139.852 161.622 139.253 160.359C138.667 159.096 137.716 158.107 136.401 157.391C135.086 156.661 133.341 156.297 131.167 156.297H122.651V192H117.808ZM152.095 192V162H156.704V192H152.095ZM154.438 157C153.54 157 152.765 156.694 152.114 156.082C151.476 155.47 151.157 154.734 151.157 153.875C151.157 153.016 151.476 152.28 152.114 151.668C152.765 151.056 153.54 150.75 154.438 150.75C155.337 150.75 156.105 151.056 156.743 151.668C157.394 152.28 157.72 153.016 157.72 153.875C157.72 154.734 157.394 155.47 156.743 156.082C156.105 156.694 155.337 157 154.438 157ZM165.771 192V152H170.615V187.703H189.209V192H165.771ZM204.912 192.703C203.011 192.703 201.286 192.345 199.736 191.629C198.187 190.9 196.956 189.852 196.045 188.484C195.133 187.104 194.678 185.437 194.678 183.484C194.678 181.766 195.016 180.372 195.693 179.305C196.37 178.224 197.275 177.378 198.408 176.766C199.541 176.154 200.791 175.698 202.158 175.398C203.538 175.086 204.925 174.839 206.318 174.656C208.141 174.422 209.619 174.246 210.752 174.129C211.898 173.999 212.731 173.784 213.252 173.484C213.786 173.185 214.053 172.664 214.053 171.922V171.766C214.053 169.839 213.525 168.341 212.471 167.273C211.429 166.206 209.847 165.672 207.725 165.672C205.524 165.672 203.799 166.154 202.549 167.117C201.299 168.081 200.42 169.109 199.912 170.203L195.537 168.641C196.318 166.818 197.36 165.398 198.662 164.383C199.977 163.354 201.41 162.638 202.959 162.234C204.521 161.818 206.058 161.609 207.568 161.609C208.532 161.609 209.639 161.727 210.889 161.961C212.152 162.182 213.369 162.645 214.541 163.348C215.726 164.051 216.709 165.112 217.49 166.531C218.271 167.951 218.662 169.852 218.662 172.234V192H214.053V187.937H213.818C213.506 188.589 212.985 189.285 212.256 190.027C211.527 190.77 210.557 191.401 209.346 191.922C208.135 192.443 206.657 192.703 204.912 192.703ZM205.615 188.562C207.438 188.562 208.975 188.204 210.225 187.488C211.488 186.772 212.438 185.848 213.076 184.715C213.727 183.582 214.053 182.391 214.053 181.141V176.922C213.857 177.156 213.428 177.371 212.764 177.566C212.113 177.749 211.357 177.911 210.498 178.055C209.652 178.185 208.825 178.302 208.018 178.406C207.223 178.497 206.579 178.576 206.084 178.641C204.886 178.797 203.766 179.051 202.725 179.402C201.696 179.741 200.863 180.255 200.225 180.945C199.6 181.622 199.287 182.547 199.287 183.719C199.287 185.32 199.88 186.531 201.064 187.352C202.262 188.159 203.779 188.562 205.615 188.562ZM227.7 192V152H241.216C244.354 152 246.919 152.566 248.911 153.699C250.916 154.819 252.401 156.336 253.364 158.25C254.328 160.164 254.81 162.299 254.81 164.656C254.81 167.013 254.328 169.155 253.364 171.082C252.414 173.009 250.942 174.546 248.95 175.691C246.958 176.824 244.406 177.391 241.294 177.391H231.606V173.094H241.138C243.286 173.094 245.011 172.723 246.313 171.98C247.616 171.238 248.56 170.236 249.146 168.973C249.744 167.697 250.044 166.258 250.044 164.656C250.044 163.055 249.744 161.622 249.146 160.359C248.56 159.096 247.609 158.107 246.294 157.391C244.979 156.661 243.234 156.297 241.06 156.297H232.544V192H227.7ZM280.894 179.734V162H285.503V192H280.894V186.922H280.581C279.878 188.445 278.784 189.741 277.3 190.809C275.815 191.863 273.94 192.391 271.675 192.391C269.8 192.391 268.133 191.98 266.675 191.16C265.216 190.327 264.071 189.077 263.237 187.41C262.404 185.73 261.987 183.615 261.987 181.062V162H266.597V180.75C266.597 182.937 267.209 184.682 268.433 185.984C269.67 187.286 271.245 187.937 273.159 187.937C274.305 187.937 275.47 187.645 276.655 187.059C277.853 186.473 278.856 185.574 279.663 184.363C280.483 183.152 280.894 181.609 280.894 179.734Z" fill="white"/>
<path d="M81.5455 40H78.7273C78.5606 39.1894 78.2689 38.4773 77.8523 37.8636C77.4432 37.25 76.9432 36.7348 76.3523 36.3182C75.7689 35.8939 75.1212 35.5758 74.4091 35.3636C73.697 35.1515 72.9545 35.0455 72.1818 35.0455C70.7727 35.0455 69.4962 35.4015 68.3523 36.1136C67.2159 36.8258 66.3106 37.875 65.6364 39.2614C64.9697 40.6477 64.6364 42.3485 64.6364 44.3636C64.6364 46.3788 64.9697 48.0795 65.6364 49.4659C66.3106 50.8523 67.2159 51.9015 68.3523 52.6136C69.4962 53.3258 70.7727 53.6818 72.1818 53.6818C72.9545 53.6818 73.697 53.5758 74.4091 53.3636C75.1212 53.1515 75.7689 52.8371 76.3523 52.4205C76.9432 51.9962 77.4432 51.4773 77.8523 50.8636C78.2689 50.2424 78.5606 49.5303 78.7273 48.7273H81.5455C81.3333 49.9167 80.947 50.9811 80.3864 51.9205C79.8258 52.8598 79.1288 53.6591 78.2955 54.3182C77.4621 54.9697 76.5265 55.4659 75.4886 55.8068C74.4583 56.1477 73.3561 56.3182 72.1818 56.3182C70.197 56.3182 68.4318 55.8333 66.8864 54.8636C65.3409 53.8939 64.125 52.5152 63.2386 50.7273C62.3523 48.9394 61.9091 46.8182 61.9091 44.3636C61.9091 41.9091 62.3523 39.7879 63.2386 38C64.125 36.2121 65.3409 34.8333 66.8864 33.8636C68.4318 32.8939 70.197 32.4091 72.1818 32.4091C73.3561 32.4091 74.4583 32.5795 75.4886 32.9205C76.5265 33.2614 77.4621 33.7614 78.2955 34.4205C79.1288 35.072 79.8258 35.8674 80.3864 36.8068C80.947 37.7386 81.3333 38.803 81.5455 40ZM85.7358 56V38.5455H92.8722C94.7509 38.5455 96.2434 38.9697 97.3494 39.8182C98.4555 40.6667 99.0085 41.7879 99.0085 43.1818C99.0085 44.2424 98.6941 45.0644 98.0653 45.6477C97.4366 46.2235 96.6297 46.6136 95.6449 46.8182C96.2888 46.9091 96.9138 47.1364 97.5199 47.5C98.1335 47.8636 98.6411 48.3636 99.0426 49C99.4441 49.6288 99.6449 50.4015 99.6449 51.3182C99.6449 52.2121 99.4176 53.0114 98.9631 53.7159C98.5085 54.4205 97.857 54.9773 97.0085 55.3864C96.16 55.7955 95.1449 56 93.9631 56H85.7358ZM88.2812 53.5455H93.9631C94.8873 53.5455 95.6108 53.3258 96.1335 52.8864C96.6563 52.447 96.9176 51.8485 96.9176 51.0909C96.9176 50.1894 96.6563 49.4811 96.1335 48.9659C95.6108 48.4432 94.8873 48.1818 93.9631 48.1818H88.2812V53.5455ZM88.2812 45.8636H92.8722C93.5919 45.8636 94.2093 45.7652 94.7244 45.5682C95.2396 45.3636 95.6335 45.0758 95.9062 44.7045C96.1866 44.3258 96.3267 43.8788 96.3267 43.3636C96.3267 42.6288 96.0199 42.053 95.4062 41.6364C94.7926 41.2121 93.9479 41 92.8722 41H88.2812V45.8636ZM114.205 56V41H109.568C108.523 41 107.701 41.2424 107.102 41.7273C106.504 42.2121 106.205 42.8788 106.205 43.7273C106.205 44.5606 106.473 45.2159 107.011 45.6932C107.557 46.1705 108.303 46.4091 109.25 46.4091H114.886V48.9091H109.25C108.068 48.9091 107.049 48.7008 106.193 48.2841C105.337 47.8674 104.678 47.2727 104.216 46.5C103.754 45.7197 103.523 44.7955 103.523 43.7273C103.523 42.6515 103.765 41.7273 104.25 40.9545C104.735 40.1818 105.428 39.5871 106.33 39.1705C107.239 38.7538 108.318 38.5455 109.568 38.5455H116.75V56H114.205ZM102.568 56L107.523 47.3182H110.432L105.477 56H102.568ZM120.582 51.5455H123.446C123.507 52.3333 123.863 52.9318 124.514 53.3409C125.173 53.75 126.029 53.9545 127.082 53.9545C128.158 53.9545 129.079 53.7348 129.844 53.2955C130.609 52.8485 130.991 52.1288 130.991 51.1364C130.991 50.553 130.848 50.0455 130.56 49.6136C130.272 49.1742 129.866 48.8333 129.344 48.5909C128.821 48.3485 128.204 48.2273 127.491 48.2273H124.491V45.8182H127.491C128.56 45.8182 129.348 45.5758 129.855 45.0909C130.37 44.6061 130.628 44 130.628 43.2727C130.628 42.4924 130.351 41.8674 129.798 41.3977C129.245 40.9205 128.461 40.6818 127.446 40.6818C126.423 40.6818 125.571 40.9129 124.889 41.375C124.207 41.8295 123.848 42.4167 123.81 43.1364H120.991C121.022 42.197 121.31 41.3674 121.855 40.6477C122.401 39.9205 123.143 39.3523 124.082 38.9432C125.022 38.5265 126.098 38.3182 127.31 38.3182C128.537 38.3182 129.601 38.5341 130.503 38.9659C131.412 39.3902 132.113 39.9697 132.605 40.7045C133.105 41.4318 133.355 42.2576 133.355 43.1818C133.355 44.1667 133.079 44.9621 132.526 45.5682C131.973 46.1742 131.279 46.6061 130.446 46.8636V47.0455C131.105 47.0909 131.677 47.303 132.162 47.6818C132.654 48.053 133.037 48.5417 133.31 49.1477C133.582 49.7462 133.719 50.4091 133.719 51.1364C133.719 52.197 133.435 53.1212 132.866 53.9091C132.298 54.6894 131.518 55.2955 130.526 55.7273C129.533 56.1515 128.401 56.3636 127.128 56.3636C125.893 56.3636 124.787 56.1629 123.81 55.7614C122.832 55.3523 122.056 54.7879 121.48 54.0682C120.912 53.3409 120.613 52.5 120.582 51.5455ZM139.804 44.8636H144.804C146.849 44.8636 148.414 45.3826 149.497 46.4205C150.58 47.4583 151.122 48.7727 151.122 50.3636C151.122 51.4091 150.88 52.3598 150.395 53.2159C149.91 54.0644 149.198 54.7424 148.259 55.25C147.319 55.75 146.168 56 144.804 56H137.486V38.5455H140.168V53.5H144.804C145.865 53.5 146.736 53.2197 147.418 52.6591C148.099 52.0985 148.44 51.3788 148.44 50.5C148.44 49.5758 148.099 48.822 147.418 48.2386C146.736 47.6553 145.865 47.3636 144.804 47.3636H139.804V44.8636ZM171.295 56.3636C169.659 56.3636 168.25 55.9773 167.068 55.2045C165.886 54.4318 164.977 53.3674 164.341 52.0114C163.705 50.6553 163.386 49.1061 163.386 47.3636C163.386 45.5909 163.712 44.0265 164.364 42.6705C165.023 41.3068 165.939 40.2424 167.114 39.4773C168.295 38.7045 169.674 38.3182 171.25 38.3182C172.477 38.3182 173.583 38.5455 174.568 39C175.553 39.4545 176.36 40.0909 176.989 40.9091C177.617 41.7273 178.008 42.6818 178.159 43.7727H175.477C175.273 42.9773 174.818 42.2727 174.114 41.6591C173.417 41.0379 172.477 40.7273 171.295 40.7273C170.25 40.7273 169.333 41 168.545 41.5455C167.765 42.0833 167.155 42.8447 166.716 43.8295C166.284 44.8068 166.068 45.9545 166.068 47.2727C166.068 48.6212 166.28 49.7955 166.705 50.7955C167.136 51.7955 167.742 52.572 168.523 53.125C169.311 53.678 170.235 53.9545 171.295 53.9545C171.992 53.9545 172.625 53.8333 173.193 53.5909C173.761 53.3485 174.242 53 174.636 52.5455C175.03 52.0909 175.311 51.5455 175.477 50.9091H178.159C178.008 51.9394 177.633 52.8674 177.034 53.6932C176.443 54.5114 175.659 55.1629 174.682 55.6477C173.712 56.125 172.583 56.3636 171.295 56.3636ZM200.625 52.3636L206.716 38.5455H209.261L201.716 56H199.534L192.125 38.5455H194.625L200.625 52.3636ZM193.761 38.5455V56H191.08V38.5455H193.761ZM207.489 56V38.5455H210.17V56H207.489ZM222.398 56.3636C220.716 56.3636 219.265 55.9924 218.045 55.25C216.833 54.5 215.898 53.4545 215.239 52.1136C214.587 50.7652 214.261 49.197 214.261 47.4091C214.261 45.6212 214.587 44.0455 215.239 42.6818C215.898 41.3106 216.814 40.2424 217.989 39.4773C219.17 38.7045 220.549 38.3182 222.125 38.3182C223.034 38.3182 223.932 38.4697 224.818 38.7727C225.705 39.0758 226.511 39.5682 227.239 40.25C227.966 40.9242 228.545 41.8182 228.977 42.9318C229.409 44.0455 229.625 45.4167 229.625 47.0455V48.1818H216.17V45.8636H226.898C226.898 44.8788 226.701 44 226.307 43.2273C225.92 42.4545 225.367 41.8447 224.648 41.3977C223.936 40.9508 223.095 40.7273 222.125 40.7273C221.057 40.7273 220.133 40.9924 219.352 41.5227C218.58 42.0455 217.985 42.7273 217.568 43.5682C217.152 44.4091 216.943 45.3106 216.943 46.2727V47.8182C216.943 49.1364 217.17 50.2538 217.625 51.1705C218.087 52.0795 218.727 52.7727 219.545 53.25C220.364 53.7197 221.314 53.9545 222.398 53.9545C223.102 53.9545 223.739 53.8561 224.307 53.6591C224.883 53.4545 225.379 53.1515 225.795 52.75C226.212 52.3409 226.534 51.8333 226.761 51.2273L229.352 51.9545C229.08 52.8333 228.621 53.6061 227.977 54.2727C227.333 54.9318 226.538 55.447 225.591 55.8182C224.644 56.1818 223.58 56.3636 222.398 56.3636ZM245.386 46.0455V48.5455H235.75V46.0455H245.386ZM236.386 38.5455V56H233.705V38.5455H236.386ZM247.432 38.5455V56H244.75V38.5455H247.432ZM259.648 56.3636C257.966 56.3636 256.515 55.9924 255.295 55.25C254.083 54.5 253.148 53.4545 252.489 52.1136C251.837 50.7652 251.511 49.197 251.511 47.4091C251.511 45.6212 251.837 44.0455 252.489 42.6818C253.148 41.3106 254.064 40.2424 255.239 39.4773C256.42 38.7045 257.799 38.3182 259.375 38.3182C260.284 38.3182 261.182 38.4697 262.068 38.7727C262.955 39.0758 263.761 39.5682 264.489 40.25C265.216 40.9242 265.795 41.8182 266.227 42.9318C266.659 44.0455 266.875 45.4167 266.875 47.0455V48.1818H253.42V45.8636H264.148C264.148 44.8788 263.951 44 263.557 43.2273C263.17 42.4545 262.617 41.8447 261.898 41.3977C261.186 40.9508 260.345 40.7273 259.375 40.7273C258.307 40.7273 257.383 40.9924 256.602 41.5227C255.83 42.0455 255.235 42.7273 254.818 43.5682C254.402 44.4091 254.193 45.3106 254.193 46.2727V47.8182C254.193 49.1364 254.42 50.2538 254.875 51.1705C255.337 52.0795 255.977 52.7727 256.795 53.25C257.614 53.7197 258.564 53.9545 259.648 53.9545C260.352 53.9545 260.989 53.8561 261.557 53.6591C262.133 53.4545 262.629 53.1515 263.045 52.75C263.462 52.3409 263.784 51.8333 264.011 51.2273L266.602 51.9545C266.33 52.8333 265.871 53.6061 265.227 54.2727C264.583 54.9318 263.788 55.447 262.841 55.8182C261.894 56.1818 260.83 56.3636 259.648 56.3636ZM269.091 61V53.5H270.545C270.902 53.1288 271.208 52.7273 271.466 52.2955C271.723 51.8636 271.947 51.3523 272.136 50.7614C272.333 50.1629 272.5 49.4356 272.636 48.5795C272.773 47.7159 272.894 46.6742 273 45.4545L273.591 38.5455H284.682V53.5H287.364V61H284.682V56H271.773V61H269.091ZM273.591 53.5H282V41.0455H276.091L275.636 45.4545C275.447 47.2803 275.212 48.875 274.932 50.2386C274.652 51.6023 274.205 52.6894 273.591 53.5ZM289.832 56L296.923 47.1364L289.923 38.5455H293.105L298.923 46H300.378V38.5455H303.06V46H304.469L310.287 38.5455H313.469L306.514 47.1364L313.56 56H310.332L304.423 48.5H303.06V56H300.378V48.5H299.014L293.06 56H289.832ZM323.991 56.3636C322.31 56.3636 320.859 55.9924 319.639 55.25C318.427 54.5 317.491 53.4545 316.832 52.1136C316.181 50.7652 315.855 49.197 315.855 47.4091C315.855 45.6212 316.181 44.0455 316.832 42.6818C317.491 41.3106 318.408 40.2424 319.582 39.4773C320.764 38.7045 322.143 38.3182 323.719 38.3182C324.628 38.3182 325.526 38.4697 326.412 38.7727C327.298 39.0758 328.105 39.5682 328.832 40.25C329.56 40.9242 330.139 41.8182 330.571 42.9318C331.003 44.0455 331.219 45.4167 331.219 47.0455V48.1818H317.764V45.8636H328.491C328.491 44.8788 328.295 44 327.901 43.2273C327.514 42.4545 326.961 41.8447 326.241 41.3977C325.529 40.9508 324.688 40.7273 323.719 40.7273C322.651 40.7273 321.726 40.9924 320.946 41.5227C320.173 42.0455 319.579 42.7273 319.162 43.5682C318.745 44.4091 318.537 45.3106 318.537 46.2727V47.8182C318.537 49.1364 318.764 50.2538 319.219 51.1705C319.681 52.0795 320.321 52.7727 321.139 53.25C321.957 53.7197 322.908 53.9545 323.991 53.9545C324.696 53.9545 325.332 53.8561 325.901 53.6591C326.476 53.4545 326.973 53.1515 327.389 52.75C327.806 52.3409 328.128 51.8333 328.355 51.2273L330.946 51.9545C330.673 52.8333 330.215 53.6061 329.571 54.2727C328.927 54.9318 328.132 55.447 327.185 55.8182C326.238 56.1818 325.173 56.3636 323.991 56.3636ZM335.298 62.5455V38.5455H337.889V41.3182H338.207C338.404 41.0152 338.677 40.6288 339.026 40.1591C339.382 39.6818 339.889 39.2576 340.548 38.8864C341.215 38.5076 342.116 38.3182 343.253 38.3182C344.723 38.3182 346.018 38.6856 347.139 39.4205C348.26 40.1553 349.135 41.197 349.764 42.5455C350.393 43.8939 350.707 45.4848 350.707 47.3182C350.707 49.1667 350.393 50.7689 349.764 52.125C349.135 53.4735 348.264 54.5189 347.151 55.2614C346.037 55.9962 344.753 56.3636 343.298 56.3636C342.177 56.3636 341.279 56.178 340.605 55.8068C339.931 55.428 339.412 55 339.048 54.5227C338.685 54.0379 338.404 53.6364 338.207 53.3182H337.98V62.5455H335.298ZM337.935 47.2727C337.935 48.5909 338.128 49.7538 338.514 50.7614C338.901 51.7614 339.465 52.5455 340.207 53.1136C340.95 53.6742 341.859 53.9545 342.935 53.9545C344.056 53.9545 344.991 53.6591 345.741 53.0682C346.499 52.4697 347.067 51.6667 347.446 50.6591C347.832 49.6439 348.026 48.5152 348.026 47.2727C348.026 46.0455 347.836 44.9394 347.457 43.9545C347.086 42.9621 346.522 42.178 345.764 41.6023C345.014 41.0189 344.071 40.7273 342.935 40.7273C341.844 40.7273 340.927 41.0038 340.185 41.5568C339.442 42.1023 338.882 42.8674 338.503 43.8523C338.124 44.8295 337.935 45.9697 337.935 47.2727ZM361.889 56.3636C360.313 56.3636 358.931 55.9886 357.741 55.2386C356.56 54.4886 355.635 53.4394 354.969 52.0909C354.31 50.7424 353.98 49.1667 353.98 47.3636C353.98 45.5455 354.31 43.9583 354.969 42.6023C355.635 41.2462 356.56 40.1932 357.741 39.4432C358.931 38.6932 360.313 38.3182 361.889 38.3182C363.465 38.3182 364.844 38.6932 366.026 39.4432C367.215 40.1932 368.139 41.2462 368.798 42.6023C369.465 43.9583 369.798 45.5455 369.798 47.3636C369.798 49.1667 369.465 50.7424 368.798 52.0909C368.139 53.4394 367.215 54.4886 366.026 55.2386C364.844 55.9886 363.465 56.3636 361.889 56.3636ZM361.889 53.9545C363.086 53.9545 364.071 53.6477 364.844 53.0341C365.616 52.4205 366.188 51.6136 366.56 50.6136C366.931 49.6136 367.116 48.5303 367.116 47.3636C367.116 46.197 366.931 45.1098 366.56 44.1023C366.188 43.0947 365.616 42.2803 364.844 41.6591C364.071 41.0379 363.086 40.7273 361.889 40.7273C360.692 40.7273 359.707 41.0379 358.935 41.6591C358.162 42.2803 357.59 43.0947 357.219 44.1023C356.848 45.1098 356.662 46.197 356.662 47.3636C356.662 48.5303 356.848 49.6136 357.219 50.6136C357.59 51.6136 358.162 52.4205 358.935 53.0341C359.707 53.6477 360.692 53.9545 361.889 53.9545ZM383.438 52.3636L389.528 38.5455H392.074L384.528 56H382.347L374.938 38.5455H377.438L383.438 52.3636ZM376.574 38.5455V56H373.892V38.5455H376.574ZM390.301 56V38.5455H392.983V56H390.301Z" fill="white"/>
<g clip-path="url(#clip0_74_107)">
<path d="M1153.96 38.8812C1158.22 38.8812 1158.73 38.9 1160.4 38.975C1161.96 39.0437 1162.8 39.3063 1163.37 39.525C1164.11 39.8125 1164.64 40.1625 1165.2 40.7188C1165.76 41.2812 1166.1 41.8125 1166.39 42.5563C1166.61 43.1188 1166.87 43.9688 1166.94 45.525C1167.01 47.2125 1167.03 47.7188 1167.03 51.9875C1167.03 56.2625 1167.01 56.7688 1166.94 58.45C1166.87 60.0125 1166.61 60.8563 1166.39 61.4188C1166.1 62.1625 1165.75 62.7 1165.2 63.2563C1164.64 63.8188 1164.11 64.1625 1163.37 64.45C1162.8 64.6688 1161.96 64.9313 1160.4 65C1158.72 65.075 1158.22 65.0938 1153.96 65.0938C1149.69 65.0938 1149.19 65.075 1147.51 65C1145.95 64.9313 1145.11 64.6688 1144.55 64.45C1143.81 64.1625 1143.27 63.8125 1142.72 63.2563C1142.16 62.6938 1141.82 62.1625 1141.53 61.4188C1141.31 60.8563 1141.05 60.0063 1140.98 58.45C1140.91 56.7625 1140.89 56.2563 1140.89 51.9875C1140.89 47.7125 1140.91 47.2063 1140.98 45.525C1141.05 43.9625 1141.31 43.1188 1141.53 42.5563C1141.82 41.8125 1142.16 41.275 1142.72 40.7188C1143.28 40.1562 1143.81 39.8125 1144.55 39.525C1145.11 39.3063 1145.96 39.0437 1147.51 38.975C1149.19 38.9 1149.69 38.8812 1153.96 38.8812ZM1153.96 36C1149.63 36 1149.08 36.0187 1147.38 36.0938C1145.69 36.1688 1144.52 36.4437 1143.51 36.8375C1142.46 37.25 1141.57 37.7938 1140.68 38.6875C1139.79 39.575 1139.25 40.4688 1138.84 41.5188C1138.44 42.5375 1138.17 43.7 1138.09 45.4C1138.02 47.1125 1138 47.6562 1138 52C1138 56.3438 1138.02 56.8875 1138.09 58.5938C1138.17 60.2938 1138.44 61.4625 1138.84 62.475C1139.25 63.5313 1139.79 64.425 1140.68 65.3125C1141.57 66.2 1142.46 66.75 1143.5 67.1562C1144.52 67.55 1145.68 67.825 1147.38 67.9C1149.08 67.975 1149.62 67.9937 1153.95 67.9937C1158.29 67.9937 1158.83 67.975 1160.53 67.9C1162.23 67.825 1163.39 67.55 1164.4 67.1562C1165.45 66.75 1166.34 66.2 1167.22 65.3125C1168.11 64.425 1168.66 63.5313 1169.06 62.4813C1169.46 61.4625 1169.73 60.3 1169.81 58.6C1169.88 56.8938 1169.9 56.35 1169.9 52.0063C1169.9 47.6625 1169.88 47.1188 1169.81 45.4125C1169.73 43.7125 1169.46 42.5438 1169.06 41.5312C1168.67 40.4688 1168.13 39.575 1167.24 38.6875C1166.35 37.8 1165.46 37.25 1164.41 36.8438C1163.4 36.45 1162.24 36.175 1160.54 36.1C1158.83 36.0188 1158.29 36 1153.96 36Z" fill="white"/>
<path d="M1153.96 43.7812C1149.43 43.7812 1145.76 47.4625 1145.76 52C1145.76 56.5375 1149.43 60.2188 1153.96 60.2188C1158.48 60.2188 1162.16 56.5375 1162.16 52C1162.16 47.4625 1158.48 43.7812 1153.96 43.7812ZM1153.96 57.3312C1151.02 57.3312 1148.64 54.9438 1148.64 52C1148.64 49.0563 1151.02 46.6687 1153.96 46.6687C1156.9 46.6687 1159.28 49.0563 1159.28 52C1159.28 54.9438 1156.9 57.3312 1153.96 57.3312Z" fill="white"/>
<path d="M1164.39 43.4562C1164.39 44.5187 1163.53 45.375 1162.48 45.375C1161.42 45.375 1160.57 44.5125 1160.57 43.4562C1160.57 42.3937 1161.43 41.5375 1162.48 41.5375C1163.53 41.5375 1164.39 42.4 1164.39 43.4562Z" fill="white"/>
</g>
<g clip-path="url(#clip1_74_107)">
<path fill-rule="evenodd" clip-rule="evenodd" d="M1239.19 38.2494C1236.95 40.4988 1236.95 44.1192 1236.95 51.36V52.64C1236.95 59.8808 1236.95 63.5011 1239.19 65.7506C1241.43 68 1245.04 68 1252.27 68H1253.54C1260.76 68 1264.38 68 1266.62 65.7506C1268.86 63.5011 1268.86 59.8808 1268.86 52.64V51.36C1268.86 44.1192 1268.86 40.4988 1266.62 38.2494C1264.38 36 1260.76 36 1253.54 36H1252.27C1245.04 36 1241.43 36 1239.19 38.2494ZM1242.33 45.7334C1242.5 54.0534 1246.65 59.0534 1253.93 59.0534H1254.34V54.2934C1257.01 54.5601 1259.03 56.5201 1259.85 59.0534H1263.62C1262.59 55.2667 1259.86 53.1734 1258.16 52.3734C1259.86 51.3867 1262.25 48.9867 1262.83 45.7334H1259.39C1258.65 48.3734 1256.44 50.7734 1254.34 51.0001V45.7334H1250.91V54.9601C1248.78 54.4267 1246.1 51.8401 1245.98 45.7334H1242.33Z" fill="white"/>
</g>
<path d="M1339.08 68L1341.34 59.7827C1339.95 57.3773 1339.21 54.6507 1339.22 51.8547C1339.22 43.1133 1346.35 36 1355.11 36C1359.36 36.0013 1363.35 37.6533 1366.35 40.6507C1369.35 43.648 1371 47.632 1371 51.8693C1371 60.612 1363.87 67.7253 1355.11 67.7253C1352.45 67.724 1349.83 67.0587 1347.51 65.7947L1339.08 68ZM1347.9 62.924C1350.14 64.2507 1352.28 65.0453 1355.1 65.0467C1362.38 65.0467 1368.31 59.1347 1368.32 51.8667C1368.32 44.584 1362.42 38.68 1355.11 38.6773C1347.83 38.6773 1341.9 44.5893 1341.9 51.856C1341.9 54.8227 1342.77 57.044 1344.23 59.368L1342.9 64.232L1347.9 62.924ZM1363.11 55.6387C1363.01 55.4733 1362.75 55.3747 1362.35 55.176C1361.95 54.9773 1360 54.0187 1359.64 53.8867C1359.27 53.7547 1359.01 53.688 1358.74 54.0853C1358.48 54.4813 1357.72 55.3747 1357.49 55.6387C1357.26 55.9027 1357.02 55.936 1356.63 55.7373C1356.23 55.5387 1354.95 55.1213 1353.43 53.7707C1352.25 52.72 1351.45 51.4227 1351.22 51.0253C1350.99 50.6293 1351.2 50.4147 1351.4 50.2173C1351.58 50.04 1351.79 49.7547 1351.99 49.5227C1352.19 49.2933 1352.26 49.128 1352.39 48.8627C1352.53 48.5987 1352.46 48.3667 1352.36 48.168C1352.26 47.9707 1351.47 46.02 1351.14 45.2267C1350.81 44.4547 1350.49 44.5587 1350.24 44.5467L1349.48 44.5333C1349.22 44.5333 1348.79 44.632 1348.42 45.0293C1348.06 45.4267 1347.03 46.384 1347.03 48.3347C1347.03 50.2853 1348.46 52.1693 1348.65 52.4333C1348.85 52.6973 1351.45 56.7 1355.44 58.416C1356.38 58.824 1357.12 59.068 1357.7 59.2507C1358.65 59.552 1359.52 59.5093 1360.2 59.408C1360.96 59.2947 1362.55 58.4493 1362.88 57.524C1363.21 56.5973 1363.21 55.804 1363.11 55.6387Z" fill="white"/>
<rect x="1055.5" y="136.5" width="321" height="72" fill="black" stroke="white"/>
<path d="M1093.66 189.545C1091.14 189.545 1088.96 188.989 1087.13 187.875C1085.31 186.75 1083.91 185.182 1082.92 183.17C1081.94 181.148 1081.45 178.795 1081.45 176.114C1081.45 173.432 1081.94 171.068 1082.92 169.023C1083.91 166.966 1085.28 165.364 1087.05 164.216C1088.82 163.057 1090.89 162.477 1093.25 162.477C1094.61 162.477 1095.96 162.705 1097.29 163.159C1098.62 163.614 1099.83 164.352 1100.92 165.375C1102.01 166.386 1102.88 167.727 1103.53 169.398C1104.18 171.068 1104.5 173.125 1104.5 175.568V177.273H1084.32V173.795H1100.41C1100.41 172.318 1100.11 171 1099.52 169.841C1098.94 168.682 1098.11 167.767 1097.03 167.097C1095.97 166.426 1094.7 166.091 1093.25 166.091C1091.65 166.091 1090.26 166.489 1089.09 167.284C1087.93 168.068 1087.04 169.091 1086.41 170.352C1085.79 171.614 1085.48 172.966 1085.48 174.409V176.727C1085.48 178.705 1085.82 180.381 1086.5 181.756C1087.19 183.119 1088.15 184.159 1089.38 184.875C1090.61 185.58 1092.03 185.932 1093.66 185.932C1094.72 185.932 1095.67 185.784 1096.52 185.489C1097.39 185.182 1098.13 184.727 1098.76 184.125C1099.38 183.511 1099.86 182.75 1100.2 181.841L1104.09 182.932C1103.68 184.25 1102.99 185.409 1102.03 186.409C1101.06 187.398 1099.87 188.17 1098.45 188.727C1097.03 189.273 1095.43 189.545 1093.66 189.545ZM1125.62 172.159V175.909H1110.35V172.159H1125.62ZM1132.7 189V162.818H1136.58V166.909H1136.92C1137.47 165.511 1138.35 164.426 1139.57 163.653C1140.78 162.869 1142.24 162.477 1143.95 162.477C1145.67 162.477 1147.11 162.869 1148.26 163.653C1149.42 164.426 1150.32 165.511 1150.97 166.909H1151.24C1151.91 165.557 1152.92 164.483 1154.26 163.688C1155.6 162.881 1157.21 162.477 1159.08 162.477C1161.42 162.477 1163.34 163.21 1164.83 164.676C1166.32 166.131 1167.06 168.398 1167.06 171.477V189H1163.04V171.477C1163.04 169.545 1162.51 168.165 1161.45 167.335C1160.4 166.506 1159.15 166.091 1157.72 166.091C1155.88 166.091 1154.45 166.648 1153.44 167.761C1152.43 168.864 1151.92 170.261 1151.92 171.955V189H1147.83V171.068C1147.83 169.58 1147.35 168.381 1146.38 167.472C1145.42 166.551 1144.17 166.091 1142.65 166.091C1141.61 166.091 1140.63 166.369 1139.72 166.926C1138.82 167.483 1138.1 168.256 1137.54 169.244C1136.99 170.222 1136.72 171.352 1136.72 172.636V189H1132.7ZM1182.12 189.614C1180.46 189.614 1178.96 189.301 1177.6 188.676C1176.25 188.04 1175.18 187.125 1174.38 185.932C1173.59 184.727 1173.19 183.273 1173.19 181.568C1173.19 180.068 1173.48 178.852 1174.08 177.92C1174.67 176.977 1175.46 176.239 1176.44 175.705C1177.43 175.17 1178.52 174.773 1179.72 174.511C1180.92 174.239 1182.13 174.023 1183.35 173.864C1184.94 173.659 1186.23 173.506 1187.22 173.403C1188.22 173.29 1188.94 173.102 1189.4 172.841C1189.87 172.58 1190.1 172.125 1190.1 171.477V171.341C1190.1 169.659 1189.64 168.352 1188.72 167.42C1187.81 166.489 1186.43 166.023 1184.58 166.023C1182.65 166.023 1181.15 166.443 1180.06 167.284C1178.97 168.125 1178.2 169.023 1177.76 169.977L1173.94 168.614C1174.62 167.023 1175.53 165.784 1176.67 164.898C1177.81 164 1179.06 163.375 1180.42 163.023C1181.78 162.659 1183.12 162.477 1184.44 162.477C1185.28 162.477 1186.25 162.58 1187.34 162.784C1188.44 162.977 1189.5 163.381 1190.52 163.994C1191.56 164.608 1192.42 165.534 1193.1 166.773C1193.78 168.011 1194.12 169.67 1194.12 171.75V189H1190.1V185.455H1189.89C1189.62 186.023 1189.17 186.631 1188.53 187.278C1187.89 187.926 1187.05 188.477 1185.99 188.932C1184.93 189.386 1183.64 189.614 1182.12 189.614ZM1182.73 186C1184.33 186 1185.67 185.688 1186.76 185.062C1187.86 184.438 1188.69 183.631 1189.25 182.642C1189.81 181.653 1190.1 180.614 1190.1 179.523V175.841C1189.93 176.045 1189.55 176.233 1188.97 176.403C1188.4 176.562 1187.75 176.705 1187 176.83C1186.26 176.943 1185.54 177.045 1184.83 177.136C1184.14 177.216 1183.58 177.284 1183.14 177.341C1182.1 177.477 1181.12 177.699 1180.21 178.006C1179.31 178.301 1178.59 178.75 1178.03 179.352C1177.48 179.943 1177.21 180.75 1177.21 181.773C1177.21 183.17 1177.73 184.227 1178.76 184.943C1179.81 185.648 1181.13 186 1182.73 186ZM1201.46 189V162.818H1205.49V189H1201.46ZM1203.51 158.455C1202.72 158.455 1202.05 158.188 1201.48 157.653C1200.92 157.119 1200.64 156.477 1200.64 155.727C1200.64 154.977 1200.92 154.335 1201.48 153.801C1202.05 153.267 1202.72 153 1203.51 153C1204.29 153 1204.96 153.267 1205.52 153.801C1206.09 154.335 1206.37 154.977 1206.37 155.727C1206.37 156.477 1206.09 157.119 1205.52 157.653C1204.96 158.188 1204.29 158.455 1203.51 158.455ZM1216.88 154.091V189H1212.85V154.091H1216.88Z" fill="white"/>
<defs>
<clipPath id="clip0_74_107">
<rect width="31.9178" height="32" fill="white" transform="translate(1138 36)"/>
</clipPath>
<clipPath id="clip1_74_107">
<rect width="31.9178" height="32" fill="white" transform="translate(1236.95 36)"/>
</clipPath>
</defs>
</svg>
