<svg width="136" height="109" viewBox="0 0 136 109" fill="none" xmlns="http://www.w3.org/2000/svg">
<rect x="0.5" y="0.5" width="135" height="108" fill="url(#paint0_linear_108_492)" stroke="black"/>
<path d="M71.2273 19.7273V43H68.4091V22.2273H56.6818V43H53.8636V19.7273H71.2273ZM75.5483 28.0455V25.5455H89.7301V28.0455H84.0028V43H81.321V28.0455H75.5483Z" fill="black"/>
<path d="M64.0142 64.9091V94H57.8636V70.7472H57.6932L51.0312 74.9233V69.4688L58.233 64.9091H64.0142ZM81.5533 94.3977C79.5457 94.3977 77.7559 94.0284 76.1839 93.2898C74.6214 92.5511 73.3809 91.5331 72.4624 90.2358C71.5438 88.9384 71.0656 87.4517 71.0277 85.7756H76.9936C77.0599 86.9025 77.5334 87.8163 78.4141 88.517C79.2947 89.2178 80.3411 89.5682 81.5533 89.5682C82.5192 89.5682 83.3714 89.3551 84.1101 88.929C84.8582 88.4934 85.4406 87.892 85.8572 87.125C86.2834 86.3485 86.4964 85.4583 86.4964 84.4545C86.4964 83.4318 86.2786 82.5322 85.843 81.7557C85.4169 80.9792 84.825 80.3731 84.0675 79.9375C83.3099 79.5019 82.4434 79.2794 81.468 79.2699C80.6158 79.2699 79.7872 79.4451 78.9822 79.7955C78.1868 80.1458 77.5665 80.6241 77.1214 81.2301L71.6527 80.25L73.0305 64.9091H90.8146V69.9375H78.1016L77.3487 77.2244H77.5192C78.0305 76.5047 78.8023 75.9081 79.8345 75.4347C80.8667 74.9612 82.022 74.7244 83.3004 74.7244C85.0523 74.7244 86.6148 75.1364 87.9879 75.9602C89.361 76.7841 90.4453 77.9157 91.2408 79.3551C92.0362 80.785 92.4292 82.4328 92.4197 84.2983C92.4292 86.2585 91.9747 88.0009 91.0561 89.5256C90.147 91.0407 88.8733 92.2339 87.2351 93.1051C85.6063 93.9669 83.7124 94.3977 81.5533 94.3977Z" fill="black"/>
<defs>
<linearGradient id="paint0_linear_108_492" x1="68" y1="0" x2="68" y2="109" gradientUnits="userSpaceOnUse">
<stop stop-color="#FFD9D9"/>
<stop offset="1" stop-color="#FFD9D9" stop-opacity="0"/>
</linearGradient>
</defs>
</svg>
