<svg width="243" height="36" viewBox="0 0 243 36" fill="none" xmlns="http://www.w3.org/2000/svg">
<path d="M1.49219 28C0.580729 28 0.125 27.5117 0.125 26.5352V1.45703C0.125 0.480469 0.580729 -0.0078125 1.49219 -0.0078125H8.79688C13.4844 -0.0078125 16.7331 0.753906 18.543 2.27734C20.3659 3.80078 21.2773 5.96224 21.2773 8.76172C21.2773 11.5612 20.3659 13.7227 18.543 15.2461C16.7331 16.7695 13.4844 17.5312 8.79688 17.5312H5.82812V26.5352C5.82812 27.5117 5.3724 28 4.46094 28H1.49219ZM5.82812 12.7656H8.77734C11.3815 12.7656 13.1523 12.4596 14.0898 11.8477C15.0273 11.2227 15.4961 10.194 15.4961 8.76172C15.4961 7.32943 15.0273 6.30729 14.0898 5.69531C13.1523 5.07031 11.3815 4.75781 8.77734 4.75781H5.82812V12.7656ZM24.5 17.7461C24.5 14.4518 25.3203 11.8542 26.9609 9.95312C28.6146 8.05208 30.9453 7.10156 33.9531 7.10156C37.4427 7.10156 40.0339 8 41.7266 9.79688C43.4193 11.5938 44.2656 14.4844 44.2656 18.4688C44.2656 19.25 43.901 19.6406 43.1719 19.6406H30.2812C30.4896 21.8021 31.0234 23.1628 31.8828 23.7227C32.7422 24.2826 33.7383 24.5625 34.8711 24.5625C35.9518 24.5625 36.7786 24.4193 37.3516 24.1328C37.9245 23.8464 38.4062 23.4557 38.7969 22.9609C39.2396 22.388 39.7865 22.2969 40.4375 22.6875L42.3906 23.8789C43.1589 24.3477 43.2695 24.9076 42.7227 25.5586C41.9284 26.5091 40.9974 27.2188 39.9297 27.6875C38.862 28.1562 37.1758 28.3906 34.8711 28.3906C31.1341 28.3906 28.4714 27.4401 26.8828 25.5391C25.2943 23.638 24.5 21.0404 24.5 17.7461ZM30.3008 15.7344H38.7969C38.7969 14.3281 38.4453 13.1823 37.7422 12.2969C37.0391 11.3984 35.9193 10.9492 34.3828 10.9492C33.1589 10.9492 32.1888 11.3789 31.4727 12.2383C30.7565 13.0846 30.3659 14.25 30.3008 15.7344ZM49.6953 28C48.9141 28 48.5234 27.6094 48.5234 26.8281V8.66406C48.5234 7.88281 48.9141 7.49219 49.6953 7.49219H62C62.7812 7.49219 63.1719 7.81771 63.1719 8.46875V10.4219C63.1719 11.0729 62.7812 11.3984 62 11.3984H53.9922V26.8281C53.9922 27.6094 53.6016 28 52.8203 28H49.6953ZM67.4102 28C66.7461 28 66.4141 27.6094 66.4141 26.8281V8.66406C66.4141 7.88281 66.8047 7.49219 67.5859 7.49219H70.7109C71.4922 7.49219 71.8828 7.88281 71.8828 8.66406V18.4883C71.8828 19.0091 71.8568 19.5299 71.8047 20.0508H71.8828L77.625 8.76172C78.0547 7.91536 78.7383 7.49219 79.6758 7.49219H83.6016C84.3828 7.49219 84.7734 7.88281 84.7734 8.66406V26.8281C84.7734 27.6094 84.3828 28 83.6016 28H80.4766C79.6953 28 79.3047 27.6094 79.3047 26.8281V17.0039C79.3047 16.4701 79.3307 15.9492 79.3828 15.4414H79.3047L73.5625 26.7305C73.1328 27.5768 72.4492 28 71.5117 28H67.4102ZM88.9922 17.7461C88.9922 14.4258 89.8255 11.8216 91.4922 9.93359C93.1589 8.04557 95.7174 7.10156 99.168 7.10156C101.186 7.10156 102.755 7.36849 103.875 7.90234C104.995 8.4362 105.893 9.21745 106.57 10.2461C106.974 10.8581 106.909 11.3398 106.375 11.6914L104.305 13.0586C103.719 13.4492 103.204 13.2995 102.762 12.6094C102.54 12.2708 102.117 11.9062 101.492 11.5156C100.867 11.125 100.092 10.9297 99.168 10.9297C97.6966 10.9297 96.5964 11.4505 95.8672 12.4922C95.138 13.5208 94.7734 15.2721 94.7734 17.7461C94.7734 20.2201 95.138 21.9779 95.8672 23.0195C96.5964 24.0482 97.6966 24.5625 99.168 24.5625C100.223 24.5625 101.076 24.3411 101.727 23.8984C102.378 23.4557 102.99 22.8828 103.562 22.1797C104.057 21.5807 104.578 21.4961 105.125 21.9258L106.941 23.3516C107.488 23.7812 107.521 24.3542 107.039 25.0703C106.531 25.8255 105.665 26.5677 104.441 27.2969C103.23 28.026 101.473 28.3906 99.168 28.3906C95.7174 28.3906 93.1589 27.4466 91.4922 25.5586C89.8255 23.6706 88.9922 21.0664 88.9922 17.7461ZM110.398 11.3984C109.617 11.3984 109.227 11.0729 109.227 10.4219V8.46875C109.227 7.81771 109.617 7.49219 110.398 7.49219H126.727C127.508 7.49219 127.898 7.81771 127.898 8.46875V10.4219C127.898 11.0729 127.508 11.3984 126.727 11.3984H121.297V26.8281C121.297 27.6094 120.906 28 120.125 28H117C116.219 28 115.828 27.6094 115.828 26.8281V11.3984H110.398ZM132.312 35.8125C131.531 35.8125 131.141 35.4219 131.141 34.6406V8.66406C131.141 7.88281 131.531 7.49219 132.312 7.49219H135.398C136.049 7.49219 136.401 7.88281 136.453 8.66406L136.531 9.79688H136.609C137.286 8.67708 138.042 7.94792 138.875 7.60938C139.708 7.27083 140.711 7.10156 141.883 7.10156C144.943 7.10156 147.091 8.16276 148.328 10.2852C149.578 12.3945 150.203 14.8815 150.203 17.7461C150.203 20.6107 149.578 23.1042 148.328 25.2266C147.091 27.3359 144.943 28.3906 141.883 28.3906C140.711 28.3906 139.708 28.2214 138.875 27.8828C138.042 27.5443 137.286 26.8151 136.609 25.6953H136.531C136.583 26.2161 136.609 26.737 136.609 27.2578V34.6406C136.609 35.4219 136.219 35.8125 135.438 35.8125H132.312ZM136.609 18.625C136.609 20.3828 136.954 21.8151 137.645 22.9219C138.348 24.0156 139.188 24.5625 140.164 24.5625C141.922 24.5625 143.068 23.9505 143.602 22.7266C144.148 21.4896 144.422 19.8294 144.422 17.7461C144.422 15.6628 144.148 14.0091 143.602 12.7852C143.068 11.5482 141.922 10.9297 140.164 10.9297C139.188 10.9297 138.348 11.4831 137.645 12.5898C136.954 13.6836 136.609 15.1094 136.609 16.8672V18.625ZM153.328 22.5312C153.328 19.9271 154.572 18.0391 157.059 16.8672C159.546 15.6953 162.384 15.0703 165.574 14.9922V14.2109C165.574 13.013 165.275 12.1667 164.676 11.6719C164.077 11.1771 163.243 10.9297 162.176 10.9297C161.421 10.9297 160.75 11.0404 160.164 11.2617C159.591 11.4701 159.09 11.7174 158.66 12.0039C158.243 12.2773 157.866 12.5573 157.527 12.8438C156.928 13.3646 156.434 13.3906 156.043 12.9219L154.422 10.9297C154.018 10.4349 154.116 9.92708 154.715 9.40625C155.171 9.0026 155.698 8.65104 156.297 8.35156C156.909 8.05208 157.716 7.77214 158.719 7.51172C159.721 7.23828 161.023 7.10156 162.625 7.10156C165.333 7.10156 167.41 7.72656 168.855 8.97656C170.314 10.2266 171.043 12.069 171.043 14.5039V26.8281C171.043 27.6094 170.652 28 169.871 28H166.668C165.965 28 165.613 27.6094 165.613 26.8281V26.2422H165.574C164.806 26.9844 163.882 27.5312 162.801 27.8828C161.733 28.2214 160.75 28.3906 159.852 28.3906C157.716 28.3906 156.095 27.8698 154.988 26.8281C153.882 25.7734 153.328 24.3411 153.328 22.5312ZM159.109 22.4141C159.109 22.8698 159.201 23.2669 159.383 23.6055C159.565 23.931 159.852 24.1719 160.242 24.3281C160.633 24.4844 161.069 24.5625 161.551 24.5625C162.215 24.5625 162.859 24.4714 163.484 24.2891C164.109 24.1068 164.806 23.6771 165.574 23V18.7617C163.387 19.0091 161.922 19.3281 161.18 19.7188C160.438 20.1094 159.904 20.513 159.578 20.9297C159.266 21.3464 159.109 21.8411 159.109 22.4141ZM177.547 28C176.766 28 176.375 27.6094 176.375 26.8281V8.66406C176.375 7.88281 176.766 7.49219 177.547 7.49219H180.672C181.453 7.49219 181.844 7.88281 181.844 8.66406V24.0938H188.602V8.66406C188.602 7.88281 188.992 7.49219 189.773 7.49219H192.898C193.68 7.49219 194.07 7.88281 194.07 8.66406V24.0938H195.75C196.531 24.0938 196.922 24.4844 196.922 25.2656V32.8828C196.922 33.6641 196.564 34.0547 195.848 34.0547H193.504C192.788 34.0547 192.43 33.6641 192.43 32.8828V28H177.547ZM201.59 28C200.926 28 200.594 27.6094 200.594 26.8281V8.66406C200.594 7.88281 200.984 7.49219 201.766 7.49219H204.891C205.672 7.49219 206.062 7.88281 206.062 8.66406V18.4883C206.062 19.0091 206.036 19.5299 205.984 20.0508H206.062L211.805 8.76172C212.234 7.91536 212.918 7.49219 213.855 7.49219H217.781C218.562 7.49219 218.953 7.88281 218.953 8.66406V26.8281C218.953 27.6094 218.562 28 217.781 28H214.656C213.875 28 213.484 27.6094 213.484 26.8281V17.0039C213.484 16.4701 213.51 15.9492 213.562 15.4414H213.484L207.742 26.7305C207.312 27.5768 206.629 28 205.691 28H201.59ZM224.852 28C223.862 28 223.66 27.5182 224.246 26.5547L227.176 21.7695C227.697 20.9232 228.152 20.3503 228.543 20.0508C228.934 19.7513 229.454 19.4062 230.105 19.0156V18.9766C228.647 18.6641 227.384 18.0521 226.316 17.1406C225.249 16.2161 224.715 14.9792 224.715 13.4297C224.715 11.8542 225.242 10.474 226.297 9.28906C227.352 8.09115 229.357 7.49219 232.312 7.49219H241.082C241.863 7.49219 242.254 7.88281 242.254 8.66406V26.8281C242.254 27.6094 241.863 28 241.082 28H237.957C237.176 28 236.785 27.6094 236.785 26.8281V20.1484H235.047C234.448 20.1484 233.979 20.2982 233.641 20.5977C233.302 20.8971 232.905 21.4505 232.449 22.2578L229.793 26.9844C229.415 27.6615 228.882 28 228.191 28H224.852ZM230.496 13.7227C230.496 14.8294 230.919 15.5391 231.766 15.8516C232.612 16.1641 233.686 16.3203 234.988 16.3203H236.785V11.3203H234.617C233.016 11.3203 231.928 11.5156 231.355 11.9062C230.783 12.2839 230.496 12.8893 230.496 13.7227Z" fill="black"/>
</svg>
