<svg width="1437" height="167" viewBox="0 0 1437 167" fill="none" xmlns="http://www.w3.org/2000/svg">
<rect x="-2.5" y="0.5" width="1439" height="166" fill="url(#paint0_linear_116_503)" stroke="black"/>
<path opacity="0.8" d="M48.5 152L40.5 141.318H37.6364V152H34.8182V128.727H37.6364V138.818H38.8636L48.1818 128.727H51.5455L42.1364 138.955L51.8636 152H48.5ZM60.2784 152.409C59.1723 152.409 58.1686 152.201 57.267 151.784C56.3655 151.36 55.6496 150.75 55.1193 149.955C54.589 149.152 54.3239 148.182 54.3239 147.045C54.3239 146.045 54.5208 145.235 54.9148 144.614C55.3087 143.985 55.8352 143.492 56.4943 143.136C57.1534 142.78 57.8807 142.515 58.6761 142.341C59.4792 142.159 60.286 142.015 61.0966 141.909C62.1572 141.773 63.017 141.67 63.6761 141.602C64.3428 141.527 64.8277 141.402 65.1307 141.227C65.4413 141.053 65.5966 140.75 65.5966 140.318V140.227C65.5966 139.106 65.2898 138.235 64.6761 137.614C64.0701 136.992 63.1496 136.682 61.9148 136.682C60.6345 136.682 59.6307 136.962 58.9034 137.523C58.1761 138.083 57.6648 138.682 57.3693 139.318L54.8239 138.409C55.2784 137.348 55.8845 136.523 56.642 135.932C57.4072 135.333 58.2405 134.917 59.142 134.682C60.0511 134.439 60.9451 134.318 61.8239 134.318C62.3845 134.318 63.0284 134.386 63.7557 134.523C64.4905 134.652 65.1989 134.92 65.8807 135.33C66.5701 135.739 67.142 136.356 67.5966 137.182C68.0511 138.008 68.2784 139.114 68.2784 140.5V152H65.5966V149.636H65.4602C65.2784 150.015 64.9754 150.42 64.5511 150.852C64.1269 151.284 63.5625 151.652 62.858 151.955C62.1534 152.258 61.2936 152.409 60.2784 152.409ZM60.6875 150C61.7481 150 62.642 149.792 63.3693 149.375C64.1042 148.958 64.6572 148.42 65.0284 147.761C65.4072 147.102 65.5966 146.409 65.5966 145.682V143.227C65.483 143.364 65.233 143.489 64.8466 143.602C64.4678 143.708 64.0284 143.803 63.5284 143.886C63.036 143.962 62.5549 144.03 62.0852 144.091C61.6231 144.144 61.2481 144.189 60.9602 144.227C60.2633 144.318 59.6117 144.466 59.0057 144.67C58.4072 144.867 57.9223 145.167 57.5511 145.568C57.1875 145.962 57.0057 146.5 57.0057 147.182C57.0057 148.114 57.3504 148.818 58.0398 149.295C58.7367 149.765 59.6193 150 60.6875 150ZM72.0824 147.545H74.946C75.0066 148.333 75.3627 148.932 76.0142 149.341C76.6733 149.75 77.5294 149.955 78.5824 149.955C79.6581 149.955 80.5786 149.735 81.3438 149.295C82.1089 148.848 82.4915 148.129 82.4915 147.136C82.4915 146.553 82.3475 146.045 82.0597 145.614C81.7718 145.174 81.3665 144.833 80.8438 144.591C80.321 144.348 79.7036 144.227 78.9915 144.227H75.9915V141.818H78.9915C80.0597 141.818 80.8475 141.576 81.3551 141.091C81.8703 140.606 82.1278 140 82.1278 139.273C82.1278 138.492 81.8513 137.867 81.2983 137.398C80.7453 136.92 79.9612 136.682 78.946 136.682C77.9233 136.682 77.071 136.913 76.3892 137.375C75.7074 137.83 75.3475 138.417 75.3097 139.136H72.4915C72.5218 138.197 72.8097 137.367 73.3551 136.648C73.9006 135.92 74.643 135.352 75.5824 134.943C76.5218 134.527 77.5975 134.318 78.8097 134.318C80.0369 134.318 81.1013 134.534 82.0028 134.966C82.9119 135.39 83.6127 135.97 84.1051 136.705C84.6051 137.432 84.8551 138.258 84.8551 139.182C84.8551 140.167 84.5786 140.962 84.0256 141.568C83.4725 142.174 82.7794 142.606 81.946 142.864V143.045C82.6051 143.091 83.1771 143.303 83.6619 143.682C84.1544 144.053 84.5369 144.542 84.8097 145.148C85.0824 145.746 85.2188 146.409 85.2188 147.136C85.2188 148.197 84.9347 149.121 84.3665 149.909C83.7983 150.689 83.018 151.295 82.0256 151.727C81.0331 152.152 79.9006 152.364 78.6278 152.364C77.393 152.364 76.2869 152.163 75.3097 151.761C74.3324 151.352 73.5559 150.788 72.9801 150.068C72.4119 149.341 72.1127 148.5 72.0824 147.545ZM94.1222 152.409C93.0161 152.409 92.0123 152.201 91.1108 151.784C90.2093 151.36 89.4934 150.75 88.9631 149.955C88.4328 149.152 88.1676 148.182 88.1676 147.045C88.1676 146.045 88.3646 145.235 88.7585 144.614C89.1525 143.985 89.679 143.492 90.3381 143.136C90.9972 142.78 91.7244 142.515 92.5199 142.341C93.3229 142.159 94.1297 142.015 94.9403 141.909C96.0009 141.773 96.8608 141.67 97.5199 141.602C98.1866 141.527 98.6714 141.402 98.9744 141.227C99.285 141.053 99.4403 140.75 99.4403 140.318V140.227C99.4403 139.106 99.1335 138.235 98.5199 137.614C97.9138 136.992 96.9934 136.682 95.7585 136.682C94.4782 136.682 93.4744 136.962 92.7472 137.523C92.0199 138.083 91.5085 138.682 91.2131 139.318L88.6676 138.409C89.1222 137.348 89.7282 136.523 90.4858 135.932C91.2509 135.333 92.0843 134.917 92.9858 134.682C93.8949 134.439 94.7888 134.318 95.6676 134.318C96.2282 134.318 96.8722 134.386 97.5994 134.523C98.3343 134.652 99.0426 134.92 99.7244 135.33C100.414 135.739 100.986 136.356 101.44 137.182C101.895 138.008 102.122 139.114 102.122 140.5V152H99.4403V149.636H99.304C99.1222 150.015 98.8191 150.42 98.3949 150.852C97.9706 151.284 97.4063 151.652 96.7017 151.955C95.9972 152.258 95.1373 152.409 94.1222 152.409ZM94.5312 150C95.5919 150 96.4858 149.792 97.2131 149.375C97.9479 148.958 98.5009 148.42 98.8722 147.761C99.2509 147.102 99.4403 146.409 99.4403 145.682V143.227C99.3267 143.364 99.0767 143.489 98.6903 143.602C98.3116 143.708 97.8722 143.803 97.3722 143.886C96.8797 143.962 96.3987 144.03 95.929 144.091C95.4669 144.144 95.0919 144.189 94.804 144.227C94.107 144.318 93.4555 144.466 92.8494 144.67C92.2509 144.867 91.7661 145.167 91.3949 145.568C91.0313 145.962 90.8494 146.5 90.8494 147.182C90.8494 148.114 91.1941 148.818 91.8835 149.295C92.5805 149.765 93.4631 150 94.5312 150ZM118.699 142.045V144.545H109.062V142.045H118.699ZM109.699 134.545V152H107.017V134.545H109.699ZM120.744 134.545V152H118.062V134.545H120.744ZM127.96 140.864H132.96C135.006 140.864 136.57 141.383 137.653 142.42C138.737 143.458 139.278 144.773 139.278 146.364C139.278 147.409 139.036 148.36 138.551 149.216C138.066 150.064 137.354 150.742 136.415 151.25C135.475 151.75 134.324 152 132.96 152H125.642V134.545H128.324V149.5H132.96C134.021 149.5 134.892 149.22 135.574 148.659C136.256 148.098 136.597 147.379 136.597 146.5C136.597 145.576 136.256 144.822 135.574 144.239C134.892 143.655 134.021 143.364 132.96 143.364H127.96V140.864Z" fill="black"/>
<path d="M1153.24 50.9091V80H1149.72V54.6023H1149.55L1142.44 59.3182V55.7386L1149.72 50.9091H1153.24ZM1171.09 80.3977C1168.95 80.3977 1167.13 79.8153 1165.62 78.6506C1164.12 77.4763 1162.97 75.7765 1162.17 73.5511C1161.38 71.3163 1160.98 68.6174 1160.98 65.4545C1160.98 62.3106 1161.38 59.6259 1162.17 57.4006C1162.98 55.1657 1164.13 53.4612 1165.64 52.2869C1167.15 51.1032 1168.97 50.5114 1171.09 50.5114C1173.21 50.5114 1175.03 51.1032 1176.53 52.2869C1178.05 53.4612 1179.2 55.1657 1180 57.4006C1180.8 59.6259 1181.21 62.3106 1181.21 65.4545C1181.21 68.6174 1180.81 71.3163 1180.01 73.5511C1179.22 75.7765 1178.07 77.4763 1176.56 78.6506C1175.06 79.8153 1173.23 80.3977 1171.09 80.3977ZM1171.09 77.2727C1173.21 77.2727 1174.86 76.25 1176.04 74.2045C1177.21 72.1591 1177.8 69.2424 1177.8 65.4545C1177.8 62.9356 1177.53 60.7907 1176.99 59.0199C1176.46 57.2491 1175.69 55.8996 1174.69 54.9716C1173.69 54.0436 1172.5 53.5795 1171.09 53.5795C1168.99 53.5795 1167.35 54.6165 1166.16 56.6903C1164.98 58.7547 1164.39 61.6761 1164.39 65.4545C1164.39 67.9735 1164.65 70.1136 1165.18 71.875C1165.71 73.6364 1166.48 74.9763 1167.47 75.8949C1168.48 76.8134 1169.68 77.2727 1171.09 77.2727ZM1189.11 76.2784C1188.4 76.2784 1187.8 76.0275 1187.3 75.5256C1186.8 75.0237 1186.55 74.4223 1186.55 73.7216C1186.55 73.0208 1186.8 72.4195 1187.3 71.9176C1187.8 71.4157 1188.4 71.1648 1189.11 71.1648C1189.81 71.1648 1190.41 71.4157 1190.91 71.9176C1191.41 72.4195 1191.66 73.0208 1191.66 73.7216C1191.66 74.1856 1191.54 74.6117 1191.31 75C1191.08 75.3883 1190.77 75.7008 1190.38 75.9375C1190 76.1648 1189.58 76.2784 1189.11 76.2784ZM1189.11 61.5625C1188.4 61.5625 1187.8 61.3116 1187.3 60.8097C1186.8 60.3078 1186.55 59.7064 1186.55 59.0057C1186.55 58.3049 1186.8 57.7036 1187.3 57.2017C1187.8 56.6998 1188.4 56.4489 1189.11 56.4489C1189.81 56.4489 1190.41 56.6998 1190.91 57.2017C1191.41 57.7036 1191.66 58.3049 1191.66 59.0057C1191.66 59.4697 1191.54 59.8958 1191.31 60.2841C1191.08 60.6723 1190.77 60.9848 1190.38 61.2216C1190 61.4489 1189.58 61.5625 1189.11 61.5625ZM1207.11 80.3977C1204.97 80.3977 1203.15 79.8153 1201.64 78.6506C1200.13 77.4763 1198.98 75.7765 1198.19 73.5511C1197.39 71.3163 1197 68.6174 1197 65.4545C1197 62.3106 1197.39 59.6259 1198.19 57.4006C1198.99 55.1657 1200.15 53.4612 1201.65 52.2869C1203.17 51.1032 1204.99 50.5114 1207.11 50.5114C1209.23 50.5114 1211.04 51.1032 1212.55 52.2869C1214.06 53.4612 1215.22 55.1657 1216.02 57.4006C1216.82 59.6259 1217.22 62.3106 1217.22 65.4545C1217.22 68.6174 1216.83 71.3163 1216.03 73.5511C1215.23 75.7765 1214.08 77.4763 1212.58 78.6506C1211.07 79.8153 1209.25 80.3977 1207.11 80.3977ZM1207.11 77.2727C1209.23 77.2727 1210.88 76.25 1212.05 74.2045C1213.23 72.1591 1213.81 69.2424 1213.81 65.4545C1213.81 62.9356 1213.54 60.7907 1213 59.0199C1212.47 57.2491 1211.71 55.8996 1210.7 54.9716C1209.71 54.0436 1208.51 53.5795 1207.11 53.5795C1205.01 53.5795 1203.36 54.6165 1202.18 56.6903C1201 58.7547 1200.4 61.6761 1200.4 65.4545C1200.4 67.9735 1200.67 70.1136 1201.2 71.875C1201.73 73.6364 1202.49 74.9763 1203.49 75.8949C1204.49 76.8134 1205.7 77.2727 1207.11 77.2727ZM1232.11 80.3977C1229.97 80.3977 1228.15 79.8153 1226.64 78.6506C1225.13 77.4763 1223.98 75.7765 1223.19 73.5511C1222.39 71.3163 1222 68.6174 1222 65.4545C1222 62.3106 1222.39 59.6259 1223.19 57.4006C1223.99 55.1657 1225.15 53.4612 1226.65 52.2869C1228.17 51.1032 1229.99 50.5114 1232.11 50.5114C1234.23 50.5114 1236.04 51.1032 1237.55 52.2869C1239.06 53.4612 1240.22 55.1657 1241.02 57.4006C1241.82 59.6259 1242.22 62.3106 1242.22 65.4545C1242.22 68.6174 1241.83 71.3163 1241.03 73.5511C1240.23 75.7765 1239.08 77.4763 1237.58 78.6506C1236.07 79.8153 1234.25 80.3977 1232.11 80.3977ZM1232.11 77.2727C1234.23 77.2727 1235.88 76.25 1237.05 74.2045C1238.23 72.1591 1238.81 69.2424 1238.81 65.4545C1238.81 62.9356 1238.54 60.7907 1238 59.0199C1237.47 57.2491 1236.71 55.8996 1235.7 54.9716C1234.71 54.0436 1233.51 53.5795 1232.11 53.5795C1230.01 53.5795 1228.36 54.6165 1227.18 56.6903C1226 58.7547 1225.4 61.6761 1225.4 65.4545C1225.4 67.9735 1225.67 70.1136 1226.2 71.875C1226.73 73.6364 1227.49 74.9763 1228.49 75.8949C1229.49 76.8134 1230.7 77.2727 1232.11 77.2727ZM1271.43 63.892V67.017H1258.7V63.892H1271.43ZM1298.75 50.9091V80H1295.22V54.6023H1295.05L1287.95 59.3182V55.7386L1295.22 50.9091H1298.75ZM1316.2 80.3977C1314.54 80.3977 1313.04 80.0663 1311.7 79.4034C1310.37 78.7405 1309.3 77.8314 1308.49 76.6761C1307.69 75.5208 1307.25 74.2045 1307.17 72.7273H1310.58C1310.71 74.0436 1311.31 75.1326 1312.37 75.9943C1313.44 76.8466 1314.72 77.2727 1316.2 77.2727C1317.4 77.2727 1318.46 76.9934 1319.39 76.4347C1320.32 75.8759 1321.06 75.1089 1321.59 74.1335C1322.13 73.1487 1322.4 72.036 1322.4 70.7955C1322.4 69.5265 1322.12 68.3949 1321.56 67.4006C1321.01 66.3968 1320.25 65.6061 1319.29 65.0284C1318.32 64.4508 1317.22 64.1572 1315.98 64.1477C1315.09 64.1383 1314.17 64.2756 1313.24 64.5597C1312.3 64.8343 1311.53 65.1894 1310.92 65.625L1307.62 65.2273L1309.39 50.9091H1324.5V54.0341H1312.34L1311.32 62.6136H1311.49C1312.08 62.1402 1312.83 61.7472 1313.73 61.4347C1314.63 61.1222 1315.57 60.9659 1316.54 60.9659C1318.33 60.9659 1319.91 61.392 1321.3 62.2443C1322.7 63.0871 1323.8 64.2424 1324.6 65.7102C1325.4 67.178 1325.81 68.8542 1325.81 70.7386C1325.81 72.5947 1325.39 74.2519 1324.56 75.7102C1323.73 77.1591 1322.6 78.3049 1321.15 79.1477C1319.7 79.9811 1318.05 80.3977 1316.2 80.3977ZM1333.95 76.2784C1333.25 76.2784 1332.65 76.0275 1332.14 75.5256C1331.64 75.0237 1331.39 74.4223 1331.39 73.7216C1331.39 73.0208 1331.64 72.4195 1332.14 71.9176C1332.65 71.4157 1333.25 71.1648 1333.95 71.1648C1334.65 71.1648 1335.25 71.4157 1335.75 71.9176C1336.25 72.4195 1336.51 73.0208 1336.51 73.7216C1336.51 74.1856 1336.39 74.6117 1336.15 75C1335.92 75.3883 1335.62 75.7008 1335.23 75.9375C1334.85 76.1648 1334.42 76.2784 1333.95 76.2784ZM1333.95 61.5625C1333.25 61.5625 1332.65 61.3116 1332.14 60.8097C1331.64 60.3078 1331.39 59.7064 1331.39 59.0057C1331.39 58.3049 1331.64 57.7036 1332.14 57.2017C1332.65 56.6998 1333.25 56.4489 1333.95 56.4489C1334.65 56.4489 1335.25 56.6998 1335.75 57.2017C1336.25 57.7036 1336.51 58.3049 1336.51 59.0057C1336.51 59.4697 1336.39 59.8958 1336.15 60.2841C1335.92 60.6723 1335.62 60.9848 1335.23 61.2216C1334.85 61.4489 1334.42 61.5625 1333.95 61.5625ZM1351.95 80.3977C1349.81 80.3977 1347.99 79.8153 1346.48 78.6506C1344.98 77.4763 1343.83 75.7765 1343.03 73.5511C1342.24 71.3163 1341.84 68.6174 1341.84 65.4545C1341.84 62.3106 1342.24 59.6259 1343.03 57.4006C1343.84 55.1657 1344.99 53.4612 1346.5 52.2869C1348.01 51.1032 1349.83 50.5114 1351.95 50.5114C1354.07 50.5114 1355.89 51.1032 1357.39 52.2869C1358.91 53.4612 1360.06 55.1657 1360.86 57.4006C1361.66 59.6259 1362.07 62.3106 1362.07 65.4545C1362.07 68.6174 1361.67 71.3163 1360.87 73.5511C1360.08 75.7765 1358.93 77.4763 1357.42 78.6506C1355.92 79.8153 1354.09 80.3977 1351.95 80.3977ZM1351.95 77.2727C1354.07 77.2727 1355.72 76.25 1356.9 74.2045C1358.07 72.1591 1358.66 69.2424 1358.66 65.4545C1358.66 62.9356 1358.39 60.7907 1357.85 59.0199C1357.32 57.2491 1356.55 55.8996 1355.55 54.9716C1354.55 54.0436 1353.35 53.5795 1351.95 53.5795C1349.85 53.5795 1348.21 54.6165 1347.02 56.6903C1345.84 58.7547 1345.25 61.6761 1345.25 65.4545C1345.25 67.9735 1345.51 70.1136 1346.04 71.875C1346.57 73.6364 1347.34 74.9763 1348.33 75.8949C1349.33 76.8134 1350.54 77.2727 1351.95 77.2727ZM1376.95 80.3977C1374.81 80.3977 1372.99 79.8153 1371.48 78.6506C1369.98 77.4763 1368.83 75.7765 1368.03 73.5511C1367.24 71.3163 1366.84 68.6174 1366.84 65.4545C1366.84 62.3106 1367.24 59.6259 1368.03 57.4006C1368.84 55.1657 1369.99 53.4612 1371.5 52.2869C1373.01 51.1032 1374.83 50.5114 1376.95 50.5114C1379.07 50.5114 1380.89 51.1032 1382.39 52.2869C1383.91 53.4612 1385.06 55.1657 1385.86 57.4006C1386.66 59.6259 1387.07 62.3106 1387.07 65.4545C1387.07 68.6174 1386.67 71.3163 1385.87 73.5511C1385.08 75.7765 1383.93 77.4763 1382.42 78.6506C1380.92 79.8153 1379.09 80.3977 1376.95 80.3977ZM1376.95 77.2727C1379.07 77.2727 1380.72 76.25 1381.9 74.2045C1383.07 72.1591 1383.66 69.2424 1383.66 65.4545C1383.66 62.9356 1383.39 60.7907 1382.85 59.0199C1382.32 57.2491 1381.55 55.8996 1380.55 54.9716C1379.55 54.0436 1378.35 53.5795 1376.95 53.5795C1374.85 53.5795 1373.21 54.6165 1372.02 56.6903C1370.84 58.7547 1370.25 61.6761 1370.25 65.4545C1370.25 67.9735 1370.51 70.1136 1371.04 71.875C1371.57 73.6364 1372.34 74.9763 1373.33 75.8949C1374.33 76.8134 1375.54 77.2727 1376.95 77.2727Z" fill="black"/>
<path d="M36.8068 34.9091H40.3295V44.625C40.3295 46.0644 40.5805 47.196 41.0824 48.0199C41.5843 48.8343 42.2945 49.4119 43.2131 49.7528C44.1316 50.0843 45.2159 50.25 46.4659 50.25C47.2519 50.25 48.0142 50.2216 48.7528 50.1648C49.4915 50.0985 50.2112 50.0085 50.9119 49.8949C51.6222 49.7812 52.3134 49.6439 52.9858 49.483C53.6676 49.322 54.3352 49.142 54.9886 48.9432V52.125C54.3542 52.3239 53.7244 52.5038 53.0994 52.6648C52.4839 52.8258 51.84 52.9631 51.1676 53.0767C50.5047 53.1903 49.7898 53.2803 49.0227 53.3466C48.2557 53.4034 47.4034 53.4318 46.4659 53.4318C44.4583 53.4318 42.7301 53.143 41.2812 52.5653C39.8419 51.9877 38.7339 51.0549 37.9574 49.767C37.1903 48.4792 36.8068 46.7652 36.8068 44.625V34.9091ZM54.5341 34.9091H58.0568V64H54.5341V34.9091ZM73.8097 64.4545C71.7074 64.4545 69.8939 63.9905 68.3693 63.0625C66.8542 62.125 65.6847 60.8182 64.8608 59.142C64.0464 57.4564 63.6392 55.4962 63.6392 53.2614C63.6392 51.0265 64.0464 49.0568 64.8608 47.3523C65.6847 45.6383 66.8305 44.303 68.2983 43.3466C69.7756 42.3807 71.4991 41.8977 73.4688 41.8977C74.6051 41.8977 75.7273 42.0871 76.8352 42.4659C77.9432 42.8447 78.9517 43.4602 79.8608 44.3125C80.7699 45.1553 81.4943 46.2727 82.0341 47.6648C82.5739 49.0568 82.8438 50.7708 82.8438 52.8068V54.2273H66.0256V51.3295H79.4347C79.4347 50.0985 79.1884 49 78.696 48.0341C78.2131 47.0682 77.5218 46.3059 76.6222 45.7472C75.732 45.1884 74.6809 44.9091 73.4688 44.9091C72.1335 44.9091 70.9782 45.2405 70.0028 45.9034C69.0369 46.5568 68.2936 47.4091 67.7727 48.4602C67.2519 49.5114 66.9915 50.6383 66.9915 51.8409V53.7727C66.9915 55.4205 67.2756 56.8172 67.8438 57.9631C68.4214 59.0994 69.2216 59.9659 70.2443 60.5625C71.267 61.1496 72.4555 61.4432 73.8097 61.4432C74.6903 61.4432 75.4858 61.3201 76.196 61.0739C76.9157 60.8182 77.536 60.4394 78.0568 59.9375C78.5777 59.4261 78.9801 58.7917 79.2642 58.0341L82.5028 58.9432C82.1619 60.0417 81.589 61.0076 80.7841 61.8409C79.9792 62.6648 78.9848 63.3087 77.8011 63.7727C76.6174 64.2273 75.2869 64.4545 73.8097 64.4545ZM87.9432 72.1818V42.1818H91.1818V45.6477H91.5795C91.8258 45.2689 92.1667 44.786 92.6023 44.1989C93.0473 43.6023 93.6818 43.072 94.5057 42.608C95.339 42.1345 96.4659 41.8977 97.8864 41.8977C99.7235 41.8977 101.343 42.357 102.744 43.2756C104.146 44.1941 105.24 45.4962 106.026 47.1818C106.812 48.8674 107.205 50.8561 107.205 53.1477C107.205 55.4583 106.812 57.4612 106.026 59.1562C105.24 60.8419 104.151 62.1487 102.759 63.0767C101.366 63.9953 99.7614 64.4545 97.9432 64.4545C96.5417 64.4545 95.4195 64.2225 94.5767 63.7585C93.7339 63.285 93.0852 62.75 92.6307 62.1534C92.1761 61.5473 91.8258 61.0455 91.5795 60.6477H91.2955V72.1818H87.9432ZM91.2386 53.0909C91.2386 54.7386 91.4801 56.1922 91.9631 57.4517C92.446 58.7017 93.1515 59.6818 94.0795 60.392C95.0076 61.0928 96.1439 61.4432 97.4886 61.4432C98.8902 61.4432 100.06 61.0739 100.997 60.3352C101.944 59.5871 102.654 58.5833 103.128 57.3239C103.611 56.0549 103.852 54.6439 103.852 53.0909C103.852 51.5568 103.616 50.1742 103.142 48.9432C102.678 47.7027 101.973 46.7225 101.026 46.0028C100.088 45.2737 98.9091 44.9091 97.4886 44.9091C96.125 44.9091 94.9792 45.2547 94.0511 45.946C93.1231 46.6278 92.4223 47.5843 91.9489 48.8153C91.4754 50.0369 91.2386 51.4621 91.2386 53.0909ZM126.92 51.5568V54.6818H114.875V51.5568H126.92ZM115.67 42.1818V64H112.318V42.1818H115.67ZM129.477 42.1818V64H126.125V42.1818H129.477ZM138.497 50.0795H144.747C147.304 50.0795 149.259 50.7282 150.614 52.0256C151.968 53.3229 152.645 54.9659 152.645 56.9545C152.645 58.2614 152.342 59.4498 151.736 60.5199C151.13 61.5805 150.24 62.428 149.065 63.0625C147.891 63.6875 146.452 64 144.747 64H135.599V42.1818H138.952V60.875H144.747C146.073 60.875 147.162 60.5246 148.014 59.8239C148.866 59.1231 149.293 58.2235 149.293 57.125C149.293 55.9697 148.866 55.0275 148.014 54.2983C147.162 53.5691 146.073 53.2045 144.747 53.2045H138.497V50.0795ZM156.111 64V42.1818H159.463V64H156.111ZM165.599 42.1818H168.952V60.875H177.19V42.1818H180.543V60.875H188.781V42.1818H192.134V64H165.599V42.1818ZM207.403 64.4545C205.301 64.4545 203.488 63.9905 201.963 63.0625C200.448 62.125 199.278 60.8182 198.455 59.142C197.64 57.4564 197.233 55.4962 197.233 53.2614C197.233 51.0265 197.64 49.0568 198.455 47.3523C199.278 45.6383 200.424 44.303 201.892 43.3466C203.369 42.3807 205.093 41.8977 207.062 41.8977C208.199 41.8977 209.321 42.0871 210.429 42.4659C211.537 42.8447 212.545 43.4602 213.455 44.3125C214.364 45.1553 215.088 46.2727 215.628 47.6648C216.168 49.0568 216.438 50.7708 216.438 52.8068V54.2273H199.619V51.3295H213.028C213.028 50.0985 212.782 49 212.29 48.0341C211.807 47.0682 211.116 46.3059 210.216 45.7472C209.326 45.1884 208.275 44.9091 207.062 44.9091C205.727 44.9091 204.572 45.2405 203.597 45.9034C202.631 46.5568 201.887 47.4091 201.366 48.4602C200.846 49.5114 200.585 50.6383 200.585 51.8409V53.7727C200.585 55.4205 200.869 56.8172 201.438 57.9631C202.015 59.0994 202.815 59.9659 203.838 60.5625C204.861 61.1496 206.049 61.4432 207.403 61.4432C208.284 61.4432 209.08 61.3201 209.79 61.0739C210.509 60.8182 211.13 60.4394 211.651 59.9375C212.171 59.4261 212.574 58.7917 212.858 58.0341L216.097 58.9432C215.756 60.0417 215.183 61.0076 214.378 61.8409C213.573 62.6648 212.579 63.3087 211.395 63.7727C210.211 64.2273 208.881 64.4545 207.403 64.4545ZM221.537 64V42.1818H230.457C232.806 42.1818 234.671 42.7121 236.054 43.7727C237.437 44.8333 238.128 46.2348 238.128 47.9773C238.128 49.303 237.735 50.3305 236.949 51.0597C236.163 51.7794 235.154 52.267 233.923 52.5227C234.728 52.6364 235.509 52.9205 236.267 53.375C237.034 53.8295 237.669 54.4545 238.17 55.25C238.672 56.036 238.923 57.0019 238.923 58.1477C238.923 59.2652 238.639 60.2642 238.071 61.1449C237.503 62.0256 236.688 62.7216 235.628 63.233C234.567 63.7443 233.298 64 231.821 64H221.537ZM224.719 60.9318H231.821C232.976 60.9318 233.881 60.6572 234.534 60.108C235.188 59.5587 235.514 58.8106 235.514 57.8636C235.514 56.7367 235.188 55.8513 234.534 55.2074C233.881 54.554 232.976 54.2273 231.821 54.2273H224.719V60.9318ZM224.719 51.3295H230.457C231.357 51.3295 232.129 51.2064 232.773 50.9602C233.417 50.7045 233.909 50.3447 234.25 49.8807C234.6 49.4072 234.776 48.8485 234.776 48.2045C234.776 47.286 234.392 46.5663 233.625 46.0455C232.858 45.5152 231.802 45.25 230.457 45.25H224.719V51.3295ZM252.862 64.4545C250.816 64.4545 249.055 63.9716 247.577 63.0057C246.1 62.0398 244.964 60.7093 244.168 59.0142C243.373 57.3191 242.975 55.3826 242.975 53.2045C242.975 50.9886 243.382 49.0331 244.197 47.3381C245.021 45.6335 246.166 44.303 247.634 43.3466C249.112 42.3807 250.835 41.8977 252.805 41.8977C254.339 41.8977 255.721 42.1818 256.952 42.75C258.183 43.3182 259.192 44.1136 259.978 45.1364C260.764 46.1591 261.252 47.3523 261.441 48.7159H258.089C257.833 47.7216 257.265 46.8409 256.384 46.0739C255.513 45.2973 254.339 44.9091 252.862 44.9091C251.555 44.9091 250.409 45.25 249.424 45.9318C248.449 46.6042 247.686 47.5559 247.137 48.7869C246.597 50.0085 246.327 51.4432 246.327 53.0909C246.327 54.7765 246.593 56.2443 247.123 57.4943C247.663 58.7443 248.42 59.715 249.396 60.4062C250.38 61.0975 251.536 61.4432 252.862 61.4432C253.733 61.4432 254.523 61.2917 255.234 60.9886C255.944 60.6856 256.545 60.25 257.038 59.6818C257.53 59.1136 257.88 58.4318 258.089 57.6364H261.441C261.252 58.9242 260.783 60.0843 260.035 61.1165C259.296 62.1392 258.316 62.9536 257.094 63.5597C255.882 64.1562 254.471 64.4545 252.862 64.4545ZM266.342 64V42.1818H269.694V51.6705H271.91L279.751 42.1818H284.069L275.262 52.6932L284.183 64H279.864L272.705 54.7955H269.694V64H266.342ZM295.791 64.4545C293.821 64.4545 292.093 63.9858 290.607 63.0483C289.129 62.1108 287.974 60.7992 287.141 59.1136C286.317 57.428 285.905 55.4583 285.905 53.2045C285.905 50.9318 286.317 48.9479 287.141 47.2528C287.974 45.5578 289.129 44.2415 290.607 43.304C292.093 42.3665 293.821 41.8977 295.791 41.8977C297.761 41.8977 299.484 42.3665 300.962 43.304C302.448 44.2415 303.604 45.5578 304.428 47.2528C305.261 48.9479 305.678 50.9318 305.678 53.2045C305.678 55.4583 305.261 57.428 304.428 59.1136C303.604 60.7992 302.448 62.1108 300.962 63.0483C299.484 63.9858 297.761 64.4545 295.791 64.4545ZM295.791 61.4432C297.287 61.4432 298.518 61.0597 299.484 60.2926C300.45 59.5256 301.165 58.517 301.629 57.267C302.093 56.017 302.325 54.6629 302.325 53.2045C302.325 51.7462 302.093 50.3873 301.629 49.1278C301.165 47.8684 300.45 46.8504 299.484 46.0739C298.518 45.2973 297.287 44.9091 295.791 44.9091C294.295 44.9091 293.064 45.2973 292.098 46.0739C291.132 46.8504 290.417 47.8684 289.953 49.1278C289.489 50.3873 289.257 51.7462 289.257 53.2045C289.257 54.6629 289.489 56.017 289.953 57.267C290.417 58.517 291.132 59.5256 292.098 60.2926C293.064 61.0597 294.295 61.4432 295.791 61.4432ZM324.261 42.1818V45.3068H314.147V64H310.795V42.1818H324.261ZM336.885 64.4545C334.915 64.4545 333.187 63.9858 331.7 63.0483C330.223 62.1108 329.068 60.7992 328.234 59.1136C327.411 57.428 326.999 55.4583 326.999 53.2045C326.999 50.9318 327.411 48.9479 328.234 47.2528C329.068 45.5578 330.223 44.2415 331.7 43.304C333.187 42.3665 334.915 41.8977 336.885 41.8977C338.855 41.8977 340.578 42.3665 342.055 43.304C343.542 44.2415 344.697 45.5578 345.521 47.2528C346.355 48.9479 346.771 50.9318 346.771 53.2045C346.771 55.4583 346.355 57.428 345.521 59.1136C344.697 60.7992 343.542 62.1108 342.055 63.0483C340.578 63.9858 338.855 64.4545 336.885 64.4545ZM336.885 61.4432C338.381 61.4432 339.612 61.0597 340.578 60.2926C341.544 59.5256 342.259 58.517 342.723 57.267C343.187 56.017 343.419 54.6629 343.419 53.2045C343.419 51.7462 343.187 50.3873 342.723 49.1278C342.259 47.8684 341.544 46.8504 340.578 46.0739C339.612 45.2973 338.381 44.9091 336.885 44.9091C335.389 44.9091 334.158 45.2973 333.192 46.0739C332.226 46.8504 331.511 47.8684 331.047 49.1278C330.583 50.3873 330.351 51.7462 330.351 53.2045C330.351 54.6629 330.583 56.017 331.047 57.267C331.511 58.517 332.226 59.5256 333.192 60.2926C334.158 61.0597 335.389 61.4432 336.885 61.4432ZM365.298 72.1818C364.729 72.1818 364.223 72.1345 363.778 72.0398C363.333 71.9545 363.025 71.8693 362.854 71.7841L363.707 68.8295C364.521 69.0379 365.241 69.1136 365.866 69.0568C366.491 69 367.045 68.7206 367.528 68.2188C368.02 67.7263 368.47 66.9261 368.877 65.8182L369.502 64.1136L361.434 42.1818H365.07L371.093 59.5682H371.32L377.343 42.1818H380.979L371.718 67.1818C371.301 68.3087 370.785 69.2415 370.17 69.9801C369.554 70.7282 368.839 71.2822 368.025 71.642C367.22 72.0019 366.311 72.1818 365.298 72.1818ZM381.636 64V60.875H382.432C383.085 60.875 383.63 60.7472 384.065 60.4915C384.501 60.2263 384.851 59.767 385.116 59.1136C385.391 58.4508 385.599 57.5322 385.741 56.358C385.893 55.1742 386.002 53.6686 386.068 51.8409L386.466 42.1818H401.011V64H397.659V45.3068H389.648L389.307 53.0909C389.231 54.8807 389.07 56.4574 388.824 57.821C388.587 59.1752 388.223 60.3116 387.73 61.2301C387.247 62.1487 386.603 62.84 385.798 63.304C384.993 63.768 383.985 64 382.773 64H381.636ZM409.605 64.2273C408.904 64.2273 408.303 63.9763 407.801 63.4744C407.299 62.9725 407.048 62.3712 407.048 61.6705C407.048 60.9697 407.299 60.3684 407.801 59.8665C408.303 59.3646 408.904 59.1136 409.605 59.1136C410.306 59.1136 410.907 59.3646 411.409 59.8665C411.911 60.3684 412.162 60.9697 412.162 61.6705C412.162 62.1345 412.044 62.5606 411.807 62.9489C411.58 63.3371 411.272 63.6496 410.884 63.8864C410.505 64.1136 410.079 64.2273 409.605 64.2273ZM429.371 64V61.4432L438.973 50.9318C440.1 49.7008 441.028 48.6307 441.757 47.7216C442.486 46.803 443.026 45.9413 443.376 45.1364C443.736 44.322 443.916 43.4697 443.916 42.5795C443.916 41.5568 443.67 40.6714 443.178 39.9233C442.695 39.1752 442.032 38.5975 441.189 38.1903C440.346 37.7831 439.399 37.5795 438.348 37.5795C437.231 37.5795 436.255 37.8116 435.422 38.2756C434.598 38.7301 433.959 39.3693 433.504 40.1932C433.059 41.017 432.837 41.983 432.837 43.0909H429.484C429.484 41.3864 429.877 39.8902 430.663 38.6023C431.449 37.3144 432.519 36.3106 433.874 35.5909C435.237 34.8712 436.767 34.5114 438.462 34.5114C440.166 34.5114 441.677 34.8712 442.993 35.5909C444.309 36.3106 445.341 37.2812 446.089 38.5028C446.838 39.7244 447.212 41.0833 447.212 42.5795C447.212 43.6496 447.018 44.696 446.629 45.7188C446.25 46.732 445.588 47.8636 444.641 49.1136C443.703 50.3542 442.401 51.8693 440.734 53.6591L434.2 60.6477V60.875H447.723V64H429.371ZM454.499 64L467.51 38.2614V38.0341H452.51V34.9091H471.146V38.2045L458.192 64H454.499Z" fill="black"/>
<defs>
<linearGradient id="paint0_linear_116_503" x1="717" y1="0" x2="717" y2="167" gradientUnits="userSpaceOnUse">
<stop stop-color="#FFD9D9"/>
<stop offset="1" stop-color="#C0F0ED"/>
</linearGradient>
</defs>
</svg>
