<svg width="90" height="74" viewBox="0 0 90 74" fill="none" xmlns="http://www.w3.org/2000/svg">
<path d="M57.1735 3.77846C56.5831 4.72595 56.25 5.79974 56.25 6.9375C56.25 9.54781 58.0033 11.8214 60.5945 13.0055C59.6244 14.2594 59.0625 15.7476 59.0625 17.3438C59.0625 21.8138 63.4697 25.4375 68.9062 25.4375C70.4899 25.4375 71.9864 25.13 73.3119 24.5836C74.1267 27.7147 77.5111 30.0625 81.5625 30.0625C83.2154 30.0625 84.7572 29.6717 86.0589 28.9964C86.797 31.5657 87.1875 34.2453 87.1875 37C87.1875 56.1574 68.2995 71.6875 45 71.6875C21.7005 71.6875 2.8125 56.1574 2.8125 37C2.8125 17.8426 21.7005 2.3125 45 2.3125C49.2323 2.3125 53.3191 2.82494 57.1735 3.77846Z" fill="#F6CF86"/>
<ellipse cx="19.6875" cy="41.625" rx="5.625" ry="2.3125" fill="#FA8475"/>
<ellipse cx="73.125" cy="41.625" rx="5.625" ry="2.3125" fill="#FA8475"/>
<path fill-rule="evenodd" clip-rule="evenodd" d="M2.98377 33.5312C2.8705 34.6721 2.8125 35.8293 2.8125 37C2.8125 56.1574 18.3426 71.6875 37.5 71.6875H52.5C71.6574 71.6875 87.1875 56.1574 87.1875 37C87.1875 35.8293 87.1295 34.6722 87.0162 33.5313C85.2759 51.06 70.4867 64.75 52.5 64.75H37.5C19.5133 64.75 4.72413 51.06 2.98377 33.5312Z" fill="#E9AC71"/>
<ellipse cx="64.6875" cy="32.375" rx="5.625" ry="4.625" fill="#52565F"/>
<rect x="64.6875" y="30.0625" width="2.8125" height="2.3125" rx="1.15625" fill="white"/>
<rect x="67.5" y="13.875" width="8.4375" height="6.9375" rx="3.46875" fill="#F6CF86"/>
<rect x="67.5" y="2.3125" width="5.625" height="4.625" rx="2.3125" fill="#F6CF86"/>
<rect x="81.5625" y="13.875" width="5.625" height="4.625" rx="2.3125" fill="#F6CF86"/>
<rect x="33.75" y="9.25" width="8.4375" height="6.9375" rx="3.46875" fill="#B6663C"/>
<rect x="64.6875" y="53.1875" width="5.625" height="4.625" rx="2.3125" fill="#B6663C"/>
<rect x="22.5" y="50.875" width="8.4375" height="6.9375" rx="3.46875" fill="#B6663C"/>
<rect x="47.8125" y="48.5625" width="5.625" height="4.625" rx="2.3125" fill="#B6663C"/>
<rect x="11.25" y="20.8125" width="5.625" height="4.625" rx="2.3125" fill="#B6663C"/>
<rect x="53.4375" y="18.5" width="5.625" height="4.625" rx="2.3125" fill="#B6663C"/>
<rect x="36.5625" y="62.4375" width="5.625" height="4.625" rx="2.3125" fill="#B6663C"/>
<path d="M22.5 28.9062L30.9375 33.5312L22.5 37" stroke="#52565F" stroke-width="2" stroke-linecap="round" stroke-linejoin="round"/>
<path d="M50.625 39.3125C49.9219 41.625 47.9605 43.9375 45 43.9375C42.0395 43.9375 40.0781 41.625 39.375 39.3125" stroke="#52565F" stroke-width="2" stroke-linecap="round"/>
</svg>
