<svg width="1440" height="167" viewBox="0 0 1440 167" fill="none" xmlns="http://www.w3.org/2000/svg">
<rect x="0.5" y="0.5" width="1439" height="166" fill="url(#paint0_linear_152_156)" stroke="black"/>
<path d="M35.5227 66V36.9091H45.6932C47.7197 36.9091 49.3911 37.2595 50.7074 37.9602C52.0237 38.6515 53.0038 39.5843 53.6477 40.7585C54.2917 41.9233 54.6136 43.2159 54.6136 44.6364C54.6136 45.8864 54.3911 46.9186 53.946 47.733C53.5104 48.5473 52.9328 49.1913 52.2131 49.6648C51.5028 50.1383 50.7311 50.4886 49.8977 50.7159V51C50.7879 51.0568 51.6828 51.3693 52.5824 51.9375C53.482 52.5057 54.2348 53.3201 54.8409 54.3807C55.447 55.4413 55.75 56.7386 55.75 58.2727C55.75 59.7311 55.4186 61.0426 54.7557 62.2074C54.0928 63.3722 53.0464 64.2955 51.6165 64.9773C50.1866 65.6591 48.3258 66 46.0341 66H35.5227ZM39.0455 62.875H46.0341C48.3352 62.875 49.9688 62.4299 50.9347 61.5398C51.91 60.6402 52.3977 59.5511 52.3977 58.2727C52.3977 57.2879 52.1468 56.3788 51.6449 55.5455C51.143 54.7027 50.428 54.0303 49.5 53.5284C48.572 53.017 47.4735 52.7614 46.2045 52.7614H39.0455V62.875ZM39.0455 49.6932H45.5795C46.6402 49.6932 47.5966 49.4848 48.4489 49.0682C49.3106 48.6515 49.9924 48.0644 50.4943 47.3068C51.0057 46.5492 51.2614 45.6591 51.2614 44.6364C51.2614 43.358 50.8163 42.2737 49.9261 41.3835C49.036 40.4839 47.625 40.0341 45.6932 40.0341H39.0455V49.6932ZM64.4361 61.0568L74.9474 44.1818H78.8111V66H75.4588V49.125L65.0043 66H61.0838V44.1818H64.4361V61.0568ZM84.951 44.1818H88.3033V62.875H96.5419V44.1818H99.8942V62.875H108.133V44.1818H111.485V66H84.951V44.1818ZM132.21 53.5568V56.6818H120.164V53.5568H132.21ZM120.96 44.1818V66H117.607V44.1818H120.96ZM134.766 44.1818V66H131.414V44.1818H134.766ZM150.036 66.4545C147.934 66.4545 146.121 65.9905 144.596 65.0625C143.081 64.125 141.911 62.8182 141.087 61.142C140.273 59.4564 139.866 57.4962 139.866 55.2614C139.866 53.0265 140.273 51.0568 141.087 49.3523C141.911 47.6383 143.057 46.303 144.525 45.3466C146.002 44.3807 147.726 43.8977 149.695 43.8977C150.832 43.8977 151.954 44.0871 153.062 44.4659C154.17 44.8447 155.178 45.4602 156.087 46.3125C156.996 47.1553 157.721 48.2727 158.261 49.6648C158.8 51.0568 159.07 52.7708 159.07 54.8068V56.2273H142.252V53.3295H155.661C155.661 52.0985 155.415 51 154.923 50.0341C154.44 49.0682 153.748 48.3059 152.849 47.7472C151.959 47.1884 150.907 46.9091 149.695 46.9091C148.36 46.9091 147.205 47.2405 146.229 47.9034C145.263 48.5568 144.52 49.4091 143.999 50.4602C143.478 51.5114 143.218 52.6383 143.218 53.8409V55.7727C143.218 57.4205 143.502 58.8172 144.07 59.9631C144.648 61.0994 145.448 61.9659 146.471 62.5625C147.494 63.1496 148.682 63.4432 150.036 63.4432C150.917 63.4432 151.712 63.3201 152.423 63.0739C153.142 62.8182 153.763 62.4394 154.283 61.9375C154.804 61.4261 155.207 60.7917 155.491 60.0341L158.729 60.9432C158.388 62.0417 157.816 63.0076 157.011 63.8409C156.206 64.6648 155.211 65.3087 154.028 65.7727C152.844 66.2273 151.513 66.4545 150.036 66.4545ZM164.17 66V44.1818H173.09C175.439 44.1818 177.304 44.7121 178.687 45.7727C180.069 46.8333 180.761 48.2348 180.761 49.9773C180.761 51.303 180.368 52.3305 179.582 53.0597C178.796 53.7794 177.787 54.267 176.556 54.5227C177.361 54.6364 178.142 54.9205 178.9 55.375C179.667 55.8295 180.301 56.4545 180.803 57.25C181.305 58.036 181.556 59.0019 181.556 60.1477C181.556 61.2652 181.272 62.2642 180.704 63.1449C180.136 64.0256 179.321 64.7216 178.261 65.233C177.2 65.7443 175.931 66 174.454 66H164.17ZM167.352 62.9318H174.454C175.609 62.9318 176.513 62.6572 177.167 62.108C177.82 61.5587 178.147 60.8106 178.147 59.8636C178.147 58.7367 177.82 57.8513 177.167 57.2074C176.513 56.554 175.609 56.2273 174.454 56.2273H167.352V62.9318ZM167.352 53.3295H173.09C173.99 53.3295 174.762 53.2064 175.406 52.9602C176.049 52.7045 176.542 52.3447 176.883 51.8807C177.233 51.4072 177.408 50.8485 177.408 50.2045C177.408 49.286 177.025 48.5663 176.258 48.0455C175.491 47.5152 174.435 47.25 173.09 47.25H167.352V53.3295ZM195.494 66.4545C193.449 66.4545 191.688 65.9716 190.21 65.0057C188.733 64.0398 187.597 62.7093 186.801 61.0142C186.006 59.3191 185.608 57.3826 185.608 55.2045C185.608 52.9886 186.015 51.0331 186.83 49.3381C187.653 47.6335 188.799 46.303 190.267 45.3466C191.744 44.3807 193.468 43.8977 195.438 43.8977C196.972 43.8977 198.354 44.1818 199.585 44.75C200.816 45.3182 201.825 46.1136 202.611 47.1364C203.397 48.1591 203.884 49.3523 204.074 50.7159H200.722C200.466 49.7216 199.898 48.8409 199.017 48.0739C198.146 47.2973 196.972 46.9091 195.494 46.9091C194.188 46.9091 193.042 47.25 192.057 47.9318C191.081 48.6042 190.319 49.5559 189.77 50.7869C189.23 52.0085 188.96 53.4432 188.96 55.0909C188.96 56.7765 189.225 58.2443 189.756 59.4943C190.295 60.7443 191.053 61.715 192.028 62.4062C193.013 63.0975 194.169 63.4432 195.494 63.4432C196.366 63.4432 197.156 63.2917 197.866 62.9886C198.577 62.6856 199.178 62.25 199.67 61.6818C200.163 61.1136 200.513 60.4318 200.722 59.6364H204.074C203.884 60.9242 203.416 62.0843 202.668 63.1165C201.929 64.1392 200.949 64.9536 199.727 65.5597C198.515 66.1562 197.104 66.4545 195.494 66.4545ZM208.974 66V44.1818H212.327V53.6705H214.543L222.384 44.1818H226.702L217.895 54.6932L226.815 66H222.497L215.338 56.7955H212.327V66H208.974ZM238.424 66.4545C236.454 66.4545 234.726 65.9858 233.239 65.0483C231.762 64.1108 230.607 62.7992 229.773 61.1136C228.95 59.428 228.538 57.4583 228.538 55.2045C228.538 52.9318 228.95 50.9479 229.773 49.2528C230.607 47.5578 231.762 46.2415 233.239 45.304C234.726 44.3665 236.454 43.8977 238.424 43.8977C240.394 43.8977 242.117 44.3665 243.594 45.304C245.081 46.2415 246.237 47.5578 247.06 49.2528C247.894 50.9479 248.31 52.9318 248.31 55.2045C248.31 57.4583 247.894 59.428 247.06 61.1136C246.237 62.7992 245.081 64.1108 243.594 65.0483C242.117 65.9858 240.394 66.4545 238.424 66.4545ZM238.424 63.4432C239.92 63.4432 241.151 63.0597 242.117 62.2926C243.083 61.5256 243.798 60.517 244.262 59.267C244.726 58.017 244.958 56.6629 244.958 55.2045C244.958 53.7462 244.726 52.3873 244.262 51.1278C243.798 49.8684 243.083 48.8504 242.117 48.0739C241.151 47.2973 239.92 46.9091 238.424 46.9091C236.928 46.9091 235.697 47.2973 234.731 48.0739C233.765 48.8504 233.05 49.8684 232.586 51.1278C232.122 52.3873 231.89 53.7462 231.89 55.2045C231.89 56.6629 232.122 58.017 232.586 59.267C233.05 60.517 233.765 61.5256 234.731 62.2926C235.697 63.0597 236.928 63.4432 238.424 63.4432ZM266.893 44.1818V47.3068H256.78V66H253.428V44.1818H266.893ZM279.518 66.4545C277.548 66.4545 275.82 65.9858 274.333 65.0483C272.856 64.1108 271.701 62.7992 270.867 61.1136C270.043 59.428 269.631 57.4583 269.631 55.2045C269.631 52.9318 270.043 50.9479 270.867 49.2528C271.701 47.5578 272.856 46.2415 274.333 45.304C275.82 44.3665 277.548 43.8977 279.518 43.8977C281.487 43.8977 283.211 44.3665 284.688 45.304C286.175 46.2415 287.33 47.5578 288.154 49.2528C288.987 50.9479 289.404 52.9318 289.404 55.2045C289.404 57.4583 288.987 59.428 288.154 61.1136C287.33 62.7992 286.175 64.1108 284.688 65.0483C283.211 65.9858 281.487 66.4545 279.518 66.4545ZM279.518 63.4432C281.014 63.4432 282.245 63.0597 283.211 62.2926C284.177 61.5256 284.892 60.517 285.356 59.267C285.82 58.017 286.052 56.6629 286.052 55.2045C286.052 53.7462 285.82 52.3873 285.356 51.1278C284.892 49.8684 284.177 48.8504 283.211 48.0739C282.245 47.2973 281.014 46.9091 279.518 46.9091C278.022 46.9091 276.79 47.2973 275.825 48.0739C274.859 48.8504 274.144 49.8684 273.68 51.1278C273.216 52.3873 272.984 53.7462 272.984 55.2045C272.984 56.6629 273.216 58.017 273.68 59.267C274.144 60.517 274.859 61.5256 275.825 62.2926C276.79 63.0597 278.022 63.4432 279.518 63.4432ZM307.93 74.1818C307.362 74.1818 306.856 74.1345 306.411 74.0398C305.965 73.9545 305.658 73.8693 305.487 73.7841L306.339 70.8295C307.154 71.0379 307.874 71.1136 308.499 71.0568C309.124 71 309.678 70.7206 310.161 70.2188C310.653 69.7263 311.103 68.9261 311.51 67.8182L312.135 66.1136L304.067 44.1818H307.703L313.726 61.5682H313.953L319.976 44.1818H323.612L314.351 69.1818C313.934 70.3087 313.418 71.2415 312.803 71.9801C312.187 72.7282 311.472 73.2822 310.658 73.642C309.853 74.0019 308.944 74.1818 307.93 74.1818ZM324.269 66V62.875H325.065C325.718 62.875 326.263 62.7472 326.698 62.4915C327.134 62.2263 327.484 61.767 327.749 61.1136C328.024 60.4508 328.232 59.5322 328.374 58.358C328.526 57.1742 328.635 55.6686 328.701 53.8409L329.099 44.1818H343.644V66H340.292V47.3068H332.281L331.94 55.0909C331.864 56.8807 331.703 58.4574 331.457 59.821C331.22 61.1752 330.855 62.3116 330.363 63.2301C329.88 64.1487 329.236 64.84 328.431 65.304C327.626 65.768 326.618 66 325.406 66H324.269ZM352.238 66.2273C351.537 66.2273 350.936 65.9763 350.434 65.4744C349.932 64.9725 349.681 64.3712 349.681 63.6705C349.681 62.9697 349.932 62.3684 350.434 61.8665C350.936 61.3646 351.537 61.1136 352.238 61.1136C352.939 61.1136 353.54 61.3646 354.042 61.8665C354.544 62.3684 354.795 62.9697 354.795 63.6705C354.795 64.1345 354.676 64.5606 354.44 64.9489C354.212 65.3371 353.905 65.6496 353.516 65.8864C353.138 66.1136 352.711 66.2273 352.238 66.2273ZM381.094 66.3977C379.428 66.3977 377.927 66.0663 376.592 65.4034C375.256 64.7405 374.186 63.8314 373.381 62.6761C372.576 61.5208 372.136 60.2045 372.06 58.7273H375.469C375.602 60.0436 376.199 61.1326 377.259 61.9943C378.329 62.8466 379.608 63.2727 381.094 63.2727C382.288 63.2727 383.348 62.9934 384.276 62.4347C385.214 61.8759 385.948 61.1089 386.478 60.1335C387.018 59.1487 387.288 58.036 387.288 56.7955C387.288 55.5265 387.008 54.3949 386.45 53.4006C385.9 52.3968 385.143 51.6061 384.177 51.0284C383.211 50.4508 382.108 50.1572 380.867 50.1477C379.977 50.1383 379.063 50.2756 378.126 50.5597C377.188 50.8343 376.416 51.1894 375.81 51.625L372.515 51.2273L374.276 36.9091H389.39V40.0341H377.231L376.208 48.6136H376.379C376.975 48.1402 377.723 47.7472 378.623 47.4347C379.522 47.1222 380.46 46.9659 381.435 46.9659C383.216 46.9659 384.802 47.392 386.194 48.2443C387.595 49.0871 388.694 50.2424 389.489 51.7102C390.294 53.178 390.697 54.8542 390.697 56.7386C390.697 58.5947 390.28 60.2519 389.447 61.7102C388.623 63.1591 387.487 64.3049 386.038 65.1477C384.589 65.9811 382.941 66.3977 381.094 66.3977ZM405.658 66.3977C403.707 66.3977 401.983 66.0521 400.487 65.3608C399 64.66 397.84 63.6989 397.007 62.4773C396.174 61.2462 395.762 59.8447 395.771 58.2727C395.762 57.0417 396.003 55.9053 396.496 54.8636C396.988 53.8125 397.661 52.9366 398.513 52.2358C399.375 51.5256 400.336 51.0758 401.396 50.8864V50.7159C400.004 50.3561 398.896 49.5748 398.072 48.3722C397.249 47.16 396.841 45.7822 396.851 44.2386C396.841 42.7614 397.215 41.4403 397.973 40.2756C398.731 39.1108 399.772 38.1922 401.098 37.5199C402.433 36.8475 403.953 36.5114 405.658 36.5114C407.343 36.5114 408.849 36.8475 410.175 37.5199C411.5 38.1922 412.542 39.1108 413.3 40.2756C414.067 41.4403 414.455 42.7614 414.464 44.2386C414.455 45.7822 414.034 47.16 413.2 48.3722C412.376 49.5748 411.283 50.3561 409.919 50.7159V50.8864C410.97 51.0758 411.917 51.5256 412.76 52.2358C413.603 52.9366 414.275 53.8125 414.777 54.8636C415.279 55.9053 415.535 57.0417 415.544 58.2727C415.535 59.8447 415.108 61.2462 414.266 62.4773C413.432 63.6989 412.272 64.66 410.786 65.3608C409.308 66.0521 407.599 66.3977 405.658 66.3977ZM405.658 63.2727C406.974 63.2727 408.11 63.0597 409.067 62.6335C410.023 62.2074 410.762 61.6061 411.283 60.8295C411.804 60.053 412.069 59.1439 412.078 58.1023C412.069 57.0038 411.785 56.0331 411.226 55.1903C410.667 54.3475 409.905 53.6847 408.939 53.2017C407.982 52.7187 406.889 52.4773 405.658 52.4773C404.417 52.4773 403.309 52.7187 402.334 53.2017C401.368 53.6847 400.606 54.3475 400.047 55.1903C399.498 56.0331 399.228 57.0038 399.237 58.1023C399.228 59.1439 399.479 60.053 399.99 60.8295C400.511 61.6061 401.254 62.2074 402.22 62.6335C403.186 63.0597 404.332 63.2727 405.658 63.2727ZM405.658 49.4659C406.699 49.4659 407.623 49.2576 408.428 48.8409C409.242 48.4242 409.881 47.8419 410.345 47.0938C410.809 46.3456 411.046 45.4697 411.055 44.4659C411.046 43.4811 410.814 42.6241 410.359 41.8949C409.905 41.1562 409.275 40.5881 408.47 40.1903C407.665 39.7831 406.728 39.5795 405.658 39.5795C404.569 39.5795 403.617 39.7831 402.803 40.1903C401.988 40.5881 401.358 41.1562 400.913 41.8949C400.468 42.6241 400.25 43.4811 400.26 44.4659C400.25 45.4697 400.473 46.3456 400.928 47.0938C401.392 47.8419 402.031 48.4242 402.845 48.8409C403.66 49.2576 404.597 49.4659 405.658 49.4659Z" fill="black"/>
<path opacity="0.8" d="M48.5 145L40.5 134.318H37.6364V145H34.8182V121.727H37.6364V131.818H38.8636L48.1818 121.727H51.5455L42.1364 131.955L51.8636 145H48.5ZM60.2784 145.409C59.1723 145.409 58.1686 145.201 57.267 144.784C56.3655 144.36 55.6496 143.75 55.1193 142.955C54.589 142.152 54.3239 141.182 54.3239 140.045C54.3239 139.045 54.5208 138.235 54.9148 137.614C55.3087 136.985 55.8352 136.492 56.4943 136.136C57.1534 135.78 57.8807 135.515 58.6761 135.341C59.4792 135.159 60.286 135.015 61.0966 134.909C62.1572 134.773 63.017 134.67 63.6761 134.602C64.3428 134.527 64.8277 134.402 65.1307 134.227C65.4413 134.053 65.5966 133.75 65.5966 133.318V133.227C65.5966 132.106 65.2898 131.235 64.6761 130.614C64.0701 129.992 63.1496 129.682 61.9148 129.682C60.6345 129.682 59.6307 129.962 58.9034 130.523C58.1761 131.083 57.6648 131.682 57.3693 132.318L54.8239 131.409C55.2784 130.348 55.8845 129.523 56.642 128.932C57.4072 128.333 58.2405 127.917 59.142 127.682C60.0511 127.439 60.9451 127.318 61.8239 127.318C62.3845 127.318 63.0284 127.386 63.7557 127.523C64.4905 127.652 65.1989 127.92 65.8807 128.33C66.5701 128.739 67.142 129.356 67.5966 130.182C68.0511 131.008 68.2784 132.114 68.2784 133.5V145H65.5966V142.636H65.4602C65.2784 143.015 64.9754 143.42 64.5511 143.852C64.1269 144.284 63.5625 144.652 62.858 144.955C62.1534 145.258 61.2936 145.409 60.2784 145.409ZM60.6875 143C61.7481 143 62.642 142.792 63.3693 142.375C64.1042 141.958 64.6572 141.42 65.0284 140.761C65.4072 140.102 65.5966 139.409 65.5966 138.682V136.227C65.483 136.364 65.233 136.489 64.8466 136.602C64.4678 136.708 64.0284 136.803 63.5284 136.886C63.036 136.962 62.5549 137.03 62.0852 137.091C61.6231 137.144 61.2481 137.189 60.9602 137.227C60.2633 137.318 59.6117 137.466 59.0057 137.67C58.4072 137.867 57.9223 138.167 57.5511 138.568C57.1875 138.962 57.0057 139.5 57.0057 140.182C57.0057 141.114 57.3504 141.818 58.0398 142.295C58.7367 142.765 59.6193 143 60.6875 143ZM72.0824 140.545H74.946C75.0066 141.333 75.3627 141.932 76.0142 142.341C76.6733 142.75 77.5294 142.955 78.5824 142.955C79.6581 142.955 80.5786 142.735 81.3438 142.295C82.1089 141.848 82.4915 141.129 82.4915 140.136C82.4915 139.553 82.3475 139.045 82.0597 138.614C81.7718 138.174 81.3665 137.833 80.8438 137.591C80.321 137.348 79.7036 137.227 78.9915 137.227H75.9915V134.818H78.9915C80.0597 134.818 80.8475 134.576 81.3551 134.091C81.8703 133.606 82.1278 133 82.1278 132.273C82.1278 131.492 81.8513 130.867 81.2983 130.398C80.7453 129.92 79.9612 129.682 78.946 129.682C77.9233 129.682 77.071 129.913 76.3892 130.375C75.7074 130.83 75.3475 131.417 75.3097 132.136H72.4915C72.5218 131.197 72.8097 130.367 73.3551 129.648C73.9006 128.92 74.643 128.352 75.5824 127.943C76.5218 127.527 77.5975 127.318 78.8097 127.318C80.0369 127.318 81.1013 127.534 82.0028 127.966C82.9119 128.39 83.6127 128.97 84.1051 129.705C84.6051 130.432 84.8551 131.258 84.8551 132.182C84.8551 133.167 84.5786 133.962 84.0256 134.568C83.4725 135.174 82.7794 135.606 81.946 135.864V136.045C82.6051 136.091 83.1771 136.303 83.6619 136.682C84.1544 137.053 84.5369 137.542 84.8097 138.148C85.0824 138.746 85.2188 139.409 85.2188 140.136C85.2188 141.197 84.9347 142.121 84.3665 142.909C83.7983 143.689 83.018 144.295 82.0256 144.727C81.0331 145.152 79.9006 145.364 78.6278 145.364C77.393 145.364 76.2869 145.163 75.3097 144.761C74.3324 144.352 73.5559 143.788 72.9801 143.068C72.4119 142.341 72.1127 141.5 72.0824 140.545ZM94.1222 145.409C93.0161 145.409 92.0123 145.201 91.1108 144.784C90.2093 144.36 89.4934 143.75 88.9631 142.955C88.4328 142.152 88.1676 141.182 88.1676 140.045C88.1676 139.045 88.3646 138.235 88.7585 137.614C89.1525 136.985 89.679 136.492 90.3381 136.136C90.9972 135.78 91.7244 135.515 92.5199 135.341C93.3229 135.159 94.1297 135.015 94.9403 134.909C96.0009 134.773 96.8608 134.67 97.5199 134.602C98.1866 134.527 98.6714 134.402 98.9744 134.227C99.285 134.053 99.4403 133.75 99.4403 133.318V133.227C99.4403 132.106 99.1335 131.235 98.5199 130.614C97.9138 129.992 96.9934 129.682 95.7585 129.682C94.4782 129.682 93.4744 129.962 92.7472 130.523C92.0199 131.083 91.5085 131.682 91.2131 132.318L88.6676 131.409C89.1222 130.348 89.7282 129.523 90.4858 128.932C91.2509 128.333 92.0843 127.917 92.9858 127.682C93.8949 127.439 94.7888 127.318 95.6676 127.318C96.2282 127.318 96.8722 127.386 97.5994 127.523C98.3343 127.652 99.0426 127.92 99.7244 128.33C100.414 128.739 100.986 129.356 101.44 130.182C101.895 131.008 102.122 132.114 102.122 133.5V145H99.4403V142.636H99.304C99.1222 143.015 98.8191 143.42 98.3949 143.852C97.9706 144.284 97.4063 144.652 96.7017 144.955C95.9972 145.258 95.1373 145.409 94.1222 145.409ZM94.5312 143C95.5919 143 96.4858 142.792 97.2131 142.375C97.9479 141.958 98.5009 141.42 98.8722 140.761C99.2509 140.102 99.4403 139.409 99.4403 138.682V136.227C99.3267 136.364 99.0767 136.489 98.6903 136.602C98.3116 136.708 97.8722 136.803 97.3722 136.886C96.8797 136.962 96.3987 137.03 95.929 137.091C95.4669 137.144 95.0919 137.189 94.804 137.227C94.107 137.318 93.4555 137.466 92.8494 137.67C92.2509 137.867 91.7661 138.167 91.3949 138.568C91.0313 138.962 90.8494 139.5 90.8494 140.182C90.8494 141.114 91.1941 141.818 91.8835 142.295C92.5805 142.765 93.4631 143 94.5312 143ZM118.699 135.045V137.545H109.062V135.045H118.699ZM109.699 127.545V145H107.017V127.545H109.699ZM120.744 127.545V145H118.062V127.545H120.744ZM127.96 133.864H132.96C135.006 133.864 136.57 134.383 137.653 135.42C138.737 136.458 139.278 137.773 139.278 139.364C139.278 140.409 139.036 141.36 138.551 142.216C138.066 143.064 137.354 143.742 136.415 144.25C135.475 144.75 134.324 145 132.96 145H125.642V127.545H128.324V142.5H132.96C134.021 142.5 134.892 142.22 135.574 141.659C136.256 141.098 136.597 140.379 136.597 139.5C136.597 138.576 136.256 137.822 135.574 137.239C134.892 136.655 134.021 136.364 132.96 136.364H127.96V133.864Z" fill="black"/>
<path d="M1153.24 40.9091V70H1149.72V44.6023H1149.55L1142.44 49.3182V45.7386L1149.72 40.9091H1153.24ZM1170.7 70.3977C1169.03 70.3977 1167.53 70.0663 1166.19 69.4034C1164.86 68.7405 1163.79 67.8314 1162.98 66.6761C1162.18 65.5208 1161.74 64.2045 1161.66 62.7273H1165.07C1165.2 64.0436 1165.8 65.1326 1166.86 65.9943C1167.93 66.8466 1169.21 67.2727 1170.7 67.2727C1171.89 67.2727 1172.95 66.9934 1173.88 66.4347C1174.82 65.8759 1175.55 65.1089 1176.08 64.1335C1176.62 63.1487 1176.89 62.036 1176.89 60.7955C1176.89 59.5265 1176.61 58.3949 1176.05 57.4006C1175.5 56.3968 1174.74 55.6061 1173.78 55.0284C1172.81 54.4508 1171.71 54.1572 1170.47 54.1477C1169.58 54.1383 1168.66 54.2756 1167.73 54.5597C1166.79 54.8343 1166.02 55.1894 1165.41 55.625L1162.12 55.2273L1163.88 40.9091H1178.99V44.0341H1166.83L1165.81 52.6136H1165.98C1166.58 52.1402 1167.32 51.7472 1168.22 51.4347C1169.12 51.1222 1170.06 50.9659 1171.04 50.9659C1172.82 50.9659 1174.4 51.392 1175.8 52.2443C1177.2 53.0871 1178.3 54.2424 1179.09 55.7102C1179.9 57.178 1180.3 58.8542 1180.3 60.7386C1180.3 62.5947 1179.88 64.2519 1179.05 65.7102C1178.22 67.1591 1177.09 68.3049 1175.64 69.1477C1174.19 69.9811 1172.54 70.3977 1170.7 70.3977ZM1188.44 66.2784C1187.74 66.2784 1187.14 66.0275 1186.64 65.5256C1186.14 65.0237 1185.88 64.4223 1185.88 63.7216C1185.88 63.0208 1186.14 62.4195 1186.64 61.9176C1187.14 61.4157 1187.74 61.1648 1188.44 61.1648C1189.14 61.1648 1189.74 61.4157 1190.25 61.9176C1190.75 62.4195 1191 63.0208 1191 63.7216C1191 64.1856 1190.88 64.6117 1190.64 65C1190.42 65.3883 1190.11 65.7008 1189.72 65.9375C1189.34 66.1648 1188.91 66.2784 1188.44 66.2784ZM1188.44 51.5625C1187.74 51.5625 1187.14 51.3116 1186.64 50.8097C1186.14 50.3078 1185.88 49.7064 1185.88 49.0057C1185.88 48.3049 1186.14 47.7036 1186.64 47.2017C1187.14 46.6998 1187.74 46.4489 1188.44 46.4489C1189.14 46.4489 1189.74 46.6998 1190.25 47.2017C1190.75 47.7036 1191 48.3049 1191 49.0057C1191 49.4697 1190.88 49.8958 1190.64 50.2841C1190.42 50.6723 1190.11 50.9848 1189.72 51.2216C1189.34 51.4489 1188.91 51.5625 1188.44 51.5625ZM1206.45 70.3977C1204.31 70.3977 1202.48 69.8153 1200.98 68.6506C1199.47 67.4763 1198.32 65.7765 1197.52 63.5511C1196.73 61.3163 1196.33 58.6174 1196.33 55.4545C1196.33 52.3106 1196.73 49.6259 1197.52 47.4006C1198.33 45.1657 1199.49 43.4612 1200.99 42.2869C1202.51 41.1032 1204.32 40.5114 1206.45 40.5114C1208.57 40.5114 1210.38 41.1032 1211.89 42.2869C1213.4 43.4612 1214.56 45.1657 1215.35 47.4006C1216.16 49.6259 1216.56 52.3106 1216.56 55.4545C1216.56 58.6174 1216.16 61.3163 1215.37 63.5511C1214.57 65.7765 1213.42 67.4763 1211.91 68.6506C1210.41 69.8153 1208.59 70.3977 1206.45 70.3977ZM1206.45 67.2727C1208.57 67.2727 1210.21 66.25 1211.39 64.2045C1212.56 62.1591 1213.15 59.2424 1213.15 55.4545C1213.15 52.9356 1212.88 50.7907 1212.34 49.0199C1211.81 47.2491 1211.04 45.8996 1210.04 44.9716C1209.04 44.0436 1207.85 43.5795 1206.45 43.5795C1204.34 43.5795 1202.7 44.6165 1201.52 46.6903C1200.33 48.7547 1199.74 51.6761 1199.74 55.4545C1199.74 57.9735 1200.01 60.1136 1200.54 61.875C1201.07 63.6364 1201.83 64.9763 1202.82 65.8949C1203.83 66.8134 1205.03 67.2727 1206.45 67.2727ZM1231.45 70.3977C1229.31 70.3977 1227.48 69.8153 1225.98 68.6506C1224.47 67.4763 1223.32 65.7765 1222.52 63.5511C1221.73 61.3163 1221.33 58.6174 1221.33 55.4545C1221.33 52.3106 1221.73 49.6259 1222.52 47.4006C1223.33 45.1657 1224.49 43.4612 1225.99 42.2869C1227.51 41.1032 1229.32 40.5114 1231.45 40.5114C1233.57 40.5114 1235.38 41.1032 1236.89 42.2869C1238.4 43.4612 1239.56 45.1657 1240.35 47.4006C1241.16 49.6259 1241.56 52.3106 1241.56 55.4545C1241.56 58.6174 1241.16 61.3163 1240.37 63.5511C1239.57 65.7765 1238.42 67.4763 1236.91 68.6506C1235.41 69.8153 1233.59 70.3977 1231.45 70.3977ZM1231.45 67.2727C1233.57 67.2727 1235.21 66.25 1236.39 64.2045C1237.56 62.1591 1238.15 59.2424 1238.15 55.4545C1238.15 52.9356 1237.88 50.7907 1237.34 49.0199C1236.81 47.2491 1236.04 45.8996 1235.04 44.9716C1234.04 44.0436 1232.85 43.5795 1231.45 43.5795C1229.34 43.5795 1227.7 44.6165 1226.52 46.6903C1225.33 48.7547 1224.74 51.6761 1224.74 55.4545C1224.74 57.9735 1225.01 60.1136 1225.54 61.875C1226.07 63.6364 1226.83 64.9763 1227.82 65.8949C1228.83 66.8134 1230.03 67.2727 1231.45 67.2727ZM1270.76 53.892V57.017H1258.04V53.892H1270.76ZM1287.86 70V67.4432L1297.46 56.9318C1298.58 55.7008 1299.51 54.6307 1300.24 53.7216C1300.97 52.803 1301.51 51.9413 1301.86 51.1364C1302.22 50.322 1302.4 49.4697 1302.4 48.5795C1302.4 47.5568 1302.15 46.6714 1301.66 45.9233C1301.18 45.1752 1300.52 44.5975 1299.67 44.1903C1298.83 43.7831 1297.88 43.5795 1296.83 43.5795C1295.71 43.5795 1294.74 43.8116 1293.91 44.2756C1293.08 44.7301 1292.44 45.3693 1291.99 46.1932C1291.54 47.017 1291.32 47.983 1291.32 49.0909H1287.97C1287.97 47.3864 1288.36 45.8902 1289.15 44.6023C1289.93 43.3144 1291 42.3106 1292.36 41.5909C1293.72 40.8712 1295.25 40.5114 1296.95 40.5114C1298.65 40.5114 1300.16 40.8712 1301.48 41.5909C1302.79 42.3106 1303.83 43.2812 1304.57 44.5028C1305.32 45.7244 1305.7 47.0833 1305.7 48.5795C1305.7 49.6496 1305.5 50.696 1305.11 51.7188C1304.73 52.732 1304.07 53.8636 1303.12 55.1136C1302.19 56.3542 1300.89 57.8693 1299.22 59.6591L1292.68 66.6477V66.875H1306.21V70H1287.86ZM1312.07 70V67.4432L1321.68 56.9318C1322.8 55.7008 1323.73 54.6307 1324.46 53.7216C1325.19 52.803 1325.73 51.9413 1326.08 51.1364C1326.44 50.322 1326.62 49.4697 1326.62 48.5795C1326.62 47.5568 1326.37 46.6714 1325.88 45.9233C1325.4 45.1752 1324.73 44.5975 1323.89 44.1903C1323.05 43.7831 1322.1 43.5795 1321.05 43.5795C1319.93 43.5795 1318.96 43.8116 1318.12 44.2756C1317.3 44.7301 1316.66 45.3693 1316.21 46.1932C1315.76 47.017 1315.54 47.983 1315.54 49.0909H1312.19C1312.19 47.3864 1312.58 45.8902 1313.37 44.6023C1314.15 43.3144 1315.22 42.3106 1316.58 41.5909C1317.94 40.8712 1319.47 40.5114 1321.16 40.5114C1322.87 40.5114 1324.38 40.8712 1325.7 41.5909C1327.01 42.3106 1328.04 43.2812 1328.79 44.5028C1329.54 45.7244 1329.91 47.0833 1329.91 48.5795C1329.91 49.6496 1329.72 50.696 1329.33 51.7188C1328.95 52.732 1328.29 53.8636 1327.34 55.1136C1326.41 56.3542 1325.1 57.8693 1323.44 59.6591L1316.9 66.6477V66.875H1330.43V70H1312.07ZM1338.79 66.2784C1338.09 66.2784 1337.49 66.0275 1336.99 65.5256C1336.49 65.0237 1336.24 64.4223 1336.24 63.7216C1336.24 63.0208 1336.49 62.4195 1336.99 61.9176C1337.49 61.4157 1338.09 61.1648 1338.79 61.1648C1339.49 61.1648 1340.09 61.4157 1340.6 61.9176C1341.1 62.4195 1341.35 63.0208 1341.35 63.7216C1341.35 64.1856 1341.23 64.6117 1340.99 65C1340.77 65.3883 1340.46 65.7008 1340.07 65.9375C1339.69 66.1648 1339.27 66.2784 1338.79 66.2784ZM1338.79 51.5625C1338.09 51.5625 1337.49 51.3116 1336.99 50.8097C1336.49 50.3078 1336.24 49.7064 1336.24 49.0057C1336.24 48.3049 1336.49 47.7036 1336.99 47.2017C1337.49 46.6998 1338.09 46.4489 1338.79 46.4489C1339.49 46.4489 1340.09 46.6998 1340.6 47.2017C1341.1 47.7036 1341.35 48.3049 1341.35 49.0057C1341.35 49.4697 1341.23 49.8958 1340.99 50.2841C1340.77 50.6723 1340.46 50.9848 1340.07 51.2216C1339.69 51.4489 1339.27 51.5625 1338.79 51.5625ZM1356.8 70.3977C1354.66 70.3977 1352.83 69.8153 1351.33 68.6506C1349.82 67.4763 1348.67 65.7765 1347.88 63.5511C1347.08 61.3163 1346.68 58.6174 1346.68 55.4545C1346.68 52.3106 1347.08 49.6259 1347.88 47.4006C1348.68 45.1657 1349.84 43.4612 1351.34 42.2869C1352.86 41.1032 1354.68 40.5114 1356.8 40.5114C1358.92 40.5114 1360.73 41.1032 1362.24 42.2869C1363.75 43.4612 1364.91 45.1657 1365.7 47.4006C1366.51 49.6259 1366.91 52.3106 1366.91 55.4545C1366.91 58.6174 1366.51 61.3163 1365.72 63.5511C1364.92 65.7765 1363.77 67.4763 1362.27 68.6506C1360.76 69.8153 1358.94 70.3977 1356.8 70.3977ZM1356.8 67.2727C1358.92 67.2727 1360.57 66.25 1361.74 64.2045C1362.91 62.1591 1363.5 59.2424 1363.5 55.4545C1363.5 52.9356 1363.23 50.7907 1362.69 49.0199C1362.16 47.2491 1361.39 45.8996 1360.39 44.9716C1359.4 44.0436 1358.2 43.5795 1356.8 43.5795C1354.69 43.5795 1353.05 44.6165 1351.87 46.6903C1350.68 48.7547 1350.09 51.6761 1350.09 55.4545C1350.09 57.9735 1350.36 60.1136 1350.89 61.875C1351.42 63.6364 1352.18 64.9763 1353.17 65.8949C1354.18 66.8134 1355.39 67.2727 1356.8 67.2727ZM1381.8 70.3977C1379.66 70.3977 1377.83 69.8153 1376.33 68.6506C1374.82 67.4763 1373.67 65.7765 1372.88 63.5511C1372.08 61.3163 1371.68 58.6174 1371.68 55.4545C1371.68 52.3106 1372.08 49.6259 1372.88 47.4006C1373.68 45.1657 1374.84 43.4612 1376.34 42.2869C1377.86 41.1032 1379.68 40.5114 1381.8 40.5114C1383.92 40.5114 1385.73 41.1032 1387.24 42.2869C1388.75 43.4612 1389.91 45.1657 1390.7 47.4006C1391.51 49.6259 1391.91 52.3106 1391.91 55.4545C1391.91 58.6174 1391.51 61.3163 1390.72 63.5511C1389.92 65.7765 1388.77 67.4763 1387.27 68.6506C1385.76 69.8153 1383.94 70.3977 1381.8 70.3977ZM1381.8 67.2727C1383.92 67.2727 1385.57 66.25 1386.74 64.2045C1387.91 62.1591 1388.5 59.2424 1388.5 55.4545C1388.5 52.9356 1388.23 50.7907 1387.69 49.0199C1387.16 47.2491 1386.39 45.8996 1385.39 44.9716C1384.4 44.0436 1383.2 43.5795 1381.8 43.5795C1379.69 43.5795 1378.05 44.6165 1376.87 46.6903C1375.68 48.7547 1375.09 51.6761 1375.09 55.4545C1375.09 57.9735 1375.36 60.1136 1375.89 61.875C1376.42 63.6364 1377.18 64.9763 1378.17 65.8949C1379.18 66.8134 1380.39 67.2727 1381.8 67.2727Z" fill="black"/>
<defs>
<linearGradient id="paint0_linear_152_156" x1="720" y1="0" x2="720" y2="167" gradientUnits="userSpaceOnUse">
<stop stop-color="#FFD9D9"/>
<stop offset="1" stop-color="#FFD9D9" stop-opacity="0"/>
</linearGradient>
</defs>
</svg>
