<svg width="1440" height="167" viewBox="0 0 1440 167" fill="none" xmlns="http://www.w3.org/2000/svg">
<rect x="0.5" y="0.5" width="1439" height="166" fill="url(#paint0_linear_152_158)" stroke="black"/>
<path d="M34.9318 38.0341V34.9091H56.75V38.0341H47.6023V64H44.0795V38.0341H34.9318ZM67.4318 64.4545C65.4621 64.4545 63.7339 63.9858 62.2472 63.0483C60.7699 62.1108 59.6146 60.7992 58.7812 59.1136C57.9574 57.428 57.5455 55.4583 57.5455 53.2045C57.5455 50.9318 57.9574 48.9479 58.7812 47.2528C59.6146 45.5578 60.7699 44.2415 62.2472 43.304C63.7339 42.3665 65.4621 41.8977 67.4318 41.8977C69.4015 41.8977 71.125 42.3665 72.6023 43.304C74.089 44.2415 75.2443 45.5578 76.0682 47.2528C76.9015 48.9479 77.3182 50.9318 77.3182 53.2045C77.3182 55.4583 76.9015 57.428 76.0682 59.1136C75.2443 60.7992 74.089 62.1108 72.6023 63.0483C71.125 63.9858 69.4015 64.4545 67.4318 64.4545ZM67.4318 61.4432C68.928 61.4432 70.1591 61.0597 71.125 60.2926C72.0909 59.5256 72.8059 58.517 73.2699 57.267C73.7339 56.017 73.9659 54.6629 73.9659 53.2045C73.9659 51.7462 73.7339 50.3873 73.2699 49.1278C72.8059 47.8684 72.0909 46.8504 71.125 46.0739C70.1591 45.2973 68.928 44.9091 67.4318 44.9091C65.9356 44.9091 64.7045 45.2973 63.7386 46.0739C62.7727 46.8504 62.0578 47.8684 61.5938 49.1278C61.1297 50.3873 60.8977 51.7462 60.8977 53.2045C60.8977 54.6629 61.1297 56.017 61.5938 57.267C62.0578 58.517 62.7727 59.5256 63.7386 60.2926C64.7045 61.0597 65.9356 61.4432 67.4318 61.4432ZM80.5036 64V60.875H81.299C81.9524 60.875 82.4969 60.7472 82.9325 60.4915C83.3681 60.2263 83.7185 59.767 83.9837 59.1136C84.2583 58.4508 84.4666 57.5322 84.6087 56.358C84.7602 55.1742 84.8691 53.6686 84.9354 51.8409L85.3331 42.1818H99.8786V64H96.5263V45.3068H88.5149L88.174 53.0909C88.0982 54.8807 87.9373 56.4574 87.6911 57.821C87.4543 59.1752 87.0897 60.3116 86.5973 61.2301C86.1143 62.1487 85.4704 62.84 84.6655 63.304C83.8606 63.768 82.852 64 81.6399 64H80.5036ZM114.893 64.4545C112.847 64.4545 111.086 63.9716 109.609 63.0057C108.131 62.0398 106.995 60.7093 106.2 59.0142C105.404 57.3191 105.006 55.3826 105.006 53.2045C105.006 50.9886 105.414 49.0331 106.228 47.3381C107.052 45.6335 108.198 44.303 109.665 43.3466C111.143 42.3807 112.866 41.8977 114.836 41.8977C116.37 41.8977 117.753 42.1818 118.984 42.75C120.215 43.3182 121.223 44.1136 122.009 45.1364C122.795 46.1591 123.283 47.3523 123.472 48.7159H120.12C119.864 47.7216 119.296 46.8409 118.415 46.0739C117.544 45.2973 116.37 44.9091 114.893 44.9091C113.586 44.9091 112.44 45.25 111.455 45.9318C110.48 46.6042 109.718 47.5559 109.168 48.7869C108.629 50.0085 108.359 51.4432 108.359 53.0909C108.359 54.7765 108.624 56.2443 109.154 57.4943C109.694 58.7443 110.451 59.715 111.427 60.4062C112.412 61.0975 113.567 61.4432 114.893 61.4432C115.764 61.4432 116.555 61.2917 117.265 60.9886C117.975 60.6856 118.576 60.25 119.069 59.6818C119.561 59.1136 119.912 58.4318 120.12 57.6364H123.472C123.283 58.9242 122.814 60.0843 122.066 61.1165C121.327 62.1392 120.347 62.9536 119.126 63.5597C117.914 64.1562 116.503 64.4545 114.893 64.4545ZM126.654 45.3068V42.1818H144.381V45.3068H137.222V64H133.87V45.3068H126.654ZM157.002 64.4545C155.032 64.4545 153.304 63.9858 151.817 63.0483C150.34 62.1108 149.185 60.7992 148.352 59.1136C147.528 57.428 147.116 55.4583 147.116 53.2045C147.116 50.9318 147.528 48.9479 148.352 47.2528C149.185 45.5578 150.34 44.2415 151.817 43.304C153.304 42.3665 155.032 41.8977 157.002 41.8977C158.972 41.8977 160.695 42.3665 162.173 43.304C163.659 44.2415 164.815 45.5578 165.638 47.2528C166.472 48.9479 166.888 50.9318 166.888 53.2045C166.888 55.4583 166.472 57.428 165.638 59.1136C164.815 60.7992 163.659 62.1108 162.173 63.0483C160.695 63.9858 158.972 64.4545 157.002 64.4545ZM157.002 61.4432C158.498 61.4432 159.729 61.0597 160.695 60.2926C161.661 59.5256 162.376 58.517 162.84 57.267C163.304 56.017 163.536 54.6629 163.536 53.2045C163.536 51.7462 163.304 50.3873 162.84 49.1278C162.376 47.8684 161.661 46.8504 160.695 46.0739C159.729 45.2973 158.498 44.9091 157.002 44.9091C155.506 44.9091 154.275 45.2973 153.309 46.0739C152.343 46.8504 151.628 47.8684 151.164 49.1278C150.7 50.3873 150.468 51.7462 150.468 53.2045C150.468 54.6629 150.7 56.017 151.164 57.267C151.628 58.517 152.343 59.5256 153.309 60.2926C154.275 61.0597 155.506 61.4432 157.002 61.4432ZM185.472 42.1818V45.3068H175.358V64H172.006V42.1818H185.472ZM198.096 64.4545C196.126 64.4545 194.398 63.9858 192.911 63.0483C191.434 62.1108 190.279 60.7992 189.445 59.1136C188.621 57.428 188.21 55.4583 188.21 53.2045C188.21 50.9318 188.621 48.9479 189.445 47.2528C190.279 45.5578 191.434 44.2415 192.911 43.304C194.398 42.3665 196.126 41.8977 198.096 41.8977C200.066 41.8977 201.789 42.3665 203.266 43.304C204.753 44.2415 205.908 45.5578 206.732 47.2528C207.566 48.9479 207.982 50.9318 207.982 53.2045C207.982 55.4583 207.566 57.428 206.732 59.1136C205.908 60.7992 204.753 62.1108 203.266 63.0483C201.789 63.9858 200.066 64.4545 198.096 64.4545ZM198.096 61.4432C199.592 61.4432 200.823 61.0597 201.789 60.2926C202.755 59.5256 203.47 58.517 203.934 57.267C204.398 56.017 204.63 54.6629 204.63 53.2045C204.63 51.7462 204.398 50.3873 203.934 49.1278C203.47 47.8684 202.755 46.8504 201.789 46.0739C200.823 45.2973 199.592 44.9091 198.096 44.9091C196.6 44.9091 195.369 45.2973 194.403 46.0739C193.437 46.8504 192.722 47.8684 192.258 49.1278C191.794 50.3873 191.562 51.7462 191.562 53.2045C191.562 54.6629 191.794 56.017 192.258 57.267C192.722 58.517 193.437 59.5256 194.403 60.2926C195.369 61.0597 196.6 61.4432 198.096 61.4432ZM226.509 72.1818C225.94 72.1818 225.434 72.1345 224.989 72.0398C224.544 71.9545 224.236 71.8693 224.065 71.7841L224.918 68.8295C225.732 69.0379 226.452 69.1136 227.077 69.0568C227.702 69 228.256 68.7206 228.739 68.2188C229.231 67.7263 229.681 66.9261 230.088 65.8182L230.713 64.1136L222.645 42.1818H226.281L232.304 59.5682H232.531L238.554 42.1818H242.19L232.929 67.1818C232.512 68.3087 231.996 69.2415 231.381 69.9801C230.765 70.7282 230.05 71.2822 229.236 71.642C228.431 72.0019 227.522 72.1818 226.509 72.1818ZM242.847 64V60.875H243.643C244.296 60.875 244.841 60.7472 245.276 60.4915C245.712 60.2263 246.062 59.767 246.327 59.1136C246.602 58.4508 246.81 57.5322 246.952 56.358C247.104 55.1742 247.213 53.6686 247.279 51.8409L247.677 42.1818H262.222V64H258.87V45.3068H250.859L250.518 53.0909C250.442 54.8807 250.281 56.4574 250.035 57.821C249.798 59.1752 249.433 60.3116 248.941 61.2301C248.458 62.1487 247.814 62.84 247.009 63.304C246.204 63.768 245.196 64 243.984 64H242.847ZM270.816 64.2273C270.115 64.2273 269.514 63.9763 269.012 63.4744C268.51 62.9725 268.259 62.3712 268.259 61.6705C268.259 60.9697 268.51 60.3684 269.012 59.8665C269.514 59.3646 270.115 59.1136 270.816 59.1136C271.517 59.1136 272.118 59.3646 272.62 59.8665C273.122 60.3684 273.373 60.9697 273.373 61.6705C273.373 62.1345 273.254 62.5606 273.018 62.9489C272.79 63.3371 272.483 63.6496 272.094 63.8864C271.716 64.1136 271.29 64.2273 270.816 64.2273ZM300.809 34.9091V64H297.286V38.6023H297.116L290.013 43.3182V39.7386L297.286 34.9091H300.809ZM309.175 64V61.4432L318.778 50.9318C319.905 49.7008 320.833 48.6307 321.562 47.7216C322.291 46.803 322.831 45.9413 323.181 45.1364C323.541 44.322 323.721 43.4697 323.721 42.5795C323.721 41.5568 323.475 40.6714 322.982 39.9233C322.499 39.1752 321.836 38.5975 320.994 38.1903C320.151 37.7831 319.204 37.5795 318.153 37.5795C317.035 37.5795 316.06 37.8116 315.227 38.2756C314.403 38.7301 313.763 39.3693 313.309 40.1932C312.864 41.017 312.641 41.983 312.641 43.0909H309.289C309.289 41.3864 309.682 39.8902 310.468 38.6023C311.254 37.3144 312.324 36.3106 313.678 35.5909C315.042 34.8712 316.571 34.5114 318.266 34.5114C319.971 34.5114 321.481 34.8712 322.798 35.5909C324.114 36.3106 325.146 37.2812 325.894 38.5028C326.642 39.7244 327.016 41.0833 327.016 42.5795C327.016 43.6496 326.822 44.696 326.434 45.7188C326.055 46.732 325.392 47.8636 324.445 49.1136C323.508 50.3542 322.206 51.8693 320.539 53.6591L314.005 60.6477V60.875H327.528V64H309.175Z" fill="black"/>
<path opacity="0.8" d="M49.5 151L41.5 140.318H38.6364V151H35.8182V127.727H38.6364V137.818H39.8636L49.1818 127.727H52.5455L43.1364 137.955L52.8636 151H49.5ZM61.2784 151.409C60.1723 151.409 59.1686 151.201 58.267 150.784C57.3655 150.36 56.6496 149.75 56.1193 148.955C55.589 148.152 55.3239 147.182 55.3239 146.045C55.3239 145.045 55.5208 144.235 55.9148 143.614C56.3087 142.985 56.8352 142.492 57.4943 142.136C58.1534 141.78 58.8807 141.515 59.6761 141.341C60.4792 141.159 61.286 141.015 62.0966 140.909C63.1572 140.773 64.017 140.67 64.6761 140.602C65.3428 140.527 65.8277 140.402 66.1307 140.227C66.4413 140.053 66.5966 139.75 66.5966 139.318V139.227C66.5966 138.106 66.2898 137.235 65.6761 136.614C65.0701 135.992 64.1496 135.682 62.9148 135.682C61.6345 135.682 60.6307 135.962 59.9034 136.523C59.1761 137.083 58.6648 137.682 58.3693 138.318L55.8239 137.409C56.2784 136.348 56.8845 135.523 57.642 134.932C58.4072 134.333 59.2405 133.917 60.142 133.682C61.0511 133.439 61.9451 133.318 62.8239 133.318C63.3845 133.318 64.0284 133.386 64.7557 133.523C65.4905 133.652 66.1989 133.92 66.8807 134.33C67.5701 134.739 68.142 135.356 68.5966 136.182C69.0511 137.008 69.2784 138.114 69.2784 139.5V151H66.5966V148.636H66.4602C66.2784 149.015 65.9754 149.42 65.5511 149.852C65.1269 150.284 64.5625 150.652 63.858 150.955C63.1534 151.258 62.2936 151.409 61.2784 151.409ZM61.6875 149C62.7481 149 63.642 148.792 64.3693 148.375C65.1042 147.958 65.6572 147.42 66.0284 146.761C66.4072 146.102 66.5966 145.409 66.5966 144.682V142.227C66.483 142.364 66.233 142.489 65.8466 142.602C65.4678 142.708 65.0284 142.803 64.5284 142.886C64.036 142.962 63.5549 143.03 63.0852 143.091C62.6231 143.144 62.2481 143.189 61.9602 143.227C61.2633 143.318 60.6117 143.466 60.0057 143.67C59.4072 143.867 58.9223 144.167 58.5511 144.568C58.1875 144.962 58.0057 145.5 58.0057 146.182C58.0057 147.114 58.3504 147.818 59.0398 148.295C59.7367 148.765 60.6193 149 61.6875 149ZM73.0824 146.545H75.946C76.0066 147.333 76.3627 147.932 77.0142 148.341C77.6733 148.75 78.5294 148.955 79.5824 148.955C80.6581 148.955 81.5786 148.735 82.3438 148.295C83.1089 147.848 83.4915 147.129 83.4915 146.136C83.4915 145.553 83.3475 145.045 83.0597 144.614C82.7718 144.174 82.3665 143.833 81.8438 143.591C81.321 143.348 80.7036 143.227 79.9915 143.227H76.9915V140.818H79.9915C81.0597 140.818 81.8475 140.576 82.3551 140.091C82.8703 139.606 83.1278 139 83.1278 138.273C83.1278 137.492 82.8513 136.867 82.2983 136.398C81.7453 135.92 80.9612 135.682 79.946 135.682C78.9233 135.682 78.071 135.913 77.3892 136.375C76.7074 136.83 76.3475 137.417 76.3097 138.136H73.4915C73.5218 137.197 73.8097 136.367 74.3551 135.648C74.9006 134.92 75.643 134.352 76.5824 133.943C77.5218 133.527 78.5975 133.318 79.8097 133.318C81.0369 133.318 82.1013 133.534 83.0028 133.966C83.9119 134.39 84.6127 134.97 85.1051 135.705C85.6051 136.432 85.8551 137.258 85.8551 138.182C85.8551 139.167 85.5786 139.962 85.0256 140.568C84.4725 141.174 83.7794 141.606 82.946 141.864V142.045C83.6051 142.091 84.1771 142.303 84.6619 142.682C85.1544 143.053 85.5369 143.542 85.8097 144.148C86.0824 144.746 86.2188 145.409 86.2188 146.136C86.2188 147.197 85.9347 148.121 85.3665 148.909C84.7983 149.689 84.018 150.295 83.0256 150.727C82.0331 151.152 80.9006 151.364 79.6278 151.364C78.393 151.364 77.2869 151.163 76.3097 150.761C75.3324 150.352 74.5559 149.788 73.9801 149.068C73.4119 148.341 73.1127 147.5 73.0824 146.545ZM95.1222 151.409C94.0161 151.409 93.0123 151.201 92.1108 150.784C91.2093 150.36 90.4934 149.75 89.9631 148.955C89.4328 148.152 89.1676 147.182 89.1676 146.045C89.1676 145.045 89.3646 144.235 89.7585 143.614C90.1525 142.985 90.679 142.492 91.3381 142.136C91.9972 141.78 92.7244 141.515 93.5199 141.341C94.3229 141.159 95.1297 141.015 95.9403 140.909C97.0009 140.773 97.8608 140.67 98.5199 140.602C99.1866 140.527 99.6714 140.402 99.9744 140.227C100.285 140.053 100.44 139.75 100.44 139.318V139.227C100.44 138.106 100.134 137.235 99.5199 136.614C98.9138 135.992 97.9934 135.682 96.7585 135.682C95.4782 135.682 94.4744 135.962 93.7472 136.523C93.0199 137.083 92.5085 137.682 92.2131 138.318L89.6676 137.409C90.1222 136.348 90.7282 135.523 91.4858 134.932C92.2509 134.333 93.0843 133.917 93.9858 133.682C94.8949 133.439 95.7888 133.318 96.6676 133.318C97.2282 133.318 97.8722 133.386 98.5994 133.523C99.3343 133.652 100.043 133.92 100.724 134.33C101.414 134.739 101.986 135.356 102.44 136.182C102.895 137.008 103.122 138.114 103.122 139.5V151H100.44V148.636H100.304C100.122 149.015 99.8191 149.42 99.3949 149.852C98.9706 150.284 98.4063 150.652 97.7017 150.955C96.9972 151.258 96.1373 151.409 95.1222 151.409ZM95.5312 149C96.5919 149 97.4858 148.792 98.2131 148.375C98.9479 147.958 99.5009 147.42 99.8722 146.761C100.251 146.102 100.44 145.409 100.44 144.682V142.227C100.327 142.364 100.077 142.489 99.6903 142.602C99.3116 142.708 98.8722 142.803 98.3722 142.886C97.8797 142.962 97.3987 143.03 96.929 143.091C96.4669 143.144 96.0919 143.189 95.804 143.227C95.107 143.318 94.4555 143.466 93.8494 143.67C93.2509 143.867 92.7661 144.167 92.3949 144.568C92.0313 144.962 91.8494 145.5 91.8494 146.182C91.8494 147.114 92.1941 147.818 92.8835 148.295C93.5805 148.765 94.4631 149 95.5312 149ZM119.699 141.045V143.545H110.062V141.045H119.699ZM110.699 133.545V151H108.017V133.545H110.699ZM121.744 133.545V151H119.062V133.545H121.744ZM128.96 139.864H133.96C136.006 139.864 137.57 140.383 138.653 141.42C139.737 142.458 140.278 143.773 140.278 145.364C140.278 146.409 140.036 147.36 139.551 148.216C139.066 149.064 138.354 149.742 137.415 150.25C136.475 150.75 135.324 151 133.96 151H126.642V133.545H129.324V148.5H133.96C135.021 148.5 135.892 148.22 136.574 147.659C137.256 147.098 137.597 146.379 137.597 145.5C137.597 144.576 137.256 143.822 136.574 143.239C135.892 142.655 135.021 142.364 133.96 142.364H128.96V139.864Z" fill="black"/>
<path d="M1153.24 40.9091V70H1149.72V44.6023H1149.55L1142.44 49.3182V45.7386L1149.72 40.9091H1153.24ZM1161.61 70V67.4432L1171.21 56.9318C1172.33 55.7008 1173.26 54.6307 1173.99 53.7216C1174.72 52.803 1175.26 51.9413 1175.61 51.1364C1175.97 50.322 1176.15 49.4697 1176.15 48.5795C1176.15 47.5568 1175.9 46.6714 1175.41 45.9233C1174.93 45.1752 1174.27 44.5975 1173.42 44.1903C1172.58 43.7831 1171.63 43.5795 1170.58 43.5795C1169.46 43.5795 1168.49 43.8116 1167.66 44.2756C1166.83 44.7301 1166.19 45.3693 1165.74 46.1932C1165.29 47.017 1165.07 47.983 1165.07 49.0909H1161.72C1161.72 47.3864 1162.11 45.8902 1162.9 44.6023C1163.68 43.3144 1164.75 42.3106 1166.11 41.5909C1167.47 40.8712 1169 40.5114 1170.7 40.5114C1172.4 40.5114 1173.91 40.8712 1175.23 41.5909C1176.54 42.3106 1177.58 43.2812 1178.32 44.5028C1179.07 45.7244 1179.45 47.0833 1179.45 48.5795C1179.45 49.6496 1179.25 50.696 1178.86 51.7188C1178.48 52.732 1177.82 53.8636 1176.88 55.1136C1175.94 56.3542 1174.64 57.8693 1172.97 59.6591L1166.43 66.6477V66.875H1179.96V70H1161.61ZM1188.32 66.2784C1187.62 66.2784 1187.02 66.0275 1186.52 65.5256C1186.02 65.0237 1185.77 64.4223 1185.77 63.7216C1185.77 63.0208 1186.02 62.4195 1186.52 61.9176C1187.02 61.4157 1187.62 61.1648 1188.32 61.1648C1189.02 61.1648 1189.63 61.4157 1190.13 61.9176C1190.63 62.4195 1190.88 63.0208 1190.88 63.7216C1190.88 64.1856 1190.76 64.6117 1190.53 65C1190.3 65.3883 1189.99 65.7008 1189.6 65.9375C1189.22 66.1648 1188.8 66.2784 1188.32 66.2784ZM1188.32 51.5625C1187.62 51.5625 1187.02 51.3116 1186.52 50.8097C1186.02 50.3078 1185.77 49.7064 1185.77 49.0057C1185.77 48.3049 1186.02 47.7036 1186.52 47.2017C1187.02 46.6998 1187.62 46.4489 1188.32 46.4489C1189.02 46.4489 1189.63 46.6998 1190.13 47.2017C1190.63 47.7036 1190.88 48.3049 1190.88 49.0057C1190.88 49.4697 1190.76 49.8958 1190.53 50.2841C1190.3 50.6723 1189.99 50.9848 1189.6 51.2216C1189.22 51.4489 1188.8 51.5625 1188.32 51.5625ZM1206.33 70.3977C1204.19 70.3977 1202.37 69.8153 1200.86 68.6506C1199.35 67.4763 1198.2 65.7765 1197.41 63.5511C1196.61 61.3163 1196.21 58.6174 1196.21 55.4545C1196.21 52.3106 1196.61 49.6259 1197.41 47.4006C1198.21 45.1657 1199.37 43.4612 1200.87 42.2869C1202.39 41.1032 1204.21 40.5114 1206.33 40.5114C1208.45 40.5114 1210.26 41.1032 1211.77 42.2869C1213.28 43.4612 1214.44 45.1657 1215.23 47.4006C1216.04 49.6259 1216.44 52.3106 1216.44 55.4545C1216.44 58.6174 1216.04 61.3163 1215.25 63.5511C1214.45 65.7765 1213.3 67.4763 1211.8 68.6506C1210.29 69.8153 1208.47 70.3977 1206.33 70.3977ZM1206.33 67.2727C1208.45 67.2727 1210.1 66.25 1211.27 64.2045C1212.45 62.1591 1213.03 59.2424 1213.03 55.4545C1213.03 52.9356 1212.76 50.7907 1212.22 49.0199C1211.69 47.2491 1210.93 45.8996 1209.92 44.9716C1208.93 44.0436 1207.73 43.5795 1206.33 43.5795C1204.23 43.5795 1202.58 44.6165 1201.4 46.6903C1200.22 48.7547 1199.62 51.6761 1199.62 55.4545C1199.62 57.9735 1199.89 60.1136 1200.42 61.875C1200.95 63.6364 1201.71 64.9763 1202.71 65.8949C1203.71 66.8134 1204.92 67.2727 1206.33 67.2727ZM1231.33 70.3977C1229.19 70.3977 1227.37 69.8153 1225.86 68.6506C1224.35 67.4763 1223.2 65.7765 1222.41 63.5511C1221.61 61.3163 1221.21 58.6174 1221.21 55.4545C1221.21 52.3106 1221.61 49.6259 1222.41 47.4006C1223.21 45.1657 1224.37 43.4612 1225.87 42.2869C1227.39 41.1032 1229.21 40.5114 1231.33 40.5114C1233.45 40.5114 1235.26 41.1032 1236.77 42.2869C1238.28 43.4612 1239.44 45.1657 1240.23 47.4006C1241.04 49.6259 1241.44 52.3106 1241.44 55.4545C1241.44 58.6174 1241.04 61.3163 1240.25 63.5511C1239.45 65.7765 1238.3 67.4763 1236.8 68.6506C1235.29 69.8153 1233.47 70.3977 1231.33 70.3977ZM1231.33 67.2727C1233.45 67.2727 1235.1 66.25 1236.27 64.2045C1237.45 62.1591 1238.03 59.2424 1238.03 55.4545C1238.03 52.9356 1237.76 50.7907 1237.22 49.0199C1236.69 47.2491 1235.93 45.8996 1234.92 44.9716C1233.93 44.0436 1232.73 43.5795 1231.33 43.5795C1229.23 43.5795 1227.58 44.6165 1226.4 46.6903C1225.22 48.7547 1224.62 51.6761 1224.62 55.4545C1224.62 57.9735 1224.89 60.1136 1225.42 61.875C1225.95 63.6364 1226.71 64.9763 1227.71 65.8949C1228.71 66.8134 1229.92 67.2727 1231.33 67.2727ZM1270.65 53.892V57.017H1257.92V53.892H1270.65ZM1297.97 40.9091V70H1294.44V44.6023H1294.27L1287.17 49.3182V45.7386L1294.44 40.9091H1297.97ZM1315.65 70.3977C1313.7 70.3977 1311.98 70.0521 1310.48 69.3608C1308.99 68.66 1307.83 67.6989 1307 66.4773C1306.17 65.2462 1305.75 63.8447 1305.76 62.2727C1305.75 61.0417 1306 59.9053 1306.49 58.8636C1306.98 57.8125 1307.65 56.9366 1308.5 56.2358C1309.37 55.5256 1310.33 55.0758 1311.39 54.8864V54.7159C1310 54.3561 1308.89 53.5748 1308.06 52.3722C1307.24 51.16 1306.83 49.7822 1306.84 48.2386C1306.83 46.7614 1307.21 45.4403 1307.97 44.2756C1308.72 43.1108 1309.76 42.1922 1311.09 41.5199C1312.43 40.8475 1313.95 40.5114 1315.65 40.5114C1317.34 40.5114 1318.84 40.8475 1320.17 41.5199C1321.49 42.1922 1322.53 43.1108 1323.29 44.2756C1324.06 45.4403 1324.45 46.7614 1324.46 48.2386C1324.45 49.7822 1324.03 51.16 1323.19 52.3722C1322.37 53.5748 1321.27 54.3561 1319.91 54.7159V54.8864C1320.96 55.0758 1321.91 55.5256 1322.75 56.2358C1323.59 56.9366 1324.27 57.8125 1324.77 58.8636C1325.27 59.9053 1325.53 61.0417 1325.54 62.2727C1325.53 63.8447 1325.1 65.2462 1324.26 66.4773C1323.42 67.6989 1322.26 68.66 1320.78 69.3608C1319.3 70.0521 1317.59 70.3977 1315.65 70.3977ZM1315.65 67.2727C1316.97 67.2727 1318.1 67.0597 1319.06 66.6335C1320.02 66.2074 1320.75 65.6061 1321.27 64.8295C1321.8 64.053 1322.06 63.1439 1322.07 62.1023C1322.06 61.0038 1321.78 60.0331 1321.22 59.1903C1320.66 58.3475 1319.9 57.6847 1318.93 57.2017C1317.97 56.7187 1316.88 56.4773 1315.65 56.4773C1314.41 56.4773 1313.3 56.7187 1312.33 57.2017C1311.36 57.6847 1310.6 58.3475 1310.04 59.1903C1309.49 60.0331 1309.22 61.0038 1309.23 62.1023C1309.22 63.1439 1309.47 64.053 1309.98 64.8295C1310.5 65.6061 1311.25 66.2074 1312.21 66.6335C1313.18 67.0597 1314.32 67.2727 1315.65 67.2727ZM1315.65 53.4659C1316.69 53.4659 1317.61 53.2576 1318.42 52.8409C1319.23 52.4242 1319.87 51.8419 1320.34 51.0938C1320.8 50.3456 1321.04 49.4697 1321.05 48.4659C1321.04 47.4811 1320.81 46.6241 1320.35 45.8949C1319.9 45.1562 1319.27 44.5881 1318.46 44.1903C1317.66 43.7831 1316.72 43.5795 1315.65 43.5795C1314.56 43.5795 1313.61 43.7831 1312.79 44.1903C1311.98 44.5881 1311.35 45.1562 1310.91 45.8949C1310.46 46.6241 1310.24 47.4811 1310.25 48.4659C1310.24 49.4697 1310.47 50.3456 1310.92 51.0938C1311.38 51.8419 1312.02 52.4242 1312.84 52.8409C1313.65 53.2576 1314.59 53.4659 1315.65 53.4659ZM1333.48 66.2784C1332.78 66.2784 1332.18 66.0275 1331.68 65.5256C1331.17 65.0237 1330.92 64.4223 1330.92 63.7216C1330.92 63.0208 1331.17 62.4195 1331.68 61.9176C1332.18 61.4157 1332.78 61.1648 1333.48 61.1648C1334.18 61.1648 1334.78 61.4157 1335.28 61.9176C1335.79 62.4195 1336.04 63.0208 1336.04 63.7216C1336.04 64.1856 1335.92 64.6117 1335.68 65C1335.45 65.3883 1335.15 65.7008 1334.76 65.9375C1334.38 66.1648 1333.95 66.2784 1333.48 66.2784ZM1333.48 51.5625C1332.78 51.5625 1332.18 51.3116 1331.68 50.8097C1331.17 50.3078 1330.92 49.7064 1330.92 49.0057C1330.92 48.3049 1331.17 47.7036 1331.68 47.2017C1332.18 46.6998 1332.78 46.4489 1333.48 46.4489C1334.18 46.4489 1334.78 46.6998 1335.28 47.2017C1335.79 47.7036 1336.04 48.3049 1336.04 49.0057C1336.04 49.4697 1335.92 49.8958 1335.68 50.2841C1335.45 50.6723 1335.15 50.9848 1334.76 51.2216C1334.38 51.4489 1333.95 51.5625 1333.48 51.5625ZM1351.48 70.3977C1349.34 70.3977 1347.52 69.8153 1346.02 68.6506C1344.51 67.4763 1343.36 65.7765 1342.56 63.5511C1341.77 61.3163 1341.37 58.6174 1341.37 55.4545C1341.37 52.3106 1341.77 49.6259 1342.56 47.4006C1343.37 45.1657 1344.52 43.4612 1346.03 42.2869C1347.54 41.1032 1349.36 40.5114 1351.48 40.5114C1353.61 40.5114 1355.42 41.1032 1356.92 42.2869C1358.44 43.4612 1359.6 45.1657 1360.39 47.4006C1361.2 49.6259 1361.6 52.3106 1361.6 55.4545C1361.6 58.6174 1361.2 61.3163 1360.4 63.5511C1359.61 65.7765 1358.46 67.4763 1356.95 68.6506C1355.45 69.8153 1353.62 70.3977 1351.48 70.3977ZM1351.48 67.2727C1353.61 67.2727 1355.25 66.25 1356.43 64.2045C1357.6 62.1591 1358.19 59.2424 1358.19 55.4545C1358.19 52.9356 1357.92 50.7907 1357.38 49.0199C1356.85 47.2491 1356.08 45.8996 1355.08 44.9716C1354.08 44.0436 1352.89 43.5795 1351.48 43.5795C1349.38 43.5795 1347.74 44.6165 1346.56 46.6903C1345.37 48.7547 1344.78 51.6761 1344.78 55.4545C1344.78 57.9735 1345.04 60.1136 1345.58 61.875C1346.11 63.6364 1346.87 64.9763 1347.86 65.8949C1348.87 66.8134 1350.07 67.2727 1351.48 67.2727ZM1376.48 70.3977C1374.34 70.3977 1372.52 69.8153 1371.02 68.6506C1369.51 67.4763 1368.36 65.7765 1367.56 63.5511C1366.77 61.3163 1366.37 58.6174 1366.37 55.4545C1366.37 52.3106 1366.77 49.6259 1367.56 47.4006C1368.37 45.1657 1369.52 43.4612 1371.03 42.2869C1372.54 41.1032 1374.36 40.5114 1376.48 40.5114C1378.61 40.5114 1380.42 41.1032 1381.92 42.2869C1383.44 43.4612 1384.6 45.1657 1385.39 47.4006C1386.2 49.6259 1386.6 52.3106 1386.6 55.4545C1386.6 58.6174 1386.2 61.3163 1385.4 63.5511C1384.61 65.7765 1383.46 67.4763 1381.95 68.6506C1380.45 69.8153 1378.62 70.3977 1376.48 70.3977ZM1376.48 67.2727C1378.61 67.2727 1380.25 66.25 1381.43 64.2045C1382.6 62.1591 1383.19 59.2424 1383.19 55.4545C1383.19 52.9356 1382.92 50.7907 1382.38 49.0199C1381.85 47.2491 1381.08 45.8996 1380.08 44.9716C1379.08 44.0436 1377.89 43.5795 1376.48 43.5795C1374.38 43.5795 1372.74 44.6165 1371.56 46.6903C1370.37 48.7547 1369.78 51.6761 1369.78 55.4545C1369.78 57.9735 1370.04 60.1136 1370.58 61.875C1371.11 63.6364 1371.87 64.9763 1372.86 65.8949C1373.87 66.8134 1375.07 67.2727 1376.48 67.2727Z" fill="black"/>
<defs>
<linearGradient id="paint0_linear_152_158" x1="720" y1="0" x2="720" y2="167" gradientUnits="userSpaceOnUse">
<stop stop-color="#FFD9D9"/>
<stop offset="1" stop-color="#FFD9D9" stop-opacity="0"/>
</linearGradient>
</defs>
</svg>
