<svg width="1440" height="167" viewBox="0 0 1440 167" fill="none" xmlns="http://www.w3.org/2000/svg">
<rect x="0.5" y="0.5" width="1439" height="166" fill="url(#paint0_linear_152_159)" stroke="black"/>
<path d="M37.0227 71.0455V60.875H38.8977C39.5417 60.2879 40.1477 59.4593 40.7159 58.3892C41.2936 57.3097 41.7812 55.8703 42.179 54.071C42.5862 52.2623 42.8561 49.9659 42.9886 47.1818L43.6136 34.9091H60.8864V60.875H64.2386V70.9886H60.8864V64H40.375V71.0455H37.0227ZM43.1023 60.875H57.5341V38.0341H46.7955L46.3409 47.1818C46.2273 49.303 46.0284 51.2254 45.7443 52.9489C45.4602 54.6629 45.0956 56.1828 44.6506 57.5085C44.2055 58.8248 43.6894 59.947 43.1023 60.875ZM77.9709 64.4545C76.0012 64.4545 74.273 63.9858 72.7862 63.0483C71.3089 62.1108 70.1536 60.7992 69.3203 59.1136C68.4964 57.428 68.0845 55.4583 68.0845 53.2045C68.0845 50.9318 68.4964 48.9479 69.3203 47.2528C70.1536 45.5578 71.3089 44.2415 72.7862 43.304C74.273 42.3665 76.0012 41.8977 77.9709 41.8977C79.9406 41.8977 81.6641 42.3665 83.1413 43.304C84.6281 44.2415 85.7834 45.5578 86.6072 47.2528C87.4406 48.9479 87.8572 50.9318 87.8572 53.2045C87.8572 55.4583 87.4406 57.428 86.6072 59.1136C85.7834 60.7992 84.6281 62.1108 83.1413 63.0483C81.6641 63.9858 79.9406 64.4545 77.9709 64.4545ZM77.9709 61.4432C79.4671 61.4432 80.6982 61.0597 81.6641 60.2926C82.63 59.5256 83.3449 58.517 83.8089 57.267C84.273 56.017 84.505 54.6629 84.505 53.2045C84.505 51.7462 84.273 50.3873 83.8089 49.1278C83.3449 47.8684 82.63 46.8504 81.6641 46.0739C80.6982 45.2973 79.4671 44.9091 77.9709 44.9091C76.4747 44.9091 75.2436 45.2973 74.2777 46.0739C73.3118 46.8504 72.5968 47.8684 72.1328 49.1278C71.6688 50.3873 71.4368 51.7462 71.4368 53.2045C71.4368 54.6629 71.6688 56.017 72.1328 57.267C72.5968 58.517 73.3118 59.5256 74.2777 60.2926C75.2436 61.0597 76.4747 61.4432 77.9709 61.4432ZM101.838 64.4545C99.7926 64.4545 98.0313 63.9716 96.554 63.0057C95.0767 62.0398 93.9403 60.7093 93.1449 59.0142C92.3494 57.3191 91.9517 55.3826 91.9517 53.2045C91.9517 50.9886 92.3589 49.0331 93.1733 47.3381C93.9972 45.6335 95.143 44.303 96.6108 43.3466C98.0881 42.3807 99.8116 41.8977 101.781 41.8977C103.315 41.8977 104.698 42.1818 105.929 42.75C107.16 43.3182 108.169 44.1136 108.955 45.1364C109.741 46.1591 110.228 47.3523 110.418 48.7159H107.065C106.81 47.7216 106.241 46.8409 105.361 46.0739C104.49 45.2973 103.315 44.9091 101.838 44.9091C100.531 44.9091 99.3854 45.25 98.4006 45.9318C97.4252 46.6042 96.6629 47.5559 96.1136 48.7869C95.5739 50.0085 95.304 51.4432 95.304 53.0909C95.304 54.7765 95.5691 56.2443 96.0994 57.4943C96.6392 58.7443 97.3968 59.715 98.3722 60.4062C99.357 61.0975 100.512 61.4432 101.838 61.4432C102.709 61.4432 103.5 61.2917 104.21 60.9886C104.92 60.6856 105.522 60.25 106.014 59.6818C106.507 59.1136 106.857 58.4318 107.065 57.6364H110.418C110.228 58.9242 109.759 60.0843 109.011 61.1165C108.273 62.1392 107.293 62.9536 106.071 63.5597C104.859 64.1562 103.448 64.4545 101.838 64.4545ZM113.599 45.3068V42.1818H131.327V45.3068H124.168V64H120.815V45.3068H113.599ZM143.947 64.4545C141.978 64.4545 140.25 63.9858 138.763 63.0483C137.286 62.1108 136.13 60.7992 135.297 59.1136C134.473 57.428 134.061 55.4583 134.061 53.2045C134.061 50.9318 134.473 48.9479 135.297 47.2528C136.13 45.5578 137.286 44.2415 138.763 43.304C140.25 42.3665 141.978 41.8977 143.947 41.8977C145.917 41.8977 147.641 42.3665 149.118 43.304C150.605 44.2415 151.76 45.5578 152.584 47.2528C153.417 48.9479 153.834 50.9318 153.834 53.2045C153.834 55.4583 153.417 57.428 152.584 59.1136C151.76 60.7992 150.605 62.1108 149.118 63.0483C147.641 63.9858 145.917 64.4545 143.947 64.4545ZM143.947 61.4432C145.444 61.4432 146.675 61.0597 147.641 60.2926C148.607 59.5256 149.321 58.517 149.786 57.267C150.25 56.017 150.482 54.6629 150.482 53.2045C150.482 51.7462 150.25 50.3873 149.786 49.1278C149.321 47.8684 148.607 46.8504 147.641 46.0739C146.675 45.2973 145.444 44.9091 143.947 44.9091C142.451 44.9091 141.22 45.2973 140.254 46.0739C139.288 46.8504 138.573 47.8684 138.109 49.1278C137.645 50.3873 137.413 51.7462 137.413 53.2045C137.413 54.6629 137.645 56.017 138.109 57.267C138.573 58.517 139.288 59.5256 140.254 60.2926C141.22 61.0597 142.451 61.4432 143.947 61.4432ZM168.099 64.4545C165.996 64.4545 164.183 63.9905 162.658 63.0625C161.143 62.125 159.974 60.8182 159.15 59.142C158.335 57.4564 157.928 55.4962 157.928 53.2614C157.928 51.0265 158.335 49.0568 159.15 47.3523C159.974 45.6383 161.12 44.303 162.587 43.3466C164.065 42.3807 165.788 41.8977 167.758 41.8977C168.894 41.8977 170.016 42.0871 171.124 42.4659C172.232 42.8447 173.241 43.4602 174.15 44.3125C175.059 45.1553 175.783 46.2727 176.323 47.6648C176.863 49.0568 177.133 50.7708 177.133 52.8068V54.2273H160.315V51.3295H173.724C173.724 50.0985 173.478 49 172.985 48.0341C172.502 47.0682 171.811 46.3059 170.911 45.7472C170.021 45.1884 168.97 44.9091 167.758 44.9091C166.423 44.9091 165.267 45.2405 164.292 45.9034C163.326 46.5568 162.583 47.4091 162.062 48.4602C161.541 49.5114 161.281 50.6383 161.281 51.8409V53.7727C161.281 55.4205 161.565 56.8172 162.133 57.9631C162.71 59.0994 163.511 59.9659 164.533 60.5625C165.556 61.1496 166.745 61.4432 168.099 61.4432C168.979 61.4432 169.775 61.3201 170.485 61.0739C171.205 60.8182 171.825 60.4394 172.346 59.9375C172.867 59.4261 173.269 58.7917 173.553 58.0341L176.792 58.9432C176.451 60.0417 175.878 61.0076 175.073 61.8409C174.268 62.6648 173.274 63.3087 172.09 63.7727C170.906 64.2273 169.576 64.4545 168.099 64.4545ZM182.232 64V42.1818H191.153C193.501 42.1818 195.367 42.7121 196.749 43.7727C198.132 44.8333 198.823 46.2348 198.823 47.9773C198.823 49.303 198.43 50.3305 197.644 51.0597C196.858 51.7794 195.85 52.267 194.619 52.5227C195.424 52.6364 196.205 52.9205 196.962 53.375C197.729 53.8295 198.364 54.4545 198.866 55.25C199.368 56.036 199.619 57.0019 199.619 58.1477C199.619 59.2652 199.335 60.2642 198.766 61.1449C198.198 62.0256 197.384 62.7216 196.323 63.233C195.263 63.7443 193.994 64 192.516 64H182.232ZM185.414 60.9318H192.516C193.672 60.9318 194.576 60.6572 195.229 60.108C195.883 59.5587 196.21 58.8106 196.21 57.8636C196.21 56.7367 195.883 55.8513 195.229 55.2074C194.576 54.554 193.672 54.2273 192.516 54.2273H185.414V60.9318ZM185.414 51.3295H191.153C192.052 51.3295 192.824 51.2064 193.468 50.9602C194.112 50.7045 194.604 50.3447 194.945 49.8807C195.296 49.4072 195.471 48.8485 195.471 48.2045C195.471 47.286 195.087 46.5663 194.32 46.0455C193.553 45.5152 192.497 45.25 191.153 45.25H185.414V51.3295ZM213.557 64.4545C211.511 64.4545 209.75 63.9716 208.273 63.0057C206.795 62.0398 205.659 60.7093 204.864 59.0142C204.068 57.3191 203.67 55.3826 203.67 53.2045C203.67 50.9886 204.078 49.0331 204.892 47.3381C205.716 45.6335 206.862 44.303 208.33 43.3466C209.807 42.3807 211.53 41.8977 213.5 41.8977C215.034 41.8977 216.417 42.1818 217.648 42.75C218.879 43.3182 219.887 44.1136 220.673 45.1364C221.459 46.1591 221.947 47.3523 222.136 48.7159H218.784C218.528 47.7216 217.96 46.8409 217.08 46.0739C216.208 45.2973 215.034 44.9091 213.557 44.9091C212.25 44.9091 211.104 45.25 210.119 45.9318C209.144 46.6042 208.382 47.5559 207.832 48.7869C207.293 50.0085 207.023 51.4432 207.023 53.0909C207.023 54.7765 207.288 56.2443 207.818 57.4943C208.358 58.7443 209.116 59.715 210.091 60.4062C211.076 61.0975 212.231 61.4432 213.557 61.4432C214.428 61.4432 215.219 61.2917 215.929 60.9886C216.639 60.6856 217.241 60.25 217.733 59.6818C218.225 59.1136 218.576 58.4318 218.784 57.6364H222.136C221.947 58.9242 221.478 60.0843 220.73 61.1165C219.991 62.1392 219.011 62.9536 217.79 63.5597C216.578 64.1562 215.167 64.4545 213.557 64.4545ZM227.037 64V42.1818H230.389V51.6705H232.605L240.446 42.1818H244.764L235.957 52.6932L244.878 64H240.56L233.401 54.7955H230.389V64H227.037ZM256.487 64.4545C254.517 64.4545 252.789 63.9858 251.302 63.0483C249.825 62.1108 248.669 60.7992 247.836 59.1136C247.012 57.428 246.6 55.4583 246.6 53.2045C246.6 50.9318 247.012 48.9479 247.836 47.2528C248.669 45.5578 249.825 44.2415 251.302 43.304C252.789 42.3665 254.517 41.8977 256.487 41.8977C258.456 41.8977 260.18 42.3665 261.657 43.304C263.144 44.2415 264.299 45.5578 265.123 47.2528C265.956 48.9479 266.373 50.9318 266.373 53.2045C266.373 55.4583 265.956 57.428 265.123 59.1136C264.299 60.7992 263.144 62.1108 261.657 63.0483C260.18 63.9858 258.456 64.4545 256.487 64.4545ZM256.487 61.4432C257.983 61.4432 259.214 61.0597 260.18 60.2926C261.146 59.5256 261.861 58.517 262.325 57.267C262.789 56.017 263.021 54.6629 263.021 53.2045C263.021 51.7462 262.789 50.3873 262.325 49.1278C261.861 47.8684 261.146 46.8504 260.18 46.0739C259.214 45.2973 257.983 44.9091 256.487 44.9091C254.99 44.9091 253.759 45.2973 252.793 46.0739C251.827 46.8504 251.112 47.8684 250.648 49.1278C250.184 50.3873 249.952 51.7462 249.952 53.2045C249.952 54.6629 250.184 56.017 250.648 57.267C251.112 58.517 251.827 59.5256 252.793 60.2926C253.759 61.0597 254.99 61.4432 256.487 61.4432ZM284.956 42.1818V45.3068H274.842V64H271.49V42.1818H284.956ZM297.58 64.4545C295.611 64.4545 293.882 63.9858 292.396 63.0483C290.918 62.1108 289.763 60.7992 288.93 59.1136C288.106 57.428 287.694 55.4583 287.694 53.2045C287.694 50.9318 288.106 48.9479 288.93 47.2528C289.763 45.5578 290.918 44.2415 292.396 43.304C293.882 42.3665 295.611 41.8977 297.58 41.8977C299.55 41.8977 301.273 42.3665 302.751 43.304C304.237 44.2415 305.393 45.5578 306.217 47.2528C307.05 48.9479 307.467 50.9318 307.467 53.2045C307.467 55.4583 307.05 57.428 306.217 59.1136C305.393 60.7992 304.237 62.1108 302.751 63.0483C301.273 63.9858 299.55 64.4545 297.58 64.4545ZM297.58 61.4432C299.076 61.4432 300.308 61.0597 301.273 60.2926C302.239 59.5256 302.954 58.517 303.418 57.267C303.882 56.017 304.114 54.6629 304.114 53.2045C304.114 51.7462 303.882 50.3873 303.418 49.1278C302.954 47.8684 302.239 46.8504 301.273 46.0739C300.308 45.2973 299.076 44.9091 297.58 44.9091C296.084 44.9091 294.853 45.2973 293.887 46.0739C292.921 46.8504 292.206 47.8684 291.742 49.1278C291.278 50.3873 291.046 51.7462 291.046 53.2045C291.046 54.6629 291.278 56.017 291.742 57.267C292.206 58.517 292.921 59.5256 293.887 60.2926C294.853 61.0597 296.084 61.4432 297.58 61.4432ZM325.993 72.1818C325.425 72.1818 324.918 72.1345 324.473 72.0398C324.028 71.9545 323.72 71.8693 323.55 71.7841L324.402 68.8295C325.216 69.0379 325.936 69.1136 326.561 69.0568C327.186 69 327.74 68.7206 328.223 68.2188C328.715 67.7263 329.165 66.9261 329.572 65.8182L330.197 64.1136L322.129 42.1818H325.766L331.788 59.5682H332.016L338.038 42.1818H341.675L332.413 67.1818C331.997 68.3087 331.481 69.2415 330.865 69.9801C330.25 70.7282 329.535 71.2822 328.72 71.642C327.915 72.0019 327.006 72.1818 325.993 72.1818ZM342.332 64V60.875H343.127C343.781 60.875 344.325 60.7472 344.761 60.4915C345.196 60.2263 345.547 59.767 345.812 59.1136C346.086 58.4508 346.295 57.5322 346.437 56.358C346.588 55.1742 346.697 53.6686 346.763 51.8409L347.161 42.1818H361.707V64H358.354V45.3068H350.343L350.002 53.0909C349.926 54.8807 349.765 56.4574 349.519 57.821C349.282 59.1752 348.918 60.3116 348.425 61.2301C347.942 62.1487 347.299 62.84 346.494 63.304C345.689 63.768 344.68 64 343.468 64H342.332ZM370.3 64.2273C369.6 64.2273 368.998 63.9763 368.496 63.4744C367.995 62.9725 367.744 62.3712 367.744 61.6705C367.744 60.9697 367.995 60.3684 368.496 59.8665C368.998 59.3646 369.6 59.1136 370.3 59.1136C371.001 59.1136 371.603 59.3646 372.104 59.8665C372.606 60.3684 372.857 60.9697 372.857 61.6705C372.857 62.1345 372.739 62.5606 372.502 62.9489C372.275 63.3371 371.967 63.6496 371.579 63.8864C371.2 64.1136 370.774 64.2273 370.3 64.2273ZM390.975 64L403.987 38.2614V38.0341H388.987V34.9091H407.623V38.2045L394.668 64H390.975Z" fill="black"/>
<path d="M1156.24 50.9091V80H1152.72V54.6023H1152.55L1145.44 59.3182V55.7386L1152.72 50.9091H1156.24ZM1174.09 80.3977C1171.95 80.3977 1170.13 79.8153 1168.62 78.6506C1167.12 77.4763 1165.97 75.7765 1165.17 73.5511C1164.38 71.3163 1163.98 68.6174 1163.98 65.4545C1163.98 62.3106 1164.38 59.6259 1165.17 57.4006C1165.98 55.1657 1167.13 53.4612 1168.64 52.2869C1170.15 51.1032 1171.97 50.5114 1174.09 50.5114C1176.21 50.5114 1178.03 51.1032 1179.53 52.2869C1181.05 53.4612 1182.2 55.1657 1183 57.4006C1183.8 59.6259 1184.21 62.3106 1184.21 65.4545C1184.21 68.6174 1183.81 71.3163 1183.01 73.5511C1182.22 75.7765 1181.07 77.4763 1179.56 78.6506C1178.06 79.8153 1176.23 80.3977 1174.09 80.3977ZM1174.09 77.2727C1176.21 77.2727 1177.86 76.25 1179.04 74.2045C1180.21 72.1591 1180.8 69.2424 1180.8 65.4545C1180.8 62.9356 1180.53 60.7907 1179.99 59.0199C1179.46 57.2491 1178.69 55.8996 1177.69 54.9716C1176.69 54.0436 1175.5 53.5795 1174.09 53.5795C1171.99 53.5795 1170.35 54.6165 1169.16 56.6903C1167.98 58.7547 1167.39 61.6761 1167.39 65.4545C1167.39 67.9735 1167.65 70.1136 1168.18 71.875C1168.71 73.6364 1169.48 74.9763 1170.47 75.8949C1171.48 76.8134 1172.68 77.2727 1174.09 77.2727ZM1192.11 76.2784C1191.4 76.2784 1190.8 76.0275 1190.3 75.5256C1189.8 75.0237 1189.55 74.4223 1189.55 73.7216C1189.55 73.0208 1189.8 72.4195 1190.3 71.9176C1190.8 71.4157 1191.4 71.1648 1192.11 71.1648C1192.81 71.1648 1193.41 71.4157 1193.91 71.9176C1194.41 72.4195 1194.66 73.0208 1194.66 73.7216C1194.66 74.1856 1194.54 74.6117 1194.31 75C1194.08 75.3883 1193.77 75.7008 1193.38 75.9375C1193 76.1648 1192.58 76.2784 1192.11 76.2784ZM1192.11 61.5625C1191.4 61.5625 1190.8 61.3116 1190.3 60.8097C1189.8 60.3078 1189.55 59.7064 1189.55 59.0057C1189.55 58.3049 1189.8 57.7036 1190.3 57.2017C1190.8 56.6998 1191.4 56.4489 1192.11 56.4489C1192.81 56.4489 1193.41 56.6998 1193.91 57.2017C1194.41 57.7036 1194.66 58.3049 1194.66 59.0057C1194.66 59.4697 1194.54 59.8958 1194.31 60.2841C1194.08 60.6723 1193.77 60.9848 1193.38 61.2216C1193 61.4489 1192.58 61.5625 1192.11 61.5625ZM1210.11 80.3977C1207.97 80.3977 1206.15 79.8153 1204.64 78.6506C1203.13 77.4763 1201.98 75.7765 1201.19 73.5511C1200.39 71.3163 1200 68.6174 1200 65.4545C1200 62.3106 1200.39 59.6259 1201.19 57.4006C1201.99 55.1657 1203.15 53.4612 1204.65 52.2869C1206.17 51.1032 1207.99 50.5114 1210.11 50.5114C1212.23 50.5114 1214.04 51.1032 1215.55 52.2869C1217.06 53.4612 1218.22 55.1657 1219.02 57.4006C1219.82 59.6259 1220.22 62.3106 1220.22 65.4545C1220.22 68.6174 1219.83 71.3163 1219.03 73.5511C1218.23 75.7765 1217.08 77.4763 1215.58 78.6506C1214.07 79.8153 1212.25 80.3977 1210.11 80.3977ZM1210.11 77.2727C1212.23 77.2727 1213.88 76.25 1215.05 74.2045C1216.23 72.1591 1216.81 69.2424 1216.81 65.4545C1216.81 62.9356 1216.54 60.7907 1216 59.0199C1215.47 57.2491 1214.71 55.8996 1213.7 54.9716C1212.71 54.0436 1211.51 53.5795 1210.11 53.5795C1208.01 53.5795 1206.36 54.6165 1205.18 56.6903C1204 58.7547 1203.4 61.6761 1203.4 65.4545C1203.4 67.9735 1203.67 70.1136 1204.2 71.875C1204.73 73.6364 1205.49 74.9763 1206.49 75.8949C1207.49 76.8134 1208.7 77.2727 1210.11 77.2727ZM1235.11 80.3977C1232.97 80.3977 1231.15 79.8153 1229.64 78.6506C1228.13 77.4763 1226.98 75.7765 1226.19 73.5511C1225.39 71.3163 1225 68.6174 1225 65.4545C1225 62.3106 1225.39 59.6259 1226.19 57.4006C1226.99 55.1657 1228.15 53.4612 1229.65 52.2869C1231.17 51.1032 1232.99 50.5114 1235.11 50.5114C1237.23 50.5114 1239.04 51.1032 1240.55 52.2869C1242.06 53.4612 1243.22 55.1657 1244.02 57.4006C1244.82 59.6259 1245.22 62.3106 1245.22 65.4545C1245.22 68.6174 1244.83 71.3163 1244.03 73.5511C1243.23 75.7765 1242.08 77.4763 1240.58 78.6506C1239.07 79.8153 1237.25 80.3977 1235.11 80.3977ZM1235.11 77.2727C1237.23 77.2727 1238.88 76.25 1240.05 74.2045C1241.23 72.1591 1241.81 69.2424 1241.81 65.4545C1241.81 62.9356 1241.54 60.7907 1241 59.0199C1240.47 57.2491 1239.71 55.8996 1238.7 54.9716C1237.71 54.0436 1236.51 53.5795 1235.11 53.5795C1233.01 53.5795 1231.36 54.6165 1230.18 56.6903C1229 58.7547 1228.4 61.6761 1228.4 65.4545C1228.4 67.9735 1228.67 70.1136 1229.2 71.875C1229.73 73.6364 1230.49 74.9763 1231.49 75.8949C1232.49 76.8134 1233.7 77.2727 1235.11 77.2727ZM1274.43 63.892V67.017H1261.7V63.892H1274.43ZM1301.75 50.9091V80H1298.22V54.6023H1298.05L1290.95 59.3182V55.7386L1298.22 50.9091H1301.75ZM1319.43 80.3977C1317.48 80.3977 1315.76 80.0521 1314.26 79.3608C1312.77 78.66 1311.61 77.6989 1310.78 76.4773C1309.95 75.2462 1309.54 73.8447 1309.54 72.2727C1309.54 71.0417 1309.78 69.9053 1310.27 68.8636C1310.76 67.8125 1311.43 66.9366 1312.29 66.2358C1313.15 65.5256 1314.11 65.0758 1315.17 64.8864V64.7159C1313.78 64.3561 1312.67 63.5748 1311.85 62.3722C1311.02 61.16 1310.61 59.7822 1310.62 58.2386C1310.61 56.7614 1310.99 55.4403 1311.75 54.2756C1312.5 53.1108 1313.55 52.1922 1314.87 51.5199C1316.21 50.8475 1317.73 50.5114 1319.43 50.5114C1321.12 50.5114 1322.62 50.8475 1323.95 51.5199C1325.27 52.1922 1326.32 53.1108 1327.07 54.2756C1327.84 55.4403 1328.23 56.7614 1328.24 58.2386C1328.23 59.7822 1327.81 61.16 1326.97 62.3722C1326.15 63.5748 1325.06 64.3561 1323.69 64.7159V64.8864C1324.74 65.0758 1325.69 65.5256 1326.53 66.2358C1327.38 66.9366 1328.05 67.8125 1328.55 68.8636C1329.05 69.9053 1329.31 71.0417 1329.32 72.2727C1329.31 73.8447 1328.88 75.2462 1328.04 76.4773C1327.21 77.6989 1326.05 78.66 1324.56 79.3608C1323.08 80.0521 1321.37 80.3977 1319.43 80.3977ZM1319.43 77.2727C1320.75 77.2727 1321.88 77.0597 1322.84 76.6335C1323.8 76.2074 1324.54 75.6061 1325.06 74.8295C1325.58 74.053 1325.84 73.1439 1325.85 72.1023C1325.84 71.0038 1325.56 70.0331 1325 69.1903C1324.44 68.3475 1323.68 67.6847 1322.71 67.2017C1321.76 66.7187 1320.66 66.4773 1319.43 66.4773C1318.19 66.4773 1317.08 66.7187 1316.11 67.2017C1315.14 67.6847 1314.38 68.3475 1313.82 69.1903C1313.27 70.0331 1313 71.0038 1313.01 72.1023C1313 73.1439 1313.25 74.053 1313.76 74.8295C1314.28 75.6061 1315.03 76.2074 1315.99 76.6335C1316.96 77.0597 1318.11 77.2727 1319.43 77.2727ZM1319.43 63.4659C1320.47 63.4659 1321.4 63.2576 1322.2 62.8409C1323.02 62.4242 1323.65 61.8419 1324.12 61.0938C1324.58 60.3456 1324.82 59.4697 1324.83 58.4659C1324.82 57.4811 1324.59 56.6241 1324.13 55.8949C1323.68 55.1562 1323.05 54.5881 1322.24 54.1903C1321.44 53.7831 1320.5 53.5795 1319.43 53.5795C1318.34 53.5795 1317.39 53.7831 1316.58 54.1903C1315.76 54.5881 1315.13 55.1562 1314.69 55.8949C1314.24 56.6241 1314.02 57.4811 1314.03 58.4659C1314.02 59.4697 1314.25 60.3456 1314.7 61.0938C1315.17 61.8419 1315.8 62.4242 1316.62 62.8409C1317.43 63.2576 1318.37 63.4659 1319.43 63.4659ZM1337.26 76.2784C1336.56 76.2784 1335.96 76.0275 1335.46 75.5256C1334.96 75.0237 1334.7 74.4223 1334.7 73.7216C1334.7 73.0208 1334.96 72.4195 1335.46 71.9176C1335.96 71.4157 1336.56 71.1648 1337.26 71.1648C1337.96 71.1648 1338.56 71.4157 1339.07 71.9176C1339.57 72.4195 1339.82 73.0208 1339.82 73.7216C1339.82 74.1856 1339.7 74.6117 1339.46 75C1339.24 75.3883 1338.93 75.7008 1338.54 75.9375C1338.16 76.1648 1337.73 76.2784 1337.26 76.2784ZM1337.26 61.5625C1336.56 61.5625 1335.96 61.3116 1335.46 60.8097C1334.96 60.3078 1334.7 59.7064 1334.7 59.0057C1334.7 58.3049 1334.96 57.7036 1335.46 57.2017C1335.96 56.6998 1336.56 56.4489 1337.26 56.4489C1337.96 56.4489 1338.56 56.6998 1339.07 57.2017C1339.57 57.7036 1339.82 58.3049 1339.82 59.0057C1339.82 59.4697 1339.7 59.8958 1339.46 60.2841C1339.24 60.6723 1338.93 60.9848 1338.54 61.2216C1338.16 61.4489 1337.73 61.5625 1337.26 61.5625ZM1355.27 80.3977C1353.13 80.3977 1351.3 79.8153 1349.8 78.6506C1348.29 77.4763 1347.14 75.7765 1346.35 73.5511C1345.55 71.3163 1345.15 68.6174 1345.15 65.4545C1345.15 62.3106 1345.55 59.6259 1346.35 57.4006C1347.15 55.1657 1348.31 53.4612 1349.81 52.2869C1351.33 51.1032 1353.14 50.5114 1355.27 50.5114C1357.39 50.5114 1359.2 51.1032 1360.71 52.2869C1362.22 53.4612 1363.38 55.1657 1364.17 57.4006C1364.98 59.6259 1365.38 62.3106 1365.38 65.4545C1365.38 68.6174 1364.98 71.3163 1364.19 73.5511C1363.39 75.7765 1362.24 77.4763 1360.73 78.6506C1359.23 79.8153 1357.41 80.3977 1355.27 80.3977ZM1355.27 77.2727C1357.39 77.2727 1359.03 76.25 1360.21 74.2045C1361.38 72.1591 1361.97 69.2424 1361.97 65.4545C1361.97 62.9356 1361.7 60.7907 1361.16 59.0199C1360.63 57.2491 1359.86 55.8996 1358.86 54.9716C1357.87 54.0436 1356.67 53.5795 1355.27 53.5795C1353.16 53.5795 1351.52 54.6165 1350.34 56.6903C1349.15 58.7547 1348.56 61.6761 1348.56 65.4545C1348.56 67.9735 1348.83 70.1136 1349.36 71.875C1349.89 73.6364 1350.65 74.9763 1351.64 75.8949C1352.65 76.8134 1353.85 77.2727 1355.27 77.2727ZM1380.27 80.3977C1378.13 80.3977 1376.3 79.8153 1374.8 78.6506C1373.29 77.4763 1372.14 75.7765 1371.35 73.5511C1370.55 71.3163 1370.15 68.6174 1370.15 65.4545C1370.15 62.3106 1370.55 59.6259 1371.35 57.4006C1372.15 55.1657 1373.31 53.4612 1374.81 52.2869C1376.33 51.1032 1378.14 50.5114 1380.27 50.5114C1382.39 50.5114 1384.2 51.1032 1385.71 52.2869C1387.22 53.4612 1388.38 55.1657 1389.17 57.4006C1389.98 59.6259 1390.38 62.3106 1390.38 65.4545C1390.38 68.6174 1389.98 71.3163 1389.19 73.5511C1388.39 75.7765 1387.24 77.4763 1385.73 78.6506C1384.23 79.8153 1382.41 80.3977 1380.27 80.3977ZM1380.27 77.2727C1382.39 77.2727 1384.03 76.25 1385.21 74.2045C1386.38 72.1591 1386.97 69.2424 1386.97 65.4545C1386.97 62.9356 1386.7 60.7907 1386.16 59.0199C1385.63 57.2491 1384.86 55.8996 1383.86 54.9716C1382.87 54.0436 1381.67 53.5795 1380.27 53.5795C1378.16 53.5795 1376.52 54.6165 1375.34 56.6903C1374.15 58.7547 1373.56 61.6761 1373.56 65.4545C1373.56 67.9735 1373.83 70.1136 1374.36 71.875C1374.89 73.6364 1375.65 74.9763 1376.64 75.8949C1377.65 76.8134 1378.85 77.2727 1380.27 77.2727Z" fill="black"/>
<path opacity="0.8" d="M51.5 152L43.5 141.318H40.6364V152H37.8182V128.727H40.6364V138.818H41.8636L51.1818 128.727H54.5455L45.1364 138.955L54.8636 152H51.5ZM63.2784 152.409C62.1723 152.409 61.1686 152.201 60.267 151.784C59.3655 151.36 58.6496 150.75 58.1193 149.955C57.589 149.152 57.3239 148.182 57.3239 147.045C57.3239 146.045 57.5208 145.235 57.9148 144.614C58.3087 143.985 58.8352 143.492 59.4943 143.136C60.1534 142.78 60.8807 142.515 61.6761 142.341C62.4792 142.159 63.286 142.015 64.0966 141.909C65.1572 141.773 66.017 141.67 66.6761 141.602C67.3428 141.527 67.8277 141.402 68.1307 141.227C68.4413 141.053 68.5966 140.75 68.5966 140.318V140.227C68.5966 139.106 68.2898 138.235 67.6761 137.614C67.0701 136.992 66.1496 136.682 64.9148 136.682C63.6345 136.682 62.6307 136.962 61.9034 137.523C61.1761 138.083 60.6648 138.682 60.3693 139.318L57.8239 138.409C58.2784 137.348 58.8845 136.523 59.642 135.932C60.4072 135.333 61.2405 134.917 62.142 134.682C63.0511 134.439 63.9451 134.318 64.8239 134.318C65.3845 134.318 66.0284 134.386 66.7557 134.523C67.4905 134.652 68.1989 134.92 68.8807 135.33C69.5701 135.739 70.142 136.356 70.5966 137.182C71.0511 138.008 71.2784 139.114 71.2784 140.5V152H68.5966V149.636H68.4602C68.2784 150.015 67.9754 150.42 67.5511 150.852C67.1269 151.284 66.5625 151.652 65.858 151.955C65.1534 152.258 64.2936 152.409 63.2784 152.409ZM63.6875 150C64.7481 150 65.642 149.792 66.3693 149.375C67.1042 148.958 67.6572 148.42 68.0284 147.761C68.4072 147.102 68.5966 146.409 68.5966 145.682V143.227C68.483 143.364 68.233 143.489 67.8466 143.602C67.4678 143.708 67.0284 143.803 66.5284 143.886C66.036 143.962 65.5549 144.03 65.0852 144.091C64.6231 144.144 64.2481 144.189 63.9602 144.227C63.2633 144.318 62.6117 144.466 62.0057 144.67C61.4072 144.867 60.9223 145.167 60.5511 145.568C60.1875 145.962 60.0057 146.5 60.0057 147.182C60.0057 148.114 60.3504 148.818 61.0398 149.295C61.7367 149.765 62.6193 150 63.6875 150ZM75.0824 147.545H77.946C78.0066 148.333 78.3627 148.932 79.0142 149.341C79.6733 149.75 80.5294 149.955 81.5824 149.955C82.6581 149.955 83.5786 149.735 84.3438 149.295C85.1089 148.848 85.4915 148.129 85.4915 147.136C85.4915 146.553 85.3475 146.045 85.0597 145.614C84.7718 145.174 84.3665 144.833 83.8438 144.591C83.321 144.348 82.7036 144.227 81.9915 144.227H78.9915V141.818H81.9915C83.0597 141.818 83.8475 141.576 84.3551 141.091C84.8703 140.606 85.1278 140 85.1278 139.273C85.1278 138.492 84.8513 137.867 84.2983 137.398C83.7453 136.92 82.9612 136.682 81.946 136.682C80.9233 136.682 80.071 136.913 79.3892 137.375C78.7074 137.83 78.3475 138.417 78.3097 139.136H75.4915C75.5218 138.197 75.8097 137.367 76.3551 136.648C76.9006 135.92 77.643 135.352 78.5824 134.943C79.5218 134.527 80.5975 134.318 81.8097 134.318C83.0369 134.318 84.1013 134.534 85.0028 134.966C85.9119 135.39 86.6127 135.97 87.1051 136.705C87.6051 137.432 87.8551 138.258 87.8551 139.182C87.8551 140.167 87.5786 140.962 87.0256 141.568C86.4725 142.174 85.7794 142.606 84.946 142.864V143.045C85.6051 143.091 86.1771 143.303 86.6619 143.682C87.1544 144.053 87.5369 144.542 87.8097 145.148C88.0824 145.746 88.2188 146.409 88.2188 147.136C88.2188 148.197 87.9347 149.121 87.3665 149.909C86.7983 150.689 86.018 151.295 85.0256 151.727C84.0331 152.152 82.9006 152.364 81.6278 152.364C80.393 152.364 79.2869 152.163 78.3097 151.761C77.3324 151.352 76.5559 150.788 75.9801 150.068C75.4119 149.341 75.1127 148.5 75.0824 147.545ZM97.1222 152.409C96.0161 152.409 95.0123 152.201 94.1108 151.784C93.2093 151.36 92.4934 150.75 91.9631 149.955C91.4328 149.152 91.1676 148.182 91.1676 147.045C91.1676 146.045 91.3646 145.235 91.7585 144.614C92.1525 143.985 92.679 143.492 93.3381 143.136C93.9972 142.78 94.7244 142.515 95.5199 142.341C96.3229 142.159 97.1297 142.015 97.9403 141.909C99.0009 141.773 99.8608 141.67 100.52 141.602C101.187 141.527 101.671 141.402 101.974 141.227C102.285 141.053 102.44 140.75 102.44 140.318V140.227C102.44 139.106 102.134 138.235 101.52 137.614C100.914 136.992 99.9934 136.682 98.7585 136.682C97.4782 136.682 96.4744 136.962 95.7472 137.523C95.0199 138.083 94.5085 138.682 94.2131 139.318L91.6676 138.409C92.1222 137.348 92.7282 136.523 93.4858 135.932C94.2509 135.333 95.0843 134.917 95.9858 134.682C96.8949 134.439 97.7888 134.318 98.6676 134.318C99.2282 134.318 99.8722 134.386 100.599 134.523C101.334 134.652 102.043 134.92 102.724 135.33C103.414 135.739 103.986 136.356 104.44 137.182C104.895 138.008 105.122 139.114 105.122 140.5V152H102.44V149.636H102.304C102.122 150.015 101.819 150.42 101.395 150.852C100.971 151.284 100.406 151.652 99.7017 151.955C98.9972 152.258 98.1373 152.409 97.1222 152.409ZM97.5312 150C98.5919 150 99.4858 149.792 100.213 149.375C100.948 148.958 101.501 148.42 101.872 147.761C102.251 147.102 102.44 146.409 102.44 145.682V143.227C102.327 143.364 102.077 143.489 101.69 143.602C101.312 143.708 100.872 143.803 100.372 143.886C99.8797 143.962 99.3987 144.03 98.929 144.091C98.4669 144.144 98.0919 144.189 97.804 144.227C97.107 144.318 96.4555 144.466 95.8494 144.67C95.2509 144.867 94.7661 145.167 94.3949 145.568C94.0313 145.962 93.8494 146.5 93.8494 147.182C93.8494 148.114 94.1941 148.818 94.8835 149.295C95.5805 149.765 96.4631 150 97.5312 150ZM121.699 142.045V144.545H112.062V142.045H121.699ZM112.699 134.545V152H110.017V134.545H112.699ZM123.744 134.545V152H121.062V134.545H123.744ZM130.96 140.864H135.96C138.006 140.864 139.57 141.383 140.653 142.42C141.737 143.458 142.278 144.773 142.278 146.364C142.278 147.409 142.036 148.36 141.551 149.216C141.066 150.064 140.354 150.742 139.415 151.25C138.475 151.75 137.324 152 135.96 152H128.642V134.545H131.324V149.5H135.96C137.021 149.5 137.892 149.22 138.574 148.659C139.256 148.098 139.597 147.379 139.597 146.5C139.597 145.576 139.256 144.822 138.574 144.239C137.892 143.655 137.021 143.364 135.96 143.364H130.96V140.864Z" fill="black"/>
<defs>
<linearGradient id="paint0_linear_152_159" x1="720" y1="0" x2="720" y2="167" gradientUnits="userSpaceOnUse">
<stop stop-color="#FFD9D9"/>
<stop offset="1" stop-color="#FFD9D9" stop-opacity="0"/>
</linearGradient>
</defs>
</svg>
