<svg width="1440" height="167" viewBox="0 0 1440 167" fill="none" xmlns="http://www.w3.org/2000/svg">
<rect x="0.5" y="0.5" width="1439" height="166" fill="url(#paint0_linear_116_501)" stroke="black"/>
<path d="M33.0227 71.0455V60.875H34.8977C35.5417 60.2879 36.1477 59.4593 36.7159 58.3892C37.2936 57.3097 37.7812 55.8703 38.179 54.071C38.5862 52.2623 38.8561 49.9659 38.9886 47.1818L39.6136 34.9091H56.8864V60.875H60.2386V70.9886H56.8864V64H36.375V71.0455H33.0227ZM39.1023 60.875H53.5341V38.0341H42.7955L42.3409 47.1818C42.2273 49.303 42.0284 51.2254 41.7443 52.9489C41.4602 54.6629 41.0956 56.1828 40.6506 57.5085C40.2055 58.8248 39.6894 59.947 39.1023 60.875ZM73.9709 64.4545C72.0012 64.4545 70.273 63.9858 68.7862 63.0483C67.3089 62.1108 66.1536 60.7992 65.3203 59.1136C64.4964 57.428 64.0845 55.4583 64.0845 53.2045C64.0845 50.9318 64.4964 48.9479 65.3203 47.2528C66.1536 45.5578 67.3089 44.2415 68.7862 43.304C70.273 42.3665 72.0012 41.8977 73.9709 41.8977C75.9406 41.8977 77.6641 42.3665 79.1413 43.304C80.6281 44.2415 81.7834 45.5578 82.6072 47.2528C83.4406 48.9479 83.8572 50.9318 83.8572 53.2045C83.8572 55.4583 83.4406 57.428 82.6072 59.1136C81.7834 60.7992 80.6281 62.1108 79.1413 63.0483C77.6641 63.9858 75.9406 64.4545 73.9709 64.4545ZM73.9709 61.4432C75.4671 61.4432 76.6982 61.0597 77.6641 60.2926C78.63 59.5256 79.3449 58.517 79.8089 57.267C80.273 56.017 80.505 54.6629 80.505 53.2045C80.505 51.7462 80.273 50.3873 79.8089 49.1278C79.3449 47.8684 78.63 46.8504 77.6641 46.0739C76.6982 45.2973 75.4671 44.9091 73.9709 44.9091C72.4747 44.9091 71.2436 45.2973 70.2777 46.0739C69.3118 46.8504 68.5968 47.8684 68.1328 49.1278C67.6688 50.3873 67.4368 51.7462 67.4368 53.2045C67.4368 54.6629 67.6688 56.017 68.1328 57.267C68.5968 58.517 69.3118 59.5256 70.2777 60.2926C71.2436 61.0597 72.4747 61.4432 73.9709 61.4432ZM97.8381 64.4545C95.7926 64.4545 94.0313 63.9716 92.554 63.0057C91.0767 62.0398 89.9403 60.7093 89.1449 59.0142C88.3494 57.3191 87.9517 55.3826 87.9517 53.2045C87.9517 50.9886 88.3589 49.0331 89.1733 47.3381C89.9972 45.6335 91.143 44.303 92.6108 43.3466C94.0881 42.3807 95.8116 41.8977 97.7812 41.8977C99.3153 41.8977 100.698 42.1818 101.929 42.75C103.16 43.3182 104.169 44.1136 104.955 45.1364C105.741 46.1591 106.228 47.3523 106.418 48.7159H103.065C102.81 47.7216 102.241 46.8409 101.361 46.0739C100.49 45.2973 99.3153 44.9091 97.8381 44.9091C96.5313 44.9091 95.3854 45.25 94.4006 45.9318C93.4252 46.6042 92.6629 47.5559 92.1136 48.7869C91.5739 50.0085 91.304 51.4432 91.304 53.0909C91.304 54.7765 91.5691 56.2443 92.0994 57.4943C92.6392 58.7443 93.3968 59.715 94.3722 60.4062C95.357 61.0975 96.5123 61.4432 97.8381 61.4432C98.7093 61.4432 99.5 61.2917 100.21 60.9886C100.92 60.6856 101.522 60.25 102.014 59.6818C102.507 59.1136 102.857 58.4318 103.065 57.6364H106.418C106.228 58.9242 105.759 60.0843 105.011 61.1165C104.273 62.1392 103.293 62.9536 102.071 63.5597C100.859 64.1562 99.4479 64.4545 97.8381 64.4545ZM109.599 45.3068V42.1818H127.327V45.3068H120.168V64H116.815V45.3068H109.599ZM139.947 64.4545C137.978 64.4545 136.25 63.9858 134.763 63.0483C133.286 62.1108 132.13 60.7992 131.297 59.1136C130.473 57.428 130.061 55.4583 130.061 53.2045C130.061 50.9318 130.473 48.9479 131.297 47.2528C132.13 45.5578 133.286 44.2415 134.763 43.304C136.25 42.3665 137.978 41.8977 139.947 41.8977C141.917 41.8977 143.641 42.3665 145.118 43.304C146.605 44.2415 147.76 45.5578 148.584 47.2528C149.417 48.9479 149.834 50.9318 149.834 53.2045C149.834 55.4583 149.417 57.428 148.584 59.1136C147.76 60.7992 146.605 62.1108 145.118 63.0483C143.641 63.9858 141.917 64.4545 139.947 64.4545ZM139.947 61.4432C141.444 61.4432 142.675 61.0597 143.641 60.2926C144.607 59.5256 145.321 58.517 145.786 57.267C146.25 56.017 146.482 54.6629 146.482 53.2045C146.482 51.7462 146.25 50.3873 145.786 49.1278C145.321 47.8684 144.607 46.8504 143.641 46.0739C142.675 45.2973 141.444 44.9091 139.947 44.9091C138.451 44.9091 137.22 45.2973 136.254 46.0739C135.288 46.8504 134.573 47.8684 134.109 49.1278C133.645 50.3873 133.413 51.7462 133.413 53.2045C133.413 54.6629 133.645 56.017 134.109 57.267C134.573 58.517 135.288 59.5256 136.254 60.2926C137.22 61.0597 138.451 61.4432 139.947 61.4432ZM164.099 64.4545C161.996 64.4545 160.183 63.9905 158.658 63.0625C157.143 62.125 155.974 60.8182 155.15 59.142C154.335 57.4564 153.928 55.4962 153.928 53.2614C153.928 51.0265 154.335 49.0568 155.15 47.3523C155.974 45.6383 157.12 44.303 158.587 43.3466C160.065 42.3807 161.788 41.8977 163.758 41.8977C164.894 41.8977 166.016 42.0871 167.124 42.4659C168.232 42.8447 169.241 43.4602 170.15 44.3125C171.059 45.1553 171.783 46.2727 172.323 47.6648C172.863 49.0568 173.133 50.7708 173.133 52.8068V54.2273H156.315V51.3295H169.724C169.724 50.0985 169.478 49 168.985 48.0341C168.502 47.0682 167.811 46.3059 166.911 45.7472C166.021 45.1884 164.97 44.9091 163.758 44.9091C162.423 44.9091 161.267 45.2405 160.292 45.9034C159.326 46.5568 158.583 47.4091 158.062 48.4602C157.541 49.5114 157.281 50.6383 157.281 51.8409V53.7727C157.281 55.4205 157.565 56.8172 158.133 57.9631C158.71 59.0994 159.511 59.9659 160.533 60.5625C161.556 61.1496 162.745 61.4432 164.099 61.4432C164.979 61.4432 165.775 61.3201 166.485 61.0739C167.205 60.8182 167.825 60.4394 168.346 59.9375C168.867 59.4261 169.269 58.7917 169.553 58.0341L172.792 58.9432C172.451 60.0417 171.878 61.0076 171.073 61.8409C170.268 62.6648 169.274 63.3087 168.09 63.7727C166.906 64.2273 165.576 64.4545 164.099 64.4545ZM178.232 64V42.1818H187.153C189.501 42.1818 191.367 42.7121 192.749 43.7727C194.132 44.8333 194.823 46.2348 194.823 47.9773C194.823 49.303 194.43 50.3305 193.644 51.0597C192.858 51.7794 191.85 52.267 190.619 52.5227C191.424 52.6364 192.205 52.9205 192.962 53.375C193.729 53.8295 194.364 54.4545 194.866 55.25C195.368 56.036 195.619 57.0019 195.619 58.1477C195.619 59.2652 195.335 60.2642 194.766 61.1449C194.198 62.0256 193.384 62.7216 192.323 63.233C191.263 63.7443 189.994 64 188.516 64H178.232ZM181.414 60.9318H188.516C189.672 60.9318 190.576 60.6572 191.229 60.108C191.883 59.5587 192.21 58.8106 192.21 57.8636C192.21 56.7367 191.883 55.8513 191.229 55.2074C190.576 54.554 189.672 54.2273 188.516 54.2273H181.414V60.9318ZM181.414 51.3295H187.153C188.052 51.3295 188.824 51.2064 189.468 50.9602C190.112 50.7045 190.604 50.3447 190.945 49.8807C191.296 49.4072 191.471 48.8485 191.471 48.2045C191.471 47.286 191.087 46.5663 190.32 46.0455C189.553 45.5152 188.497 45.25 187.153 45.25H181.414V51.3295ZM209.557 64.4545C207.511 64.4545 205.75 63.9716 204.273 63.0057C202.795 62.0398 201.659 60.7093 200.864 59.0142C200.068 57.3191 199.67 55.3826 199.67 53.2045C199.67 50.9886 200.078 49.0331 200.892 47.3381C201.716 45.6335 202.862 44.303 204.33 43.3466C205.807 42.3807 207.53 41.8977 209.5 41.8977C211.034 41.8977 212.417 42.1818 213.648 42.75C214.879 43.3182 215.887 44.1136 216.673 45.1364C217.459 46.1591 217.947 47.3523 218.136 48.7159H214.784C214.528 47.7216 213.96 46.8409 213.08 46.0739C212.208 45.2973 211.034 44.9091 209.557 44.9091C208.25 44.9091 207.104 45.25 206.119 45.9318C205.144 46.6042 204.382 47.5559 203.832 48.7869C203.293 50.0085 203.023 51.4432 203.023 53.0909C203.023 54.7765 203.288 56.2443 203.818 57.4943C204.358 58.7443 205.116 59.715 206.091 60.4062C207.076 61.0975 208.231 61.4432 209.557 61.4432C210.428 61.4432 211.219 61.2917 211.929 60.9886C212.639 60.6856 213.241 60.25 213.733 59.6818C214.225 59.1136 214.576 58.4318 214.784 57.6364H218.136C217.947 58.9242 217.478 60.0843 216.73 61.1165C215.991 62.1392 215.011 62.9536 213.79 63.5597C212.578 64.1562 211.167 64.4545 209.557 64.4545ZM223.037 64V42.1818H226.389V51.6705H228.605L236.446 42.1818H240.764L231.957 52.6932L240.878 64H236.56L229.401 54.7955H226.389V64H223.037ZM252.487 64.4545C250.517 64.4545 248.789 63.9858 247.302 63.0483C245.825 62.1108 244.669 60.7992 243.836 59.1136C243.012 57.428 242.6 55.4583 242.6 53.2045C242.6 50.9318 243.012 48.9479 243.836 47.2528C244.669 45.5578 245.825 44.2415 247.302 43.304C248.789 42.3665 250.517 41.8977 252.487 41.8977C254.456 41.8977 256.18 42.3665 257.657 43.304C259.144 44.2415 260.299 45.5578 261.123 47.2528C261.956 48.9479 262.373 50.9318 262.373 53.2045C262.373 55.4583 261.956 57.428 261.123 59.1136C260.299 60.7992 259.144 62.1108 257.657 63.0483C256.18 63.9858 254.456 64.4545 252.487 64.4545ZM252.487 61.4432C253.983 61.4432 255.214 61.0597 256.18 60.2926C257.146 59.5256 257.861 58.517 258.325 57.267C258.789 56.017 259.021 54.6629 259.021 53.2045C259.021 51.7462 258.789 50.3873 258.325 49.1278C257.861 47.8684 257.146 46.8504 256.18 46.0739C255.214 45.2973 253.983 44.9091 252.487 44.9091C250.99 44.9091 249.759 45.2973 248.793 46.0739C247.827 46.8504 247.112 47.8684 246.648 49.1278C246.184 50.3873 245.952 51.7462 245.952 53.2045C245.952 54.6629 246.184 56.017 246.648 57.267C247.112 58.517 247.827 59.5256 248.793 60.2926C249.759 61.0597 250.99 61.4432 252.487 61.4432ZM280.956 42.1818V45.3068H270.842V64H267.49V42.1818H280.956ZM293.58 64.4545C291.611 64.4545 289.882 63.9858 288.396 63.0483C286.918 62.1108 285.763 60.7992 284.93 59.1136C284.106 57.428 283.694 55.4583 283.694 53.2045C283.694 50.9318 284.106 48.9479 284.93 47.2528C285.763 45.5578 286.918 44.2415 288.396 43.304C289.882 42.3665 291.611 41.8977 293.58 41.8977C295.55 41.8977 297.273 42.3665 298.751 43.304C300.237 44.2415 301.393 45.5578 302.217 47.2528C303.05 48.9479 303.467 50.9318 303.467 53.2045C303.467 55.4583 303.05 57.428 302.217 59.1136C301.393 60.7992 300.237 62.1108 298.751 63.0483C297.273 63.9858 295.55 64.4545 293.58 64.4545ZM293.58 61.4432C295.076 61.4432 296.308 61.0597 297.273 60.2926C298.239 59.5256 298.954 58.517 299.418 57.267C299.882 56.017 300.114 54.6629 300.114 53.2045C300.114 51.7462 299.882 50.3873 299.418 49.1278C298.954 47.8684 298.239 46.8504 297.273 46.0739C296.308 45.2973 295.076 44.9091 293.58 44.9091C292.084 44.9091 290.853 45.2973 289.887 46.0739C288.921 46.8504 288.206 47.8684 287.742 49.1278C287.278 50.3873 287.046 51.7462 287.046 53.2045C287.046 54.6629 287.278 56.017 287.742 57.267C288.206 58.517 288.921 59.5256 289.887 60.2926C290.853 61.0597 292.084 61.4432 293.58 61.4432ZM321.993 72.1818C321.425 72.1818 320.918 72.1345 320.473 72.0398C320.028 71.9545 319.72 71.8693 319.55 71.7841L320.402 68.8295C321.216 69.0379 321.936 69.1136 322.561 69.0568C323.186 69 323.74 68.7206 324.223 68.2188C324.715 67.7263 325.165 66.9261 325.572 65.8182L326.197 64.1136L318.129 42.1818H321.766L327.788 59.5682H328.016L334.038 42.1818H337.675L328.413 67.1818C327.997 68.3087 327.481 69.2415 326.865 69.9801C326.25 70.7282 325.535 71.2822 324.72 71.642C323.915 72.0019 323.006 72.1818 321.993 72.1818ZM338.332 64V60.875H339.127C339.781 60.875 340.325 60.7472 340.761 60.4915C341.196 60.2263 341.547 59.767 341.812 59.1136C342.086 58.4508 342.295 57.5322 342.437 56.358C342.588 55.1742 342.697 53.6686 342.763 51.8409L343.161 42.1818H357.707V64H354.354V45.3068H346.343L346.002 53.0909C345.926 54.8807 345.765 56.4574 345.519 57.821C345.282 59.1752 344.918 60.3116 344.425 61.2301C343.942 62.1487 343.299 62.84 342.494 63.304C341.689 63.768 340.68 64 339.468 64H338.332ZM366.3 64.2273C365.6 64.2273 364.998 63.9763 364.496 63.4744C363.995 62.9725 363.744 62.3712 363.744 61.6705C363.744 60.9697 363.995 60.3684 364.496 59.8665C364.998 59.3646 365.6 59.1136 366.3 59.1136C367.001 59.1136 367.603 59.3646 368.104 59.8665C368.606 60.3684 368.857 60.9697 368.857 61.6705C368.857 62.1345 368.739 62.5606 368.502 62.9489C368.275 63.3371 367.967 63.6496 367.579 63.8864C367.2 64.1136 366.774 64.2273 366.3 64.2273ZM386.975 64L399.987 38.2614V38.0341H384.987V34.9091H403.623V38.2045L390.668 64H386.975Z" fill="black"/>
<path opacity="0.8" d="M48.5 143L40.5 132.318H37.6364V143H34.8182V119.727H37.6364V129.818H38.8636L48.1818 119.727H51.5455L42.1364 129.955L51.8636 143H48.5ZM60.2784 143.409C59.1723 143.409 58.1686 143.201 57.267 142.784C56.3655 142.36 55.6496 141.75 55.1193 140.955C54.589 140.152 54.3239 139.182 54.3239 138.045C54.3239 137.045 54.5208 136.235 54.9148 135.614C55.3087 134.985 55.8352 134.492 56.4943 134.136C57.1534 133.78 57.8807 133.515 58.6761 133.341C59.4792 133.159 60.286 133.015 61.0966 132.909C62.1572 132.773 63.017 132.67 63.6761 132.602C64.3428 132.527 64.8277 132.402 65.1307 132.227C65.4413 132.053 65.5966 131.75 65.5966 131.318V131.227C65.5966 130.106 65.2898 129.235 64.6761 128.614C64.0701 127.992 63.1496 127.682 61.9148 127.682C60.6345 127.682 59.6307 127.962 58.9034 128.523C58.1761 129.083 57.6648 129.682 57.3693 130.318L54.8239 129.409C55.2784 128.348 55.8845 127.523 56.642 126.932C57.4072 126.333 58.2405 125.917 59.142 125.682C60.0511 125.439 60.9451 125.318 61.8239 125.318C62.3845 125.318 63.0284 125.386 63.7557 125.523C64.4905 125.652 65.1989 125.92 65.8807 126.33C66.5701 126.739 67.142 127.356 67.5966 128.182C68.0511 129.008 68.2784 130.114 68.2784 131.5V143H65.5966V140.636H65.4602C65.2784 141.015 64.9754 141.42 64.5511 141.852C64.1269 142.284 63.5625 142.652 62.858 142.955C62.1534 143.258 61.2936 143.409 60.2784 143.409ZM60.6875 141C61.7481 141 62.642 140.792 63.3693 140.375C64.1042 139.958 64.6572 139.42 65.0284 138.761C65.4072 138.102 65.5966 137.409 65.5966 136.682V134.227C65.483 134.364 65.233 134.489 64.8466 134.602C64.4678 134.708 64.0284 134.803 63.5284 134.886C63.036 134.962 62.5549 135.03 62.0852 135.091C61.6231 135.144 61.2481 135.189 60.9602 135.227C60.2633 135.318 59.6117 135.466 59.0057 135.67C58.4072 135.867 57.9223 136.167 57.5511 136.568C57.1875 136.962 57.0057 137.5 57.0057 138.182C57.0057 139.114 57.3504 139.818 58.0398 140.295C58.7367 140.765 59.6193 141 60.6875 141ZM72.0824 138.545H74.946C75.0066 139.333 75.3627 139.932 76.0142 140.341C76.6733 140.75 77.5294 140.955 78.5824 140.955C79.6581 140.955 80.5786 140.735 81.3438 140.295C82.1089 139.848 82.4915 139.129 82.4915 138.136C82.4915 137.553 82.3475 137.045 82.0597 136.614C81.7718 136.174 81.3665 135.833 80.8438 135.591C80.321 135.348 79.7036 135.227 78.9915 135.227H75.9915V132.818H78.9915C80.0597 132.818 80.8475 132.576 81.3551 132.091C81.8703 131.606 82.1278 131 82.1278 130.273C82.1278 129.492 81.8513 128.867 81.2983 128.398C80.7453 127.92 79.9612 127.682 78.946 127.682C77.9233 127.682 77.071 127.913 76.3892 128.375C75.7074 128.83 75.3475 129.417 75.3097 130.136H72.4915C72.5218 129.197 72.8097 128.367 73.3551 127.648C73.9006 126.92 74.643 126.352 75.5824 125.943C76.5218 125.527 77.5975 125.318 78.8097 125.318C80.0369 125.318 81.1013 125.534 82.0028 125.966C82.9119 126.39 83.6127 126.97 84.1051 127.705C84.6051 128.432 84.8551 129.258 84.8551 130.182C84.8551 131.167 84.5786 131.962 84.0256 132.568C83.4725 133.174 82.7794 133.606 81.946 133.864V134.045C82.6051 134.091 83.1771 134.303 83.6619 134.682C84.1544 135.053 84.5369 135.542 84.8097 136.148C85.0824 136.746 85.2188 137.409 85.2188 138.136C85.2188 139.197 84.9347 140.121 84.3665 140.909C83.7983 141.689 83.018 142.295 82.0256 142.727C81.0331 143.152 79.9006 143.364 78.6278 143.364C77.393 143.364 76.2869 143.163 75.3097 142.761C74.3324 142.352 73.5559 141.788 72.9801 141.068C72.4119 140.341 72.1127 139.5 72.0824 138.545ZM94.1222 143.409C93.0161 143.409 92.0123 143.201 91.1108 142.784C90.2093 142.36 89.4934 141.75 88.9631 140.955C88.4328 140.152 88.1676 139.182 88.1676 138.045C88.1676 137.045 88.3646 136.235 88.7585 135.614C89.1525 134.985 89.679 134.492 90.3381 134.136C90.9972 133.78 91.7244 133.515 92.5199 133.341C93.3229 133.159 94.1297 133.015 94.9403 132.909C96.0009 132.773 96.8608 132.67 97.5199 132.602C98.1866 132.527 98.6714 132.402 98.9744 132.227C99.285 132.053 99.4403 131.75 99.4403 131.318V131.227C99.4403 130.106 99.1335 129.235 98.5199 128.614C97.9138 127.992 96.9934 127.682 95.7585 127.682C94.4782 127.682 93.4744 127.962 92.7472 128.523C92.0199 129.083 91.5085 129.682 91.2131 130.318L88.6676 129.409C89.1222 128.348 89.7282 127.523 90.4858 126.932C91.2509 126.333 92.0843 125.917 92.9858 125.682C93.8949 125.439 94.7888 125.318 95.6676 125.318C96.2282 125.318 96.8722 125.386 97.5994 125.523C98.3343 125.652 99.0426 125.92 99.7244 126.33C100.414 126.739 100.986 127.356 101.44 128.182C101.895 129.008 102.122 130.114 102.122 131.5V143H99.4403V140.636H99.304C99.1222 141.015 98.8191 141.42 98.3949 141.852C97.9706 142.284 97.4063 142.652 96.7017 142.955C95.9972 143.258 95.1373 143.409 94.1222 143.409ZM94.5312 141C95.5919 141 96.4858 140.792 97.2131 140.375C97.9479 139.958 98.5009 139.42 98.8722 138.761C99.2509 138.102 99.4403 137.409 99.4403 136.682V134.227C99.3267 134.364 99.0767 134.489 98.6903 134.602C98.3116 134.708 97.8722 134.803 97.3722 134.886C96.8797 134.962 96.3987 135.03 95.929 135.091C95.4669 135.144 95.0919 135.189 94.804 135.227C94.107 135.318 93.4555 135.466 92.8494 135.67C92.2509 135.867 91.7661 136.167 91.3949 136.568C91.0313 136.962 90.8494 137.5 90.8494 138.182C90.8494 139.114 91.1941 139.818 91.8835 140.295C92.5805 140.765 93.4631 141 94.5312 141ZM118.699 133.045V135.545H109.062V133.045H118.699ZM109.699 125.545V143H107.017V125.545H109.699ZM120.744 125.545V143H118.062V125.545H120.744ZM127.96 131.864H132.96C135.006 131.864 136.57 132.383 137.653 133.42C138.737 134.458 139.278 135.773 139.278 137.364C139.278 138.409 139.036 139.36 138.551 140.216C138.066 141.064 137.354 141.742 136.415 142.25C135.475 142.75 134.324 143 132.96 143H125.642V125.545H128.324V140.5H132.96C134.021 140.5 134.892 140.22 135.574 139.659C136.256 139.098 136.597 138.379 136.597 137.5C136.597 136.576 136.256 135.822 135.574 135.239C134.892 134.655 134.021 134.364 132.96 134.364H127.96V131.864Z" fill="black"/>
<path d="M1153.24 40.9091V70H1149.72V44.6023H1149.55L1142.44 49.3182V45.7386L1149.72 40.9091H1153.24ZM1170.7 70.3977C1169.03 70.3977 1167.53 70.0663 1166.19 69.4034C1164.86 68.7405 1163.79 67.8314 1162.98 66.6761C1162.18 65.5208 1161.74 64.2045 1161.66 62.7273H1165.07C1165.2 64.0436 1165.8 65.1326 1166.86 65.9943C1167.93 66.8466 1169.21 67.2727 1170.7 67.2727C1171.89 67.2727 1172.95 66.9934 1173.88 66.4347C1174.82 65.8759 1175.55 65.1089 1176.08 64.1335C1176.62 63.1487 1176.89 62.036 1176.89 60.7955C1176.89 59.5265 1176.61 58.3949 1176.05 57.4006C1175.5 56.3968 1174.74 55.6061 1173.78 55.0284C1172.81 54.4508 1171.71 54.1572 1170.47 54.1477C1169.58 54.1383 1168.66 54.2756 1167.73 54.5597C1166.79 54.8343 1166.02 55.1894 1165.41 55.625L1162.12 55.2273L1163.88 40.9091H1178.99V44.0341H1166.83L1165.81 52.6136H1165.98C1166.58 52.1402 1167.32 51.7472 1168.22 51.4347C1169.12 51.1222 1170.06 50.9659 1171.04 50.9659C1172.82 50.9659 1174.4 51.392 1175.8 52.2443C1177.2 53.0871 1178.3 54.2424 1179.09 55.7102C1179.9 57.178 1180.3 58.8542 1180.3 60.7386C1180.3 62.5947 1179.88 64.2519 1179.05 65.7102C1178.22 67.1591 1177.09 68.3049 1175.64 69.1477C1174.19 69.9811 1172.54 70.3977 1170.7 70.3977ZM1188.44 66.2784C1187.74 66.2784 1187.14 66.0275 1186.64 65.5256C1186.14 65.0237 1185.88 64.4223 1185.88 63.7216C1185.88 63.0208 1186.14 62.4195 1186.64 61.9176C1187.14 61.4157 1187.74 61.1648 1188.44 61.1648C1189.14 61.1648 1189.74 61.4157 1190.25 61.9176C1190.75 62.4195 1191 63.0208 1191 63.7216C1191 64.1856 1190.88 64.6117 1190.64 65C1190.42 65.3883 1190.11 65.7008 1189.72 65.9375C1189.34 66.1648 1188.91 66.2784 1188.44 66.2784ZM1188.44 51.5625C1187.74 51.5625 1187.14 51.3116 1186.64 50.8097C1186.14 50.3078 1185.88 49.7064 1185.88 49.0057C1185.88 48.3049 1186.14 47.7036 1186.64 47.2017C1187.14 46.6998 1187.74 46.4489 1188.44 46.4489C1189.14 46.4489 1189.74 46.6998 1190.25 47.2017C1190.75 47.7036 1191 48.3049 1191 49.0057C1191 49.4697 1190.88 49.8958 1190.64 50.2841C1190.42 50.6723 1190.11 50.9848 1189.72 51.2216C1189.34 51.4489 1188.91 51.5625 1188.44 51.5625ZM1206.45 70.3977C1204.31 70.3977 1202.48 69.8153 1200.98 68.6506C1199.47 67.4763 1198.32 65.7765 1197.52 63.5511C1196.73 61.3163 1196.33 58.6174 1196.33 55.4545C1196.33 52.3106 1196.73 49.6259 1197.52 47.4006C1198.33 45.1657 1199.49 43.4612 1200.99 42.2869C1202.51 41.1032 1204.32 40.5114 1206.45 40.5114C1208.57 40.5114 1210.38 41.1032 1211.89 42.2869C1213.4 43.4612 1214.56 45.1657 1215.35 47.4006C1216.16 49.6259 1216.56 52.3106 1216.56 55.4545C1216.56 58.6174 1216.16 61.3163 1215.37 63.5511C1214.57 65.7765 1213.42 67.4763 1211.91 68.6506C1210.41 69.8153 1208.59 70.3977 1206.45 70.3977ZM1206.45 67.2727C1208.57 67.2727 1210.21 66.25 1211.39 64.2045C1212.56 62.1591 1213.15 59.2424 1213.15 55.4545C1213.15 52.9356 1212.88 50.7907 1212.34 49.0199C1211.81 47.2491 1211.04 45.8996 1210.04 44.9716C1209.04 44.0436 1207.85 43.5795 1206.45 43.5795C1204.34 43.5795 1202.7 44.6165 1201.52 46.6903C1200.33 48.7547 1199.74 51.6761 1199.74 55.4545C1199.74 57.9735 1200.01 60.1136 1200.54 61.875C1201.07 63.6364 1201.83 64.9763 1202.82 65.8949C1203.83 66.8134 1205.03 67.2727 1206.45 67.2727ZM1231.45 70.3977C1229.31 70.3977 1227.48 69.8153 1225.98 68.6506C1224.47 67.4763 1223.32 65.7765 1222.52 63.5511C1221.73 61.3163 1221.33 58.6174 1221.33 55.4545C1221.33 52.3106 1221.73 49.6259 1222.52 47.4006C1223.33 45.1657 1224.49 43.4612 1225.99 42.2869C1227.51 41.1032 1229.32 40.5114 1231.45 40.5114C1233.57 40.5114 1235.38 41.1032 1236.89 42.2869C1238.4 43.4612 1239.56 45.1657 1240.35 47.4006C1241.16 49.6259 1241.56 52.3106 1241.56 55.4545C1241.56 58.6174 1241.16 61.3163 1240.37 63.5511C1239.57 65.7765 1238.42 67.4763 1236.91 68.6506C1235.41 69.8153 1233.59 70.3977 1231.45 70.3977ZM1231.45 67.2727C1233.57 67.2727 1235.21 66.25 1236.39 64.2045C1237.56 62.1591 1238.15 59.2424 1238.15 55.4545C1238.15 52.9356 1237.88 50.7907 1237.34 49.0199C1236.81 47.2491 1236.04 45.8996 1235.04 44.9716C1234.04 44.0436 1232.85 43.5795 1231.45 43.5795C1229.34 43.5795 1227.7 44.6165 1226.52 46.6903C1225.33 48.7547 1224.74 51.6761 1224.74 55.4545C1224.74 57.9735 1225.01 60.1136 1225.54 61.875C1226.07 63.6364 1226.83 64.9763 1227.82 65.8949C1228.83 66.8134 1230.03 67.2727 1231.45 67.2727ZM1270.76 53.892V57.017H1258.04V53.892H1270.76ZM1297.34 70.3977C1295.2 70.3977 1293.38 69.8153 1291.88 68.6506C1290.37 67.4763 1289.22 65.7765 1288.42 63.5511C1287.63 61.3163 1287.23 58.6174 1287.23 55.4545C1287.23 52.3106 1287.63 49.6259 1288.42 47.4006C1289.23 45.1657 1290.38 43.4612 1291.89 42.2869C1293.4 41.1032 1295.22 40.5114 1297.34 40.5114C1299.46 40.5114 1301.28 41.1032 1302.78 42.2869C1304.3 43.4612 1305.45 45.1657 1306.25 47.4006C1307.05 49.6259 1307.46 52.3106 1307.46 55.4545C1307.46 58.6174 1307.06 61.3163 1306.26 63.5511C1305.47 65.7765 1304.32 67.4763 1302.81 68.6506C1301.31 69.8153 1299.48 70.3977 1297.34 70.3977ZM1297.34 67.2727C1299.46 67.2727 1301.11 66.25 1302.29 64.2045C1303.46 62.1591 1304.05 59.2424 1304.05 55.4545C1304.05 52.9356 1303.78 50.7907 1303.24 49.0199C1302.71 47.2491 1301.94 45.8996 1300.94 44.9716C1299.94 44.0436 1298.75 43.5795 1297.34 43.5795C1295.24 43.5795 1293.6 44.6165 1292.41 46.6903C1291.23 48.7547 1290.64 51.6761 1290.64 55.4545C1290.64 57.9735 1290.9 60.1136 1291.43 61.875C1291.96 63.6364 1292.73 64.9763 1293.72 65.8949C1294.73 66.8134 1295.93 67.2727 1297.34 67.2727ZM1322.34 70.3977C1320.2 70.3977 1318.38 69.8153 1316.88 68.6506C1315.37 67.4763 1314.22 65.7765 1313.42 63.5511C1312.63 61.3163 1312.23 58.6174 1312.23 55.4545C1312.23 52.3106 1312.63 49.6259 1313.42 47.4006C1314.23 45.1657 1315.38 43.4612 1316.89 42.2869C1318.4 41.1032 1320.22 40.5114 1322.34 40.5114C1324.46 40.5114 1326.28 41.1032 1327.78 42.2869C1329.3 43.4612 1330.45 45.1657 1331.25 47.4006C1332.05 49.6259 1332.46 52.3106 1332.46 55.4545C1332.46 58.6174 1332.06 61.3163 1331.26 63.5511C1330.47 65.7765 1329.32 67.4763 1327.81 68.6506C1326.31 69.8153 1324.48 70.3977 1322.34 70.3977ZM1322.34 67.2727C1324.46 67.2727 1326.11 66.25 1327.29 64.2045C1328.46 62.1591 1329.05 59.2424 1329.05 55.4545C1329.05 52.9356 1328.78 50.7907 1328.24 49.0199C1327.71 47.2491 1326.94 45.8996 1325.94 44.9716C1324.94 44.0436 1323.75 43.5795 1322.34 43.5795C1320.24 43.5795 1318.6 44.6165 1317.41 46.6903C1316.23 48.7547 1315.64 51.6761 1315.64 55.4545C1315.64 57.9735 1315.9 60.1136 1316.43 61.875C1316.96 63.6364 1317.73 64.9763 1318.72 65.8949C1319.73 66.8134 1320.93 67.2727 1322.34 67.2727ZM1340.36 66.2784C1339.65 66.2784 1339.05 66.0275 1338.55 65.5256C1338.05 65.0237 1337.8 64.4223 1337.8 63.7216C1337.8 63.0208 1338.05 62.4195 1338.55 61.9176C1339.05 61.4157 1339.65 61.1648 1340.36 61.1648C1341.06 61.1648 1341.66 61.4157 1342.16 61.9176C1342.66 62.4195 1342.91 63.0208 1342.91 63.7216C1342.91 64.1856 1342.79 64.6117 1342.56 65C1342.33 65.3883 1342.02 65.7008 1341.63 65.9375C1341.25 66.1648 1340.83 66.2784 1340.36 66.2784ZM1340.36 51.5625C1339.65 51.5625 1339.05 51.3116 1338.55 50.8097C1338.05 50.3078 1337.8 49.7064 1337.8 49.0057C1337.8 48.3049 1338.05 47.7036 1338.55 47.2017C1339.05 46.6998 1339.65 46.4489 1340.36 46.4489C1341.06 46.4489 1341.66 46.6998 1342.16 47.2017C1342.66 47.7036 1342.91 48.3049 1342.91 49.0057C1342.91 49.4697 1342.79 49.8958 1342.56 50.2841C1342.33 50.6723 1342.02 50.9848 1341.63 51.2216C1341.25 51.4489 1340.83 51.5625 1340.36 51.5625ZM1358.36 70.3977C1356.22 70.3977 1354.4 69.8153 1352.89 68.6506C1351.38 67.4763 1350.23 65.7765 1349.44 63.5511C1348.64 61.3163 1348.25 58.6174 1348.25 55.4545C1348.25 52.3106 1348.64 49.6259 1349.44 47.4006C1350.24 45.1657 1351.4 43.4612 1352.9 42.2869C1354.42 41.1032 1356.24 40.5114 1358.36 40.5114C1360.48 40.5114 1362.29 41.1032 1363.8 42.2869C1365.31 43.4612 1366.47 45.1657 1367.27 47.4006C1368.07 49.6259 1368.47 52.3106 1368.47 55.4545C1368.47 58.6174 1368.08 61.3163 1367.28 63.5511C1366.48 65.7765 1365.33 67.4763 1363.83 68.6506C1362.32 69.8153 1360.5 70.3977 1358.36 70.3977ZM1358.36 67.2727C1360.48 67.2727 1362.13 66.25 1363.3 64.2045C1364.48 62.1591 1365.06 59.2424 1365.06 55.4545C1365.06 52.9356 1364.79 50.7907 1364.25 49.0199C1363.72 47.2491 1362.96 45.8996 1361.95 44.9716C1360.96 44.0436 1359.76 43.5795 1358.36 43.5795C1356.26 43.5795 1354.61 44.6165 1353.43 46.6903C1352.25 48.7547 1351.65 51.6761 1351.65 55.4545C1351.65 57.9735 1351.92 60.1136 1352.45 61.875C1352.98 63.6364 1353.74 64.9763 1354.74 65.8949C1355.74 66.8134 1356.95 67.2727 1358.36 67.2727ZM1383.36 70.3977C1381.22 70.3977 1379.4 69.8153 1377.89 68.6506C1376.38 67.4763 1375.23 65.7765 1374.44 63.5511C1373.64 61.3163 1373.25 58.6174 1373.25 55.4545C1373.25 52.3106 1373.64 49.6259 1374.44 47.4006C1375.24 45.1657 1376.4 43.4612 1377.9 42.2869C1379.42 41.1032 1381.24 40.5114 1383.36 40.5114C1385.48 40.5114 1387.29 41.1032 1388.8 42.2869C1390.31 43.4612 1391.47 45.1657 1392.27 47.4006C1393.07 49.6259 1393.47 52.3106 1393.47 55.4545C1393.47 58.6174 1393.08 61.3163 1392.28 63.5511C1391.48 65.7765 1390.33 67.4763 1388.83 68.6506C1387.32 69.8153 1385.5 70.3977 1383.36 70.3977ZM1383.36 67.2727C1385.48 67.2727 1387.13 66.25 1388.3 64.2045C1389.48 62.1591 1390.06 59.2424 1390.06 55.4545C1390.06 52.9356 1389.79 50.7907 1389.25 49.0199C1388.72 47.2491 1387.96 45.8996 1386.95 44.9716C1385.96 44.0436 1384.76 43.5795 1383.36 43.5795C1381.26 43.5795 1379.61 44.6165 1378.43 46.6903C1377.25 48.7547 1376.65 51.6761 1376.65 55.4545C1376.65 57.9735 1376.92 60.1136 1377.45 61.875C1377.98 63.6364 1378.74 64.9763 1379.74 65.8949C1380.74 66.8134 1381.95 67.2727 1383.36 67.2727Z" fill="black"/>
<defs>
<linearGradient id="paint0_linear_116_501" x1="720" y1="0" x2="720" y2="167" gradientUnits="userSpaceOnUse">
<stop stop-color="#FFD9D9"/>
<stop offset="1" stop-color="#C0F0ED"/>
</linearGradient>
</defs>
</svg>
