<svg width="1440" height="167" viewBox="0 0 1440 167" fill="none" xmlns="http://www.w3.org/2000/svg">
<rect x="0.5" y="0.5" width="1439" height="166" fill="url(#paint0_linear_116_504)" stroke="black"/>
<path d="M34.0227 81.0455V70.875H35.8977C36.5417 70.2879 37.1477 69.4593 37.7159 68.3892C38.2936 67.3097 38.7812 65.8703 39.179 64.071C39.5862 62.2623 39.8561 59.9659 39.9886 57.1818L40.6136 44.9091H57.8864V70.875H61.2386V80.9886H57.8864V74H37.375V81.0455H34.0227ZM40.1023 70.875H54.5341V48.0341H43.7955L43.3409 57.1818C43.2273 59.303 43.0284 61.2254 42.7443 62.9489C42.4602 64.6629 42.0956 66.1828 41.6506 67.5085C41.2055 68.8248 40.6894 69.947 40.1023 70.875ZM74.9709 74.4545C73.0012 74.4545 71.273 73.9858 69.7862 73.0483C68.3089 72.1108 67.1536 70.7992 66.3203 69.1136C65.4964 67.428 65.0845 65.4583 65.0845 63.2045C65.0845 60.9318 65.4964 58.9479 66.3203 57.2528C67.1536 55.5578 68.3089 54.2415 69.7862 53.304C71.273 52.3665 73.0012 51.8977 74.9709 51.8977C76.9406 51.8977 78.6641 52.3665 80.1413 53.304C81.6281 54.2415 82.7834 55.5578 83.6072 57.2528C84.4406 58.9479 84.8572 60.9318 84.8572 63.2045C84.8572 65.4583 84.4406 67.428 83.6072 69.1136C82.7834 70.7992 81.6281 72.1108 80.1413 73.0483C78.6641 73.9858 76.9406 74.4545 74.9709 74.4545ZM74.9709 71.4432C76.4671 71.4432 77.6982 71.0597 78.6641 70.2926C79.63 69.5256 80.3449 68.517 80.8089 67.267C81.273 66.017 81.505 64.6629 81.505 63.2045C81.505 61.7462 81.273 60.3873 80.8089 59.1278C80.3449 57.8684 79.63 56.8504 78.6641 56.0739C77.6982 55.2973 76.4671 54.9091 74.9709 54.9091C73.4747 54.9091 72.2436 55.2973 71.2777 56.0739C70.3118 56.8504 69.5968 57.8684 69.1328 59.1278C68.6688 60.3873 68.4368 61.7462 68.4368 63.2045C68.4368 64.6629 68.6688 66.017 69.1328 67.267C69.5968 68.517 70.3118 69.5256 71.2777 70.2926C72.2436 71.0597 73.4747 71.4432 74.9709 71.4432ZM98.8381 74.4545C96.7926 74.4545 95.0313 73.9716 93.554 73.0057C92.0767 72.0398 90.9403 70.7093 90.1449 69.0142C89.3494 67.3191 88.9517 65.3826 88.9517 63.2045C88.9517 60.9886 89.3589 59.0331 90.1733 57.3381C90.9972 55.6335 92.143 54.303 93.6108 53.3466C95.0881 52.3807 96.8116 51.8977 98.7812 51.8977C100.315 51.8977 101.698 52.1818 102.929 52.75C104.16 53.3182 105.169 54.1136 105.955 55.1364C106.741 56.1591 107.228 57.3523 107.418 58.7159H104.065C103.81 57.7216 103.241 56.8409 102.361 56.0739C101.49 55.2973 100.315 54.9091 98.8381 54.9091C97.5313 54.9091 96.3854 55.25 95.4006 55.9318C94.4252 56.6042 93.6629 57.5559 93.1136 58.7869C92.5739 60.0085 92.304 61.4432 92.304 63.0909C92.304 64.7765 92.5691 66.2443 93.0994 67.4943C93.6392 68.7443 94.3968 69.715 95.3722 70.4062C96.357 71.0975 97.5123 71.4432 98.8381 71.4432C99.7093 71.4432 100.5 71.2917 101.21 70.9886C101.92 70.6856 102.522 70.25 103.014 69.6818C103.507 69.1136 103.857 68.4318 104.065 67.6364H107.418C107.228 68.9242 106.759 70.0843 106.011 71.1165C105.273 72.1392 104.293 72.9536 103.071 73.5597C101.859 74.1562 100.448 74.4545 98.8381 74.4545ZM110.599 55.3068V52.1818H128.327V55.3068H121.168V74H117.815V55.3068H110.599ZM140.947 74.4545C138.978 74.4545 137.25 73.9858 135.763 73.0483C134.286 72.1108 133.13 70.7992 132.297 69.1136C131.473 67.428 131.061 65.4583 131.061 63.2045C131.061 60.9318 131.473 58.9479 132.297 57.2528C133.13 55.5578 134.286 54.2415 135.763 53.304C137.25 52.3665 138.978 51.8977 140.947 51.8977C142.917 51.8977 144.641 52.3665 146.118 53.304C147.605 54.2415 148.76 55.5578 149.584 57.2528C150.417 58.9479 150.834 60.9318 150.834 63.2045C150.834 65.4583 150.417 67.428 149.584 69.1136C148.76 70.7992 147.605 72.1108 146.118 73.0483C144.641 73.9858 142.917 74.4545 140.947 74.4545ZM140.947 71.4432C142.444 71.4432 143.675 71.0597 144.641 70.2926C145.607 69.5256 146.321 68.517 146.786 67.267C147.25 66.017 147.482 64.6629 147.482 63.2045C147.482 61.7462 147.25 60.3873 146.786 59.1278C146.321 57.8684 145.607 56.8504 144.641 56.0739C143.675 55.2973 142.444 54.9091 140.947 54.9091C139.451 54.9091 138.22 55.2973 137.254 56.0739C136.288 56.8504 135.573 57.8684 135.109 59.1278C134.645 60.3873 134.413 61.7462 134.413 63.2045C134.413 64.6629 134.645 66.017 135.109 67.267C135.573 68.517 136.288 69.5256 137.254 70.2926C138.22 71.0597 139.451 71.4432 140.947 71.4432ZM165.099 74.4545C162.996 74.4545 161.183 73.9905 159.658 73.0625C158.143 72.125 156.974 70.8182 156.15 69.142C155.335 67.4564 154.928 65.4962 154.928 63.2614C154.928 61.0265 155.335 59.0568 156.15 57.3523C156.974 55.6383 158.12 54.303 159.587 53.3466C161.065 52.3807 162.788 51.8977 164.758 51.8977C165.894 51.8977 167.016 52.0871 168.124 52.4659C169.232 52.8447 170.241 53.4602 171.15 54.3125C172.059 55.1553 172.783 56.2727 173.323 57.6648C173.863 59.0568 174.133 60.7708 174.133 62.8068V64.2273H157.315V61.3295H170.724C170.724 60.0985 170.478 59 169.985 58.0341C169.502 57.0682 168.811 56.3059 167.911 55.7472C167.021 55.1884 165.97 54.9091 164.758 54.9091C163.423 54.9091 162.267 55.2405 161.292 55.9034C160.326 56.5568 159.583 57.4091 159.062 58.4602C158.541 59.5114 158.281 60.6383 158.281 61.8409V63.7727C158.281 65.4205 158.565 66.8172 159.133 67.9631C159.71 69.0994 160.511 69.9659 161.533 70.5625C162.556 71.1496 163.745 71.4432 165.099 71.4432C165.979 71.4432 166.775 71.3201 167.485 71.0739C168.205 70.8182 168.825 70.4394 169.346 69.9375C169.867 69.4261 170.269 68.7917 170.553 68.0341L173.792 68.9432C173.451 70.0417 172.878 71.0076 172.073 71.8409C171.268 72.6648 170.274 73.3087 169.09 73.7727C167.906 74.2273 166.576 74.4545 165.099 74.4545ZM179.232 74V52.1818H188.153C190.501 52.1818 192.367 52.7121 193.749 53.7727C195.132 54.8333 195.823 56.2348 195.823 57.9773C195.823 59.303 195.43 60.3305 194.644 61.0597C193.858 61.7794 192.85 62.267 191.619 62.5227C192.424 62.6364 193.205 62.9205 193.962 63.375C194.729 63.8295 195.364 64.4545 195.866 65.25C196.368 66.036 196.619 67.0019 196.619 68.1477C196.619 69.2652 196.335 70.2642 195.766 71.1449C195.198 72.0256 194.384 72.7216 193.323 73.233C192.263 73.7443 190.994 74 189.516 74H179.232ZM182.414 70.9318H189.516C190.672 70.9318 191.576 70.6572 192.229 70.108C192.883 69.5587 193.21 68.8106 193.21 67.8636C193.21 66.7367 192.883 65.8513 192.229 65.2074C191.576 64.554 190.672 64.2273 189.516 64.2273H182.414V70.9318ZM182.414 61.3295H188.153C189.052 61.3295 189.824 61.2064 190.468 60.9602C191.112 60.7045 191.604 60.3447 191.945 59.8807C192.296 59.4072 192.471 58.8485 192.471 58.2045C192.471 57.286 192.087 56.5663 191.32 56.0455C190.553 55.5152 189.497 55.25 188.153 55.25H182.414V61.3295ZM210.557 74.4545C208.511 74.4545 206.75 73.9716 205.273 73.0057C203.795 72.0398 202.659 70.7093 201.864 69.0142C201.068 67.3191 200.67 65.3826 200.67 63.2045C200.67 60.9886 201.078 59.0331 201.892 57.3381C202.716 55.6335 203.862 54.303 205.33 53.3466C206.807 52.3807 208.53 51.8977 210.5 51.8977C212.034 51.8977 213.417 52.1818 214.648 52.75C215.879 53.3182 216.887 54.1136 217.673 55.1364C218.459 56.1591 218.947 57.3523 219.136 58.7159H215.784C215.528 57.7216 214.96 56.8409 214.08 56.0739C213.208 55.2973 212.034 54.9091 210.557 54.9091C209.25 54.9091 208.104 55.25 207.119 55.9318C206.144 56.6042 205.382 57.5559 204.832 58.7869C204.293 60.0085 204.023 61.4432 204.023 63.0909C204.023 64.7765 204.288 66.2443 204.818 67.4943C205.358 68.7443 206.116 69.715 207.091 70.4062C208.076 71.0975 209.231 71.4432 210.557 71.4432C211.428 71.4432 212.219 71.2917 212.929 70.9886C213.639 70.6856 214.241 70.25 214.733 69.6818C215.225 69.1136 215.576 68.4318 215.784 67.6364H219.136C218.947 68.9242 218.478 70.0843 217.73 71.1165C216.991 72.1392 216.011 72.9536 214.79 73.5597C213.578 74.1562 212.167 74.4545 210.557 74.4545ZM224.037 74V52.1818H227.389V61.6705H229.605L237.446 52.1818H241.764L232.957 62.6932L241.878 74H237.56L230.401 64.7955H227.389V74H224.037ZM253.487 74.4545C251.517 74.4545 249.789 73.9858 248.302 73.0483C246.825 72.1108 245.669 70.7992 244.836 69.1136C244.012 67.428 243.6 65.4583 243.6 63.2045C243.6 60.9318 244.012 58.9479 244.836 57.2528C245.669 55.5578 246.825 54.2415 248.302 53.304C249.789 52.3665 251.517 51.8977 253.487 51.8977C255.456 51.8977 257.18 52.3665 258.657 53.304C260.144 54.2415 261.299 55.5578 262.123 57.2528C262.956 58.9479 263.373 60.9318 263.373 63.2045C263.373 65.4583 262.956 67.428 262.123 69.1136C261.299 70.7992 260.144 72.1108 258.657 73.0483C257.18 73.9858 255.456 74.4545 253.487 74.4545ZM253.487 71.4432C254.983 71.4432 256.214 71.0597 257.18 70.2926C258.146 69.5256 258.861 68.517 259.325 67.267C259.789 66.017 260.021 64.6629 260.021 63.2045C260.021 61.7462 259.789 60.3873 259.325 59.1278C258.861 57.8684 258.146 56.8504 257.18 56.0739C256.214 55.2973 254.983 54.9091 253.487 54.9091C251.99 54.9091 250.759 55.2973 249.793 56.0739C248.827 56.8504 248.112 57.8684 247.648 59.1278C247.184 60.3873 246.952 61.7462 246.952 63.2045C246.952 64.6629 247.184 66.017 247.648 67.267C248.112 68.517 248.827 69.5256 249.793 70.2926C250.759 71.0597 251.99 71.4432 253.487 71.4432ZM281.956 52.1818V55.3068H271.842V74H268.49V52.1818H281.956ZM294.58 74.4545C292.611 74.4545 290.882 73.9858 289.396 73.0483C287.918 72.1108 286.763 70.7992 285.93 69.1136C285.106 67.428 284.694 65.4583 284.694 63.2045C284.694 60.9318 285.106 58.9479 285.93 57.2528C286.763 55.5578 287.918 54.2415 289.396 53.304C290.882 52.3665 292.611 51.8977 294.58 51.8977C296.55 51.8977 298.273 52.3665 299.751 53.304C301.237 54.2415 302.393 55.5578 303.217 57.2528C304.05 58.9479 304.467 60.9318 304.467 63.2045C304.467 65.4583 304.05 67.428 303.217 69.1136C302.393 70.7992 301.237 72.1108 299.751 73.0483C298.273 73.9858 296.55 74.4545 294.58 74.4545ZM294.58 71.4432C296.076 71.4432 297.308 71.0597 298.273 70.2926C299.239 69.5256 299.954 68.517 300.418 67.267C300.882 66.017 301.114 64.6629 301.114 63.2045C301.114 61.7462 300.882 60.3873 300.418 59.1278C299.954 57.8684 299.239 56.8504 298.273 56.0739C297.308 55.2973 296.076 54.9091 294.58 54.9091C293.084 54.9091 291.853 55.2973 290.887 56.0739C289.921 56.8504 289.206 57.8684 288.742 59.1278C288.278 60.3873 288.046 61.7462 288.046 63.2045C288.046 64.6629 288.278 66.017 288.742 67.267C289.206 68.517 289.921 69.5256 290.887 70.2926C291.853 71.0597 293.084 71.4432 294.58 71.4432ZM322.993 82.1818C322.425 82.1818 321.918 82.1345 321.473 82.0398C321.028 81.9545 320.72 81.8693 320.55 81.7841L321.402 78.8295C322.216 79.0379 322.936 79.1136 323.561 79.0568C324.186 79 324.74 78.7206 325.223 78.2188C325.715 77.7263 326.165 76.9261 326.572 75.8182L327.197 74.1136L319.129 52.1818H322.766L328.788 69.5682H329.016L335.038 52.1818H338.675L329.413 77.1818C328.997 78.3087 328.481 79.2415 327.865 79.9801C327.25 80.7282 326.535 81.2822 325.72 81.642C324.915 82.0019 324.006 82.1818 322.993 82.1818ZM339.332 74V70.875H340.127C340.781 70.875 341.325 70.7472 341.761 70.4915C342.196 70.2263 342.547 69.767 342.812 69.1136C343.086 68.4508 343.295 67.5322 343.437 66.358C343.588 65.1742 343.697 63.6686 343.763 61.8409L344.161 52.1818H358.707V74H355.354V55.3068H347.343L347.002 63.0909C346.926 64.8807 346.765 66.4574 346.519 67.821C346.282 69.1752 345.918 70.3116 345.425 71.2301C344.942 72.1487 344.299 72.84 343.494 73.304C342.689 73.768 341.68 74 340.468 74H339.332ZM367.3 74.2273C366.6 74.2273 365.998 73.9763 365.496 73.4744C364.995 72.9725 364.744 72.3712 364.744 71.6705C364.744 70.9697 364.995 70.3684 365.496 69.8665C365.998 69.3646 366.6 69.1136 367.3 69.1136C368.001 69.1136 368.603 69.3646 369.104 69.8665C369.606 70.3684 369.857 70.9697 369.857 71.6705C369.857 72.1345 369.739 72.5606 369.502 72.9489C369.275 73.3371 368.967 73.6496 368.579 73.8864C368.2 74.1136 367.774 74.2273 367.3 74.2273ZM387.975 74L400.987 48.2614V48.0341H385.987V44.9091H404.623V48.2045L391.668 74H387.975Z" fill="black"/>
<path d="M1153.24 34.9091V64H1149.72V38.6023H1149.55L1142.44 43.3182V39.7386L1149.72 34.9091H1153.24ZM1171.09 64.3977C1168.95 64.3977 1167.13 63.8153 1165.62 62.6506C1164.12 61.4763 1162.97 59.7765 1162.17 57.5511C1161.38 55.3163 1160.98 52.6174 1160.98 49.4545C1160.98 46.3106 1161.38 43.6259 1162.17 41.4006C1162.98 39.1657 1164.13 37.4612 1165.64 36.2869C1167.15 35.1032 1168.97 34.5114 1171.09 34.5114C1173.21 34.5114 1175.03 35.1032 1176.53 36.2869C1178.05 37.4612 1179.2 39.1657 1180 41.4006C1180.8 43.6259 1181.21 46.3106 1181.21 49.4545C1181.21 52.6174 1180.81 55.3163 1180.01 57.5511C1179.22 59.7765 1178.07 61.4763 1176.56 62.6506C1175.06 63.8153 1173.23 64.3977 1171.09 64.3977ZM1171.09 61.2727C1173.21 61.2727 1174.86 60.25 1176.04 58.2045C1177.21 56.1591 1177.8 53.2424 1177.8 49.4545C1177.8 46.9356 1177.53 44.7907 1176.99 43.0199C1176.46 41.2491 1175.69 39.8996 1174.69 38.9716C1173.69 38.0436 1172.5 37.5795 1171.09 37.5795C1168.99 37.5795 1167.35 38.6165 1166.16 40.6903C1164.98 42.7547 1164.39 45.6761 1164.39 49.4545C1164.39 51.9735 1164.65 54.1136 1165.18 55.875C1165.71 57.6364 1166.48 58.9763 1167.47 59.8949C1168.48 60.8134 1169.68 61.2727 1171.09 61.2727ZM1189.11 60.2784C1188.4 60.2784 1187.8 60.0275 1187.3 59.5256C1186.8 59.0237 1186.55 58.4223 1186.55 57.7216C1186.55 57.0208 1186.8 56.4195 1187.3 55.9176C1187.8 55.4157 1188.4 55.1648 1189.11 55.1648C1189.81 55.1648 1190.41 55.4157 1190.91 55.9176C1191.41 56.4195 1191.66 57.0208 1191.66 57.7216C1191.66 58.1856 1191.54 58.6117 1191.31 59C1191.08 59.3883 1190.77 59.7008 1190.38 59.9375C1190 60.1648 1189.58 60.2784 1189.11 60.2784ZM1189.11 45.5625C1188.4 45.5625 1187.8 45.3116 1187.3 44.8097C1186.8 44.3078 1186.55 43.7064 1186.55 43.0057C1186.55 42.3049 1186.8 41.7036 1187.3 41.2017C1187.8 40.6998 1188.4 40.4489 1189.11 40.4489C1189.81 40.4489 1190.41 40.6998 1190.91 41.2017C1191.41 41.7036 1191.66 42.3049 1191.66 43.0057C1191.66 43.4697 1191.54 43.8958 1191.31 44.2841C1191.08 44.6723 1190.77 44.9848 1190.38 45.2216C1190 45.4489 1189.58 45.5625 1189.11 45.5625ZM1207.11 64.3977C1204.97 64.3977 1203.15 63.8153 1201.64 62.6506C1200.13 61.4763 1198.98 59.7765 1198.19 57.5511C1197.39 55.3163 1197 52.6174 1197 49.4545C1197 46.3106 1197.39 43.6259 1198.19 41.4006C1198.99 39.1657 1200.15 37.4612 1201.65 36.2869C1203.17 35.1032 1204.99 34.5114 1207.11 34.5114C1209.23 34.5114 1211.04 35.1032 1212.55 36.2869C1214.06 37.4612 1215.22 39.1657 1216.02 41.4006C1216.82 43.6259 1217.22 46.3106 1217.22 49.4545C1217.22 52.6174 1216.83 55.3163 1216.03 57.5511C1215.23 59.7765 1214.08 61.4763 1212.58 62.6506C1211.07 63.8153 1209.25 64.3977 1207.11 64.3977ZM1207.11 61.2727C1209.23 61.2727 1210.88 60.25 1212.05 58.2045C1213.23 56.1591 1213.81 53.2424 1213.81 49.4545C1213.81 46.9356 1213.54 44.7907 1213 43.0199C1212.47 41.2491 1211.71 39.8996 1210.7 38.9716C1209.71 38.0436 1208.51 37.5795 1207.11 37.5795C1205.01 37.5795 1203.36 38.6165 1202.18 40.6903C1201 42.7547 1200.4 45.6761 1200.4 49.4545C1200.4 51.9735 1200.67 54.1136 1201.2 55.875C1201.73 57.6364 1202.49 58.9763 1203.49 59.8949C1204.49 60.8134 1205.7 61.2727 1207.11 61.2727ZM1232.11 64.3977C1229.97 64.3977 1228.15 63.8153 1226.64 62.6506C1225.13 61.4763 1223.98 59.7765 1223.19 57.5511C1222.39 55.3163 1222 52.6174 1222 49.4545C1222 46.3106 1222.39 43.6259 1223.19 41.4006C1223.99 39.1657 1225.15 37.4612 1226.65 36.2869C1228.17 35.1032 1229.99 34.5114 1232.11 34.5114C1234.23 34.5114 1236.04 35.1032 1237.55 36.2869C1239.06 37.4612 1240.22 39.1657 1241.02 41.4006C1241.82 43.6259 1242.22 46.3106 1242.22 49.4545C1242.22 52.6174 1241.83 55.3163 1241.03 57.5511C1240.23 59.7765 1239.08 61.4763 1237.58 62.6506C1236.07 63.8153 1234.25 64.3977 1232.11 64.3977ZM1232.11 61.2727C1234.23 61.2727 1235.88 60.25 1237.05 58.2045C1238.23 56.1591 1238.81 53.2424 1238.81 49.4545C1238.81 46.9356 1238.54 44.7907 1238 43.0199C1237.47 41.2491 1236.71 39.8996 1235.7 38.9716C1234.71 38.0436 1233.51 37.5795 1232.11 37.5795C1230.01 37.5795 1228.36 38.6165 1227.18 40.6903C1226 42.7547 1225.4 45.6761 1225.4 49.4545C1225.4 51.9735 1225.67 54.1136 1226.2 55.875C1226.73 57.6364 1227.49 58.9763 1228.49 59.8949C1229.49 60.8134 1230.7 61.2727 1232.11 61.2727ZM1271.43 47.892V51.017H1258.7V47.892H1271.43ZM1298.01 64.3977C1295.87 64.3977 1294.04 63.8153 1292.54 62.6506C1291.03 61.4763 1289.88 59.7765 1289.09 57.5511C1288.29 55.3163 1287.89 52.6174 1287.89 49.4545C1287.89 46.3106 1288.29 43.6259 1289.09 41.4006C1289.89 39.1657 1291.05 37.4612 1292.55 36.2869C1294.07 35.1032 1295.89 34.5114 1298.01 34.5114C1300.13 34.5114 1301.94 35.1032 1303.45 36.2869C1304.96 37.4612 1306.12 39.1657 1306.91 41.4006C1307.72 43.6259 1308.12 46.3106 1308.12 49.4545C1308.12 52.6174 1307.72 55.3163 1306.93 57.5511C1306.13 59.7765 1304.98 61.4763 1303.48 62.6506C1301.97 63.8153 1300.15 64.3977 1298.01 64.3977ZM1298.01 61.2727C1300.13 61.2727 1301.78 60.25 1302.95 58.2045C1304.13 56.1591 1304.71 53.2424 1304.71 49.4545C1304.71 46.9356 1304.44 44.7907 1303.9 43.0199C1303.37 41.2491 1302.61 39.8996 1301.6 38.9716C1300.61 38.0436 1299.41 37.5795 1298.01 37.5795C1295.91 37.5795 1294.26 38.6165 1293.08 40.6903C1291.9 42.7547 1291.3 45.6761 1291.3 49.4545C1291.3 51.9735 1291.57 54.1136 1292.1 55.875C1292.63 57.6364 1293.39 58.9763 1294.39 59.8949C1295.39 60.8134 1296.6 61.2727 1298.01 61.2727ZM1323.01 64.3977C1320.87 64.3977 1319.04 63.8153 1317.54 62.6506C1316.03 61.4763 1314.88 59.7765 1314.09 57.5511C1313.29 55.3163 1312.89 52.6174 1312.89 49.4545C1312.89 46.3106 1313.29 43.6259 1314.09 41.4006C1314.89 39.1657 1316.05 37.4612 1317.55 36.2869C1319.07 35.1032 1320.89 34.5114 1323.01 34.5114C1325.13 34.5114 1326.94 35.1032 1328.45 36.2869C1329.96 37.4612 1331.12 39.1657 1331.91 41.4006C1332.72 43.6259 1333.12 46.3106 1333.12 49.4545C1333.12 52.6174 1332.72 55.3163 1331.93 57.5511C1331.13 59.7765 1329.98 61.4763 1328.48 62.6506C1326.97 63.8153 1325.15 64.3977 1323.01 64.3977ZM1323.01 61.2727C1325.13 61.2727 1326.78 60.25 1327.95 58.2045C1329.13 56.1591 1329.71 53.2424 1329.71 49.4545C1329.71 46.9356 1329.44 44.7907 1328.9 43.0199C1328.37 41.2491 1327.61 39.8996 1326.6 38.9716C1325.61 38.0436 1324.41 37.5795 1323.01 37.5795C1320.91 37.5795 1319.26 38.6165 1318.08 40.6903C1316.9 42.7547 1316.3 45.6761 1316.3 49.4545C1316.3 51.9735 1316.57 54.1136 1317.1 55.875C1317.63 57.6364 1318.39 58.9763 1319.39 59.8949C1320.39 60.8134 1321.6 61.2727 1323.01 61.2727ZM1341.02 60.2784C1340.32 60.2784 1339.72 60.0275 1339.22 59.5256C1338.71 59.0237 1338.46 58.4223 1338.46 57.7216C1338.46 57.0208 1338.71 56.4195 1339.22 55.9176C1339.72 55.4157 1340.32 55.1648 1341.02 55.1648C1341.72 55.1648 1342.32 55.4157 1342.82 55.9176C1343.33 56.4195 1343.58 57.0208 1343.58 57.7216C1343.58 58.1856 1343.46 58.6117 1343.22 59C1342.99 59.3883 1342.69 59.7008 1342.3 59.9375C1341.92 60.1648 1341.49 60.2784 1341.02 60.2784ZM1341.02 45.5625C1340.32 45.5625 1339.72 45.3116 1339.22 44.8097C1338.71 44.3078 1338.46 43.7064 1338.46 43.0057C1338.46 42.3049 1338.71 41.7036 1339.22 41.2017C1339.72 40.6998 1340.32 40.4489 1341.02 40.4489C1341.72 40.4489 1342.32 40.6998 1342.82 41.2017C1343.33 41.7036 1343.58 42.3049 1343.58 43.0057C1343.58 43.4697 1343.46 43.8958 1343.22 44.2841C1342.99 44.6723 1342.69 44.9848 1342.3 45.2216C1341.92 45.4489 1341.49 45.5625 1341.02 45.5625ZM1359.02 64.3977C1356.88 64.3977 1355.06 63.8153 1353.55 62.6506C1352.05 61.4763 1350.9 59.7765 1350.1 57.5511C1349.31 55.3163 1348.91 52.6174 1348.91 49.4545C1348.91 46.3106 1349.31 43.6259 1350.1 41.4006C1350.91 39.1657 1352.06 37.4612 1353.57 36.2869C1355.08 35.1032 1356.9 34.5114 1359.02 34.5114C1361.14 34.5114 1362.96 35.1032 1364.46 36.2869C1365.98 37.4612 1367.13 39.1657 1367.93 41.4006C1368.73 43.6259 1369.14 46.3106 1369.14 49.4545C1369.14 52.6174 1368.74 55.3163 1367.94 57.5511C1367.15 59.7765 1366 61.4763 1364.49 62.6506C1362.99 63.8153 1361.16 64.3977 1359.02 64.3977ZM1359.02 61.2727C1361.14 61.2727 1362.79 60.25 1363.97 58.2045C1365.14 56.1591 1365.73 53.2424 1365.73 49.4545C1365.73 46.9356 1365.46 44.7907 1364.92 43.0199C1364.39 41.2491 1363.62 39.8996 1362.62 38.9716C1361.62 38.0436 1360.42 37.5795 1359.02 37.5795C1356.92 37.5795 1355.28 38.6165 1354.09 40.6903C1352.91 42.7547 1352.32 45.6761 1352.32 49.4545C1352.32 51.9735 1352.58 54.1136 1353.11 55.875C1353.64 57.6364 1354.41 58.9763 1355.4 59.8949C1356.41 60.8134 1357.61 61.2727 1359.02 61.2727ZM1384.02 64.3977C1381.88 64.3977 1380.06 63.8153 1378.55 62.6506C1377.05 61.4763 1375.9 59.7765 1375.1 57.5511C1374.31 55.3163 1373.91 52.6174 1373.91 49.4545C1373.91 46.3106 1374.31 43.6259 1375.1 41.4006C1375.91 39.1657 1377.06 37.4612 1378.57 36.2869C1380.08 35.1032 1381.9 34.5114 1384.02 34.5114C1386.14 34.5114 1387.96 35.1032 1389.46 36.2869C1390.98 37.4612 1392.13 39.1657 1392.93 41.4006C1393.73 43.6259 1394.14 46.3106 1394.14 49.4545C1394.14 52.6174 1393.74 55.3163 1392.94 57.5511C1392.15 59.7765 1391 61.4763 1389.49 62.6506C1387.99 63.8153 1386.16 64.3977 1384.02 64.3977ZM1384.02 61.2727C1386.14 61.2727 1387.79 60.25 1388.97 58.2045C1390.14 56.1591 1390.73 53.2424 1390.73 49.4545C1390.73 46.9356 1390.46 44.7907 1389.92 43.0199C1389.39 41.2491 1388.62 39.8996 1387.62 38.9716C1386.62 38.0436 1385.42 37.5795 1384.02 37.5795C1381.92 37.5795 1380.28 38.6165 1379.09 40.6903C1377.91 42.7547 1377.32 45.6761 1377.32 49.4545C1377.32 51.9735 1377.58 54.1136 1378.11 55.875C1378.64 57.6364 1379.41 58.9763 1380.4 59.8949C1381.41 60.8134 1382.61 61.2727 1384.02 61.2727Z" fill="black"/>
<path opacity="0.8" d="M48.5 149L40.5 138.318H37.6364V149H34.8182V125.727H37.6364V135.818H38.8636L48.1818 125.727H51.5455L42.1364 135.955L51.8636 149H48.5ZM60.2784 149.409C59.1723 149.409 58.1686 149.201 57.267 148.784C56.3655 148.36 55.6496 147.75 55.1193 146.955C54.589 146.152 54.3239 145.182 54.3239 144.045C54.3239 143.045 54.5208 142.235 54.9148 141.614C55.3087 140.985 55.8352 140.492 56.4943 140.136C57.1534 139.78 57.8807 139.515 58.6761 139.341C59.4792 139.159 60.286 139.015 61.0966 138.909C62.1572 138.773 63.017 138.67 63.6761 138.602C64.3428 138.527 64.8277 138.402 65.1307 138.227C65.4413 138.053 65.5966 137.75 65.5966 137.318V137.227C65.5966 136.106 65.2898 135.235 64.6761 134.614C64.0701 133.992 63.1496 133.682 61.9148 133.682C60.6345 133.682 59.6307 133.962 58.9034 134.523C58.1761 135.083 57.6648 135.682 57.3693 136.318L54.8239 135.409C55.2784 134.348 55.8845 133.523 56.642 132.932C57.4072 132.333 58.2405 131.917 59.142 131.682C60.0511 131.439 60.9451 131.318 61.8239 131.318C62.3845 131.318 63.0284 131.386 63.7557 131.523C64.4905 131.652 65.1989 131.92 65.8807 132.33C66.5701 132.739 67.142 133.356 67.5966 134.182C68.0511 135.008 68.2784 136.114 68.2784 137.5V149H65.5966V146.636H65.4602C65.2784 147.015 64.9754 147.42 64.5511 147.852C64.1269 148.284 63.5625 148.652 62.858 148.955C62.1534 149.258 61.2936 149.409 60.2784 149.409ZM60.6875 147C61.7481 147 62.642 146.792 63.3693 146.375C64.1042 145.958 64.6572 145.42 65.0284 144.761C65.4072 144.102 65.5966 143.409 65.5966 142.682V140.227C65.483 140.364 65.233 140.489 64.8466 140.602C64.4678 140.708 64.0284 140.803 63.5284 140.886C63.036 140.962 62.5549 141.03 62.0852 141.091C61.6231 141.144 61.2481 141.189 60.9602 141.227C60.2633 141.318 59.6117 141.466 59.0057 141.67C58.4072 141.867 57.9223 142.167 57.5511 142.568C57.1875 142.962 57.0057 143.5 57.0057 144.182C57.0057 145.114 57.3504 145.818 58.0398 146.295C58.7367 146.765 59.6193 147 60.6875 147ZM72.0824 144.545H74.946C75.0066 145.333 75.3627 145.932 76.0142 146.341C76.6733 146.75 77.5294 146.955 78.5824 146.955C79.6581 146.955 80.5786 146.735 81.3438 146.295C82.1089 145.848 82.4915 145.129 82.4915 144.136C82.4915 143.553 82.3475 143.045 82.0597 142.614C81.7718 142.174 81.3665 141.833 80.8438 141.591C80.321 141.348 79.7036 141.227 78.9915 141.227H75.9915V138.818H78.9915C80.0597 138.818 80.8475 138.576 81.3551 138.091C81.8703 137.606 82.1278 137 82.1278 136.273C82.1278 135.492 81.8513 134.867 81.2983 134.398C80.7453 133.92 79.9612 133.682 78.946 133.682C77.9233 133.682 77.071 133.913 76.3892 134.375C75.7074 134.83 75.3475 135.417 75.3097 136.136H72.4915C72.5218 135.197 72.8097 134.367 73.3551 133.648C73.9006 132.92 74.643 132.352 75.5824 131.943C76.5218 131.527 77.5975 131.318 78.8097 131.318C80.0369 131.318 81.1013 131.534 82.0028 131.966C82.9119 132.39 83.6127 132.97 84.1051 133.705C84.6051 134.432 84.8551 135.258 84.8551 136.182C84.8551 137.167 84.5786 137.962 84.0256 138.568C83.4725 139.174 82.7794 139.606 81.946 139.864V140.045C82.6051 140.091 83.1771 140.303 83.6619 140.682C84.1544 141.053 84.5369 141.542 84.8097 142.148C85.0824 142.746 85.2188 143.409 85.2188 144.136C85.2188 145.197 84.9347 146.121 84.3665 146.909C83.7983 147.689 83.018 148.295 82.0256 148.727C81.0331 149.152 79.9006 149.364 78.6278 149.364C77.393 149.364 76.2869 149.163 75.3097 148.761C74.3324 148.352 73.5559 147.788 72.9801 147.068C72.4119 146.341 72.1127 145.5 72.0824 144.545ZM94.1222 149.409C93.0161 149.409 92.0123 149.201 91.1108 148.784C90.2093 148.36 89.4934 147.75 88.9631 146.955C88.4328 146.152 88.1676 145.182 88.1676 144.045C88.1676 143.045 88.3646 142.235 88.7585 141.614C89.1525 140.985 89.679 140.492 90.3381 140.136C90.9972 139.78 91.7244 139.515 92.5199 139.341C93.3229 139.159 94.1297 139.015 94.9403 138.909C96.0009 138.773 96.8608 138.67 97.5199 138.602C98.1866 138.527 98.6714 138.402 98.9744 138.227C99.285 138.053 99.4403 137.75 99.4403 137.318V137.227C99.4403 136.106 99.1335 135.235 98.5199 134.614C97.9138 133.992 96.9934 133.682 95.7585 133.682C94.4782 133.682 93.4744 133.962 92.7472 134.523C92.0199 135.083 91.5085 135.682 91.2131 136.318L88.6676 135.409C89.1222 134.348 89.7282 133.523 90.4858 132.932C91.2509 132.333 92.0843 131.917 92.9858 131.682C93.8949 131.439 94.7888 131.318 95.6676 131.318C96.2282 131.318 96.8722 131.386 97.5994 131.523C98.3343 131.652 99.0426 131.92 99.7244 132.33C100.414 132.739 100.986 133.356 101.44 134.182C101.895 135.008 102.122 136.114 102.122 137.5V149H99.4403V146.636H99.304C99.1222 147.015 98.8191 147.42 98.3949 147.852C97.9706 148.284 97.4063 148.652 96.7017 148.955C95.9972 149.258 95.1373 149.409 94.1222 149.409ZM94.5312 147C95.5919 147 96.4858 146.792 97.2131 146.375C97.9479 145.958 98.5009 145.42 98.8722 144.761C99.2509 144.102 99.4403 143.409 99.4403 142.682V140.227C99.3267 140.364 99.0767 140.489 98.6903 140.602C98.3116 140.708 97.8722 140.803 97.3722 140.886C96.8797 140.962 96.3987 141.03 95.929 141.091C95.4669 141.144 95.0919 141.189 94.804 141.227C94.107 141.318 93.4555 141.466 92.8494 141.67C92.2509 141.867 91.7661 142.167 91.3949 142.568C91.0313 142.962 90.8494 143.5 90.8494 144.182C90.8494 145.114 91.1941 145.818 91.8835 146.295C92.5805 146.765 93.4631 147 94.5312 147ZM118.699 139.045V141.545H109.062V139.045H118.699ZM109.699 131.545V149H107.017V131.545H109.699ZM120.744 131.545V149H118.062V131.545H120.744ZM127.96 137.864H132.96C135.006 137.864 136.57 138.383 137.653 139.42C138.737 140.458 139.278 141.773 139.278 143.364C139.278 144.409 139.036 145.36 138.551 146.216C138.066 147.064 137.354 147.742 136.415 148.25C135.475 148.75 134.324 149 132.96 149H125.642V131.545H128.324V146.5H132.96C134.021 146.5 134.892 146.22 135.574 145.659C136.256 145.098 136.597 144.379 136.597 143.5C136.597 142.576 136.256 141.822 135.574 141.239C134.892 140.655 134.021 140.364 132.96 140.364H127.96V137.864Z" fill="black"/>
<defs>
<linearGradient id="paint0_linear_116_504" x1="720" y1="0" x2="720" y2="167" gradientUnits="userSpaceOnUse">
<stop stop-color="#FFD9D9"/>
<stop offset="1" stop-color="#C0F0ED"/>
</linearGradient>
</defs>
</svg>
