<svg width="136" height="109" viewBox="0 0 136 109" fill="none" xmlns="http://www.w3.org/2000/svg">
<rect x="0.5" y="0.5" width="135" height="108" fill="url(#paint0_linear_108_491)" stroke="black"/>
<path d="M55.0455 19.7273H57.8636V27.5C57.8636 28.6515 58.0644 29.5568 58.4659 30.2159C58.8674 30.8674 59.4356 31.3295 60.1705 31.6023C60.9053 31.8674 61.7727 32 62.7727 32C63.4015 32 64.0114 31.9773 64.6023 31.9318C65.1932 31.8788 65.7689 31.8068 66.3295 31.7159C66.8977 31.625 67.4508 31.5152 67.9886 31.3864C68.5341 31.2576 69.0682 31.1136 69.5909 30.9545V33.5C69.0833 33.6591 68.5795 33.803 68.0795 33.9318C67.5871 34.0606 67.072 34.1705 66.5341 34.2614C66.0038 34.3523 65.4318 34.4242 64.8182 34.4773C64.2045 34.5227 63.5227 34.5455 62.7727 34.5455C61.1667 34.5455 59.7841 34.3144 58.625 33.8523C57.4735 33.3902 56.5871 32.6439 55.9659 31.6136C55.3523 30.5833 55.0455 29.2121 55.0455 27.5V19.7273ZM69.2273 19.7273H72.0455V43H69.2273V19.7273ZM76.3295 28.0455V25.5455H90.5114V28.0455H84.7841V43H82.1023V28.0455H76.3295Z" fill="black"/>
<path d="M61.0142 64.9091V94H54.8636V70.7472H54.6932L48.0312 74.9233V69.4688L55.233 64.9091H61.0142ZM67.4879 88.8864V84.0426L79.6328 64.9091H83.8089V71.6136H81.3374L73.6811 83.7301V83.9574H90.9396V88.8864H67.4879ZM81.451 94V87.4091L81.5646 85.2642V64.9091H87.3317V94H81.451Z" fill="black"/>
<defs>
<linearGradient id="paint0_linear_108_491" x1="68" y1="0" x2="68" y2="109" gradientUnits="userSpaceOnUse">
<stop stop-color="#FFD9D9"/>
<stop offset="1" stop-color="#FFD9D9" stop-opacity="0"/>
</linearGradient>
</defs>
</svg>
