<svg width="8" height="8" viewBox="0 0 8 8" fill="none" xmlns="http://www.w3.org/2000/svg">
<path d="M4 8C6.20914 8 8 6.20914 8 4V0H0V4C0 6.20914 1.79086 8 4 8Z" fill="#810024"/>
<path fill-rule="evenodd" clip-rule="evenodd" d="M0.535034 6.00001C1.22665 4.8044 2.51934 4 3.99991 4C5.48047 4 6.77316 4.80439 7.46478 5.99999C6.77316 7.1956 5.48047 8 3.9999 8C2.51934 8 1.22665 7.19561 0.535034 6.00001Z" fill="#FF759B"/>
<path d="M1 0H7V1C7 1.55228 6.55228 2 6 2H2C1.44772 2 1 1.55228 1 1V0Z" fill="white"/>
</svg>
