<svg width="346" height="104" viewBox="0 0 346 104" fill="none" xmlns="http://www.w3.org/2000/svg">
<rect width="346" height="104" fill="#FFD9D9"/>
<path d="M92.9318 43.0341V39.9091H114.75V43.0341H105.602V69H102.08V43.0341H92.9318ZM123.184 69.5114C121.801 69.5114 120.547 69.2509 119.42 68.7301C118.293 68.1998 117.398 67.4375 116.735 66.4432C116.072 65.4394 115.741 64.2273 115.741 62.8068C115.741 61.5568 115.987 60.5436 116.479 59.767C116.972 58.9811 117.63 58.3655 118.454 57.9205C119.278 57.4754 120.187 57.1439 121.181 56.9261C122.185 56.6989 123.193 56.5189 124.207 56.3864C125.532 56.2159 126.607 56.0881 127.431 56.0028C128.264 55.9081 128.871 55.7519 129.249 55.5341C129.638 55.3163 129.832 54.9375 129.832 54.3977V54.2841C129.832 52.8826 129.448 51.7936 128.681 51.017C127.924 50.2405 126.773 49.8523 125.229 49.8523C123.629 49.8523 122.374 50.2027 121.465 50.9034C120.556 51.6042 119.917 52.3523 119.548 53.1477L116.366 52.0114C116.934 50.6856 117.692 49.6534 118.638 48.9148C119.595 48.1667 120.637 47.6458 121.763 47.3523C122.9 47.0492 124.017 46.8977 125.116 46.8977C125.817 46.8977 126.621 46.983 127.531 47.1534C128.449 47.3144 129.335 47.6506 130.187 48.1619C131.049 48.6733 131.763 49.4451 132.332 50.4773C132.9 51.5095 133.184 52.892 133.184 54.625V69H129.832V66.0455H129.661C129.434 66.5189 129.055 67.0256 128.525 67.5653C127.995 68.1051 127.289 68.5644 126.408 68.9432C125.528 69.322 124.453 69.5114 123.184 69.5114ZM123.695 66.5C125.021 66.5 126.138 66.2396 127.048 65.7188C127.966 65.1979 128.657 64.5256 129.121 63.7017C129.595 62.8778 129.832 62.0114 129.832 61.1023V58.0341C129.69 58.2045 129.377 58.3608 128.894 58.5028C128.421 58.6354 127.871 58.7538 127.246 58.858C126.631 58.9527 126.03 59.0379 125.442 59.1136C124.865 59.1799 124.396 59.2367 124.036 59.2841C123.165 59.3977 122.351 59.5824 121.593 59.8381C120.845 60.0843 120.239 60.4583 119.775 60.9602C119.32 61.4527 119.093 62.125 119.093 62.9773C119.093 64.142 119.524 65.0227 120.386 65.6193C121.257 66.2064 122.36 66.5 123.695 66.5ZM155.496 39L157.2 41.0455C156.537 41.6894 155.77 42.1392 154.899 42.3949C154.028 42.6506 153.043 42.8068 151.945 42.8636C150.846 42.9205 149.625 42.9773 148.28 43.0341C146.765 43.0909 145.51 43.4602 144.516 44.142C143.521 44.8239 142.754 45.8087 142.214 47.0966C141.675 48.3845 141.329 49.9659 141.178 51.8409H141.462C142.2 50.4773 143.223 49.4735 144.53 48.8295C145.837 48.1856 147.238 47.8636 148.734 47.8636C150.439 47.8636 151.973 48.2614 153.337 49.0568C154.7 49.8523 155.78 51.0312 156.575 52.5938C157.371 54.1562 157.768 56.0833 157.768 58.375C157.768 60.6572 157.361 62.6269 156.547 64.2841C155.742 65.9413 154.61 67.2197 153.152 68.1193C151.703 69.0095 150.003 69.4545 148.053 69.4545C146.102 69.4545 144.393 68.9953 142.925 68.0767C141.457 67.1487 140.316 65.7756 139.501 63.9574C138.687 62.1297 138.28 59.8712 138.28 57.1818V54.8523C138.28 49.9943 139.104 46.3106 140.751 43.8011C142.409 41.2917 144.899 39.9943 148.223 39.9091C149.397 39.8712 150.444 39.8617 151.362 39.8807C152.281 39.8996 153.081 39.857 153.763 39.7528C154.445 39.6487 155.022 39.3977 155.496 39ZM148.053 66.4432C149.369 66.4432 150.5 66.1117 151.447 65.4489C152.404 64.786 153.138 63.8532 153.649 62.6506C154.161 61.4384 154.416 60.0133 154.416 58.375C154.416 56.7841 154.156 55.4299 153.635 54.3125C153.124 53.1951 152.39 52.3428 151.433 51.7557C150.477 51.1686 149.331 50.875 147.996 50.875C147.02 50.875 146.144 51.0407 145.368 51.3722C144.591 51.7036 143.929 52.1913 143.379 52.8352C142.83 53.4792 142.404 54.2652 142.101 55.1932C141.807 56.1212 141.651 57.1818 141.632 58.375C141.632 60.8182 142.205 62.7737 143.351 64.2415C144.497 65.7093 146.064 66.4432 148.053 66.4432ZM172.044 69.4545C169.942 69.4545 168.128 68.9905 166.604 68.0625C165.089 67.125 163.919 65.8182 163.095 64.142C162.281 62.4564 161.874 60.4962 161.874 58.2614C161.874 56.0265 162.281 54.0568 163.095 52.3523C163.919 50.6383 165.065 49.303 166.533 48.3466C168.01 47.3807 169.733 46.8977 171.703 46.8977C172.839 46.8977 173.962 47.0871 175.07 47.4659C176.178 47.8447 177.186 48.4602 178.095 49.3125C179.004 50.1553 179.729 51.2727 180.268 52.6648C180.808 54.0568 181.078 55.7708 181.078 57.8068V59.2273H164.26V56.3295H177.669C177.669 55.0985 177.423 54 176.93 53.0341C176.447 52.0682 175.756 51.3059 174.857 50.7472C173.966 50.1884 172.915 49.9091 171.703 49.9091C170.368 49.9091 169.213 50.2405 168.237 50.9034C167.271 51.5568 166.528 52.4091 166.007 53.4602C165.486 54.5114 165.226 55.6383 165.226 56.8409V58.7727C165.226 60.4205 165.51 61.8172 166.078 62.9631C166.656 64.0994 167.456 64.9659 168.479 65.5625C169.501 66.1496 170.69 66.4432 172.044 66.4432C172.925 66.4432 173.72 66.3201 174.43 66.0739C175.15 65.8182 175.77 65.4394 176.291 64.9375C176.812 64.4261 177.214 63.7917 177.499 63.0341L180.737 63.9432C180.396 65.0417 179.823 66.0076 179.018 66.8409C178.214 67.6648 177.219 68.3087 176.036 68.7727C174.852 69.2273 173.521 69.4545 172.044 69.4545ZM184.246 69V65.875H185.041C185.695 65.875 186.239 65.7472 186.675 65.4915C187.11 65.2263 187.461 64.767 187.726 64.1136C188 63.4508 188.209 62.5322 188.351 61.358C188.502 60.1742 188.611 58.6686 188.678 56.8409L189.075 47.1818H203.621V69H200.268V50.3068H192.257L191.916 58.0909C191.84 59.8807 191.679 61.4574 191.433 62.821C191.196 64.1752 190.832 65.3116 190.339 66.2301C189.857 67.1487 189.213 67.84 188.408 68.304C187.603 68.768 186.594 69 185.382 69H184.246ZM212.669 55.0795H218.919C221.476 55.0795 223.431 55.7282 224.786 57.0256C226.14 58.3229 226.817 59.9659 226.817 61.9545C226.817 63.2614 226.514 64.4498 225.908 65.5199C225.302 66.5805 224.411 67.428 223.237 68.0625C222.063 68.6875 220.624 69 218.919 69H209.771V47.1818H213.124V65.875H218.919C220.245 65.875 221.334 65.5246 222.186 64.8239C223.038 64.1231 223.464 63.2235 223.464 62.125C223.464 60.9697 223.038 60.0275 222.186 59.2983C221.334 58.5691 220.245 58.2045 218.919 58.2045H212.669V55.0795Z" fill="black"/>
</svg>
