<svg width="136" height="109" viewBox="0 0 136 109" fill="none" xmlns="http://www.w3.org/2000/svg">
<rect x="0.5" y="0.5" width="135" height="108" fill="url(#paint0_linear_108_494)" stroke="black"/>
<path d="M51.8182 41V17.7273H59.9545C61.5758 17.7273 62.9129 18.0076 63.9659 18.5682C65.0189 19.1212 65.803 19.8674 66.3182 20.8068C66.8333 21.7386 67.0909 22.7727 67.0909 23.9091C67.0909 24.9091 66.9129 25.7348 66.5568 26.3864C66.2083 27.0379 65.7462 27.553 65.1705 27.9318C64.6023 28.3106 63.9848 28.5909 63.3182 28.7727V29C64.0303 29.0455 64.7462 29.2955 65.4659 29.75C66.1856 30.2045 66.7879 30.8561 67.2727 31.7045C67.7576 32.553 68 33.5909 68 34.8182C68 35.9848 67.7348 37.0341 67.2045 37.9659C66.6742 38.8977 65.8371 39.6364 64.6932 40.1818C63.5492 40.7273 62.0606 41 60.2273 41H51.8182ZM54.6364 38.5H60.2273C62.0682 38.5 63.375 38.1439 64.1477 37.4318C64.928 36.7121 65.3182 35.8409 65.3182 34.8182C65.3182 34.0303 65.1174 33.303 64.7159 32.6364C64.3144 31.9621 63.7424 31.4242 63 31.0227C62.2576 30.6136 61.3788 30.4091 60.3636 30.4091H54.6364V38.5ZM54.6364 27.9545H59.8636C60.7121 27.9545 61.4773 27.7879 62.1591 27.4545C62.8485 27.1212 63.3939 26.6515 63.7955 26.0455C64.2045 25.4394 64.4091 24.7273 64.4091 23.9091C64.4091 22.8864 64.053 22.0189 63.3409 21.3068C62.6288 20.5871 61.5 20.2273 59.9545 20.2273H54.6364V27.9545ZM79.358 41.3636C77.7216 41.3636 76.3125 40.9773 75.1307 40.2045C73.9489 39.4318 73.0398 38.3674 72.4034 37.0114C71.767 35.6553 71.4489 34.1061 71.4489 32.3636C71.4489 30.5909 71.7746 29.0265 72.4261 27.6705C73.0852 26.3068 74.0019 25.2424 75.1761 24.4773C76.358 23.7045 77.7367 23.3182 79.3125 23.3182C80.5398 23.3182 81.6458 23.5455 82.6307 24C83.6155 24.4545 84.4223 25.0909 85.0511 25.9091C85.6799 26.7273 86.0701 27.6818 86.2216 28.7727H83.5398C83.3352 27.9773 82.8807 27.2727 82.1761 26.6591C81.4792 26.0379 80.5398 25.7273 79.358 25.7273C78.3125 25.7273 77.3958 26 76.608 26.5455C75.8277 27.0833 75.2178 27.8447 74.7784 28.8295C74.3466 29.8068 74.1307 30.9545 74.1307 32.2727C74.1307 33.6212 74.3428 34.7955 74.767 35.7955C75.1989 36.7955 75.8049 37.572 76.5852 38.125C77.3731 38.678 78.2973 38.9545 79.358 38.9545C80.0549 38.9545 80.6875 38.8333 81.2557 38.5909C81.8239 38.3485 82.3049 38 82.6989 37.5455C83.0928 37.0909 83.3731 36.5455 83.5398 35.9091H86.2216C86.0701 36.9394 85.6951 37.8674 85.0966 38.6932C84.5057 39.5114 83.7216 40.1629 82.7443 40.6477C81.7746 41.125 80.6458 41.3636 79.358 41.3636Z" fill="black"/>
<path d="M64.0142 64.9091V94H57.8636V70.7472H57.6932L51.0312 74.9233V69.4688L58.233 64.9091H64.0142ZM72.0788 94L84.1385 70.1364V69.9375H70.0902V64.9091H90.5021V70.0085L78.4283 94H72.0788Z" fill="black"/>
<defs>
<linearGradient id="paint0_linear_108_494" x1="68" y1="0" x2="68" y2="109" gradientUnits="userSpaceOnUse">
<stop stop-color="#FFD9D9"/>
<stop offset="1" stop-color="#FFD9D9" stop-opacity="0"/>
</linearGradient>
</defs>
</svg>
