<svg width="136" height="109" viewBox="0 0 136 109" fill="none" xmlns="http://www.w3.org/2000/svg">
<rect x="0.5" y="0.5" width="135" height="108" fill="url(#paint0_linear_108_489)" stroke="black"/>
<path d="M50.8182 45V21.7273H58.9545C60.5758 21.7273 61.9129 22.0076 62.9659 22.5682C64.0189 23.1212 64.803 23.8674 65.3182 24.8068C65.8333 25.7386 66.0909 26.7727 66.0909 27.9091C66.0909 28.9091 65.9129 29.7348 65.5568 30.3864C65.2083 31.0379 64.7462 31.553 64.1705 31.9318C63.6023 32.3106 62.9848 32.5909 62.3182 32.7727V33C63.0303 33.0455 63.7462 33.2955 64.4659 33.75C65.1856 34.2045 65.7879 34.8561 66.2727 35.7045C66.7576 36.553 67 37.5909 67 38.8182C67 39.9848 66.7348 41.0341 66.2045 41.9659C65.6742 42.8977 64.8371 43.6364 63.6932 44.1818C62.5492 44.7273 61.0606 45 59.2273 45H50.8182ZM53.6364 42.5H59.2273C61.0682 42.5 62.375 42.1439 63.1477 41.4318C63.928 40.7121 64.3182 39.8409 64.3182 38.8182C64.3182 38.0303 64.1174 37.303 63.7159 36.6364C63.3144 35.9621 62.7424 35.4242 62 35.0227C61.2576 34.6136 60.3788 34.4091 59.3636 34.4091H53.6364V42.5ZM53.6364 31.9545H58.8636C59.7121 31.9545 60.4773 31.7879 61.1591 31.4545C61.8485 31.1212 62.3939 30.6515 62.7955 30.0455C63.2045 29.4394 63.4091 28.7273 63.4091 27.9091C63.4091 26.8864 63.053 26.0189 62.3409 25.3068C61.6288 24.5871 60.5 24.2273 58.9545 24.2273H53.6364V31.9545ZM70.267 30.0455V27.5455H84.4489V30.0455H78.7216V45H76.0398V30.0455H70.267Z" fill="black"/>
<path d="M63.0142 62.9091V92H56.8636V68.7472H56.6932L50.0312 72.9233V67.4688L57.233 62.9091H63.0142ZM69.9283 92V87.5682L80.2834 77.9801C81.1641 77.1278 81.9027 76.3608 82.4993 75.679C83.1054 74.9972 83.5646 74.3295 83.8771 73.6761C84.1896 73.0133 84.3459 72.2983 84.3459 71.5312C84.3459 70.679 84.1518 69.9451 83.7635 69.3295C83.3752 68.7045 82.8449 68.2263 82.1726 67.8949C81.5002 67.554 80.7379 67.3835 79.8857 67.3835C78.9955 67.3835 78.219 67.5634 77.5561 67.9233C76.8932 68.2831 76.3819 68.7992 76.022 69.4716C75.6622 70.1439 75.4822 70.9441 75.4822 71.8722H69.6442C69.6442 69.9687 70.075 68.3163 70.9368 66.9148C71.7985 65.5133 73.0059 64.429 74.5589 63.6619C76.112 62.8949 77.9018 62.5114 79.9283 62.5114C82.0116 62.5114 83.825 62.8807 85.3686 63.6193C86.9216 64.3485 88.129 65.3617 88.9908 66.6591C89.8525 67.9564 90.2834 69.4432 90.2834 71.1193C90.2834 72.2178 90.0656 73.3021 89.63 74.3722C89.2038 75.4422 88.4415 76.6307 87.343 77.9375C86.2446 79.2348 84.6963 80.7926 82.6982 82.6108L78.451 86.7727V86.9716H90.6669V92H69.9283Z" fill="black"/>
<defs>
<linearGradient id="paint0_linear_108_489" x1="68" y1="0" x2="68" y2="109" gradientUnits="userSpaceOnUse">
<stop stop-color="#FFD9D9"/>
<stop offset="1" stop-color="#FFD9D9" stop-opacity="0"/>
</linearGradient>
</defs>
</svg>
