<svg width="346" height="104" viewBox="0 0 346 104" fill="none" xmlns="http://www.w3.org/2000/svg">
<rect width="346" height="104" fill="#FFD9D9"/>
<path d="M103.841 67.3977C101.966 67.3977 100.295 67.0758 98.8267 66.4318C97.3684 65.7879 96.2083 64.893 95.3466 63.7472C94.4943 62.5919 94.0303 61.2519 93.9545 59.7273H97.5341C97.6098 60.6648 97.9318 61.4744 98.5 62.1562C99.0682 62.8286 99.8116 63.3494 100.73 63.7188C101.649 64.0881 102.667 64.2727 103.784 64.2727C105.034 64.2727 106.142 64.0549 107.108 63.6193C108.074 63.1837 108.831 62.5777 109.381 61.8011C109.93 61.0246 110.205 60.125 110.205 59.1023C110.205 58.0322 109.939 57.09 109.409 56.2756C108.879 55.4517 108.102 54.8078 107.08 54.3438C106.057 53.8797 104.807 53.6477 103.33 53.6477H101V50.5227H103.33C104.485 50.5227 105.498 50.3144 106.369 49.8977C107.25 49.4811 107.937 48.8939 108.429 48.1364C108.931 47.3788 109.182 46.4886 109.182 45.4659C109.182 44.4811 108.964 43.6241 108.528 42.8949C108.093 42.1657 107.477 41.5975 106.682 41.1903C105.896 40.7831 104.968 40.5795 103.898 40.5795C102.894 40.5795 101.947 40.7642 101.057 41.1335C100.176 41.4934 99.4564 42.0189 98.8977 42.7102C98.339 43.392 98.036 44.2159 97.9886 45.1818H94.5795C94.6364 43.6572 95.0956 42.322 95.9574 41.1761C96.8191 40.0208 97.946 39.1212 99.3381 38.4773C100.74 37.8333 102.278 37.5114 103.955 37.5114C105.754 37.5114 107.297 37.8759 108.585 38.6051C109.873 39.3248 110.863 40.2765 111.554 41.4602C112.245 42.6439 112.591 43.9223 112.591 45.2955C112.591 46.9337 112.16 48.3305 111.298 49.4858C110.446 50.6411 109.286 51.4413 107.818 51.8864V52.1136C109.655 52.4167 111.09 53.1979 112.122 54.4574C113.154 55.7074 113.67 57.2557 113.67 59.1023C113.67 60.6837 113.24 62.1042 112.378 63.3636C111.526 64.6136 110.361 65.5985 108.884 66.3182C107.406 67.0379 105.725 67.3977 103.841 67.3977ZM125.957 67.5114C124.575 67.5114 123.32 67.2509 122.193 66.7301C121.066 66.1998 120.171 65.4375 119.509 64.4432C118.846 63.4394 118.514 62.2273 118.514 60.8068C118.514 59.5568 118.76 58.5436 119.253 57.767C119.745 56.9811 120.403 56.3655 121.227 55.9205C122.051 55.4754 122.96 55.1439 123.955 54.9261C124.958 54.6989 125.967 54.5189 126.98 54.3864C128.306 54.2159 129.381 54.0881 130.205 54.0028C131.038 53.9081 131.644 53.7519 132.023 53.5341C132.411 53.3163 132.605 52.9375 132.605 52.3977V52.2841C132.605 50.8826 132.222 49.7936 131.455 49.017C130.697 48.2405 129.546 47.8523 128.003 47.8523C126.402 47.8523 125.148 48.2027 124.239 48.9034C123.33 49.6042 122.69 50.3523 122.321 51.1477L119.139 50.0114C119.707 48.6856 120.465 47.6534 121.412 46.9148C122.368 46.1667 123.41 45.6458 124.537 45.3523C125.673 45.0492 126.791 44.8977 127.889 44.8977C128.59 44.8977 129.395 44.983 130.304 45.1534C131.223 45.3144 132.108 45.6506 132.96 46.1619C133.822 46.6733 134.537 47.4451 135.105 48.4773C135.673 49.5095 135.957 50.892 135.957 52.625V67H132.605V64.0455H132.435C132.207 64.5189 131.829 65.0256 131.298 65.5653C130.768 66.1051 130.063 66.5644 129.182 66.9432C128.301 67.322 127.226 67.5114 125.957 67.5114ZM126.469 64.5C127.795 64.5 128.912 64.2396 129.821 63.7188C130.74 63.1979 131.431 62.5256 131.895 61.7017C132.368 60.8778 132.605 60.0114 132.605 59.1023V56.0341C132.463 56.2045 132.151 56.3608 131.668 56.5028C131.194 56.6354 130.645 56.7538 130.02 56.858C129.404 56.9527 128.803 57.0379 128.216 57.1136C127.638 57.1799 127.17 57.2367 126.81 57.2841C125.938 57.3977 125.124 57.5824 124.366 57.8381C123.618 58.0843 123.012 58.4583 122.548 58.9602C122.094 59.4527 121.866 60.125 121.866 60.9773C121.866 62.142 122.297 63.0227 123.159 63.6193C124.03 64.2064 125.134 64.5 126.469 64.5ZM155.201 67V48.25H149.406C148.099 48.25 147.071 48.553 146.323 49.1591C145.575 49.7652 145.201 50.5985 145.201 51.6591C145.201 52.7008 145.537 53.5199 146.21 54.1165C146.891 54.7131 147.824 55.0114 149.008 55.0114H156.053V58.1364H149.008C147.531 58.1364 146.257 57.8759 145.187 57.3551C144.117 56.8343 143.293 56.0909 142.715 55.125C142.138 54.1496 141.849 52.9943 141.849 51.6591C141.849 50.3144 142.152 49.1591 142.758 48.1932C143.364 47.2273 144.23 46.4839 145.357 45.9631C146.494 45.4422 147.843 45.1818 149.406 45.1818H158.383V67H155.201ZM140.656 67L146.849 56.1477H150.485L144.292 67H140.656ZM164.537 67V45.1818H173.457C175.806 45.1818 177.671 45.7121 179.054 46.7727C180.437 47.8333 181.128 49.2348 181.128 50.9773C181.128 52.303 180.735 53.3305 179.949 54.0597C179.163 54.7794 178.154 55.267 176.923 55.5227C177.728 55.6364 178.509 55.9205 179.267 56.375C180.034 56.8295 180.669 57.4545 181.17 58.25C181.672 59.036 181.923 60.0019 181.923 61.1477C181.923 62.2652 181.639 63.2642 181.071 64.1449C180.503 65.0256 179.688 65.7216 178.628 66.233C177.567 66.7443 176.298 67 174.821 67H164.537ZM167.719 63.9318H174.821C175.976 63.9318 176.881 63.6572 177.534 63.108C178.188 62.5587 178.514 61.8106 178.514 60.8636C178.514 59.7367 178.188 58.8513 177.534 58.2074C176.881 57.554 175.976 57.2273 174.821 57.2273H167.719V63.9318ZM167.719 54.3295H173.457C174.357 54.3295 175.129 54.2064 175.773 53.9602C176.417 53.7045 176.909 53.3447 177.25 52.8807C177.6 52.4072 177.776 51.8485 177.776 51.2045C177.776 50.286 177.392 49.5663 176.625 49.0455C175.858 48.5152 174.802 48.25 173.457 48.25H167.719V54.3295ZM186.998 67V45.1818H190.35V54.6705H192.566L200.407 45.1818H204.725L195.918 55.6932L204.839 67H200.521L193.362 57.7955H190.35V67H186.998ZM211.835 62.0568L222.346 45.1818H226.21V67H222.857V50.125L212.403 67H208.482V45.1818H211.835V62.0568Z" fill="black"/>
</svg>
